  0
SECTION
  2
HEADER
  9
$ACADVER
  1
AC1018
  9
$ACADMAINTVER
 70
     0
  9
$DWGCODEPAGE
  3
ANSI_1252
  9
$EXTMIN
 10
-114.816590999645
 20
31.3322390000991
 30
0.0
  9
$EXTMAX
 10
-109.045171999956
 20
37.0037249997718
 30
0.0
  9
$LIMMIN
 10
0.0
 20
0.0
  9
$LIMMAX
 10
12.0
 20
9.0
  9
$ORTHOMODE
 70
     0
  9
$REGENMODE
 70
     1
  9
$FILLMODE
 70
     1
  9
$QTEXTMODE
 70
     0
  9
$MIRRTEXT
 70
     1
  9
$LTSCALE
 40
1.0
  9
$ATTMODE
 70
     1
  9
$TEXTSIZE
 40
0.2
  9
$TRACEWID
 40
0.05
  9
$TEXTSTYLE
  7
Standard
  9
$CLAYER
  8
0
  9
$CELTYPE
  6
ByLayer
  9
$CECOLOR
 62
   256
  9
$CELTSCALE
 40
1.0
  9
$DISPSILH
 70
     0
  9
$LUNITS
 70
     2
  9
$LUPREC
 70
     4
  9
$SKETCHINC
 40
0.1
  9
$FILLETRAD
 40
0.5
  9
$AUNITS
 70
     0
  9
$AUPREC
 70
     0
  9
$MENU
  1
.
  9
$ELEVATION
 40
0.0
  9
$PELEVATION
 40
0.0
  9
$THICKNESS
 40
0.0
  9
$LIMCHECK
 70
     0
  9
$CHAMFERA
 40
0.5
  9
$CHAMFERB
 40
0.5
  9
$CHAMFERC
 40
1.0
  9
$CHAMFERD
 40
0.0
  9
$SKPOLY
 70
     0
  9
$ANGBASE
 50
0.0
  9
$ANGDIR
 70
     0
  9
$PDMODE
 70
     0
  9
$PDSIZE
 40
0.0
  9
$PLINEWID
 40
0.0
  9
$SPLFRAME
 70
     0
  9
$SPLINETYPE
 70
     6
  9
$SPLINESEGS
 70
     8
  9
$HANDSEED
  5
00020001
  9
$SURFTAB1
 70
     6
  9
$SURFTAB2
 70
     6
  9
$SURFTYPE
 70
     6
  9
$SURFU
 70
     6
  9
$SURFV
 70
     6
  9
$UCSBASE
  2

  9
$UCSNAME
  2

  9
$UCSORG
 10
0.0
 20
0.0
 30
0.0
  9
$UCSXDIR
 10
1.0
 20
0.0
 30
0.0
  9
$UCSYDIR
 10
0.0
 20
1.0
 30
0.0
  9
$UCSORTHOREF
  2

  9
$UCSORTHOVIEW
 70
     0
  9
$UCSORGTOP
 10
0.0
 20
0.0
 30
0.0
  9
$UCSORGBOTTOM
 10
0.0
 20
0.0
 30
0.0
  9
$UCSORGLEFT
 10
0.0
 20
0.0
 30
0.0
  9
$UCSORGRIGHT
 10
0.0
 20
0.0
 30
0.0
  9
$UCSORGFRONT
 10
0.0
 20
0.0
 30
0.0
  9
$UCSORGBACK
 10
0.0
 20
0.0
 30
0.0
  9
$PUCSBASE
  2

  9
$PUCSNAME
  2

  9
$PUCSORG
 10
0.0
 20
0.0
 30
0.0
  9
$PUCSXDIR
 10
1.0
 20
0.0
 30
0.0
  9
$PUCSYDIR
 10
0.0
 20
1.0
 30
0.0
  9
$PUCSORTHOREF
  2

  9
$PUCSORTHOVIEW
 70
     0
  9
$PUCSORGTOP
 10
0.0
 20
0.0
 30
0.0
  9
$PUCSORGBOTTOM
 10
0.0
 20
0.0
 30
0.0
  9
$PUCSORGLEFT
 10
0.0
 20
0.0
 30
0.0
  9
$PUCSORGRIGHT
 10
0.0
 20
0.0
 30
0.0
  9
$PUCSORGFRONT
 10
0.0
 20
0.0
 30
0.0
  9
$PUCSORGBACK
 10
0.0
 20
0.0
 30
0.0
  9
$WORLDVIEW
 70
     1
  9
$SHADEDGE
 70
     3
  9
$SHADEDIF
 70
    70
  9
$TILEMODE
 70
     1
  9
$MAXACTVP
 70
    64
  9
$PINSBASE
 10
0.0
 20
0.0
 30
0.0
  9
$PLIMCHECK
 70
     0
  9
$PEXTMIN
 10
1.000000000000000E+20
 20
1.000000000000000E+20
 30
1.000000000000000E+20
  9
$PEXTMAX
 10
-1.000000000000000E+20
 20
-1.000000000000000E+20
 30
-1.000000000000000E+20
  9
$PLIMMIN
 10
0.0
 20
0.0
  9
$PLIMMAX
 10
12.0
 20
9.0
  9
$UNITMODE
 70
     0
  9
$VISRETAIN
 70
     1
  9
$PLINEGEN
 70
     0
  9
$PSLTSCALE
 70
     1
  9
$TREEDEPTH
 70
  3020
  9
$CMLSTYLE
  2
Standard
  9
$CMLJUST
 70
     0
  9
$CMLSCALE
 40
1.0
  9
$PROXYGRAPHICS
 70
     1
  9
$MEASUREMENT
 70
     0
  9
$CELWEIGHT
370
    -1
  9
$ENDCAPS
280
     0
  9
$JOINSTYLE
280
     0
  9
$LWDISPLAY
290
     0
  9
$INSUNITS
 70
     1
  9
$HYPERLINKBASE
  1

  9
$STYLESHEET
  1

  9
$XEDIT
290
     1
  9
$CEPSNTYPE
380
     0
  9
$PSTYLEMODE
290
     1
  9
$EXTNAMES
290
     1
  9
$PSVPSCALE
 40
0.0
  9
$OLESTARTUP
290
     0
  9
$SORTENTS
280
   127
  9
$INDEXCTL
280
     0
  9
$HIDETEXT
280
     1
  9
$XCLIPFRAME
290
     0
  9
$HALOGAP
280
     0
  9
$OBSCOLOR
 70
   257
  9
$OBSLTYPE
280
     0
  9
$INTERSECTIONDISPLAY
280
     0
  9
$INTERSECTIONCOLOR
 70
   257
  9
$DIMASSOC
280
     2
  9
$PROJECTNAME
  1

  0
ENDSEC
  0
SECTION
  2
CLASSES
  0
CLASS
  1
ACDBDICTIONARYWDFLT
  2
AcDbDictionaryWithDefault
  3
ObjectDBX Classes
 90
        0
 91
        4
280
     0
281
     0
  0
ENDSEC
  0
SECTION
  2
TABLES
  0
TABLE
  2
VPORT
  5
8
330
0
100
AcDbSymbolTable
 70
     1
  0
VPORT
  5
29
330
8
100
AcDbSymbolTableRecord
100
AcDbViewportTableRecord
  2
*Active
 70
     0
 10
0.0
 20
0.0
 11
1.0
 21
1.0
 12
80.25
 22
106.4409457059851
 13
0.0
 23
0.0
 14
0.5
 24
0.5
 15
0.5
 25
0.5
 16
0.0
 26
0.0
 36
1.0
 17
0.0
 27
0.0
 37
0.0
 40
113.3818914119703
 41
0.8863849310366128
 42
50.0
 43
0.0
 44
0.0
 50
0.0
 51
0.0
 71
     0
 72
  1000
 73
     1
 74
     3
 75
     0
 76
     0
 77
     0
 78
     0
281
     0
 65
     1
110
0.0
120
0.0
130
0.0
111
1.0
121
0.0
131
0.0
112
0.0
122
1.0
132
0.0
 79
     0
146
0.0
  0
ENDTAB
  0
TABLE
  2
LTYPE
  5
5
330
0
100
AcDbSymbolTable
 70
     1
  0
LTYPE
  5
14
330
5
100
AcDbSymbolTableRecord
100
AcDbLinetypeTableRecord
  2
ByBlock
 70
     0
  3

 72
    65
 73
     0
 40
0.0
  0
LTYPE
  5
15
330
5
100
AcDbSymbolTableRecord
100
AcDbLinetypeTableRecord
  2
ByLayer
 70
     0
  3

 72
    65
 73
     0
 40
0.0
  0
LTYPE
  5
16
330
5
100
AcDbSymbolTableRecord
100
AcDbLinetypeTableRecord
  2
Continuous
 70
     0
  3
Solid line
 72
    65
 73
     0
 40
0.0
  0
ENDTAB
  0
TABLE
  2
LAYER
  5
2
330
0
100
AcDbSymbolTable
 70
     1
  0
LAYER
  5
10
330
2
100
AcDbSymbolTableRecord
100
AcDbLayerTableRecord
  2
0
 70
     0
 62
     7
  6
Continuous
370
    -3
390
F
  0
ENDTAB
  0
TABLE
  2
STYLE
  5
3
330
0
100
AcDbSymbolTable
 70
     1
  0
STYLE
  5
11
330
3
100
AcDbSymbolTableRecord
100
AcDbTextStyleTableRecord
  2
Standard
 70
     0
 40
0.0
 41
1.0
 50
0.0
 71
     0
 42
0.2
  3
txt
  4

  0
ENDTAB
  0
TABLE
  2
VIEW
  5
6
330
0
100
AcDbSymbolTable
 70
     0
  0
ENDTAB
  0
TABLE
  2
UCS
  5
7
330
0
100
AcDbSymbolTable
 70
     0
  0
ENDTAB
  0
TABLE
  2
APPID
  5
9
330
0
100
AcDbSymbolTable
 70
     1
  0
APPID
  5
12
330
9
100
AcDbSymbolTableRecord
100
AcDbRegAppTableRecord
  2
ACAD
 70
     0
  0
ENDTAB
  0
TABLE
  2
DIMSTYLE
  5
A
330
0
100
AcDbSymbolTable
 70
     1
100
AcDbDimStyleTable
  0
DIMSTYLE
105
27
330
A
100
AcDbSymbolTableRecord
100
AcDbDimStyleTableRecord
  2
Standard
 70
     0
340
11
  0
ENDTAB
  0
TABLE
  2
BLOCK_RECORD
  5
1
330
0
100
AcDbSymbolTable
 70
     1
  0
BLOCK_RECORD
  5
1F
330
1
100
AcDbSymbolTableRecord
100
AcDbBlockTableRecord
  2
*Model_Space
340
22
  0
BLOCK_RECORD
  5
1B
330
1
100
AcDbSymbolTableRecord
100
AcDbBlockTableRecord
  2
*Paper_Space
340
1E
  0
ENDTAB
  0
ENDSEC
  0
SECTION
  2
BLOCKS
  0
BLOCK
  5
20
330
1F
100
AcDbEntity
  8
0
100
AcDbBlockBegin
  2
*Model_Space
 70
     0
 10
0.0
 20
0.0
 30
0.0
  3
*Model_Space
  1

  0
ENDBLK
  5
21
330
1F
100
AcDbEntity
  8
0
100
AcDbBlockEnd
  0
BLOCK
  5
1C
330
1B
100
AcDbEntity
 67
     1
  8
0
100
AcDbBlockBegin
  2
*Paper_Space
 70
     0
 10
0.0
 20
0.0
 30
0.0
  3
*Paper_Space
  1

  0
ENDBLK
  5
1D
330
1B
100
AcDbEntity
 67
     1
  8
0
100
AcDbBlockEnd
  0
ENDSEC
  0
SECTION
  2
ENTITIES
  0
LWPOLYLINE
  5
20000
100
AcDbEntity
  8
0
100
AcDbPolyline
 70
0
 90
580
 10
-114.516453999718
 20
33.0276169998718
 10
-114.520130000184
 20
33.0299839999246
 10
-114.53108300034
 20
33.0323930000822
 10
-114.571652999967
 20
33.0366239998621
 10
-114.57828699995
 20
33.0353750003515
 10
-114.584765000297
 20
33.028230000122
 10
-114.589778000231
 20
33.0262279999847
 10
-114.601014000244
 20
33.0254100000797
 10
-114.61878799998
 20
33.0272020001241
 10
-114.628294000165
 20
33.03105000031
 10
-114.639551999919
 20
33.0452900000327
 10
-114.645979000213
 20
33.0489019999723
 10
-114.649001000202
 20
33.0467619998621
 10
-114.657826999971
 20
33.0338239996895
 10
-114.662316999848
 20
33.0326700001964
 10
-114.670802999858
 20
33.0379830001715
 10
-114.673659000166
 20
33.0418959997568
 10
-114.675102999765
 20
33.0475299999263
 10
-114.674295000201
 20
33.0571690002503
 10
-114.686990999706
 20
33.0709680000729
 10
-114.689119999743
 20
33.0761209997059
 10
-114.689020000184
 20
33.084035000087
 10
-114.706487999598
 20
33.0881600000586
 10
-114.70789600011
 20
33.097430999681
 10
-114.703682000417
 20
33.1137680000752
 10
-114.696913999642
 20
33.1311190002023
 10
-114.687404999983
 20
33.1419830003167
 10
-114.679944999994
 20
33.1590590001759
 10
-114.680889999826
 20
33.169074000152
 10
-114.675358999858
 20
33.185488000051
 10
-114.678749000093
 20
33.203448000124
 10
-114.673625999656
 20
33.2231209998096
 10
-114.689540999692
 20
33.2464280002242
 10
-114.674491000019
 20
33.2555970000143
 10
-114.672088000346
 20
33.2584990001751
 10
-114.677031999785
 20
33.2701690002306
 10
-114.680507000409
 20
33.2735760001751
 10
-114.694449000044
 20
33.279785000309
 10
-114.721670000414
 20
33.2869820000651
 10
-114.731222999555
 20
33.3024330002204
 10
-114.72990399963
 20
33.3057449997852
 10
-114.723622999825
 20
33.3121090001766
 10
-114.70787000017
 20
33.3233160002414
 10
-114.700938000262
 20
33.3370140001415
 10
-114.698035000098
 20
33.3524420003696
 10
-114.699056000097
 20
33.3611479996339
 10
-114.707347999939
 20
33.3766269997882
 10
-114.707308999581
 20
33.382540000008
 10
-114.724249999639
 20
33.4004200001815
 10
-114.725282000407
 20
33.4050480001963
 10
-114.720065000258
 20
33.4078909999378
 10
-114.701787999658
 20
33.4083769998045
 10
-114.69770799986
 20
33.41094199963
 10
-114.695658000364
 20
33.4151279996741
 10
-114.687949999781
 20
33.417933999699
 10
-114.673690999953
 20
33.4191570002595
 10
-114.656734999827
 20
33.4128130002564
 10
-114.649540000152
 20
33.4136330002168
 10
-114.643302000005
 20
33.4167459996419
 10
-114.629639999854
 20
33.42813699965
 10
-114.622282999798
 20
33.4475580000116
 10
-114.622918000008
 20
33.4565609998138
 10
-114.612472000015
 20
33.4707680001652
 10
-114.601693999761
 20
33.4813959998256
 10
-114.592369000225
 20
33.4986750001603
 10
-114.580467999865
 20
33.506465000001
 10
-114.569533000151
 20
33.5092189998394
 10
-114.560962999577
 20
33.5167389999055
 10
-114.558898000013
 20
33.5318189997814
 10
-114.524215000006
 20
33.5530679997355
 10
-114.528220000359
 20
33.5593179998278
 10
-114.531613000069
 20
33.5617019998336
 10
-114.536784000187
 20
33.5709589997949
 10
-114.540299999921
 20
33.5806150001141
 10
-114.540617000113
 20
33.591412000232
 10
-114.529186000107
 20
33.6066500001862
 10
-114.521844999944
 20
33.612544000031
 10
-114.531214999686
 20
33.6239130002751
 10
-114.531033999936
 20
33.6282129998021
 10
-114.526369999982
 20
33.6302589997495
 10
-114.523801999554
 20
33.6347000000093
 10
-114.525394000188
 20
33.6406690001536
 10
-114.533214999852
 20
33.6484429996604
 10
-114.533193999935
 20
33.651660000203
 10
-114.530582999849
 20
33.6544609999774
 10
-114.518336999708
 20
33.6559269999056
 10
-114.514559000033
 20
33.6580139999723
 10
-114.514056999893
 20
33.6601789999654
 10
-114.517112000393
 20
33.6628770002753
 10
-114.526438999579
 20
33.663880000266
 10
-114.53026700038
 20
33.6668209997697
 10
-114.532122999707
 20
33.6697020001327
 10
-114.531522999658
 20
33.6751080001403
 10
-114.530347999673
 20
33.6792449996835
 10
-114.523958999912
 20
33.6858790001813
 10
-114.496489000021
 20
33.696901000083
 10
-114.494196999778
 20
33.7079220002624
 10
-114.496565000189
 20
33.719154999932
 10
-114.500788000103
 20
33.7222039997931
 10
-114.50417599979
 20
33.728054999944
 10
-114.512347999981
 20
33.7342139998181
 10
-114.504482999937
 20
33.7509979996312
 10
-114.504862999878
 20
33.7604650001888
 10
-114.516734000101
 20
33.7883450002618
 10
-114.518941999781
 20
33.7973019997072
 10
-114.528049999582
 20
33.8149629999611
 10
-114.522713999607
 20
33.8189789999425
 10
-114.519970000351
 20
33.8253810003531
 10
-114.52959700001
 20
33.8480629997453
 10
-114.529883000241
 20
33.857562999755
 10
-114.524291999998
 20
33.8601329999573
 10
-114.514672999836
 20
33.858638000135
 10
-114.50563799983
 20
33.864275999828
 10
-114.503016999699
 20
33.867998000008
 10
-114.504339999822
 20
33.876881999907
 10
-114.522768000034
 20
33.8925830000528
 10
-114.525872000039
 20
33.9010080000101
 10
-114.513714999586
 20
33.8979589996314
 10
-114.508708000398
 20
33.9006399996971
 10
-114.507920000028
 20
33.9038070003415
 10
-114.511511000105
 20
33.9110919998919
 10
-114.518433999792
 20
33.9175180001753
 10
-114.525360999678
 20
33.9222719997147
 10
-114.534951000426
 20
33.925700000347
 10
-114.535676000149
 20
33.9335519996424
 10
-114.528679999768
 20
33.9478170002516
 10
-114.522733999699
 20
33.9550390001604
 10
-114.515860000415
 20
33.9581059997912
 10
-114.50866900004
 20
33.9575249998096
 10
-114.499882999556
 20
33.9617890000441
 10
-114.484784000378
 20
33.9755190003477
 10
-114.481455000242
 20
33.9812609998295
 10
-114.471138000121
 20
33.9880400001696
 10
-114.467932000008
 20
33.9928770002875
 10
-114.459257999677
 20
33.9947110002695
 10
-114.458028000339
 20
33.9971580003412
 10
-114.459184000057
 20
34.0000159996746
 10
-114.467310000217
 20
34.0051899998307
 10
-114.465867000444
 20
34.0109869998183
 10
-114.463335999826
 20
34.0122589998225
 10
-114.454807000158
 20
34.0109680003066
 10
-114.450205999953
 20
34.0125739999092
 10
-114.44382100039
 20
34.0161760001066
 10
-114.438266000133
 20
34.0226089999267
 10
-114.434948999693
 20
34.0377840003627
 10
-114.439339999836
 20
34.0578929998373
 10
-114.434181000312
 20
34.0873789997436
 10
-114.428026000005
 20
34.0927869999101
 10
-114.420499000069
 20
34.1034660001573
 10
-114.411679999973
 20
34.1100309999868
 10
-114.401336000088
 20
34.1116380002988
 10
-114.390565000405
 20
34.110084000353
 10
-114.379223000087
 20
34.1159899999295
 10
-114.366516999638
 20
34.1185769998982
 10
-114.360402000413
 20
34.1235770001411
 10
-114.353030000288
 20
34.1331199998217
 10
-114.348050999791
 20
34.1344570003641
 10
-114.336111999796
 20
34.1340339998253
 10
-114.320776999718
 20
34.138634999845
 10
-114.312206000217
 20
34.1447760000247
 10
-114.29280600041
 20
34.1667249999847
 10
-114.28729399981
 20
34.1705290001584
 10
-114.275266999952
 20
34.1721489997966
 10
-114.268459999717
 20
34.1701770000703
 10
-114.257033999733
 20
34.1728369998884
 10
-114.244421000069
 20
34.1794030003606
 10
-114.240711999991
 20
34.1832320000931
 10
-114.229715000352
 20
34.1869280002699
 10
-114.227033999947
 20
34.1888659998951
 10
-114.224940999895
 20
34.1938959997231
 10
-114.225193999615
 20
34.2036419997349
 10
-114.211760999793
 20
34.211538999889
 10
-114.190876000379
 20
34.230857999729
 10
-114.178050000279
 20
34.2399690000097
 10
-114.174597000294
 20
34.2473029999875
 10
-114.166123999805
 20
34.2500149998975
 10
-114.163866999721
 20
34.2533490003366
 10
-114.164648000419
 20
34.2596989998628
 10
-114.153346000284
 20
34.2582890000047
 10
-114.144779000083
 20
34.2596230001518
 10
-114.135450000349
 20
34.2578860001442
 10
-114.131489000376
 20
34.2603869996707
 10
-114.131210999644
 20
34.2627299998709
 10
-114.136671000365
 20
34.2743769997511
 10
-114.136050000399
 20
34.2808330003012
 10
-114.139534000346
 20
34.2958439996355
 10
-114.138282000368
 20
34.3032299999102
 10
-114.157205999975
 20
34.3178620001229
 10
-114.168806999861
 20
34.3395129998878
 10
-114.176908999731
 20
34.3493059998711
 10
-114.199482000039
 20
34.3613729999983
 10
-114.213774000377
 20
34.362459999954
 10
-114.226106999659
 20
34.3659160003232
 10
-114.22968600004
 20
34.3689079997616
 10
-114.234274999652
 20
34.3766620000794
 10
-114.252738999849
 20
34.3901000000076
 10
-114.264317000169
 20
34.4013290001697
 10
-114.280108000357
 20
34.403147000207
 10
-114.288662999964
 20
34.4066230003178
 10
-114.291751000075
 20
34.4111039997171
 10
-114.292225999553
 20
34.4176059998756
 10
-114.294835999814
 20
34.4213889996615
 10
-114.301016000235
 20
34.4268070002088
 10
-114.312251000423
 20
34.4327259997448
 10
-114.326130000309
 20
34.4372510002063
 10
-114.330668999692
 20
34.4452950002357
 10
-114.335372000004
 20
34.4500379996415
 10
-114.342615000258
 20
34.4514419998156
 10
-114.373718999884
 20
34.4469379997967
 10
-114.386698999969
 20
34.4579109997009
 10
-114.387186999866
 20
34.4620210001845
 10
-114.381701000104
 20
34.4760400002075
 10
-114.382358000055
 20
34.4957579996309
 10
-114.37812400027
 20
34.5072880000412
 10
-114.378223000005
 20
34.5165210003569
 10
-114.380838000288
 20
34.5297240002774
 10
-114.405227999566
 20
34.5696369998726
 10
-114.422382000059
 20
34.5807109999993
 10
-114.436809999941
 20
34.5960740001477
 10
-114.425337999926
 20
34.600841999967
 10
-114.424202000299
 20
34.6104530003166
 10
-114.438738999961
 20
34.6214550000576
 10
-114.441397999727
 20
34.6301709997853
 10
-114.440293999888
 20
34.6382400002883
 10
-114.441464999674
 20
34.6425300001632
 10
-114.449549000002
 20
34.6514229997706
 10
-114.457984999783
 20
34.6571129998036
 10
-114.457701999926
 20
34.6593280003603
 10
-114.451785000169
 20
34.6638910002644
 10
-114.450506000427
 20
34.6668359996652
 10
-114.454305000018
 20
34.6712339998288
 10
-114.455536000079
 20
34.6773350002106
 10
-114.46524599958
 20
34.6912020001372
 10
-114.470476999972
 20
34.7113679996688
 10
-114.473682000259
 20
34.7139639998759
 10
-114.48277900019
 20
34.7145110003303
 10
-114.487508000442
 20
34.7166259999096
 10
-114.492016999687
 20
34.7257019999347
 10
-114.516618999575
 20
34.7367449998607
 10
-114.529614999554
 20
34.750821999943
 10
-114.552681999607
 20
34.7668710001902
 10
-114.55865299979
 20
34.7738519998061
 10
-114.57101000026
 20
34.7942939999411
 10
-114.576451999641
 20
34.8152999996909
 10
-114.586841999557
 20
34.8356720002071
 10
-114.600652999671
 20
34.8473610001277
 10
-114.623939000007
 20
34.8597380003241
 10
-114.630681999769
 20
34.8663519996439
 10
-114.635175999845
 20
34.8750030000746
 10
-114.636724999923
 20
34.8891070000245
 10
-114.630876999763
 20
34.907263000249
 10
-114.633252999672
 20
34.9246079996703
 10
-114.629752999832
 20
34.9386839999577
 10
-114.629810999558
 20
34.9448099997976
 10
-114.634953000262
 20
34.9589180001021
 10
-114.635236999944
 20
34.9651490001662
 10
-114.629129000391
 20
34.9861319998263
 10
-114.630244000101
 20
34.9946399997873
 10
-114.637071000428
 20
35.0103710002348
 10
-114.637524000165
 20
35.0270529999579
 10
-114.629027000284
 20
35.0425309999523
 10
-114.606694000175
 20
35.0589409997721
 10
-114.602908000104
 20
35.0685879999082
 10
-114.604735999842
 20
35.0748300001974
 10
-114.613132000339
 20
35.0830969999361
 10
-114.62251700015
 20
35.0887030002202
 10
-114.642830999826
 20
35.0965029996691
 10
-114.64676400021
 20
35.1018679997695
 10
-114.644353999966
 20
35.1059030002737
 10
-114.632281999902
 20
35.1170879998873
 10
-114.623760999731
 20
35.1206020000524
 10
-114.628992999949
 20
35.1194110001849
 10
-114.624954000158
 20
35.1207420001862
 10
-114.618696999744
 20
35.1217489997693
 10
-114.597793999888
 20
35.1217349996459
 10
-114.584876999552
 20
35.1251940003353
 10
-114.578262999661
 20
35.1288100000014
 10
-114.572596999974
 20
35.1395570001448
 10
-114.573879000089
 20
35.1453509997301
 10
-114.569528999953
 20
35.1623169998432
 10
-114.569257999792
 20
35.1834240001893
 10
-114.572083999963
 20
35.200794000236
 10
-114.574957999814
 20
35.2067140000221
 10
-114.57953499973
 20
35.2089110001882
 10
-114.58031200023
 20
35.2200950001645
 10
-114.583523000365
 20
35.2303480001377
 10
-114.582842000125
 20
35.2387029996728
 10
-114.58605300026
 20
35.2488909998814
 10
-114.586603999906
 20
35.2623859997324
 10
-114.596681999652
 20
35.2945570001219
 10
-114.595552999698
 20
35.3265469999637
 10
-114.604606999971
 20
35.3552389999286
 10
-114.611205999794
 20
35.3701189996753
 10
-114.617698000384
 20
35.3801309998016
 10
-114.62088699988
 20
35.3968669997625
 10
-114.626765000178
 20
35.4096439998946
 10
-114.652080000093
 20
35.4301339997231
 10
-114.654295000343
 20
35.4368539999687
 10
-114.662895999981
 20
35.4464489997055
 10
-114.664216999556
 20
35.4558450001446
 10
-114.667216999804
 20
35.4603699999232
 10
-114.665651000007
 20
35.4669110003465
 10
-114.673163999699
 20
35.4748140000432
 10
-114.671906999698
 20
35.4820870003636
 10
-114.67681500005
 20
35.4897870001694
 10
-114.676256999833
 20
35.4931030001417
 10
-114.678641999963
 20
35.4976280001991
 10
-114.677480000397
 20
35.510947999905
 10
-114.675685000271
 20
35.5156299998921
 10
-114.66954000001
 20
35.5207899996567
 10
-114.664600999696
 20
35.5215190001021
 10
-114.657753000351
 20
35.5307409996881
 10
-114.656769999987
 20
35.5349640000214
 10
-114.661457000406
 20
35.5440620001212
 10
-114.662804999745
 20
35.5642680002283
 10
-114.664433000364
 20
35.5684260003237
 10
-114.668392999614
 20
35.5743310001164
 10
-114.675666999829
 20
35.5800330001046
 10
-114.659237999957
 20
35.587477000015
 10
-114.653900000333
 20
35.5984910002893
 10
-114.653533999737
 20
35.609671999991
 10
-114.659461000438
 20
35.6195519998037
 10
-114.666682000052
 20
35.6230729997423
 10
-114.677615000116
 20
35.6417740000257
 10
-114.689507000255
 20
35.6514289999958
 10
-114.690214000435
 20
35.6651589996572
 10
-114.682316999706
 20
35.6778250001871
 10
-114.680631000258
 20
35.684045999879
 10
-114.682657000362
 20
35.6885709998376
 10
-114.701416000113
 20
35.7010840003561
 10
-114.705597000194
 20
35.7082740003047
 10
-114.697859000371
 20
35.7316570001785
 10
-114.696399999806
 20
35.7426529997241
 10
-114.697726000302
 20
35.7509659998452
 10
-114.694266999571
 20
35.7566329999385
 10
-114.70102699995
 20
35.76967999984
 10
-114.699318000038
 20
35.790479999703
 10
-114.712026000137
 20
35.8055289997328
 10
-114.709323999815
 20
35.8100499999052
 10
-114.7036649998
 20
35.814613999955
 10
-114.695276999699
 20
35.8310909998345
 10
-114.706287999582
 20
35.8462180001621
 10
-114.705855999761
 20
35.850508000345
 10
-114.701904000009
 20
35.8532230001221
 10
-114.694370000401
 20
35.8544630000983
 10
-114.691456000367
 20
35.8586610001922
 10
-114.687798000343
 20
35.8607279998869
 10
-114.669679999752
 20
35.8650360001616
 10
-114.661635999608
 20
35.8712329997507
 10
-114.663213999999
 20
35.8736920003004
 10
-114.672008999805
 20
35.878018000048
 10
-114.678971999676
 20
35.8855099997378
 10
-114.696064000245
 20
35.8964639999969
 10
-114.69492799972
 20
35.8975940003635
 10
-114.700257999846
 20
35.9017569999668
 10
-114.705714000369
 20
35.9093160003022
 10
-114.70811200002
 20
35.9099329997865
 10
-114.709187000446
 20
35.9168270000931
 10
-114.707398000167
 20
35.9180570002154
 10
-114.707603000207
 20
35.9279500002815
 10
-114.713412999834
 20
35.9318999996833
 10
-114.713311999552
 20
35.9338439997933
 10
-114.729762000238
 20
35.9598950002555
 10
-114.728665999896
 20
35.96175699967
 10
-114.740536000294
 20
35.9755450000609
 10
-114.743637999751
 20
35.9857849999276
 10
-114.739317999753
 20
35.9918040001474
 10
-114.743005000089
 20
36.0084499998972
 10
-114.738555000395
 20
36.0152230000629
 10
-114.728874000309
 20
36.0213869996549
 10
-114.722096000386
 20
36.0289519998792
 10
-114.733416999889
 20
36.0379130002794
 10
-114.741261999842
 20
36.0380439996478
 10
-114.74247899966
 20
36.0456969997864
 10
-114.735700999737
 20
36.0533930001731
 10
-114.73528499981
 20
36.0566480002522
 10
-114.740060000093
 20
36.0624370003626
 10
-114.74354200039
 20
36.0710370002629
 10
-114.748890999885
 20
36.0749809999515
 10
-114.75056999966
 20
36.0803299998981
 10
-114.754681000318
 20
36.085051999841
 10
-114.748912999626
 20
36.0951829996846
 10
-114.734857000188
 20
36.1044260003296
 10
-114.70373699977
 20
36.10834800036
 10
-114.693654999826
 20
36.1124820001009
 10
-114.681847000251
 20
36.1091920003044
 10
-114.671867000413
 20
36.1159639997299
 10
-114.664342999953
 20
36.1163000000118
 10
-114.655512000161
 20
36.126186999918
 10
-114.640125000205
 20
36.1351260002464
 10
-114.635809000405
 20
36.1361700001332
 10
-114.630474000255
 20
36.1422180000812
 10
-114.627078999997
 20
36.1407610001453
 10
-114.620604999848
 20
36.1317589998704
 10
-114.615454999646
 20
36.129652999858
 10
-114.609287999644
 20
36.1322290000677
 10
-114.596474000138
 20
36.1415370002577
 10
-114.58070700024
 20
36.1459869999253
 10
-114.571089999728
 20
36.1510989997437
 10
-114.56117299964
 20
36.1509209997533
 10
-114.556162000254
 20
36.1524700001633
 10
-114.548742000449
 20
36.1506969998762
 10
-114.539232999891
 20
36.1517640001756
 10
-114.531090999838
 20
36.14764400024
 10
-114.511218000202
 20
36.1505760001296
 10
-114.508104000151
 20
36.1497130000908
 10
-114.500235999734
 20
36.1432259997228
 10
-114.500338999666
 20
36.1406999996858
 10
-114.505149999933
 20
36.1380780000608
 10
-114.50920999964
 20
36.1332470002267
 10
-114.508467000374
 20
36.1299130001136
 10
-114.50471499974
 20
36.1271879997835
 10
-114.498849000037
 20
36.1266120001401
 10
-114.483826999953
 20
36.1297199998137
 10
-114.468674000348
 20
36.1388890001878
 10
-114.462600000232
 20
36.1396439999716
 10
-114.456486999758
 20
36.1380319996798
 10
-114.451330999709
 20
36.1298310002209
 10
-114.445042000406
 20
36.1253460001131
 10
-114.423114000353
 20
36.137350000078
 10
-114.415252999609
 20
36.1451229998277
 10
-114.405624000299
 20
36.1469830002485
 10
-114.381479000346
 20
36.1413490000376
 10
-114.375278000008
 20
36.1435920001399
 10
-114.370181000408
 20
36.1426239999329
 10
-114.358967999962
 20
36.127794999658
 10
-114.345099999947
 20
36.118556000021
 10
-114.334632000213
 20
36.106783999683
 10
-114.325813999942
 20
36.1039330002261
 10
-114.320866000305
 20
36.0964630001052
 10
-114.30693899984
 20
36.0824870000549
 10
-114.304383999831
 20
36.0740189999273
 10
-114.312419999579
 20
36.0661170003578
 10
-114.314327999683
 20
36.0620159998606
 10
-114.313591000265
 20
36.0590480003364
 10
-114.308624000361
 20
36.0569759998637
 10
-114.298592999572
 20
36.0572629998548
 10
-114.287991999769
 20
36.0490699998525
 10
-114.279637000178
 20
36.0461030003218
 10
-114.270861999565
 20
36.0455229997461
 10
-114.268586000113
 20
36.0350339998767
 10
-114.264379999918
 20
36.0279109996818
 10
-114.2438650004
 20
36.0152660002237
 10
-114.233442999798
 20
36.0128350000009
 10
-114.228014999763
 20
36.0147310000853
 10
-114.22479799978
 20
36.013699000186
 10
-114.211932000395
 20
36.0148340000941
 10
-114.19122100016
 20
36.0200189998876
 10
-114.17468299961
 20
36.0266699998192
 10
-114.164402000372
 20
36.0268519996513
 10
-114.151389999601
 20
36.0231329999527
 10
-114.145907000212
 20
36.0272290002491
 10
-114.144666000105
 20
36.0342720001488
 10
-114.137112000406
 20
36.0384909997559
 10
-114.134841000079
 20
36.0438730003374
 10
-114.136206000034
 20
36.0532319997942
 10
-114.133389000084
 20
36.0616649997865
 10
-114.124019000342
 20
36.0755630000782
 10
-114.119648000291
 20
36.0858220002695
 10
-114.111998000332
 20
36.0949100001173
 10
-114.115207999744
 20
36.0998780000282
 10
-114.121033000338
 20
36.1038849998696
 10
-114.120865000109
 20
36.1108499996413
 10
-114.118496999697
 20
36.1138999997355
 10
-114.108381000316
 20
36.1191540003371
 10
-114.096993999792
 20
36.1208229997303
 10
-114.091701000374
 20
36.1373030002775
 10
-114.081233999566
 20
36.1502079998253
 10
-114.078831999718
 20
36.1574340002992
 10
-114.066798000187
 20
36.1790870000775
 10
-114.058661999981
 20
36.1878349998181
 10
-114.043943999671
 20
36.1933500000278
 10
-114.045558999872
 20
36.2888369997179
 10
-114.044050999801
 20
36.3176279997808
 10
-114.042843000204
 20
36.4481750003019
 10
-114.049934999947
 20
36.7095210001029
 10
-114.050616000187
 20
37.0001669998386
 10
-111.150576000008
 20
37.0009499998098
 10
-110.625691000233
 20
37.0037249997718
 10
-110.490299000211
 20
37.0036279997926
 10
-110.46973299974
 20
36.9976570000152
 10
-109.045171999956
 20
36.9989769999816
 10
-109.046953999663
 20
35.3934269999297
 10
-109.045362999751
 20
34.7854060000773
 10
-109.050044000323
 20
31.3325020000809
 10
-109.494490000277
 20
31.3341250002308
 10
-110.795466999614
 20
31.3336299998299
 10
-111.074825000431
 20
31.3322390000991
 10
-111.56019400019
 20
31.4881380003152
 10
-112.200717000178
 20
31.6900330000522
 10
-112.800206999858
 20
31.8750680002981
 10
-113.125960999823
 20
31.9727800002008
 10
-113.781679999971
 20
32.1790339999565
 10
-114.250774999669
 20
32.3239089997992
 10
-114.813613000036
 20
32.4942760001096
 10
-114.813991000328
 20
32.4972309999166
 10
-114.812315999853
 20
32.5000539999482
 10
-114.816590999645
 20
32.5076960003623
 10
-114.814321000041
 20
32.5090230002642
 10
-114.807726000416
 20
32.5087260001766
 10
-114.80407599989
 20
32.5103749999895
 10
-114.802211000342
 20
32.5131910000036
 10
-114.803670000009
 20
32.5163739999437
 10
-114.809672000155
 20
32.51756700029
 10
-114.810482000267
 20
32.52175799992
 10
-114.813347999722
 20
32.5241860002666
 10
-114.802181000205
 20
32.5364139997202
 10
-114.802017999998
 20
32.5394599996714
 10
-114.804776000397
 20
32.5416589996774
 10
-114.805830000008
 20
32.5463540003151
 10
-114.793768999814
 20
32.5523289999401
 10
-114.791551000089
 20
32.5570230003781
 10
-114.793224000016
 20
32.5694590002581
 10
-114.797660000365
 20
32.5644439998216
 10
-114.806830000091
 20
32.558879999976
 10
-114.810318000235
 20
32.5586280001033
 10
-114.813994999628
 20
32.5622009999676
 10
-114.812995000443
 20
32.5687060000368
 10
-114.804420999671
 20
32.5729410001367
 10
-114.801877000431
 20
32.5760090001809
 10
-114.801470999652
 20
32.5782549998211
 10
-114.803987000201
 20
32.5826520001249
 10
-114.80044100033
 20
32.5880790000313
 10
-114.799736999625
 20
32.5921769999057
 10
-114.801547999645
 20
32.5985910000175
 10
-114.80804100006
 20
32.6031720000008
 10
-114.809554999979
 20
32.6162029997722
 10
-114.808662000026
 20
32.6191569996385
 10
-114.80682099987
 20
32.6217209997069
 10
-114.79930200033
 20
32.6251150003419
 10
-114.791178999645
 20
32.6218329997757
 10
-114.782572999984
 20
32.6243039997838
 10
-114.782234999875
 20
32.6302150002774
 10
-114.779215000434
 20
32.6335780003053
 10
-114.764381999598
 20
32.6426660003771
 10
-114.763310000444
 20
32.6446160001554
 10
-114.764949999861
 20
32.649390999992
 10
-114.749480000063
 20
32.6617800003118
 10
-114.744349000129
 20
32.6789350000436
 10
-114.730452999626
 20
32.6988439999038
 10
-114.730086000103
 20
32.7042979996984
 10
-114.722410000205
 20
32.7135969997765
 10
-114.714521999697
 20
32.7303899998469
 10
-114.709073999569
 20
32.7354560001678
 10
-114.702940000077
 20
32.7447929998874
 10
-114.699246999893
 20
32.7450980002458
 10
-114.688230000163
 20
32.7375299997095
 10
-114.617395000436
 20
32.728256999714
 10
-114.615669999732
 20
32.728453999819
 10
-114.615112000413
 20
32.7345150000883
 10
-114.581784000316
 20
32.7349460003693
 10
-114.581735999737
 20
32.7423200001372
 10
-114.564507999623
 20
32.7422740002121
 10
-114.564447000422
 20
32.7495539997746
 10
-114.53922399967
 20
32.7498120003363
 10
-114.539092000324
 20
32.7569490003357
 10
-114.526856000228
 20
32.7570940000453
 10
-114.528442999942
 20
32.7672760001137
 10
-114.532432000402
 20
32.776921999978
 10
-114.531669000146
 20
32.7911850001968
 10
-114.529632999996
 20
32.7954769997985
 10
-114.522030999717
 20
32.801674999808
 10
-114.510326999899
 20
32.8164879997865
 10
-114.494115999587
 20
32.8232869996422
 10
-114.468970999551
 20
32.8451550000409
 10
-114.46292900012
 20
32.9079439998112
 10
-114.464448000062
 20
32.9131279997402
 10
-114.476639999776
 20
32.9236280001936
 10
-114.480924999614
 20
32.9362760002656
 10
-114.470768000225
 20
32.9494239998677
 10
-114.46806099988
 20
32.9552600002288
 10
-114.46731500024
 20
32.9640600003178
 10
-114.468604999853
 20
32.9716490002934
 10
-114.470511000307
 20
32.9738580001708
 10
-114.476531999821
 20
32.9751739996663
 10
-114.488624999802
 20
32.9699460003102
 10
-114.492938000127
 20
32.9717809996967
 10
-114.501225999771
 20
33.0075560002359
 10
-114.507956000013
 20
33.0197079997681
 10
-114.516453999718
 20
33.0276169998718
  0
ENDSEC
  0
SECTION
  2
OBJECTS
  0
DICTIONARY
  5
C
330
0
100
AcDbDictionary
281
     1
  3
ACAD_GROUP
350
D
  3
ACAD_LAYOUT
350
1A
  3
ACAD_MLEADERSTYLE
350
43
  3
ACAD_PLOTSETTINGS
350
19
  3
ACAD_PLOTSTYLENAME
350
E
  3
ACAD_TABLESTYLE
350
42
  0
DICTIONARY
  5
D
102
{ACAD_REACTORS
330
C
102
}
330
C
100
AcDbDictionary
281
     1
  0
DICTIONARY
  5
1A
102
{ACAD_REACTORS
330
C
102
}
330
C
100
AcDbDictionary
281
     1
  3
Layout1
350
1E
  3
Model
350
22
  0
DICTIONARY
  5
43
102
{ACAD_REACTORS
330
C
102
}
330
C
100
AcDbDictionary
281
     1
  0
DICTIONARY
  5
19
102
{ACAD_REACTORS
330
C
102
}
330
C
100
AcDbDictionary
281
     1
  0
ACDBDICTIONARYWDFLT
  5
E
102
{ACAD_REACTORS
330
C
102
}
330
C
100
AcDbDictionary
281
     1
  3
Normal
350
F
100
AcDbDictionaryWithDefault
340
F
  0
DICTIONARY
  5
42
102
{ACAD_REACTORS
330
C
102
}
330
C
100
AcDbDictionary
281
     1
  0
LAYOUT
  5
1E
102
{ACAD_REACTORS
330
1A
102
}
330
1A
100
AcDbPlotSettings
  1

  2
none_device
  4

  6

 40
0.0
 41
0.0
 42
0.0
 43
0.0
 44
0.0
 45
0.0
 46
0.0
 47
0.0
 48
0.0
 49
0.0
140
0.0
141
0.0
142
1.0
143
1.0
 70
   688
 72
     0
 73
     0
 74
     5
  7

 75
    16
 76
     0
 77
     2
 78
   300
147
1.0
148
0.0
149
0.0
100
AcDbLayout
  1
Layout1
 70
     1
 71
     1
 10
0.0
 20
0.0
 11
12.0
 21
9.0
 12
0.0
 22
0.0
 32
0.0
 14
1.000000000000000E+20
 24
1.000000000000000E+20
 34
1.000000000000000E+20
 15
-1.000000000000000E+20
 25
-1.000000000000000E+20
 35
-1.000000000000000E+20
146
0.0
 13
0.0
 23
0.0
 33
0.0
 16
1.0
 26
0.0
 36
0.0
 17
0.0
 27
1.0
 37
0.0
 76
     0
330
1B
  0
LAYOUT
  5
22
102
{ACAD_REACTORS
330
1A
102
}
330
1A
100
AcDbPlotSettings
  1

  2
none_device
  4

  6

 40
0.0
 41
0.0
 42
0.0
 43
0.0
 44
0.0
 45
0.0
 46
0.0
 47
0.0
 48
0.0
 49
0.0
140
0.0
141
0.0
142
1.0
143
1.0
 70
  1712
 72
     0
 73
     0
 74
     0
  7

 75
     0
 76
     0
 77
     2
 78
   300
147
1.0
148
0.0
149
0.0
100
AcDbLayout
  1
Model
 70
     1
 71
     0
 10
0.0
 20
0.0
 11
12.0
 21
9.0
 12
0.0
 22
0.0
 32
0.0
 14
30.0
 24
49.75
 34
0.0
 15
130.5
 25
163.1318914119703
 35
0.0
146
0.0
 13
0.0
 23
0.0
 33
0.0
 16
1.0
 26
0.0
 36
0.0
 17
0.0
 27
1.0
 37
0.0
 76
     0
330
1F
331
29
  0
ACDBPLACEHOLDER
  5
F
102
{ACAD_REACTORS
330
E
102
}
330
E
  0
ENDSEC
  0
EOF
