<?xml version="1.0" encoding="utf-8" standalone="no"?>
<!DOCTYPE svg PUBLIC "-//W3C//DTD SVG 1.1//EN"
  "http://www.w3.org/Graphics/SVG/1.1/DTD/svg11.dtd">
<svg xmlns:xlink="http://www.w3.org/1999/xlink" width="247.795039pt" height="291.6pt" viewBox="0 0 247.795039 291.6" xmlns="http://www.w3.org/2000/svg" version="1.1">
 <metadata>
  <rdf:RDF xmlns:dc="http://purl.org/dc/elements/1.1/" xmlns:cc="http://creativecommons.org/ns#" xmlns:rdf="http://www.w3.org/1999/02/22-rdf-syntax-ns#">
   <cc:Work>
    <dc:type rdf:resource="http://purl.org/dc/dcmitype/StillImage"/>
    <dc:date>2025-03-08T18:33:47.138616</dc:date>
    <dc:format>image/svg+xml</dc:format>
    <dc:creator>
     <cc:Agent>
      <dc:title>Matplotlib v3.10.1, https://matplotlib.org/</dc:title>
     </cc:Agent>
    </dc:creator>
   </cc:Work>
  </rdf:RDF>
 </metadata>
 <defs>
  <style type="text/css">*{stroke-linejoin: round; stroke-linecap: butt}</style>
 </defs>
 <g id="figure_1">
  <g id="patch_1">
   <path d="M 0 291.6 
L 247.795039 291.6 
L 247.795039 0 
L 0 0 
z
" style="fill: #ffffff"/>
  </g>
  <g id="axes_1">
   <g id="LineCollection_1">
    <path d="M 28.842939 196.469609 
L 28.707796 196.364437 
L 28.305126 196.257398 
L 26.569744 196.1249 
L 26.147295 196.531326 
L 25.734221 196.567673 
L 25.080787 196.488049 
L 24.731314 196.317072 
L 24.081152 195.523857 
L 23.970053 195.618943 
L 23.645579 196.193815 
L 23.480511 196.24509 
L 23.06354 195.835153 
L 23.010453 195.584819 
L 23.040158 195.156531 
L 22.49514 194.314441 
L 22.498816 193.9628 
L 21.856632 193.779514 
L 21.804869 193.367578 
L 22.208606 191.870726 
L 22.558189 191.388008 
L 22.832445 190.629273 
L 22.797703 190.184279 
L 23.001042 189.454959 
L 22.876414 188.656946 
L 23.064753 187.782819 
L 22.479663 186.747224 
L 23.121295 186.210876 
L 22.811784 185.540962 
L 22.299227 185.265079 
L 21.298489 184.945296 
L 20.995779 184.111604 
L 21.22669 183.828833 
L 21.805825 183.330875 
L 22.060669 182.722234 
L 22.129858 181.649893 
L 21.826449 180.699387 
L 21.1657 179.699293 
L 21.357495 179.572971 
L 22.179415 179.437407 
L 22.25478 179.251411 
L 22.538153 179.126732 
L 23.062363 179.072391 
L 23.685724 179.354273 
L 24.179568 179.179519 
L 24.68183 178.673385 
L 24.952299 177.810455 
L 24.928954 177.410427 
L 26.052041 175.539184 
L 26.489563 175.193052 
L 26.891571 175.070684 
L 27.206634 174.73655 
L 27.282551 174.066503 
L 28.557618 173.12235 
L 27.966277 171.89836 
L 27.954623 171.418619 
L 28.644747 170.479665 
L 28.300273 169.974509 
L 28.306928 169.783448 
L 28.478392 169.692538 
L 28.572801 169.495212 
L 28.514274 169.229993 
L 28.227519 168.741632 
L 28.323508 168.617176 
L 28.912606 168.459306 
L 28.931061 168.363109 
L 28.818748 168.243229 
L 28.475856 168.198663 
L 28.266892 167.939975 
L 28.332147 167.515953 
L 28.567029 167.221186 
L 29.576921 166.731448 
L 29.661183 166.241754 
L 29.574127 165.74264 
L 29.418875 165.607164 
L 29.294321 165.347188 
L 28.99389 165.073527 
L 29.283034 164.327766 
L 29.269064 163.907121 
L 28.41663 161.485622 
L 28.6128 161.30718 
L 28.713678 161.022722 
L 28.359757 160.014897 
L 28.349242 159.592785 
L 28.554787 159.478593 
L 28.908415 159.54502 
L 29.336929 159.129129 
L 29.288291 158.734388 
L 28.610814 158.036749 
L 28.496701 157.662402 
L 28.943634 157.797878 
L 29.156678 157.538035 
L 29.024661 157.214342 
L 28.515487 156.717583 
L 28.162925 156.565267 
L 28.136272 156.216381 
L 28.612064 155.261654 
L 28.864776 155.125378 
L 29.129142 155.151194 
L 29.452146 154.961732 
L 30.626775 153.580405 
L 30.99088 153.390189 
L 30.948382 153.2632 
L 30.649642 153.033304 
L 30.79574 152.719209 
L 31.278444 152.705212 
L 31.513179 152.545166 
L 31.7174 152.259329 
L 31.839344 151.585062 
L 31.677916 150.691562 
L 31.867579 149.381417 
L 32.093858 149.141124 
L 32.370576 148.666626 
L 32.694793 148.374925 
L 33.075074 148.303522 
L 33.471054 148.37257 
L 33.888025 148.11015 
L 34.355141 147.995202 
L 35.034015 147.28961 
L 35.472934 147.308405 
L 36.036702 147.103969 
L 36.351801 146.831108 
L 37.267652 145.68683 
L 37.709806 145.614849 
L 37.960055 145.70247 
L 38.380115 145.584279 
L 39.483018 144.872065 
L 39.559964 144.648568 
L 39.550663 144.215526 
L 40.044507 143.864641 
L 41.805256 142.006905 
L 41.776543 141.724757 
L 42.849963 141.805314 
L 43.005803 141.590081 
L 42.805074 141.072572 
L 42.827905 140.785714 
L 42.745848 139.790553 
L 42.050137 139.140412 
L 41.325787 137.743267 
L 40.495925 137.207096 
L 39.970502 137.158798 
L 39.385522 136.872295 
L 39.216814 136.527763 
L 38.112366 135.43174 
L 37.217323 135.196512 
L 37.103798 134.997409 
L 36.990382 134.540418 
L 36.763184 134.299681 
L 35.673038 133.478207 
L 35.500139 133.267462 
L 35.233861 133.205079 
L 34.090371 133.405204 
L 33.613181 132.917643 
L 33.59524 132.735024 
L 33.796925 132.112121 
L 33.772771 131.235995 
L 33.928428 130.723685 
L 33.828652 129.72679 
L 32.931991 127.953344 
L 32.301351 127.461295 
L 31.770928 126.778674 
L 32.192678 126.566818 
L 32.234441 126.139775 
L 31.700011 125.650925 
L 31.602257 125.263649 
L 31.599794 124.714504 
L 31.002865 123.968122 
L 31.267415 123.63452 
L 31.127751 123.439105 
L 31.082495 123.16802 
L 30.725522 122.551871 
L 30.415385 121.540491 
L 29.907094 121.422211 
L 29.741327 121.018939 
L 28.836873 120.528268 
L 28.359095 119.902787 
L 27.291558 118.8795 
L 26.837272 117.971205 
L 26.637205 117.037849 
L 26.255233 116.132664 
L 25.747493 115.613289 
L 24.891419 115.063344 
L 24.643523 114.769466 
L 24.478308 114.385078 
L 24.421361 113.758397 
L 24.636354 112.951676 
L 24.549004 112.180989 
L 24.675544 111.283357 
L 24.476065 110.379639 
L 24.700616 109.447305 
L 24.659625 109.069271 
L 24.408641 108.370298 
L 24.391987 107.629071 
L 24.704366 106.94134 
L 25.525405 106.212197 
L 25.664591 105.783554 
L 25.597387 105.506205 
L 24.943696 104.889788 
L 24.196884 104.543213 
L 24.052293 104.304831 
L 24.140893 104.125544 
L 24.584701 103.628563 
L 25.084133 103.421462 
L 25.852599 103.422084 
L 26.570626 103.107722 
L 26.778928 102.630203 
L 26.731797 102.372759 
L 26.891718 101.618912 
L 26.901681 100.681069 
L 26.69213 99.646229 
L 26.523863 99.54861 
L 26.402286 98.224869 
L 26.284239 97.772187 
L 26.263982 97.172567 
L 25.89348 95.743119 
L 25.934986 94.321714 
L 25.359528 92.385688 
L 25.120859 91.940827 
L 25.003621 91.197199 
L 24.787525 90.629481 
L 23.856858 89.719053 
L 23.775427 89.420465 
L 23.459225 88.994132 
L 23.357941 88.084948 
L 23.081738 87.733796 
L 23.127949 87.410636 
L 22.880347 86.720106 
L 22.989057 85.920227 
L 23.684438 85.061163 
L 23.512127 84.656913 
L 23.402719 83.574353 
L 22.989719 83.058621 
L 23.593706 82.727863 
L 23.789949 82.23848 
L 23.803404 81.741677 
L 23.585507 81.302681 
L 23.320038 81.146233 
L 22.918103 80.315296 
L 22.480912 79.886297 
L 22.454921 79.276235 
L 22.807225 78.437032 
L 22.732742 78.235974 
L 22.043096 77.679986 
L 21.889388 77.360514 
L 22.227502 75.832959 
L 22.178754 75.463589 
L 22.305918 75.211789 
L 22.057397 74.632074 
L 22.120226 73.707872 
L 21.653036 73.039203 
L 22.268787 71.903411 
L 21.863985 71.231276 
L 21.879867 71.04066 
L 22.025156 70.920025 
L 22.302132 70.864928 
L 22.543741 70.586556 
L 23.209822 70.39514 
L 23.505547 70.11979 
L 23.447534 70.01053 
L 23.124199 69.818313 
L 22.868215 69.485423 
L 22.085669 68.763523 
L 21.757408 68.093921 
L 21.823177 68.039268 
L 21.815641 67.599695 
L 21.605758 67.337808 
L 20.49087 65.029924 
L 20.649688 64.762483 
L 20.514141 64.022854 
L 20.677738 63.721911 
L 21.033645 63.448027 
L 21.282828 63.111893 
L 20.866629 62.713731 
L 20.57822 62.70791 
L 20.533479 62.367866 
L 20.797955 61.881282 
L 20.297751 61.066696 
L 20.084891 60.619213 
L 20.296943 60.169064 
L 20.81369 59.758372 
L 21.957768 59.584107 
L 22.328418 59.400421 
L 22.762521 59.546605 
L 23.12942 59.245706 
L 23.406028 59.230777 
L 23.730686 58.79147 
L 24.775981 58.143906 
L 25.013988 58.54389 
L 25.20332 58.637466 
L 25.43004 58.523007 
L 25.901127 58.109426 
L 27.383135 57.623643 
L 27.65592 57.702422 
L 28.005504 57.655012 
L 28.304832 57.838075 
L 29.149914 57.746144 
L 29.435382 58.146617 
L 29.109253 58.477774 
L 29.136569 58.625913 
L 29.274505 58.746993 
L 29.490159 58.772586 
L 30.04242 58.634489 
L 30.822798 58.193538 
L 31.047533 58.265163 
L 31.237085 58.629557 
L 31.468291 58.828838 
L 32.27444 58.295467 
L 32.563437 57.95009 
L 32.917433 57.867445 
L 33.805086 58.11778 
L 34.033056 58.018117 
L 34.22044 58.061128 
L 34.632668 58.720022 
L 35.142504 59.130537 
L 35.527344 59.6536 
L 35.851524 59.780277 
L 36.03343 60.11219 
L 36.545434 60.733183 
L 36.639365 61.10944 
L 36.273789 61.642767 
L 36.300884 61.774644 
L 36.483488 61.866708 
L 36.852262 61.853956 
L 37.241992 62.217994 
L 37.87175 62.375597 
L 38.11005 63.158148 
L 38.864253 63.72 
L 39.247401 63.828017 
L 39.565221 63.789627 
L 40.03822 63.739195 
L 41.785587 63.205202 
L 42.263953 63.370448 
L 42.465527 63.188451 
L 42.511151 62.875511 
L 42.788862 62.688049 
L 42.872352 62.448911 
L 42.822169 62.033065 
L 42.925732 61.658363 
L 43.712139 60.181195 
L 43.386158 59.472936 
L 43.473214 59.337416 
L 43.845113 59.103966 
L 44.263738 59.029808 
L 44.458327 58.297555 
L 44.931436 57.403078 
L 45.672955 56.052277 
L 46.214039 55.80723 
L 46.210106 50.28521 
L 46.254516 44.484642 
L 45.99379 32.872307 
L 45.968754 19.958092 
L 152.584247 19.923301 
L 176.858311 19.80431 
L 177.614388 20.069618 
L 229.986174 20.010967 
L 229.807062 271.788314 
L 213.467692 271.7162 
L 155.369115 271.8 
L 137.525273 264.872971 
L 113.977434 255.902211 
L 91.93811 247.680588 
L 79.962267 243.33897 
L 55.85577 234.174528 
L 38.610217 227.737326 
L 17.918347 220.167443 
L 17.892318 219.512193 
L 18.26896 219.452119 
L 18.337524 219.326997 
L 18.283886 219.185567 
L 18.063232 219.132559 
L 17.928089 218.838458 
L 18.344619 218.159791 
L 18.243226 218.062084 
L 18.204477 217.853472 
L 18.647881 217.587986 
L 18.729422 217.379418 
L 18.667917 216.826852 
L 18.504834 217.049682 
L 18.039483 217.308104 
L 17.904303 217.149345 
L 17.941067 216.86031 
L 18.349803 216.535817 
L 18.364729 216.436021 
L 18.272232 216.24065 
L 18.428477 215.817428 
L 18.361898 215.532436 
L 18.123193 215.328889 
L 18.100363 214.618631 
L 18.168044 214.504705 
L 18.444469 214.3539 
L 18.743098 214.499728 
L 19.059485 214.389935 
L 19.182936 213.977865 
L 19.767659 213.487416 
L 19.707367 213.275249 
L 20.276098 212.724771 
L 20.464731 211.962527 
L 21.271284 210.422397 
L 21.761562 209.45114 
L 21.987069 209.036271 
L 22.122836 209.022719 
L 22.527859 209.358987 
L 25.195416 209.762259 
L 25.21593 209.492952 
L 26.441182 209.473801 
L 26.442947 209.146154 
L 27.076308 209.148198 
L 27.07855 208.824727 
L 28.005835 208.813263 
L 28.010688 208.496146 
L 28.460525 208.489704 
L 28.283583 206.974945 
L 28.358433 206.784239 
L 28.637909 206.508845 
L 29.068189 205.850662 
L 29.664161 205.548563 
L 30.588578 204.576907 
L 30.754859 201.556676 
L 30.306639 201.090132 
L 30.149108 200.528146 
L 30.622033 199.684633 
L 30.602033 198.956424 
L 30.531962 198.858272 
L 30.31061 198.799799 
L 29.866029 199.032093 
L 29.707468 198.950559 
L 29.402773 197.360976 
L 29.155355 196.821028 
L 28.842939 196.469609 
L 28.842939 196.469609 
" clip-path="url(#p3c8b6d25e5)" style="fill: none; stroke: #000000; stroke-width: 1.5"/>
   </g>
  </g>
 </g>
 <defs>
  <clipPath id="p3c8b6d25e5">
   <rect x="7.2" y="7.2" width="233.395039" height="277.2"/>
  </clipPath>
 </defs>
</svg>
