  0
SECTION
  2
HEADER
  9
$ACADVER
  1
AC1018
  9
$ACADMAINTVER
 70
     0
  9
$DWGCODEPAGE
  3
ANSI_1252
  9
$EXTMIN
 10
-124.482003000119
 20
32.5288320002052
 30
0.0
  9
$EXTMAX
 10
-114.131210999644
 20
42.0095030001829
 30
0.0
  9
$LIMMIN
 10
0.0
 20
0.0
  9
$LIMMAX
 10
12.0
 20
9.0
  9
$ORTHOMODE
 70
     0
  9
$REGENMODE
 70
     1
  9
$FILLMODE
 70
     1
  9
$QTEXTMODE
 70
     0
  9
$MIRRTEXT
 70
     1
  9
$LTSCALE
 40
1.0
  9
$ATTMODE
 70
     1
  9
$TEXTSIZE
 40
0.2
  9
$TRACEWID
 40
0.05
  9
$TEXTSTYLE
  7
Standard
  9
$CLAYER
  8
0
  9
$CELTYPE
  6
ByLayer
  9
$CECOLOR
 62
   256
  9
$CELTSCALE
 40
1.0
  9
$DISPSILH
 70
     0
  9
$LUNITS
 70
     2
  9
$LUPREC
 70
     4
  9
$SKETCHINC
 40
0.1
  9
$FILLETRAD
 40
0.5
  9
$AUNITS
 70
     0
  9
$AUPREC
 70
     0
  9
$MENU
  1
.
  9
$ELEVATION
 40
0.0
  9
$PELEVATION
 40
0.0
  9
$THICKNESS
 40
0.0
  9
$LIMCHECK
 70
     0
  9
$CHAMFERA
 40
0.5
  9
$CHAMFERB
 40
0.5
  9
$CHAMFERC
 40
1.0
  9
$CHAMFERD
 40
0.0
  9
$SKPOLY
 70
     0
  9
$ANGBASE
 50
0.0
  9
$ANGDIR
 70
     0
  9
$PDMODE
 70
     0
  9
$PDSIZE
 40
0.0
  9
$PLINEWID
 40
0.0
  9
$SPLFRAME
 70
     0
  9
$SPLINETYPE
 70
     6
  9
$SPLINESEGS
 70
     8
  9
$HANDSEED
  5
00020007
  9
$SURFTAB1
 70
     6
  9
$SURFTAB2
 70
     6
  9
$SURFTYPE
 70
     6
  9
$SURFU
 70
     6
  9
$SURFV
 70
     6
  9
$UCSBASE
  2

  9
$UCSNAME
  2

  9
$UCSORG
 10
0.0
 20
0.0
 30
0.0
  9
$UCSXDIR
 10
1.0
 20
0.0
 30
0.0
  9
$UCSYDIR
 10
0.0
 20
1.0
 30
0.0
  9
$UCSORTHOREF
  2

  9
$UCSORTHOVIEW
 70
     0
  9
$UCSORGTOP
 10
0.0
 20
0.0
 30
0.0
  9
$UCSORGBOTTOM
 10
0.0
 20
0.0
 30
0.0
  9
$UCSORGLEFT
 10
0.0
 20
0.0
 30
0.0
  9
$UCSORGRIGHT
 10
0.0
 20
0.0
 30
0.0
  9
$UCSORGFRONT
 10
0.0
 20
0.0
 30
0.0
  9
$UCSORGBACK
 10
0.0
 20
0.0
 30
0.0
  9
$PUCSBASE
  2

  9
$PUCSNAME
  2

  9
$PUCSORG
 10
0.0
 20
0.0
 30
0.0
  9
$PUCSXDIR
 10
1.0
 20
0.0
 30
0.0
  9
$PUCSYDIR
 10
0.0
 20
1.0
 30
0.0
  9
$PUCSORTHOREF
  2

  9
$PUCSORTHOVIEW
 70
     0
  9
$PUCSORGTOP
 10
0.0
 20
0.0
 30
0.0
  9
$PUCSORGBOTTOM
 10
0.0
 20
0.0
 30
0.0
  9
$PUCSORGLEFT
 10
0.0
 20
0.0
 30
0.0
  9
$PUCSORGRIGHT
 10
0.0
 20
0.0
 30
0.0
  9
$PUCSORGFRONT
 10
0.0
 20
0.0
 30
0.0
  9
$PUCSORGBACK
 10
0.0
 20
0.0
 30
0.0
  9
$WORLDVIEW
 70
     1
  9
$SHADEDGE
 70
     3
  9
$SHADEDIF
 70
    70
  9
$TILEMODE
 70
     1
  9
$MAXACTVP
 70
    64
  9
$PINSBASE
 10
0.0
 20
0.0
 30
0.0
  9
$PLIMCHECK
 70
     0
  9
$PEXTMIN
 10
1.000000000000000E+20
 20
1.000000000000000E+20
 30
1.000000000000000E+20
  9
$PEXTMAX
 10
-1.000000000000000E+20
 20
-1.000000000000000E+20
 30
-1.000000000000000E+20
  9
$PLIMMIN
 10
0.0
 20
0.0
  9
$PLIMMAX
 10
12.0
 20
9.0
  9
$UNITMODE
 70
     0
  9
$VISRETAIN
 70
     1
  9
$PLINEGEN
 70
     0
  9
$PSLTSCALE
 70
     1
  9
$TREEDEPTH
 70
  3020
  9
$CMLSTYLE
  2
Standard
  9
$CMLJUST
 70
     0
  9
$CMLSCALE
 40
1.0
  9
$PROXYGRAPHICS
 70
     1
  9
$MEASUREMENT
 70
     0
  9
$CELWEIGHT
370
    -1
  9
$ENDCAPS
280
     0
  9
$JOINSTYLE
280
     0
  9
$LWDISPLAY
290
     0
  9
$INSUNITS
 70
     1
  9
$HYPERLINKBASE
  1

  9
$STYLESHEET
  1

  9
$XEDIT
290
     1
  9
$CEPSNTYPE
380
     0
  9
$PSTYLEMODE
290
     1
  9
$EXTNAMES
290
     1
  9
$PSVPSCALE
 40
0.0
  9
$OLESTARTUP
290
     0
  9
$SORTENTS
280
   127
  9
$INDEXCTL
280
     0
  9
$HIDETEXT
280
     1
  9
$XCLIPFRAME
290
     0
  9
$HALOGAP
280
     0
  9
$OBSCOLOR
 70
   257
  9
$OBSLTYPE
280
     0
  9
$INTERSECTIONDISPLAY
280
     0
  9
$INTERSECTIONCOLOR
 70
   257
  9
$DIMASSOC
280
     2
  9
$PROJECTNAME
  1

  0
ENDSEC
  0
SECTION
  2
CLASSES
  0
CLASS
  1
ACDBDICTIONARYWDFLT
  2
AcDbDictionaryWithDefault
  3
ObjectDBX Classes
 90
        0
 91
        4
280
     0
281
     0
  0
ENDSEC
  0
SECTION
  2
TABLES
  0
TABLE
  2
VPORT
  5
8
330
0
100
AcDbSymbolTable
 70
     1
  0
VPORT
  5
29
330
8
100
AcDbSymbolTableRecord
100
AcDbViewportTableRecord
  2
*Active
 70
     0
 10
0.0
 20
0.0
 11
1.0
 21
1.0
 12
80.25
 22
106.4409457059851
 13
0.0
 23
0.0
 14
0.5
 24
0.5
 15
0.5
 25
0.5
 16
0.0
 26
0.0
 36
1.0
 17
0.0
 27
0.0
 37
0.0
 40
113.3818914119703
 41
0.8863849310366128
 42
50.0
 43
0.0
 44
0.0
 50
0.0
 51
0.0
 71
     0
 72
  1000
 73
     1
 74
     3
 75
     0
 76
     0
 77
     0
 78
     0
281
     0
 65
     1
110
0.0
120
0.0
130
0.0
111
1.0
121
0.0
131
0.0
112
0.0
122
1.0
132
0.0
 79
     0
146
0.0
  0
ENDTAB
  0
TABLE
  2
LTYPE
  5
5
330
0
100
AcDbSymbolTable
 70
     1
  0
LTYPE
  5
14
330
5
100
AcDbSymbolTableRecord
100
AcDbLinetypeTableRecord
  2
ByBlock
 70
     0
  3

 72
    65
 73
     0
 40
0.0
  0
LTYPE
  5
15
330
5
100
AcDbSymbolTableRecord
100
AcDbLinetypeTableRecord
  2
ByLayer
 70
     0
  3

 72
    65
 73
     0
 40
0.0
  0
LTYPE
  5
16
330
5
100
AcDbSymbolTableRecord
100
AcDbLinetypeTableRecord
  2
Continuous
 70
     0
  3
Solid line
 72
    65
 73
     0
 40
0.0
  0
ENDTAB
  0
TABLE
  2
LAYER
  5
2
330
0
100
AcDbSymbolTable
 70
     1
  0
LAYER
  5
10
330
2
100
AcDbSymbolTableRecord
100
AcDbLayerTableRecord
  2
0
 70
     0
 62
     7
  6
Continuous
370
    -3
390
F
  0
ENDTAB
  0
TABLE
  2
STYLE
  5
3
330
0
100
AcDbSymbolTable
 70
     1
  0
STYLE
  5
11
330
3
100
AcDbSymbolTableRecord
100
AcDbTextStyleTableRecord
  2
Standard
 70
     0
 40
0.0
 41
1.0
 50
0.0
 71
     0
 42
0.2
  3
txt
  4

  0
ENDTAB
  0
TABLE
  2
VIEW
  5
6
330
0
100
AcDbSymbolTable
 70
     0
  0
ENDTAB
  0
TABLE
  2
UCS
  5
7
330
0
100
AcDbSymbolTable
 70
     0
  0
ENDTAB
  0
TABLE
  2
APPID
  5
9
330
0
100
AcDbSymbolTable
 70
     1
  0
APPID
  5
12
330
9
100
AcDbSymbolTableRecord
100
AcDbRegAppTableRecord
  2
ACAD
 70
     0
  0
ENDTAB
  0
TABLE
  2
DIMSTYLE
  5
A
330
0
100
AcDbSymbolTable
 70
     1
100
AcDbDimStyleTable
  0
DIMSTYLE
105
27
330
A
100
AcDbSymbolTableRecord
100
AcDbDimStyleTableRecord
  2
Standard
 70
     0
340
11
  0
ENDTAB
  0
TABLE
  2
BLOCK_RECORD
  5
1
330
0
100
AcDbSymbolTable
 70
     1
  0
BLOCK_RECORD
  5
1F
330
1
100
AcDbSymbolTableRecord
100
AcDbBlockTableRecord
  2
*Model_Space
340
22
  0
BLOCK_RECORD
  5
1B
330
1
100
AcDbSymbolTableRecord
100
AcDbBlockTableRecord
  2
*Paper_Space
340
1E
  0
ENDTAB
  0
ENDSEC
  0
SECTION
  2
BLOCKS
  0
BLOCK
  5
20
330
1F
100
AcDbEntity
  8
0
100
AcDbBlockBegin
  2
*Model_Space
 70
     0
 10
0.0
 20
0.0
 30
0.0
  3
*Model_Space
  1

  0
ENDBLK
  5
21
330
1F
100
AcDbEntity
  8
0
100
AcDbBlockEnd
  0
BLOCK
  5
1C
330
1B
100
AcDbEntity
 67
     1
  8
0
100
AcDbBlockBegin
  2
*Paper_Space
 70
     0
 10
0.0
 20
0.0
 30
0.0
  3
*Paper_Space
  1

  0
ENDBLK
  5
1D
330
1B
100
AcDbEntity
 67
     1
  8
0
100
AcDbBlockEnd
  0
ENDSEC
  0
SECTION
  2
ENTITIES
  0
HATCH
  5
20000
100
AcDbEntity
  8
0
100
AcDbHatch
 10
0
 20
0
 30
0
210
0
220
0
230
1
  2
SOLID
 70
1
 71
0
 91
1
 92
2
 72
0
 73
1
 93
1079
 10
-124.136560999568
 20
41.4644520001748
 10
-124.144127999686
 20
41.4868809999681
 10
-124.151304999817
 20
41.4998419999228
 10
-124.151821000201
 20
41.5082140000472
 10
-124.157942999997
 20
41.5189619997364
 10
-124.160111000392
 20
41.5293859999524
 10
-124.160492999984
 20
41.5434089997226
 10
-124.172273999795
 20
41.5509789998463
 10
-124.179960999564
 20
41.5583250000071
 10
-124.18499000029
 20
41.5657689998144
 10
-124.188336000144
 20
41.5739960002055
 10
-124.187126999824
 20
41.5889699998552
 10
-124.189188000089
 20
41.5917800002224
 10
-124.190532999953
 20
41.5987400001524
 10
-124.190112999828
 20
41.6081900002046
 10
-124.201339999621
 20
41.6194039997555
 10
-124.209784999623
 20
41.6352049998289
 10
-124.21141900009
 20
41.6416880001727
 10
-124.210489000328
 20
41.6494630000949
 10
-124.211783999963
 20
41.661907000247
 10
-124.208546000064
 20
41.6738159996739
 10
-124.211706000145
 20
41.6811929999274
 10
-124.222604999875
 20
41.6852669998502
 10
-124.236856000204
 20
41.6946400002946
 10
-124.249473000067
 20
41.6969579996697
 10
-124.262421000365
 20
41.7018570003068
 10
-124.278061999866
 20
41.7096739997376
 10
-124.300301000264
 20
41.7241449999237
 10
-124.330609000022
 20
41.733792999931
 10
-124.369187999704
 20
41.7634119997706
 10
-124.376199999979
 20
41.7646280001714
 10
-124.392054999741
 20
41.7723770001241
 10
-124.41075699959
 20
41.7883120000338
 10
-124.41752600019
 20
41.8000170000359
 10
-124.429184999802
 20
41.8097259998921
 10
-124.435032999962
 20
41.8165809999269
 10
-124.438909000445
 20
41.8245039997768
 10
-124.440707000045
 20
41.8387400001338
 10
-124.435015000419
 20
41.8565069997977
 10
-124.426107999561
 20
41.868775999949
 10
-124.411317000354
 20
41.8820559998517
 10
-124.401242000083
 20
41.8855880001187
 10
-124.365199000143
 20
41.8865680001614
 10
-124.347647000164
 20
41.8831540002278
 10
-124.332984000106
 20
41.8769999998653
 10
-124.311935999587
 20
41.8587880002942
 10
-124.298003999997
 20
41.8606700000252
 10
-124.285030999585
 20
41.8594869999438
 10
-124.27964899958
 20
41.8748359998887
 10
-124.280732000402
 20
41.8748359998887
 10
-124.276120000326
 20
41.9030520002619
 10
-124.285686999711
 20
41.9129160000971
 10
-124.289938999937
 20
41.920057000303
 10
-124.291939000102
 20
41.9284980001635
 10
-124.289926000416
 20
41.9454319998878
 10
-124.284768999644
 20
41.9568339997963
 10
-124.288578000179
 20
41.9695639998386
 10
-124.301184000171
 20
41.9829840001788
 10
-124.306994999623
 20
41.992906000134
 10
-124.328834999812
 20
41.9983340000251
 10
-123.810907999885
 20
41.9951639998154
 10
-123.728169000323
 20
41.9970559998112
 10
-123.657212000396
 20
41.9950940002023
 10
-123.624022000391
 20
41.9997699998165
 10
-123.564204000394
 20
42.0007059999163
 10
-123.346954999993
 20
41.9992760001472
 10
-123.183923000199
 20
42.0057889998447
 10
-123.145735000329
 20
42.0087609998891
 10
-123.043996999918
 20
42.0030840000773
 10
-122.7027870004
 20
42.0042240002237
 10
-122.378049000411
 20
42.0095030001829
 10
-121.344911000224
 20
41.9962140001272
 10
-121.168476999672
 20
41.9971779999419
 10
-120.990083000037
 20
41.9930560001705
 10
-120.798116999764
 20
41.9939509996729
 10
-120.326386999691
 20
41.992586000032
 10
-119.999234000333
 20
41.9949440002954
 10
-119.998286999954
 20
41.6188180003087
 10
-119.999875000391
 20
40.9998940001065
 10
-119.995976000342
 20
40.57054999967
 10
-119.995705000181
 20
40.3758299997791
 10
-119.997706000171
 20
39.9999050001949
 10
-120.001133000217
 20
39.7522290002301
 10
-120.000820000222
 20
39.606828000071
 10
-120.002909000076
 20
39.4644019999406
 10
-120.006126999884
 20
39.3741060000853
 10
-120.006473000389
 20
39.2728780003376
 10
-120.001014000391
 20
38.9995739998671
 10
-119.453823000271
 20
38.6224329997542
 10
-119.125982000102
 20
38.3931700002632
 10
-118.714201000446
 20
38.1021049999393
 10
-118.052188999899
 20
37.6249300001613
 10
-117.904625000253
 20
37.5158359997378
 10
-117.875926999775
 20
37.497267000023
 10
-117.712357999681
 20
37.3749309998151
 10
-117.680609999624
 20
37.3533989997183
 10
-117.581417999901
 20
37.2789359998489
 10
-117.500117000089
 20
37.2203799998619
 10
-116.874253999787
 20
36.7520809998818
 10
-116.488233000286
 20
36.4590969997845
 10
-116.094166000092
 20
36.156262999646
 10
-115.695436999593
 20
35.8462579998167
 10
-115.259720000222
 20
35.503540999858
 10
-115.100957000373
 20
35.3756810000582
 10
-114.797340999625
 20
35.1349270001186
 10
-114.633487000024
 20
35.0018569999241
 10
-114.62944300021
 20
34.9918249999528
 10
-114.629129000391
 20
34.9861319998263
 10
-114.635236999944
 20
34.9651490001662
 10
-114.634953000262
 20
34.9589180001021
 10
-114.629768999725
 20
34.9430399999549
 10
-114.633252999672
 20
34.9246079996703
 10
-114.630876999763
 20
34.907263000249
 10
-114.636724999923
 20
34.8891070000245
 10
-114.634381999626
 20
34.8728899999581
 10
-114.630681999769
 20
34.8663519996439
 10
-114.623939000007
 20
34.8597380003241
 10
-114.600652999671
 20
34.8473610001277
 10
-114.586841999557
 20
34.8356720002071
 10
-114.576451999641
 20
34.8152999996909
 10
-114.57101000026
 20
34.7942939999411
 10
-114.55865299979
 20
34.7738519998061
 10
-114.552681999607
 20
34.7668710001902
 10
-114.529614999554
 20
34.750821999943
 10
-114.516618999575
 20
34.7367449998607
 10
-114.492016999687
 20
34.7257019999347
 10
-114.487508000442
 20
34.7166259999096
 10
-114.48277900019
 20
34.7145110003303
 10
-114.473682000259
 20
34.7139639998759
 10
-114.470476999972
 20
34.7113679996688
 10
-114.46524599958
 20
34.6912020001372
 10
-114.455536000079
 20
34.6773350002106
 10
-114.454305000018
 20
34.6712339998288
 10
-114.450506000427
 20
34.6668359996652
 10
-114.451785000169
 20
34.6638910002644
 10
-114.457701999926
 20
34.6593280003603
 10
-114.457984999783
 20
34.6571129998036
 10
-114.449549000002
 20
34.6514229997706
 10
-114.441464999674
 20
34.6425300001632
 10
-114.440293999888
 20
34.6382400002883
 10
-114.441397999727
 20
34.6301709997853
 10
-114.438738999961
 20
34.6214550000576
 10
-114.424202000299
 20
34.6104530003166
 10
-114.425337999926
 20
34.600841999967
 10
-114.436809999941
 20
34.5960740001477
 10
-114.422382000059
 20
34.5807109999993
 10
-114.405227999566
 20
34.5696369998726
 10
-114.380838000288
 20
34.5297240002774
 10
-114.378223000005
 20
34.5165210003569
 10
-114.37812400027
 20
34.5072880000412
 10
-114.382358000055
 20
34.4957579996309
 10
-114.381701000104
 20
34.4760400002075
 10
-114.387186999866
 20
34.4620210001845
 10
-114.386698999969
 20
34.4579109997009
 10
-114.373718999884
 20
34.4469379997967
 10
-114.342615000258
 20
34.4514419998156
 10
-114.335372000004
 20
34.4500379996415
 10
-114.330668999692
 20
34.4452950002357
 10
-114.326130000309
 20
34.4372510002063
 10
-114.312251000423
 20
34.4327259997448
 10
-114.301016000235
 20
34.4268070002088
 10
-114.294835999814
 20
34.4213889996615
 10
-114.292225999553
 20
34.4176059998756
 10
-114.291751000075
 20
34.4111039997171
 10
-114.288662999964
 20
34.4066230003178
 10
-114.280108000357
 20
34.403147000207
 10
-114.264317000169
 20
34.4013290001697
 10
-114.252738999849
 20
34.3901000000076
 10
-114.234274999652
 20
34.3766620000794
 10
-114.22968600004
 20
34.3689079997616
 10
-114.226106999659
 20
34.3659160003232
 10
-114.213774000377
 20
34.362459999954
 10
-114.199482000039
 20
34.3613729999983
 10
-114.176908999731
 20
34.3493059998711
 10
-114.168806999861
 20
34.3395129998878
 10
-114.157205999975
 20
34.3178620001229
 10
-114.138282000368
 20
34.3032299999102
 10
-114.139534000346
 20
34.2958439996355
 10
-114.136050000399
 20
34.2808330003012
 10
-114.136671000365
 20
34.2743769997511
 10
-114.131210999644
 20
34.2627299998709
 10
-114.131489000376
 20
34.2603869996707
 10
-114.135450000349
 20
34.2578860001442
 10
-114.144779000083
 20
34.2596230001518
 10
-114.153346000284
 20
34.2582890000047
 10
-114.164648000419
 20
34.2596989998628
 10
-114.163866999721
 20
34.2533490003366
 10
-114.166123999805
 20
34.2500149998975
 10
-114.174597000294
 20
34.2473029999875
 10
-114.178050000279
 20
34.2399690000097
 10
-114.190876000379
 20
34.230857999729
 10
-114.211760999793
 20
34.211538999889
 10
-114.225193999615
 20
34.2036419997349
 10
-114.224940999895
 20
34.1938959997231
 10
-114.227033999947
 20
34.1888659998951
 10
-114.229715000352
 20
34.1869280002699
 10
-114.240711999991
 20
34.1832320000931
 10
-114.244421000069
 20
34.1794030003606
 10
-114.257033999733
 20
34.1728369998884
 10
-114.268459999717
 20
34.1701770000703
 10
-114.275266999952
 20
34.1721489997966
 10
-114.28729399981
 20
34.1705290001584
 10
-114.29280600041
 20
34.1667249999847
 10
-114.312206000217
 20
34.1447760000247
 10
-114.320776999718
 20
34.138634999845
 10
-114.336111999796
 20
34.1340339998253
 10
-114.348050999791
 20
34.1344570003641
 10
-114.353030000288
 20
34.1331199998217
 10
-114.360402000413
 20
34.1235770001411
 10
-114.366516999638
 20
34.1185769998982
 10
-114.379223000087
 20
34.1159899999295
 10
-114.390565000405
 20
34.110084000353
 10
-114.401336000088
 20
34.1116380002988
 10
-114.411679999973
 20
34.1100309999868
 10
-114.420499000069
 20
34.1034660001573
 10
-114.428026000005
 20
34.0927869999101
 10
-114.434181000312
 20
34.0873789997436
 10
-114.439339999836
 20
34.0578929998373
 10
-114.434948999693
 20
34.0377840003627
 10
-114.438266000133
 20
34.0226089999267
 10
-114.44382100039
 20
34.0161760001066
 10
-114.450205999953
 20
34.0125739999092
 10
-114.454807000158
 20
34.0109680003066
 10
-114.463335999826
 20
34.0122589998225
 10
-114.465867000444
 20
34.0109869998183
 10
-114.467310000217
 20
34.0051899998307
 10
-114.459184000057
 20
34.0000159996746
 10
-114.458028000339
 20
33.9971580003412
 10
-114.459257999677
 20
33.9947110002695
 10
-114.467932000008
 20
33.9928770002875
 10
-114.471138000121
 20
33.9880400001696
 10
-114.481455000242
 20
33.9812609998295
 10
-114.484784000378
 20
33.9755190003477
 10
-114.499882999556
 20
33.9617890000441
 10
-114.50866900004
 20
33.9575249998096
 10
-114.515860000415
 20
33.9581059997912
 10
-114.522733999699
 20
33.9550390001604
 10
-114.528679999768
 20
33.9478170002516
 10
-114.535676000149
 20
33.9335519996424
 10
-114.534951000426
 20
33.925700000347
 10
-114.525360999678
 20
33.9222719997147
 10
-114.518433999792
 20
33.9175180001753
 10
-114.511511000105
 20
33.9110919998919
 10
-114.507920000028
 20
33.9038070003415
 10
-114.508708000398
 20
33.9006399996971
 10
-114.513714999586
 20
33.8979589996314
 10
-114.525872000039
 20
33.9010080000101
 10
-114.522768000034
 20
33.8925830000528
 10
-114.504339999822
 20
33.876881999907
 10
-114.503016999699
 20
33.867998000008
 10
-114.50563799983
 20
33.864275999828
 10
-114.514672999836
 20
33.858638000135
 10
-114.524291999998
 20
33.8601329999573
 10
-114.529883000241
 20
33.857562999755
 10
-114.52959700001
 20
33.8480629997453
 10
-114.519970000351
 20
33.8253810003531
 10
-114.522713999607
 20
33.8189789999425
 10
-114.528049999582
 20
33.8149629999611
 10
-114.518941999781
 20
33.7973019997072
 10
-114.516734000101
 20
33.7883450002618
 10
-114.504862999878
 20
33.7604650001888
 10
-114.504482999937
 20
33.7509979996312
 10
-114.512347999981
 20
33.7342139998181
 10
-114.50417599979
 20
33.728054999944
 10
-114.500788000103
 20
33.7222039997931
 10
-114.496565000189
 20
33.719154999932
 10
-114.494196999778
 20
33.7079220002624
 10
-114.496489000021
 20
33.696901000083
 10
-114.523958999912
 20
33.6858790001813
 10
-114.530347999673
 20
33.6792449996835
 10
-114.531522999658
 20
33.6751080001403
 10
-114.532122999707
 20
33.6697020001327
 10
-114.53026700038
 20
33.6668209997697
 10
-114.526438999579
 20
33.663880000266
 10
-114.517112000393
 20
33.6628770002753
 10
-114.514056999893
 20
33.6601789999654
 10
-114.514559000033
 20
33.6580139999723
 10
-114.518336999708
 20
33.6559269999056
 10
-114.530582999849
 20
33.6544609999774
 10
-114.533193999935
 20
33.651660000203
 10
-114.533214999852
 20
33.6484429996604
 10
-114.525394000188
 20
33.6406690001536
 10
-114.523801999554
 20
33.6347000000093
 10
-114.526369999982
 20
33.6302589997495
 10
-114.531033999936
 20
33.6282129998021
 10
-114.531214999686
 20
33.6239130002751
 10
-114.521844999944
 20
33.612544000031
 10
-114.529186000107
 20
33.6066500001862
 10
-114.540617000113
 20
33.591412000232
 10
-114.540299999921
 20
33.5806150001141
 10
-114.536784000187
 20
33.5709589997949
 10
-114.531613000069
 20
33.5617019998336
 10
-114.528220000359
 20
33.5593179998278
 10
-114.524215000006
 20
33.5530679997355
 10
-114.558898000013
 20
33.5318189997814
 10
-114.560962999577
 20
33.5167389999055
 10
-114.569533000151
 20
33.5092189998394
 10
-114.580467999865
 20
33.506465000001
 10
-114.592369000225
 20
33.4986750001603
 10
-114.601693999761
 20
33.4813959998256
 10
-114.612472000015
 20
33.4707680001652
 10
-114.622918000008
 20
33.4565609998138
 10
-114.622282999798
 20
33.4475580000116
 10
-114.629639999854
 20
33.42813699965
 10
-114.643302000005
 20
33.4167459996419
 10
-114.649540000152
 20
33.4136330002168
 10
-114.656734999827
 20
33.4128130002564
 10
-114.673690999953
 20
33.4191570002595
 10
-114.687949999781
 20
33.417933999699
 10
-114.695658000364
 20
33.4151279996741
 10
-114.69770799986
 20
33.41094199963
 10
-114.701787999658
 20
33.4083769998045
 10
-114.720065000258
 20
33.4078909999378
 10
-114.725282000407
 20
33.4050480001963
 10
-114.724249999639
 20
33.4004200001815
 10
-114.707308999581
 20
33.382540000008
 10
-114.707347999939
 20
33.3766269997882
 10
-114.699056000097
 20
33.3611479996339
 10
-114.698035000098
 20
33.3524420003696
 10
-114.700938000262
 20
33.3370140001415
 10
-114.70787000017
 20
33.3233160002414
 10
-114.723622999825
 20
33.3121090001766
 10
-114.72990399963
 20
33.3057449997852
 10
-114.731222999555
 20
33.3024330002204
 10
-114.721670000414
 20
33.2869820000651
 10
-114.694449000044
 20
33.279785000309
 10
-114.680507000409
 20
33.2735760001751
 10
-114.677031999785
 20
33.2701690002306
 10
-114.672088000346
 20
33.2584990001751
 10
-114.674491000019
 20
33.2555970000143
 10
-114.689540999692
 20
33.2464280002242
 10
-114.673625999656
 20
33.2231209998096
 10
-114.678749000093
 20
33.203448000124
 10
-114.675358999858
 20
33.185488000051
 10
-114.680889999826
 20
33.169074000152
 10
-114.679944999994
 20
33.1590590001759
 10
-114.687404999983
 20
33.1419830003167
 10
-114.696913999642
 20
33.1311190002023
 10
-114.703682000417
 20
33.1137680000752
 10
-114.70789600011
 20
33.097430999681
 10
-114.706487999598
 20
33.0881600000586
 10
-114.689020000184
 20
33.084035000087
 10
-114.689119999743
 20
33.0761209997059
 10
-114.686990999706
 20
33.0709680000729
 10
-114.674295000201
 20
33.0571690002503
 10
-114.675102999765
 20
33.0475299999263
 10
-114.673659000166
 20
33.0418959997568
 10
-114.665060000178
 20
33.0339060003692
 10
-114.662316999848
 20
33.0326700001964
 10
-114.657826999971
 20
33.0338239996895
 10
-114.649001000202
 20
33.0467619998621
 10
-114.645979000213
 20
33.0489019999723
 10
-114.639551999919
 20
33.0452900000327
 10
-114.628294000165
 20
33.03105000031
 10
-114.61878799998
 20
33.0272020001241
 10
-114.601014000244
 20
33.0254100000797
 10
-114.589778000231
 20
33.0262279999847
 10
-114.584765000297
 20
33.028230000122
 10
-114.579369999873
 20
33.0345630001578
 10
-114.575161000204
 20
33.0365410001176
 10
-114.538458999764
 20
33.0334219999004
 10
-114.520130000184
 20
33.0299839999246
 10
-114.511342999875
 20
33.0234549997461
 10
-114.502870000284
 20
33.0111539996917
 10
-114.499797000241
 20
33.0039049999807
 10
-114.492938000127
 20
32.9717809996967
 10
-114.488624999802
 20
32.9699460003102
 10
-114.476531999821
 20
32.9751739996663
 10
-114.470511000307
 20
32.9738580001708
 10
-114.468604999853
 20
32.9716490002934
 10
-114.46731500024
 20
32.9640600003178
 10
-114.46806099988
 20
32.9552600002288
 10
-114.470768000225
 20
32.9494239998677
 10
-114.480924999614
 20
32.9362760002656
 10
-114.476639999776
 20
32.9236280001936
 10
-114.464448000062
 20
32.9131279997402
 10
-114.46292900012
 20
32.9079439998112
 10
-114.468970999551
 20
32.8451550000409
 10
-114.494115999587
 20
32.8232869996422
 10
-114.510326999899
 20
32.8164879997865
 10
-114.522030999717
 20
32.801674999808
 10
-114.529632999996
 20
32.7954769997985
 10
-114.531669000146
 20
32.7911850001968
 10
-114.532432000402
 20
32.776921999978
 10
-114.528442999942
 20
32.7672760001137
 10
-114.526856000228
 20
32.7570940000453
 10
-114.539092000324
 20
32.7569490003357
 10
-114.53922399967
 20
32.7498120003363
 10
-114.564447000422
 20
32.7495539997746
 10
-114.564507999623
 20
32.7422740002121
 10
-114.581735999737
 20
32.7423200001372
 10
-114.581784000316
 20
32.7349460003693
 10
-114.615112000413
 20
32.7345150000883
 10
-114.615669999732
 20
32.728453999819
 10
-114.617395000436
 20
32.728256999714
 10
-114.688230000163
 20
32.7375299997095
 10
-114.701581999794
 20
32.7456320003384
 10
-114.714521999697
 20
32.7303899998469
 10
-114.717695000197
 20
32.7215470001937
 10
-114.720288999666
 20
32.7187009997836
 10
-115.465163999624
 20
32.667100000021
 10
-115.875842000163
 20
32.636423999857
 10
-116.390090999975
 20
32.5960200000485
 10
-117.1248560004
 20
32.534155999953
 10
-117.204916999929
 20
32.5288320002052
 10
-117.210025000298
 20
32.5546339999254
 10
-117.210025000298
 20
32.5728829997962
 10
-117.214111999769
 20
32.5947809997908
 10
-117.218195999765
 20
32.6102920001781
 10
-117.223301999586
 20
32.6212380003584
 10
-117.2335130003
 20
32.6166779997752
 10
-117.246786000288
 20
32.6148539997336
 10
-117.255092000373
 20
32.615473999919
 10
-117.268788999786
 20
32.6194149996532
 10
-117.276915999771
 20
32.6234739999694
 10
-117.297538000317
 20
32.6417690002424
 10
-117.309238999763
 20
32.6564010002564
 10
-117.320939000281
 20
32.6898469997929
 10
-117.325619999954
 20
32.731652999624
 10
-117.330299999802
 20
32.8048169996379
 10
-117.342000000321
 20
32.8403540001209
 10
-117.339660000397
 20
32.8591670003097
 10
-117.332639999726
 20
32.8821610000755
 10
-117.323279000205
 20
32.903064000146
 10
-117.375872000391
 20
33.0752170003395
 10
-117.435563000167
 20
33.177512000136
 10
-117.46787100009
 20
33.2124939998076
 10
-117.500875000323
 20
33.2421509997823
 10
-117.520999000029
 20
33.2688720001323
 10
-117.57153099995
 20
33.312302000346
 10
-117.625879999904
 20
33.3421089999768
 10
-117.636201000223
 20
33.3491280001061
 10
-117.647859999835
 20
33.3636349996577
 10
-117.653795000034
 20
33.3648179998206
 10
-117.713571000199
 20
33.4087769999106
 10
-117.735336000045
 20
33.4074360001597
 10
-117.741409000336
 20
33.4101179999561
 10
-117.765140000013
 20
33.4315390001269
 10
-117.790478000393
 20
33.4612410002927
 10
-117.793261999832
 20
33.4697820000905
 10
-117.811276999593
 20
33.4820190002314
 10
-117.816355999649
 20
33.4908720001188
 10
-117.934045999906
 20
33.5492540003575
 10
-118.000878999652
 20
33.5931650002907
 10
-118.033610999898
 20
33.6093539999289
 10
-118.04984800015
 20
33.6200149997678
 10
-118.075074000376
 20
33.639606000054
 10
-118.096472999626
 20
33.6536510001857
 10
-118.125900000026
 20
33.6971509996878
 10
-118.165830000319
 20
33.6915630001271
 10
-118.237008000178
 20
33.6905949996897
 10
-118.254528000369
 20
33.6750700002196
 10
-118.274238999623
 20
33.6634290000966
 10
-118.319134999995
 20
33.6595469999072
 10
-118.345414999833
 20
33.6634270000656
 10
-118.377171000285
 20
33.6789529997858
 10
-118.385930999932
 20
33.6867119997295
 10
-118.428637000167
 20
33.701266000009
 10
-118.466962000305
 20
33.7255240001781
 10
-118.485577000115
 20
33.7536639997548
 10
-118.487768000076
 20
33.7798650002011
 10
-118.484483000321
 20
33.8031540002871
 10
-118.469153000266
 20
33.8186790002285
 10
-118.450537999557
 20
33.8322650000146
 10
-118.443968000047
 20
33.8390570000781
 10
-118.447253999627
 20
33.8487599999109
 10
-118.476819999943
 20
33.8895129999226
 10
-118.500912000193
 20
33.9186210002555
 10
-118.508626999551
 20
33.9325169998918
 10
-118.523446999968
 20
33.9530490000191
 10
-118.533473999661
 20
33.961794000222
 10
-118.548417000102
 20
33.9799699999653
 10
-118.557355999849
 20
33.9876730000999
 10
-118.569687000379
 20
33.9888109997201
 10
-118.586577000383
 20
33.9870129999059
 10
-118.594079000204
 20
33.9880650000416
 10
-118.604388999754
 20
33.9862830003686
 10
-118.648347999792
 20
33.9867289996761
 10
-118.666514000064
 20
33.9805620001288
 10
-118.680814999724
 20
33.9791599996532
 10
-118.689144000274
 20
33.9799499998023
 10
-118.704573999888
 20
33.9778399997411
 10
-118.727459000366
 20
33.9803070000316
 10
-118.735527999726
 20
33.9770350000191
 10
-118.746391000369
 20
33.9755010000781
 10
-118.754411000223
 20
33.9677919999368
 10
-118.786528000351
 20
33.9514299997101
 10
-118.803613000349
 20
33.9472400002956
 10
-118.814752000278
 20
33.9472140002856
 10
-118.829381000001
 20
33.9503949997056
 10
-118.841115999781
 20
33.9553710001174
 10
-118.856845999869
 20
33.965969999758
 10
-118.873997999815
 20
33.9833139999482
 10
-118.88730099994
 20
33.987222999948
 10
-118.9524259996
 20
33.992958999701
 10
-118.964029000034
 20
33.9967540002338
 10
-118.985311999831
 20
34.0000079997095
 10
-119.000420999953
 20
34.0074670002028
 10
-119.027407000146
 20
34.0149190000577
 10
-119.116797000308
 20
34.0298229999627
 10
-119.15896299987
 20
34.040253000306
 10
-119.217993000395
 20
34.0624909998084
 10
-119.250942000376
 20
34.1062010002714
 10
-119.267733999572
 20
34.121251999847
 10
-119.285743000384
 20
34.1408049997677
 10
-119.2975690004
 20
34.1603160003674
 10
-119.32865399976
 20
34.2269059998049
 10
-119.334886999885
 20
34.2368650000482
 10
-119.350725999753
 20
34.240138999716
 10
-119.375935000261
 20
34.2498799996847
 10
-119.386332999675
 20
34.2570739998822
 10
-119.401994000166
 20
34.2722580000642
 10
-119.42861999961
 20
34.2777810000983
 10
-119.448981999866
 20
34.2846850003058
 10
-119.466994999977
 20
34.2936600001748
 10
-119.484223999915
 20
34.3067790003265
 10
-119.500953000261
 20
34.3269220003368
 10
-119.519471999812
 20
34.3360690002682
 10
-119.522909999728
 20
34.335919000033
 10
-119.527917999639
 20
34.338770999939
 10
-119.532653999564
 20
34.3387700000546
 10
-119.547849999725
 20
34.3443620002059
 10
-119.555828999572
 20
34.3450190002652
 10
-119.574544999664
 20
34.3538160003093
 10
-119.584794999838
 20
34.361660000205
 10
-119.590294000019
 20
34.3612089999686
 10
-119.602060999586
 20
34.3636540003374
 10
-119.617461999787
 20
34.3687300003399
 10
-119.62596200004
 20
34.3662159999753
 10
-119.651357000322
 20
34.3667080001047
 10
-119.666109999893
 20
34.3544640002056
 10
-119.697782999607
 20
34.3408669999531
 10
-119.716128999804
 20
34.3361079999739
 10
-119.732022999923
 20
34.3396959999077
 10
-119.79706700029
 20
34.3653310002106
 10
-119.805805000196
 20
34.3653400000265
 10
-119.823147999937
 20
34.35704700016
 10
-119.8379209996
 20
34.3543179997803
 10
-119.855270000087
 20
34.3543299998757
 10
-119.865897999654
 20
34.3571859996616
 10
-119.875969999553
 20
34.3556409997601
 10
-119.89152100044
 20
34.3574570003425
 10
-119.905420000417
 20
34.364370999712
 10
-119.916529000208
 20
34.3726099997721
 10
-119.923394999995
 20
34.3734529997509
 10
-120.009415999837
 20
34.4015350002315
 10
-120.024355999905
 20
34.4093430001782
 10
-120.036135999891
 20
34.4099480003642
 10
-120.04481400042
 20
34.4124540000469
 10
-120.056787999677
 20
34.4099350003083
 10
-120.076435000255
 20
34.4111159998292
 10
-120.090669999793
 20
34.4092859999044
 10
-120.10830899981
 20
34.4128909999176
 10
-120.1351200001
 20
34.4220609999332
 10
-120.147280000028
 20
34.422915999779
 10
-120.163636000105
 20
34.4203610001706
 10
-120.191753999727
 20
34.4199880003091
 10
-120.202828000256
 20
34.4222079997127
 10
-120.240604000398
 20
34.4174560003567
 10
-120.280221999624
 20
34.4162979997281
 10
-120.287125000118
 20
34.4176089996706
 10
-120.324511000273
 20
34.4097479996783
 10
-120.340002999811
 20
34.4094239996422
 10
-120.348871000311
 20
34.4073240002739
 10
-120.36733499961
 20
34.4084859998183
 10
-120.386921999914
 20
34.4056529998112
 10
-120.390591999634
 20
34.4032970001877
 10
-120.408527999752
 20
34.3986529997345
 10
-120.42603200005
 20
34.3967449999613
 10
-120.443640999929
 20
34.3919649997013
 10
-120.456015000117
 20
34.3914849996413
 10
-120.475218000282
 20
34.3966630001469
 10
-120.488091000237
 20
34.3982780003317
 10
-120.500999000352
 20
34.4031360002918
 10
-120.523646000281
 20
34.4195049997307
 10
-120.535571999857
 20
34.4395209997955
 10
-120.535663999918
 20
34.4526950001029
 10
-120.544585999946
 20
34.4602209996582
 10
-120.553104999568
 20
34.471009999929
 10
-120.559438999975
 20
34.4884659999047
 10
-120.581510000143
 20
34.4966320000224
 10
-120.594333999695
 20
34.5040720002043
 10
-120.60948100035
 20
34.5019099996324
 10
-120.642360000011
 20
34.5037650003149
 10
-120.656058000147
 20
34.508597999749
 10
-120.684528999946
 20
34.5271309997276
 10
-120.694986999634
 20
34.5406340001898
 10
-120.706452999801
 20
34.5519069999756
 10
-120.71275700007
 20
34.5682970002024
 10
-120.713328999633
 20
34.5749600001178
 10
-120.712133999556
 20
34.5842019998684
 10
-120.707088999835
 20
34.5975009996689
 10
-120.708370000125
 20
34.6098529999396
 10
-120.705314999626
 20
34.621408000331
 10
-120.701283000406
 20
34.6300069998426
 10
-120.686479999707
 20
34.6450229997271
 10
-120.664690999571
 20
34.6963439998306
 10
-120.66584499964
 20
34.6994299999166
 10
-120.677308000332
 20
34.7097429998362
 10
-120.684655000342
 20
34.7210779996624
 10
-120.693234000239
 20
34.7300420003251
 10
-120.698275999587
 20
34.7378320001768
 10
-120.70209299962
 20
34.7483289998645
 10
-120.702225999689
 20
34.7602150000993
 10
-120.699795000427
 20
34.7708609997465
 10
-120.692888999559
 20
34.7826640000808
 10
-120.684420000166
 20
34.8036570001997
 10
-120.673281000237
 20
34.8386240001337
 10
-120.68409799995
 20
34.8445260000055
 10
-120.695600000102
 20
34.8545849996534
 10
-120.712967000133
 20
34.8629020001035
 10
-120.720319000166
 20
34.8692410002627
 10
-120.730678999945
 20
34.8864270003272
 10
-120.734382000174
 20
34.9014990002576
 10
-120.733417000252
 20
34.9101609998775
 10
-120.727230000158
 20
34.9233160003237
 10
-120.728506000425
 20
34.9316469998929
 10
-120.726753000132
 20
34.9438050002255
 10
-120.720262000264
 20
34.9562930000118
 10
-120.714440000043
 20
34.9635409997476
 10
-120.694714999647
 20
35.0288389998469
 10
-120.691655999848
 20
35.0603560002992
 10
-120.687802000005
 20
35.0774880001424
 10
-120.689606000352
 20
35.0988280001127
 10
-120.707094999683
 20
35.1042899997176
 10
-120.725502999804
 20
35.113575999746
 10
-120.738496000308
 20
35.1096400001295
 10
-120.752427000072
 20
35.1094560003623
 10
-120.782920999603
 20
35.111978000133
 10
-120.800410999657
 20
35.1165769998577
 10
-120.808391000227
 20
35.1205450002019
 10
-120.821990999555
 20
35.1314409999701
 10
-120.830593999742
 20
35.1318690001384
 10
-120.839420000409
 20
35.134654000311
 10
-120.856926000356
 20
35.1428120002718
 10
-120.871703000217
 20
35.1537089998304
 10
-120.876013999995
 20
35.1597179998201
 10
-120.896839000033
 20
35.1713429999654
 10
-120.917792000117
 20
35.1873779996857
 10
-120.927919000267
 20
35.1994329996837
 10
-120.93020200029
 20
35.2046349996995
 10
-120.937349000284
 20
35.2080469997631
 10
-120.949032000185
 20
35.2210200003064
 10
-120.960247000282
 20
35.2436219999087
 10
-120.961253000213
 20
35.2499749999146
 10
-120.959375000246
 20
35.2654369996709
 10
-120.953330000442
 20
35.2848469997945
 10
-120.928602000158
 20
35.3307109997765
 10
-120.923435000238
 20
35.3484130001592
 10
-120.928284999965
 20
35.3609619998463
 10
-120.930797000317
 20
35.3749739999233
 10
-120.930244000123
 20
35.3830870000599
 10
-120.92828599979
 20
35.3868429998934
 10
-120.933292000052
 20
35.3927479998432
 10
-120.959669999799
 20
35.3964940002256
 10
-120.976827999592
 20
35.4035569998759
 10
-120.98963199995
 20
35.4111390001563
 10
-121.005555000382
 20
35.4095030000593
 10
-121.015004999592
 20
35.4106289996674
 10
-121.041635000132
 20
35.4199899998913
 10
-121.052307999906
 20
35.4285460000506
 10
-121.069057000343
 20
35.4472520001825
 10
-121.082953999772
 20
35.4556430002722
 10
-121.092238000199
 20
35.4666720001852
 10
-121.100138000403
 20
35.4708780003388
 10
-121.111207999836
 20
35.481322000226
 10
-121.118170999707
 20
35.4906039996358
 10
-121.12826600007
 20
35.4956089996833
 10
-121.151056000113
 20
35.5164120002193
 10
-121.177756000076
 20
35.5612549999146
 10
-121.187704999951
 20
35.5690770001227
 10
-121.201555000423
 20
35.5836899997679
 10
-121.220123000377
 20
35.5868740001768
 10
-121.231811000302
 20
35.5940390002194
 10
-121.246588999988
 20
35.6003629997705
 10
-121.259810000098
 20
35.6017559997835
 10
-121.270415999924
 20
35.606478999756
 10
-121.286036000407
 20
35.6084359997266
 10
-121.309979999621
 20
35.6170950003333
 10
-121.323512000075
 20
35.624969000172
 10
-121.339644999671
 20
35.6424280002096
 10
-121.345601999612
 20
35.6559640001563
 10
-121.347720999603
 20
35.6649839996761
 10
-121.366362000251
 20
35.6804189999952
 10
-121.378959999846
 20
35.7060259998182
 10
-121.377149999652
 20
35.7164699996864
 10
-121.379327000267
 20
35.7269590002184
 10
-121.385628999989
 20
35.7336879997855
 10
-121.393738000431
 20
35.7499679998911
 10
-121.393459999698
 20
35.7634009996815
 10
-121.399753999922
 20
35.7653420002152
 10
-121.428495999883
 20
35.7859050003346
 10
-121.450627000325
 20
35.8097839997634
 10
-121.456097000194
 20
35.8177130001298
 10
-121.481606000278
 20
35.8293539999589
 10
-121.501047000093
 20
35.8427449997689
 10
-121.519192000449
 20
35.8634000000102
 10
-121.532010999977
 20
35.884797999962
 10
-121.541827999608
 20
35.9016599996398
 10
-121.561460999943
 20
35.9438179997139
 10
-121.589277000339
 20
35.9592740002141
 10
-121.620365000071
 20
35.969109000268
 10
-121.631817999819
 20
35.978944999765
 10
-121.648179999744
 20
35.9986169996679
 10
-121.674359000198
 20
36.0646609999341
 10
-121.70871800034
 20
36.1025999997937
 10
-121.727811999826
 20
36.1290089998362
 10
-121.738109999681
 20
36.1357780002115
 10
-121.747331000358
 20
36.1459929997466
 10
-121.770692999964
 20
36.1620139996666
 10
-121.787967000108
 20
36.1684679999773
 10
-121.802353999982
 20
36.1782999997161
 10
-121.831680999923
 20
36.1845949996449
 10
-121.846404000256
 20
36.1903420003003
 10
-121.880192999588
 20
36.2103140000313
 10
-121.893520999828
 20
36.2242909997247
 10
-121.901164000114
 20
36.2396530000482
 10
-121.911266999975
 20
36.2487560001596
 10
-121.92036100043
 20
36.2550519998093
 10
-121.93066000011
 20
36.2595569999208
 10
-121.944201999712
 20
36.269598000073
 10
-121.957666000394
 20
36.2851169998803
 10
-121.96317700027
 20
36.2987660002555
 10
-121.964613000371
 20
36.3069809997061
 10
-121.962872999599
 20
36.3227330001331
 10
-121.967364000199
 20
36.3341680002547
 10
-121.971876999642
 20
36.3578309997054
 10
-121.972285999896
 20
36.3728479998338
 10
-121.970391000211
 20
36.3833680000001
 10
-121.975637999599
 20
36.3925700002751
 10
-121.981042000243
 20
36.419633999683
 10
-121.992920999964
 20
36.4333980000438
 10
-121.997117999938
 20
36.4410010000511
 10
-122.000836000236
 20
36.4556790001539
 10
-121.999472000106
 20
36.4664509997517
 10
-122.008970999719
 20
36.4753320000193
 10
-122.02199799966
 20
36.508908000049
 10
-122.022707000388
 20
36.5222270002467
 10
-122.020519999726
 20
36.531916000037
 10
-122.017455000079
 20
36.5374050001885
 10
-122.029033000399
 20
36.5484999999217
 10
-122.037459000135
 20
36.5603809998032
 10
-122.044049999561
 20
36.578249000104
 10
-122.044148000369
 20
36.5913539998173
 10
-122.040733000019
 20
36.6001200001425
 10
-122.034247999999
 20
36.609673000006
 10
-122.020127000264
 20
36.6227980003297
 10
-122.019350999589
 20
36.6277609997234
 10
-122.014172999799
 20
36.6366820003127
 10
-122.001124000117
 20
36.6477040003425
 10
-122.068316999713
 20
36.87495300025
 10
-122.076399000391
 20
36.9101989996802
 10
-122.103039999904
 20
36.9162550002936
 10
-122.130569000245
 20
36.9253380001534
 10
-122.172024000327
 20
36.9426810000653
 10
-122.20932199972
 20
36.9616059999779
 10
-122.251082000299
 20
36.9858330001852
 10
-122.261048999717
 20
36.9934520000644
 10
-122.265654000121
 20
37.0001199998834
 10
-122.276374999574
 20
37.0248339998708
 10
-122.29031299991
 20
37.0320899999378
 10
-122.313898999821
 20
37.0547640000667
 10
-122.336414000403
 20
37.0538579996533
 10
-122.348207999735
 20
37.0556719998531
 10
-122.36000299979
 20
37.058392999851
 10
-122.376086000055
 20
37.0656479999972
 10
-122.385738999654
 20
37.0758930001646
 10
-122.393126999672
 20
37.087164000065
 10
-122.396875000108
 20
37.1027639998855
 10
-122.396916000116
 20
37.10988799996
 10
-122.404395000371
 20
37.1139329999983
 10
-122.413361999707
 20
37.1217910001637
 10
-122.4213470003
 20
37.1350770002549
 10
-122.428466999631
 20
37.1377549999362
 10
-122.445631999995
 20
37.1500370000765
 10
-122.455426000059
 20
37.1666020000647
 10
-122.464117000109
 20
37.1778480000553
 10
-122.468052999967
 20
37.1879640000339
 10
-122.472234999873
 20
37.212214000289
 10
-122.47907100042
 20
37.2216820000589
 10
-122.481703000423
 20
37.2291470001287
 10
-122.484045999821
 20
37.2499439997846
 10
-122.481773999669
 20
37.271088000275
 10
-122.465868999679
 20
37.3412399996997
 10
-122.467005000204
 20
37.3498889998749
 10
-122.4874539996
 20
37.3883279999969
 10
-122.503542999714
 20
37.4119019997425
 10
-122.50773399984
 20
37.4227060000002
 10
-122.509888999816
 20
37.4415539998735
 10
-122.527595999605
 20
37.4460959998346
 10
-122.537337999791
 20
37.4507380003471
 10
-122.546996000311
 20
37.457857000118
 10
-122.568094999986
 20
37.4792139997329
 10
-122.572777000382
 20
37.4891820003453
 10
-122.57496300032
 20
37.4999429998837
 10
-122.579562999802
 20
37.5458749999176
 10
-122.586453999703
 20
37.5619130001405
 10
-122.588176999859
 20
37.5794080000458
 10
-122.586453999703
 20
37.5925289997036
 10
-122.567496999586
 20
37.6391850001535
 10
-122.581280999936
 20
37.7602030000046
 10
-122.584728000072
 20
37.7791560002602
 10
-122.588174000384
 20
37.7893619997579
 10
-122.612285000002
 20
37.8152240003521
 10
-122.626105000337
 20
37.8215970002912
 10
-122.632472000356
 20
37.8278070000463
 10
-122.643162999673
 20
37.8304509998495
 10
-122.667424999802
 20
37.8417260000369
 10
-122.675653999894
 20
37.8485169996871
 10
-122.691987000405
 20
37.8450060002627
 10
-122.704678999712
 20
37.8442959998115
 10
-122.715845000303
 20
37.8456250002499
 10
-122.730665999647
 20
37.8500599999636
 10
-122.740258000045
 20
37.8551740000585
 10
-122.752465999653
 20
37.8576989999704
 10
-122.766771000409
 20
37.8658039998437
 10
-122.779141000399
 20
37.8761320003153
 10
-122.785472000433
 20
37.8852769997712
 10
-122.789026999627
 20
37.8937630000949
 10
-122.814134000028
 20
37.9010839997164
 10
-122.829803999842
 20
37.9103250001687
 10
-122.842133999649
 20
37.9233170003399
 10
-122.850459999826
 20
37.9455850000165
 10
-122.876103999629
 20
37.9663419998407
 10
-122.879057000021
 20
37.9665780001948
 10
-122.889291000302
 20
37.9741090001132
 10
-122.902283999908
 20
37.9773860001685
 10
-122.909235999908
 20
37.9646439996999
 10
-122.919169999714
 20
37.9548350000862
 10
-122.931927000217
 20
37.9466720000679
 10
-122.953224000258
 20
37.9410930003496
 10
-122.97642799968
 20
37.940148999794
 10
-123.022507000432
 20
37.9420649998324
 10
-123.050083999555
 20
37.9480160002248
 10
-123.06796500032
 20
37.9586689997387
 10
-123.07938999958
 20
37.9719369998272
 10
-123.083880000356
 20
37.9833660002023
 10
-123.085129999785
 20
38.0084329996828
 10
-123.081199999775
 20
38.0189710002929
 10
-123.07470100041
 20
38.0271989999601
 10
-123.063796999759
 20
38.0364870001776
 10
-123.023699000135
 20
38.1249229999341
 10
-123.01481700029
 20
38.1491320003297
 10
-123.027210999671
 20
38.1641699997095
 10
-123.030482999906
 20
38.1724579999564
 10
-123.031335999675
 20
38.1814619998136
 10
-123.037896999863
 20
38.1924910000791
 10
-123.038942999977
 20
38.1975280001147
 10
-123.045824999656
 20
38.2049260000874
 10
-123.049616999575
 20
38.214285999678
 10
-123.100962999806
 20
38.2613580001773
 10
-123.110968999582
 20
38.2672629997799
 10
-123.119591000035
 20
38.2771029998695
 10
-123.123773999766
 20
38.2857869997116
 10
-123.134522999707
 20
38.2962629999602
 10
-123.141329000117
 20
38.3113380001974
 10
-123.141001000054
 20
38.3274540003401
 10
-123.13431199982
 20
38.3457859999524
 10
-123.155742999755
 20
38.3683960000821
 10
-123.159846999843
 20
38.3749170002616
 10
-123.164756999845
 20
38.3883370000952
 10
-123.171711000393
 20
38.3940790000271
 10
-123.188464999955
 20
38.4028600001615
 10
-123.196159000295
 20
38.4101079998603
 10
-123.204071000195
 20
38.4239029998396
 10
-123.220219999684
 20
38.4419540001859
 10
-123.228012999758
 20
38.4442279997309
 10
-123.236390999813
 20
38.4504280003478
 10
-123.251115999796
 20
38.4520780002509
 10
-123.269188000357
 20
38.4575690002803
 10
-123.289685000332
 20
38.4675799997402
 10
-123.306741999842
 20
38.4786810000889
 10
-123.317345000194
 20
38.4886379997852
 10
-123.323810000122
 20
38.4986140001285
 10
-123.330725000312
 20
38.499912999851
 10
-123.330921000131
 20
38.502420999942
 10
-123.348529000186
 20
38.5042409998633
 10
-123.360929000313
 20
38.5102019997562
 10
-123.384567000103
 20
38.5370220001861
 10
-123.394156999953
 20
38.5539419997849
 10
-123.425388999625
 20
38.5828440002953
 10
-123.430490000321
 20
38.5916720000664
 10
-123.448391000279
 20
38.6062919997879
 10
-123.456159000239
 20
38.6147879997706
 10
-123.470520999998
 20
38.6385779998002
 10
-123.477373000439
 20
38.6422259999205
 10
-123.48854300033
 20
38.6514660001234
 10
-123.495084000426
 20
38.6606620001719
 10
-123.498668999757
 20
38.6689430000206
 10
-123.510580000163
 20
38.6808900000726
 10
-123.531888999899
 20
38.693420999873
 10
-123.549462999619
 20
38.7001350003332
 10
-123.566089000033
 20
38.7090210000917
 10
-123.578004999563
 20
38.7175829999753
 10
-123.586914999896
 20
38.728075000292
 10
-123.591962000165
 20
38.74022700003
 10
-123.607061000242
 20
38.7485650002947
 10
-123.615204999945
 20
38.7499120001446
 10
-123.626122999941
 20
38.7546459999644
 10
-123.641252999979
 20
38.7643940002099
 10
-123.652651000374
 20
38.7749669999802
 10
-123.660036000019
 20
38.7842579998591
 10
-123.682698000016
 20
38.7970149999477
 10
-123.692595000012
 20
38.8103189997025
 10
-123.706514000081
 20
38.8177240002537
 10
-123.717806999996
 20
38.8279209998924
 10
-123.725299999596
 20
38.8441170003194
 10
-123.737920999656
 20
38.8574409997749
 10
-123.767127999947
 20
38.8778960002746
 10
-123.784675999727
 20
38.8937279999777
 10
-123.798450999856
 20
38.927466999773
 10
-123.806505000046
 20
38.9404570002622
 10
-123.809860000121
 20
38.9612190001029
 10
-123.806068000203
 20
38.9770420000861
 10
-123.79721700032
 20
38.9898629999402
 10
-123.78542300009
 20
38.9999080001531
 10
-123.776609000017
 20
39.0050179998977
 10
-123.763147999708
 20
39.0086900002192
 10
-123.761177999679
 20
39.0150460000604
 10
-123.761965000225
 20
39.0410910002394
 10
-123.768343000115
 20
39.0502860000667
 10
-123.772642000196
 20
39.0631850003415
 10
-123.778308999708
 20
39.0697300001157
 10
-123.78610599998
 20
39.0921409999357
 10
-123.807457000448
 20
39.1272310003169
 10
-123.809209999843
 20
39.1410430000944
 10
-123.840771000302
 20
39.1873349998189
 10
-123.840127999696
 20
39.1902080002274
 10
-123.846017999689
 20
39.1998000000757
 10
-123.85009199964
 20
39.2313960003039
 10
-123.863409999834
 20
39.2547630001976
 10
-123.870212000046
 20
39.2806579996992
 10
-123.876127999979
 20
39.290448000009
 10
-123.880182999663
 20
39.3041980003069
 10
-123.881600000395
 20
39.3102079996883
 10
-123.881017000064
 20
39.3193460002258
 10
-123.886416999612
 20
39.3250270000537
 10
-123.89308499993
 20
39.3374940002162
 10
-123.894936000133
 20
39.3483489997023
 10
-123.894340000281
 20
39.3569150002006
 10
-123.896809000077
 20
39.3748930002148
 10
-123.895871999743
 20
39.3800969996626
 10
-123.890446000256
 20
39.3900979996778
 10
-123.892448999896
 20
39.4070370002543
 10
-123.887102999876
 20
39.425757999983
 10
-123.889266000248
 20
39.434620000332
 10
-123.888894999629
 20
39.4439390000057
 10
-123.887401999626
 20
39.4530359998431
 10
-123.874383999906
 20
39.4825619997454
 10
-123.875126000246
 20
39.4941789998087
 10
-123.87251500016
 20
39.5023859999117
 10
-123.867826000092
 20
39.5083049997242
 10
-123.857139000075
 20
39.5141410002702
 10
-123.852648000372
 20
39.5148490001963
 10
-123.834648999607
 20
39.5491940003196
 10
-123.839652000393
 20
39.5564709999752
 10
-123.849387000008
 20
39.5782899999477
 10
-123.852516000128
 20
39.5923710001973
 10
-123.853426999624
 20
39.6035489998956
 10
-123.851918999553
 20
39.6427629997189
 10
-123.8560009999
 20
39.6570510001178
 10
-123.857182999557
 20
39.6746929996644
 10
-123.880305999686
 20
39.6890860002424
 10
-123.890366999714
 20
39.7000090000333
 10
-123.895741000222
 20
39.711406000116
 10
-123.904017999995
 20
39.7570830001858
 10
-123.900970000066
 20
39.7804660000721
 10
-123.910528999954
 20
39.799574999718
 10
-123.938591000397
 20
39.8149439998525
 10
-123.953600000062
 20
39.8269910001078
 10
-123.973476999896
 20
39.8535620001556
 10
-123.98294600027
 20
39.8767780002252
 10
-124.005454000281
 20
39.8892859996713
 10
-124.009637000012
 20
39.8937490002384
 10
-124.0161980002
 20
39.9074009999512
 10
-124.035355000333
 20
39.9310729999194
 10
-124.04768500014
 20
39.9409600002089
 10
-124.078596000321
 20
39.972262999842
 10
-124.096382999577
 20
39.9750180002228
 10
-124.108581000038
 20
39.9788449999695
 10
-124.122772000093
 20
39.9887359999691
 10
-124.133254999896
 20
39.9998650000655
 10
-124.141085999605
 20
40.0109709998314
 10
-124.14410500012
 20
40.0181719999212
 10
-124.145425999694
 20
40.0289979996911
 10
-124.144099000272
 20
40.052400999861
 10
-124.153761999917
 20
40.063544000041
 10
-124.168922999917
 20
40.0703819997621
 10
-124.217952999616
 20
40.0864470001856
 10
-124.231203999863
 20
40.0933819999373
 10
-124.257708000007
 20
40.1215139997834
 10
-124.272099000078
 20
40.1336500001785
 10
-124.287833000365
 20
40.1376829998079
 10
-124.309927999924
 20
40.1536070002522
 10
-124.333688999737
 20
40.1671749997995
 10
-124.368674999693
 20
40.1932280002428
 10
-124.379252000106
 20
40.2028699999297
 10
-124.392776999989
 20
40.2097989997774
 10
-124.411026000101
 20
40.2252749998616
 10
-124.421287000146
 20
40.2371020001156
 10
-124.426725000227
 20
40.2498579999768
 10
-124.428222000428
 20
40.2581209997527
 10
-124.429149999642
 20
40.2669150000461
 10
-124.427899000387
 20
40.2888039997303
 10
-124.418276000027
 20
40.3142889996812
 10
-124.418542000166
 20
40.3187530003378
 10
-124.427945000418
 20
40.3388229998521
 10
-124.428055000023
 20
40.3617849999501
 10
-124.429461999812
 20
40.3649060000584
 10
-124.444708000201
 20
40.3764120002106
 10
-124.47243500001
 20
40.4128200000627
 10
-124.478624999579
 20
40.422102000276
 10
-124.480542999729
 20
40.4284929998255
 10
-124.482003000119
 20
40.4403179996895
 10
-124.479157999682
 20
40.4526360001432
 10
-124.475893999843
 20
40.4597619996599
 10
-124.465785000134
 20
40.4700120000174
 10
-124.455951999712
 20
40.4840469999089
 10
-124.452559999826
 20
40.4930839998098
 10
-124.451873999563
 20
40.515610000028
 10
-124.447676999589
 20
40.52970900015
 10
-124.427191000383
 20
40.5620849997803
 10
-124.41200299972
 20
40.5970220003345
 10
-124.368878000083
 20
40.6697060001095
 10
-124.342900000369
 20
40.708831999813
 10
-124.32742499965
 20
40.7277240001938
 10
-124.299332999968
 20
40.7684810002669
 10
-124.296989999671
 20
40.7809629997377
 10
-124.292662000176
 20
40.7880940000658
 10
-124.286579999664
 20
40.7958969999122
 10
-124.280180999857
 20
40.7999320001827
 10
-124.246314999635
 20
40.8469639998653
 10
-124.23262200042
 20
40.8692859998609
 10
-124.214964000136
 20
40.9064040003205
 10
-124.189793000161
 20
40.9740479996756
 10
-124.182693999848
 20
41.0013130001572
 10
-124.196390000334
 20
41.0075279996781
 10
-124.204984000299
 20
41.013638000022
 10
-124.212339999632
 20
41.0238040001
 10
-124.215104999703
 20
41.0314170001959
 10
-124.227078999858
 20
41.0466219998412
 10
-124.229931999793
 20
41.0546050002857
 10
-124.231202000213
 20
41.0655009999468
 10
-124.237206999834
 20
41.0738420001496
 10
-124.239565000199
 20
41.0828629999557
 10
-124.247430000243
 20
41.0922239997471
 10
-124.249587999694
 20
41.0990250001876
 10
-124.250636000356
 20
41.1102879997039
 10
-124.24916400027
 20
41.1201569997514
 10
-124.25247400014
 20
41.1340749999736
 10
-124.247236000075
 20
41.1528170002262
 10
-124.237625000308
 20
41.1659590003189
 10
-124.219418000029
 20
41.1776870001887
 10
-124.206688000189
 20
41.182409000308
 10
-124.195531999643
 20
41.1845819999101
 10
-124.187789999623
 20
41.209562000227
 10
-124.176367000012
 20
41.2371479998724
 10
-124.17331599971
 20
41.2609950001265
 10
-124.160703999871
 20
41.2892929998476
 10
-124.163397999797
 20
41.2931689999688
 10
-124.177983000038
 20
41.2912209997583
 10
-124.192328000079
 20
41.29199000002
 10
-124.204919999827
 20
41.2955720002236
 10
-124.220032000322
 20
41.3029940000365
 10
-124.231393000009
 20
41.3123129999356
 10
-124.238210000289
 20
41.3214460002061
 10
-124.242163999691
 20
41.3326160000741
 10
-124.242419999784
 20
41.3433000002145
 10
-124.238191000023
 20
41.3587050001072
 10
-124.231086999687
 20
41.3688560000122
 10
-124.219219999662
 20
41.3782979997185
 10
-124.206514999936
 20
41.3847179998706
 10
-124.188603999933
 20
41.3892670000797
 10
-124.176556000158
 20
41.3903520000163
 10
-124.154194999562
 20
41.3876279997291
 10
-124.139973000443
 20
41.3818209997787
 10
-124.133230999607
 20
41.4323109997136
 10
-124.136906000247
 20
41.4468230003305
 10
-124.136560999568
 20
41.4644520001748
 97
0
 75
0
 76
1
 98
0
  0
HATCH
  5
20001
100
AcDbEntity
  8
0
100
AcDbHatch
 10
0
 20
0
 30
0
210
0
220
0
230
1
  2
SOLID
 70
1
 71
0
 91
1
 92
2
 72
0
 73
1
 93
179
 10
-119.468063999657
 20
34.0631389997285
 10
-119.437318000231
 20
34.0677159996331
 10
-119.409352000047
 20
34.0667890001078
 10
-119.397006000346
 20
34.0637920000307
 10
-119.367876999873
 20
34.0704160002934
 10
-119.35638800014
 20
34.0708079998925
 10
-119.342462000399
 20
34.0689639999632
 10
-119.330925999912
 20
34.0650640002198
 10
-119.312086999796
 20
34.0543880001667
 10
-119.305153000237
 20
34.0474490000457
 10
-119.297642000195
 20
34.0365829997209
 10
-119.293112000135
 20
34.0201520003256
 10
-119.296237999882
 20
33.9972400000915
 10
-119.304086000207
 20
33.9865390000101
 10
-119.318442999944
 20
33.9748990001258
 10
-119.332793999833
 20
33.967721000305
 10
-119.35185600043
 20
33.9644540002508
 10
-119.362828999779
 20
33.9587619996862
 10
-119.380456000101
 20
33.953611000345
 10
-119.402928000127
 20
33.9537850001363
 10
-119.411343999817
 20
33.9554149999247
 10
-119.416996999983
 20
33.9537709996609
 10
-119.432961000423
 20
33.9559049997636
 10
-119.472647000319
 20
33.9706469996495
 10
-119.492289999801
 20
33.9832149996748
 10
-119.500952000436
 20
33.9714839996878
 10
-119.512243999628
 20
33.9621990002377
 10
-119.523312000309
 20
33.9549250002445
 10
-119.538948999613
 20
33.9476560001214
 10
-119.550466999658
 20
33.9449529996472
 10
-119.563291000108
 20
33.944954999816
 10
-119.57244699959
 20
33.9411379997055
 10
-119.590689999854
 20
33.93957799991
 10
-119.602084999876
 20
33.9367680001771
 10
-119.625957000018
 20
33.9360359997418
 10
-119.636730000248
 20
33.9382769999434
 10
-119.68759600008
 20
33.9156390003382
 10
-119.707491000356
 20
33.9103879997877
 10
-119.731418999676
 20
33.9102739997258
 10
-119.74134400016
 20
33.9126189999527
 10
-119.758558000029
 20
33.9107980000451
 10
-119.772828999552
 20
33.9124139999775
 10
-119.778315000213
 20
33.91061199974
 10
-119.789372000126
 20
33.9101310001191
 10
-119.810223999928
 20
33.9013239997811
 10
-119.823208000211
 20
33.8993900003207
 10
-119.834419999935
 20
33.9007880003462
 10
-119.855219000033
 20
33.9074870003211
 10
-119.884053000056
 20
33.925984000121
 10
-119.896243999945
 20
33.9357420002576
 10
-119.904761999743
 20
33.9396739998629
 10
-119.911023000355
 20
33.9238980000531
 10
-119.918930000232
 20
33.9143540003595
 10
-119.93919000038
 20
33.8986430003449
 10
-119.950294000149
 20
33.894376000217
 10
-119.962680999857
 20
33.8924399998531
 10
-119.980842000106
 20
33.8923170000423
 10
-120.000959999964
 20
33.8852480002156
 10
-120.01541100031
 20
33.8751480001263
 10
-120.019338999773
 20
33.8705549996321
 10
-120.027809999714
 20
33.8665119999943
 10
-120.034538000307
 20
33.8644759999805
 10
-120.047909000204
 20
33.8635920003008
 10
-120.070649999844
 20
33.8564900000242
 10
-120.0801059998
 20
33.8505060001366
 10
-120.104088000445
 20
33.8423959996405
 10
-120.117265999998
 20
33.8415799999344
 10
-120.13992700017
 20
33.844798999788
 10
-120.149551000355
 20
33.8479620001756
 10
-120.157079000115
 20
33.8534250000225
 10
-120.170320000317
 20
33.8574159998276
 10
-120.182999999928
 20
33.866287000307
 10
-120.188216000252
 20
33.8663599999953
 10
-120.193390999669
 20
33.868527999703
 10
-120.199514000189
 20
33.8750020000549
 10
-120.221128000423
 20
33.8841870000577
 10
-120.238719999686
 20
33.9041060002812
 10
-120.2509690002
 20
33.9084359998889
 10
-120.264494999908
 20
33.9189160003406
 10
-120.273096000445
 20
33.9295770003641
 10
-120.280033000376
 20
33.9539389999973
 10
-120.298972999876
 20
33.9684570001485
 10
-120.31738600002
 20
33.9663709999308
 10
-120.332253000293
 20
33.9684250003201
 10
-120.34687399962
 20
33.9634939996827
 10
-120.36707299967
 20
33.9610360001603
 10
-120.395636000428
 20
33.9674270000024
 10
-120.411765999651
 20
33.9770450000716
 10
-120.432180999611
 20
33.9747030001917
 10
-120.446191999741
 20
33.9773730002496
 10
-120.466776999579
 20
33.9761160002994
 10
-120.480765999968
 20
33.9802620000227
 10
-120.488150999613
 20
33.9842829998094
 10
-120.497726000293
 20
33.9911990001969
 10
-120.500991999781
 20
33.9963030002815
 10
-120.506202000257
 20
33.9999959997606
 10
-120.518783999959
 20
34.014080000342
 10
-120.523139000117
 20
34.022818999826
 10
-120.52585200031
 20
34.0329940000794
 10
-120.52645200036
 20
34.0414550000395
 10
-120.523386999815
 20
34.0511330001479
 10
-120.531062999713
 20
34.0516869998262
 10
-120.550050999792
 20
34.0572859998834
 10
-120.566995000223
 20
34.0686380003366
 10
-120.573808000306
 20
34.0759659997052
 10
-120.581547999778
 20
34.0914879998207
 10
-120.582264000179
 20
34.10751700005
 10
-120.575088999698
 20
34.1264739998703
 10
-120.567847000168
 20
34.1356179996961
 10
-120.5609980001
 20
34.1406640000056
 10
-120.538117999645
 20
34.150344000239
 10
-120.516038999979
 20
34.1527980001106
 10
-120.497378000138
 20
34.1498920003453
 10
-120.481428999767
 20
34.1421679997111
 10
-120.471653999969
 20
34.1341019998437
 10
-120.449073999988
 20
34.1505929997755
 10
-120.432719999561
 20
34.1574779996531
 10
-120.418787000147
 20
34.1605690000758
 10
-120.401169000046
 20
34.1587290003115
 10
-120.368745999597
 20
34.1510410000877
 10
-120.355161000337
 20
34.1450209997857
 10
-120.350489999812
 20
34.1414500002509
 10
-120.342711999806
 20
34.1315019996883
 10
-120.338561999688
 20
34.1216870002297
 10
-120.324337000195
 20
34.113799999721
 10
-120.321086999702
 20
34.1104500001506
 10
-120.311711000112
 20
34.1095060001098
 10
-120.297787000021
 20
34.1041159998847
 10
-120.2846510003
 20
34.0947500000686
 10
-120.274284999775
 20
34.0817990001357
 10
-120.271579000153
 20
34.0741409999441
 10
-120.252846000342
 20
34.0580309999081
 10
-120.22487799961
 20
34.0613120000824
 10
-120.210382999781
 20
34.060852999872
 10
-120.197575999948
 20
34.0581499996432
 10
-120.194113999742
 20
34.0587209998691
 10
-120.185461000226
 20
34.0662200002087
 10
-120.171127999881
 20
34.0733179998391
 10
-120.135006000298
 20
34.078809999783
 10
-120.120132000352
 20
34.0789420000419
 10
-120.102917999584
 20
34.0744939997873
 10
-120.0802849999
 20
34.0864009999173
 10
-120.063327000123
 20
34.0897139997762
 10
-120.045154000179
 20
34.0906059996429
 10
-120.019502999804
 20
34.0877180002349
 10
-120.010210000055
 20
34.0840430000288
 10
-120.000963000337
 20
34.0786710000715
 10
-120.000963000337
 20
34.0768190000043
 10
-119.991642999926
 20
34.0648680000099
 10
-119.981946999771
 20
34.0893770003263
 10
-119.974386000398
 20
34.0967430003396
 10
-119.972361000119
 20
34.1033499999784
 10
-119.965471000043
 20
34.1125600002599
 10
-119.947835000399
 20
34.1249990001849
 10
-119.928795000441
 20
34.1299020000513
 10
-119.913364000104
 20
34.1301479999441
 10
-119.894177999658
 20
34.1257720001842
 10
-119.875984999622
 20
34.1262340000359
 10
-119.852087000439
 20
34.1209570001092
 10
-119.829220000403
 20
34.1187020002167
 10
-119.792600999804
 20
34.1063749998238
 10
-119.769031999611
 20
34.1119430003391
 10
-119.750980999865
 20
34.1125820003476
 10
-119.725973000097
 20
34.1020900001792
 10
-119.709463000034
 20
34.1006630000777
 10
-119.693007000398
 20
34.0948540002112
 10
-119.654930999782
 20
34.071217999985
 10
-119.645169000403
 20
34.0800549996752
 10
-119.614268000268
 20
34.0994319999898
 10
-119.599892000265
 20
34.1040069999813
 10
-119.581972999865
 20
34.1057320003285
 10
-119.574116000217
 20
34.1081130001647
 10
-119.548250999583
 20
34.1077830001533
 10
-119.538418999883
 20
34.1054130001871
 10
-119.512106000434
 20
34.0934600002518
 10
-119.497490000231
 20
34.0827549998953
 10
-119.488752000326
 20
34.0791950000251
 10
-119.4773079999
 20
34.0718259999393
 10
-119.468063999657
 20
34.0631389997285
 97
0
 75
0
 76
1
 98
0
  0
HATCH
  5
20002
100
AcDbEntity
  8
0
100
AcDbHatch
 10
0
 20
0
 30
0
210
0
220
0
230
1
  2
SOLID
 70
1
 71
0
 91
1
 92
2
 72
0
 73
1
 93
65
 10
-118.661749999652
 20
33.4563169996488
 10
-118.665919000037
 20
33.4673339998556
 10
-118.668202999885
 20
33.4859370003374
 10
-118.663709999635
 20
33.5000249998627
 10
-118.655734999986
 20
33.5108180003667
 10
-118.644057999932
 20
33.521284000193
 10
-118.625915999949
 20
33.5289780001375
 10
-118.605013999918
 20
33.5322060002271
 10
-118.589719000023
 20
33.5319779996749
 10
-118.579144000159
 20
33.5284099997325
 10
-118.567188000446
 20
33.5294819997142
 10
-118.557750000034
 20
33.5283280002597
 10
-118.546601999884
 20
33.5308409996711
 10
-118.529382000167
 20
33.5311819998517
 10
-118.50675699998
 20
33.5249110001217
 10
-118.493335000029
 20
33.5157259997976
 10
-118.48261700005
 20
33.5160590000912
 10
-118.468960999747
 20
33.5129990003195
 10
-118.456825000109
 20
33.506874999849
 10
-118.436835000297
 20
33.4894430001478
 10
-118.427094999761
 20
33.4871609999168
 10
-118.42084099972
 20
33.4817820000458
 10
-118.40323000019
 20
33.4792670002948
 10
-118.359393000351
 20
33.4649219996525
 10
-118.350918000211
 20
33.4578180000423
 10
-118.332772999856
 20
33.4480439996989
 10
-118.316350999657
 20
33.4341370003482
 10
-118.31094699991
 20
33.4251370000801
 10
-118.306590999927
 20
33.4071550000209
 10
-118.30410200004
 20
33.4036319998842
 10
-118.294666000176
 20
33.397592999724
 10
-118.277209999559
 20
33.3807429997495
 10
-118.26274800024
 20
33.3704400002795
 10
-118.251379000158
 20
33.3533969997112
 10
-118.245101999652
 20
33.3383409996895
 10
-118.241286000343
 20
33.3230229998579
 10
-118.241051000166
 20
33.3130290001741
 10
-118.245940000252
 20
33.2910610001113
 10
-118.250902999957
 20
33.2804650003314
 10
-118.269178000009
 20
33.2656799997598
 10
-118.292457999598
 20
33.2540780000185
 10
-118.318621999984
 20
33.2484720000559
 10
-118.343772000043
 20
33.2500300001581
 10
-118.363310999768
 20
33.255073999878
 10
-118.381487000085
 20
33.2622980000141
 10
-118.385588999625
 20
33.2653579996781
 10
-118.402557000345
 20
33.2679370000106
 10
-118.412049000286
 20
33.266275000053
 10
-118.437653999731
 20
33.2670179996256
 10
-118.455071999815
 20
33.2690189996272
 10
-118.486687999627
 20
33.2769050002433
 10
-118.510385999692
 20
33.2896590001868
 10
-118.534884999648
 20
33.3151759999192
 10
-118.54747599957
 20
33.340480000235
 10
-118.551193000044
 20
33.3693519998233
 10
-118.547929000205
 20
33.3767989996546
 10
-118.553375999609
 20
33.3802260001074
 10
-118.573197000265
 20
33.3834790002006
 10
-118.591079999781
 20
33.3908719999024
 10
-118.607228000344
 20
33.3982939999935
 10
-118.618573999962
 20
33.4061910003603
 10
-118.625916999774
 20
33.4142649996437
 10
-118.63073399989
 20
33.4232029998198
 10
-118.655057000118
 20
33.4453100003487
 10
-118.661749999652
 20
33.4563169996488
 97
0
 75
0
 76
1
 98
0
  0
HATCH
  5
20003
100
AcDbEntity
  8
0
100
AcDbHatch
 10
0
 20
0
 30
0
210
0
220
0
230
1
  2
SOLID
 70
1
 71
0
 91
1
 92
2
 72
0
 73
1
 93
60
 10
-118.674842999715
 20
33.012143000104
 10
-118.678550999968
 20
33.026355999793
 10
-118.678203999638
 20
33.039726000311
 10
-118.675605000147
 20
33.0493490003481
 10
-118.663846000077
 20
33.066846000081
 10
-118.654363000357
 20
33.0749519996464
 10
-118.641301000256
 20
33.0818820000904
 10
-118.6196209999
 20
33.0867190002064
 10
-118.578337000421
 20
33.0862430002193
 10
-118.552626999597
 20
33.0786329999592
 10
-118.542102999786
 20
33.0737879996925
 10
-118.523727000351
 20
33.0599720001308
 10
-118.514965999981
 20
33.0498890001357
 10
-118.507663000352
 20
33.0378829997167
 10
-118.495582000067
 20
33.0263360002354
 10
-118.491132000372
 20
33.017923000117
 10
-118.48949700008
 20
33.0106299998774
 10
-118.44886299998
 20
32.9617500000783
 10
-118.423338000002
 20
32.9464829996774
 10
-118.390787000405
 20
32.9178410002977
 10
-118.362519000097
 20
32.9001170002654
 10
-118.337456999902
 20
32.8797480001018
 10
-118.328898000097
 20
32.8750370002638
 10
-118.317390000097
 20
32.8637649996902
 10
-118.310342999663
 20
32.8595049997979
 10
-118.2972499996
 20
32.8450939998228
 10
-118.289894000267
 20
32.8293829997615
 10
-118.288783999681
 20
32.8208290001554
 10
-118.289905000137
 20
32.8105300001555
 10
-118.295841000161
 20
32.7982560000806
 10
-118.302848000413
 20
32.7888459998177
 10
-118.323819000041
 20
32.7735140000476
 10
-118.343192000084
 20
32.7670620000506
 10
-118.353494000137
 20
32.7658070001549
 10
-118.378377000232
 20
32.7702319997293
 10
-118.392557000417
 20
32.7585010000384
 10
-118.408321999767
 20
32.7519140000834
 10
-118.419798999804
 20
32.7500400000526
 10
-118.436538000196
 20
32.7500400000526
 10
-118.453808000142
 20
32.7551110003724
 10
-118.464711999894
 20
32.7601760001462
 10
-118.473905999909
 20
32.7668239996868
 10
-118.484377000016
 20
32.7786189998229
 10
-118.500909999645
 20
32.7920259996447
 10
-118.507649999933
 20
32.7968770001739
 10
-118.515812999903
 20
32.7995709999692
 10
-118.535089999687
 20
32.8105809999318
 10
-118.546725999733
 20
32.8206810000892
 10
-118.553185999638
 20
32.8287970002198
 10
-118.562527999791
 20
32.8494380001775
 10
-118.596929999591
 20
32.8904660000751
 10
-118.605289000278
 20
32.9085400002335
 10
-118.605470999853
 20
32.9182040002929
 10
-118.608801999639
 20
32.9276900002148
 10
-118.622117000358
 20
32.9414339997379
 10
-118.635521999693
 20
32.9656000000862
 10
-118.644731999601
 20
33.0000330000544
 10
-118.670172999913
 20
33.0000339998034
 10
-118.671015999637
 20
33.0058509997161
 10
-118.674842999715
 20
33.012143000104
 97
0
 75
0
 76
1
 98
0
  0
HATCH
  5
20004
100
AcDbEntity
  8
0
100
AcDbHatch
 10
0
 20
0
 30
0
210
0
220
0
230
1
  2
SOLID
 70
1
 71
0
 91
1
 92
2
 72
0
 73
1
 93
31
 10
-119.634719000212
 20
33.2654420000098
 10
-119.636068000274
 20
33.2807129997988
 10
-119.629076000091
 20
33.2993369999028
 10
-119.621652999913
 20
33.3092519998289
 10
-119.609294999619
 20
33.3182290000189
 10
-119.588154000112
 20
33.3269709997436
 10
-119.564931000423
 20
33.3276369999111
 10
-119.543544999795
 20
33.3341589997379
 10
-119.5253130003
 20
33.3348620003075
 10
-119.49512000017
 20
33.3271539999925
 10
-119.429996000335
 20
33.3010309998479
 10
-119.379729999654
 20
33.26763200032
 10
-119.375937999736
 20
33.2647560001945
 10
-119.362124999972
 20
33.2452210000244
 10
-119.360133000203
 20
33.234872999796
 10
-119.36070200029
 20
33.2214520002632
 10
-119.368450999984
 20
33.2025960000697
 10
-119.375936999911
 20
33.1921860003415
 10
-119.394535999828
 20
33.1808360001504
 10
-119.433717000108
 20
33.1669870003171
 10
-119.444967000365
 20
33.1652699998145
 10
-119.476486000093
 20
33.1634929996531
 10
-119.491417999765
 20
33.1670120000243
 10
-119.510250000208
 20
33.167417000154
 10
-119.574192000385
 20
33.1864839999418
 10
-119.605281999767
 20
33.206919000058
 10
-119.61147100041
 20
33.2127329997769
 10
-119.627828000312
 20
33.2369460003598
 10
-119.631282999946
 20
33.2449739996582
 10
-119.631045000295
 20
33.2554929999966
 10
-119.634719000212
 20
33.2654420000098
 97
0
 75
0
 76
1
 98
0
  0
HATCH
  5
20005
100
AcDbEntity
  8
0
100
AcDbHatch
 10
0
 20
0
 30
0
210
0
220
0
230
1
  2
SOLID
 70
1
 71
0
 91
1
 92
2
 72
0
 73
1
 93
43
 10
-123.169984999864
 20
37.7559300000438
 10
-123.172925999663
 20
37.763600000049
 10
-123.173825000361
 20
37.7757270003373
 10
-123.16910699998
 20
37.792365000163
 10
-123.160935999614
 20
37.8020020000818
 10
-123.147209000064
 20
37.8119509999922
 10
-123.13227200037
 20
37.8196760002345
 10
-123.118288999828
 20
37.8230579998201
 10
-123.095261000134
 20
37.821876999696
 10
-123.081645999839
 20
37.8181510000344
 10
-123.07049400039
 20
37.813830000245
 10
-123.048817000407
 20
37.7998159997655
 10
-123.038726000242
 20
37.7888809997272
 10
-123.033841000354
 20
37.7783750001889
 10
-123.01058799963
 20
37.7749260002984
 10
-122.997538000123
 20
37.7707839996951
 10
-122.981428999918
 20
37.7589159999003
 10
-122.973255999902
 20
37.7486519996982
 10
-122.964098999697
 20
37.7442809999932
 10
-122.949984999635
 20
37.7321869999786
 10
-122.942293999668
 20
37.7210569999624
 10
-122.935864999725
 20
37.7024590000728
 10
-122.935709999914
 20
37.6976180002318
 10
-122.941363999906
 20
37.6765800002025
 10
-122.949068000291
 20
37.6633769998544
 10
-122.963005999728
 20
37.6519839999368
 10
-122.973012000403
 20
37.6465810001869
 10
-122.986747000349
 20
37.6417830001991
 10
-123.001109999933
 20
37.6398299998241
 10
-123.001109999933
 20
37.6417749999151
 10
-123.01160500033
 20
37.6415060000901
 10
-123.027152999945
 20
37.6452210003497
 10
-123.04069600027
 20
37.6503280001404
 10
-123.063578000375
 20
37.6673159999654
 10
-123.06858899976
 20
37.6730410002143
 10
-123.074920999619
 20
37.6900659997239
 10
-123.086057000073
 20
37.7007499999195
 10
-123.092850000065
 20
37.7136880003217
 10
-123.104921000304
 20
37.7126480000321
 10
-123.115574999811
 20
37.7140450000063
 10
-123.13259700006
 20
37.7193929999598
 10
-123.162750999832
 20
37.7435330003298
 10
-123.169984999864
 20
37.7559300000438
 97
0
 75
0
 76
1
 98
0
  0
HATCH
  5
20006
100
AcDbEntity
  8
0
100
AcDbHatch
 10
0
 20
0
 30
0
210
0
220
0
230
1
  2
SOLID
 70
1
 71
0
 91
1
 92
2
 72
0
 73
1
 93
29
 10
-119.107214999956
 20
33.5000229997867
 10
-119.118948999911
 20
33.5000219997486
 10
-119.111656000327
 20
33.5154710000355
 10
-119.098699999633
 20
33.5264419999106
 10
-119.083736000174
 20
33.5329069999517
 10
-119.07014299962
 20
33.5364160001433
 10
-119.056554999988
 20
33.536026000209
 10
-119.030737000107
 20
33.540115999996
 10
-119.008066999714
 20
33.5375550001654
 10
-119.000932000315
 20
33.5358950002164
 10
-118.990046000106
 20
33.5302889997784
 10
-118.982149000275
 20
33.524259999871
 10
-118.972885999765
 20
33.513835000124
 10
-118.966018000329
 20
33.5000229997867
 10
-118.962758999614
 20
33.4852050001312
 10
-118.9637510002
 20
33.4668300002826
 10
-118.978481000205
 20
33.4311060001506
 10
-118.988726000356
 20
33.4234409998762
 10
-119.000930999591
 20
33.4184929998664
 10
-119.000930999591
 20
33.4213019997139
 10
-119.009523999732
 20
33.4167670003748
 10
-119.027043999923
 20
33.4128740002064
 10
-119.053071000041
 20
33.4110240000162
 10
-119.071893000439
 20
33.4137990001463
 10
-119.09412799974
 20
33.4268720000704
 10
-119.100760999898
 20
33.4352420001049
 10
-119.108878999662
 20
33.4511509996701
 10
-119.109569000123
 20
33.4742760001549
 10
-119.107214999956
 20
33.5000229997867
 97
0
 75
0
 76
1
 98
0
  0
ENDSEC
  0
SECTION
  2
OBJECTS
  0
DICTIONARY
  5
C
330
0
100
AcDbDictionary
281
     1
  3
ACAD_GROUP
350
D
  3
ACAD_LAYOUT
350
1A
  3
ACAD_MLEADERSTYLE
350
43
  3
ACAD_PLOTSETTINGS
350
19
  3
ACAD_PLOTSTYLENAME
350
E
  3
ACAD_TABLESTYLE
350
42
  0
DICTIONARY
  5
D
102
{ACAD_REACTORS
330
C
102
}
330
C
100
AcDbDictionary
281
     1
  0
DICTIONARY
  5
1A
102
{ACAD_REACTORS
330
C
102
}
330
C
100
AcDbDictionary
281
     1
  3
Layout1
350
1E
  3
Model
350
22
  0
DICTIONARY
  5
43
102
{ACAD_REACTORS
330
C
102
}
330
C
100
AcDbDictionary
281
     1
  0
DICTIONARY
  5
19
102
{ACAD_REACTORS
330
C
102
}
330
C
100
AcDbDictionary
281
     1
  0
ACDBDICTIONARYWDFLT
  5
E
102
{ACAD_REACTORS
330
C
102
}
330
C
100
AcDbDictionary
281
     1
  3
Normal
350
F
100
AcDbDictionaryWithDefault
340
F
  0
DICTIONARY
  5
42
102
{ACAD_REACTORS
330
C
102
}
330
C
100
AcDbDictionary
281
     1
  0
LAYOUT
  5
1E
102
{ACAD_REACTORS
330
1A
102
}
330
1A
100
AcDbPlotSettings
  1

  2
none_device
  4

  6

 40
0.0
 41
0.0
 42
0.0
 43
0.0
 44
0.0
 45
0.0
 46
0.0
 47
0.0
 48
0.0
 49
0.0
140
0.0
141
0.0
142
1.0
143
1.0
 70
   688
 72
     0
 73
     0
 74
     5
  7

 75
    16
 76
     0
 77
     2
 78
   300
147
1.0
148
0.0
149
0.0
100
AcDbLayout
  1
Layout1
 70
     1
 71
     1
 10
0.0
 20
0.0
 11
12.0
 21
9.0
 12
0.0
 22
0.0
 32
0.0
 14
1.000000000000000E+20
 24
1.000000000000000E+20
 34
1.000000000000000E+20
 15
-1.000000000000000E+20
 25
-1.000000000000000E+20
 35
-1.000000000000000E+20
146
0.0
 13
0.0
 23
0.0
 33
0.0
 16
1.0
 26
0.0
 36
0.0
 17
0.0
 27
1.0
 37
0.0
 76
     0
330
1B
  0
LAYOUT
  5
22
102
{ACAD_REACTORS
330
1A
102
}
330
1A
100
AcDbPlotSettings
  1

  2
none_device
  4

  6

 40
0.0
 41
0.0
 42
0.0
 43
0.0
 44
0.0
 45
0.0
 46
0.0
 47
0.0
 48
0.0
 49
0.0
140
0.0
141
0.0
142
1.0
143
1.0
 70
  1712
 72
     0
 73
     0
 74
     0
  7

 75
     0
 76
     0
 77
     2
 78
   300
147
1.0
148
0.0
149
0.0
100
AcDbLayout
  1
Model
 70
     1
 71
     0
 10
0.0
 20
0.0
 11
12.0
 21
9.0
 12
0.0
 22
0.0
 32
0.0
 14
30.0
 24
49.75
 34
0.0
 15
130.5
 25
163.1318914119703
 35
0.0
146
0.0
 13
0.0
 23
0.0
 33
0.0
 16
1.0
 26
0.0
 36
0.0
 17
0.0
 27
1.0
 37
0.0
 76
     0
330
1F
331
29
  0
ACDBPLACEHOLDER
  5
F
102
{ACAD_REACTORS
330
E
102
}
330
E
  0
ENDSEC
  0
EOF
