<?xml version="1.0" encoding="utf-8" standalone="no"?>
<!DOCTYPE svg PUBLIC "-//W3C//DTD SVG 1.1//EN"
  "http://www.w3.org/Graphics/SVG/1.1/DTD/svg11.dtd">
<svg xmlns:xlink="http://www.w3.org/1999/xlink" width="255.241528pt" height="291.6pt" viewBox="0 0 255.241528 291.6" xmlns="http://www.w3.org/2000/svg" version="1.1">
 <metadata>
  <rdf:RDF xmlns:dc="http://purl.org/dc/elements/1.1/" xmlns:cc="http://creativecommons.org/ns#" xmlns:rdf="http://www.w3.org/1999/02/22-rdf-syntax-ns#">
   <cc:Work>
    <dc:type rdf:resource="http://purl.org/dc/dcmitype/StillImage"/>
    <dc:date>2025-03-08T18:33:48.553223</dc:date>
    <dc:format>image/svg+xml</dc:format>
    <dc:creator>
     <cc:Agent>
      <dc:title>Matplotlib v3.10.1, https://matplotlib.org/</dc:title>
     </cc:Agent>
    </dc:creator>
   </cc:Work>
  </rdf:RDF>
 </metadata>
 <defs>
  <style type="text/css">*{stroke-linejoin: round; stroke-linecap: butt}</style>
 </defs>
 <g id="figure_1">
  <g id="patch_1">
   <path d="M 0 291.6 
L 255.241528 291.6 
L 255.241528 0 
L 0 0 
z
" style="fill: #ffffff"/>
  </g>
  <g id="axes_1">
   <g id="LineCollection_1">
    <path d="M 25.454361 34.287672 
L 24.948136 32.188964 
L 24.536336 31.79249 
L 24.359182 31.375949 
L 24.321594 30.467059 
L 24.084113 30.168986 
L 23.870915 29.576669 
L 23.864844 28.52661 
L 22.461238 27.769574 
L 21.990824 27.384929 
L 21.349729 27.128481 
L 20.385358 26.308875 
L 20.049982 26.102903 
L 19.264584 25.110152 
L 19.058895 24.717347 
L 19.020863 24.338948 
L 19.32967 23.54058 
L 19.855653 23.09371 
L 20.98933 23.158407 
L 21.299491 23.321982 
L 21.744713 23.806065 
L 22.313825 23.787485 
L 22.427669 23.379502 
L 22.40476 23.379502 
L 22.502316 22.62951 
L 22.210008 22.17751 
L 22.167702 21.953145 
L 22.238797 20.861594 
L 21.849228 20.241155 
L 21.387254 20.096876 
L 35.593871 20.182997 
L 36.295928 20.058707 
L 37.561238 20.033828 
L 42.156633 20.071838 
L 46.412973 19.819723 
L 48.565003 19.97062 
L 55.782504 19.940318 
L 62.651578 19.8 
L 92.010759 20.237168 
L 112.969857 20.186984 
L 113.002178 73.215913 
L 112.816733 92.540579 
L 112.932205 99.805108 
L 131.441464 115.923567 
L 140.15173 123.66019 
L 162.014935 143.561093 
L 187.236888 167.331996 
L 204.006636 183.6215 
L 223.003761 202.52896 
L 226.46971 206.066013 
L 226.561893 206.48399 
L 226.4387 207.207349 
L 226.548355 207.629393 
L 226.47466 208.119323 
L 226.524918 208.58036 
L 226.401218 209.062953 
L 226.529043 209.66779 
L 226.671675 209.843593 
L 227.456376 210.483277 
L 228.178951 212.312035 
L 229.917806 213.787326 
L 230.028455 214.323347 
L 230.313192 215.049284 
L 230.182045 215.229446 
L 230.531487 215.617068 
L 230.589149 216.17725 
L 230.896645 216.469687 
L 230.872616 216.725151 
L 230.629953 216.851887 
L 230.935143 217.260241 
L 231.297996 217.554593 
L 231.869224 218.966437 
L 231.795655 220.042438 
L 231.689934 220.524314 
L 231.964496 220.815981 
L 232.775637 220.733582 
L 233.264708 221.193741 
L 233.68829 221.595637 
L 233.763657 221.88757 
L 234.523545 222.326757 
L 235.347759 223.06144 
L 235.650073 223.090333 
L 236.127552 223.411078 
L 236.298931 223.67138 
L 236.544323 224.246872 
L 236.944616 224.635797 
L 236.918133 224.832119 
L 237.00452 225.841058 
L 236.386905 225.792868 
L 236.355683 226.050272 
L 236.176457 226.122358 
L 236.103416 226.317299 
L 235.106195 227.282885 
L 235.010564 227.72715 
L 234.699493 227.927167 
L 234.191004 228.172398 
L 234.047018 228.119982 
L 233.676021 228.264154 
L 233.08436 229.010797 
L 232.246186 229.411045 
L 232.116837 229.543947 
L 230.974974 229.945603 
L 230.685563 230.373202 
L 230.576436 231.156951 
L 230.669318 231.691457 
L 230.481651 232.265806 
L 230.249268 232.404237 
L 230.01532 232.403732 
L 229.984796 232.557818 
L 230.155118 232.836354 
L 229.903824 233.013672 
L 229.615175 233.346485 
L 229.109943 233.824773 
L 228.812431 233.890852 
L 228.538673 234.461985 
L 228.554009 234.670694 
L 228.903387 234.888175 
L 229.125787 235.252618 
L 229.003207 235.408061 
L 228.746054 235.327017 
L 228.811712 235.550957 
L 229.201513 235.968296 
L 229.174057 236.303368 
L 228.982943 236.453228 
L 228.661211 236.481802 
L 228.66726 236.734316 
L 228.812854 237.50738 
L 228.699983 237.614127 
L 229.19045 239.062706 
L 229.198488 239.314342 
L 229.032123 239.760468 
L 229.365975 240.160742 
L 229.367583 240.752262 
L 228.651375 241.221566 
L 228.653088 241.5518 
L 228.73406 241.629973 
L 228.995973 241.728347 
L 228.905439 241.841367 
L 228.591174 241.954786 
L 228.59073 242.040295 
L 228.78984 242.405589 
L 228.633035 242.692312 
L 228.831236 242.994505 
L 228.675954 243.15117 
L 228.434158 243.556202 
L 228.515236 244.099851 
L 228.781104 244.5754 
L 228.047466 245.140207 
L 228.003786 245.54104 
L 227.822507 245.740924 
L 227.591203 245.814127 
L 227.339465 246.021188 
L 226.914233 246.762967 
L 226.693272 247.140595 
L 226.706704 247.379898 
L 226.551084 247.896116 
L 226.130146 248.281638 
L 225.977953 248.303434 
L 225.619288 248.134808 
L 225.154627 248.2419 
L 225.024962 248.421345 
L 224.528001 248.509831 
L 224.54983 248.632845 
L 224.907353 249.265272 
L 225.104348 249.908119 
L 224.896311 250.6823 
L 224.402333 251.237378 
L 224.604404 251.648072 
L 225.475111 252.004409 
L 225.548617 252.094968 
L 225.602366 252.482298 
L 225.284018 252.726013 
L 225.620663 253.345523 
L 225.512298 253.868439 
L 225.584005 254.345823 
L 224.925544 256.93284 
L 225.295039 257.042484 
L 225.337958 257.38981 
L 225.606512 257.756593 
L 225.619965 258.162555 
L 225.859878 258.407786 
L 225.954854 258.377112 
L 226.205471 257.976333 
L 226.341419 258.072341 
L 226.579556 258.450846 
L 226.780633 258.553127 
L 227.394272 258.579017 
L 227.70346 258.304893 
L 228.867513 258.479181 
L 229.053381 258.652724 
L 229.29761 259.172371 
L 229.533927 260.075015 
L 229.917087 259.971032 
L 229.984691 260.231467 
L 229.91165 260.620498 
L 229.696803 260.969977 
L 229.787442 261.306166 
L 230.077466 261.723053 
L 229.949662 263.392009 
L 229.417778 263.973269 
L 229.074872 264.153989 
L 228.623432 264.826553 
L 228.69167 265.462064 
L 228.72524 265.732705 
L 228.466416 265.73656 
L 228.463624 265.926264 
L 227.93009 265.933122 
L 227.9288 266.126627 
L 227.564381 266.125404 
L 227.563366 266.321408 
L 226.85839 266.332864 
L 226.810099 266.499204 
L 225.311749 266.252724 
L 225.029319 266.03737 
L 224.633616 266.753207 
L 200.19059 268.940162 
L 172.07711 271.8 
L 171.688219 269.343812 
L 171.191469 269.513501 
L 170.726047 269.392268 
L 170.55414 269.284378 
L 169.870422 268.409165 
L 169.622936 267.520157 
L 169.226937 263.019565 
L 169.573439 261.852765 
L 168.460956 257.27687 
L 167.198333 254.557828 
L 165.391133 252.129443 
L 164.322247 250.975056 
L 162.954304 249.996207 
L 162.582144 249.57916 
L 161.317722 248.410712 
L 160.728874 248.375068 
L 160.226901 247.805689 
L 159.143546 246.228595 
L 156.654088 244.676778 
L 153.218324 241.901864 
L 152.595865 240.745617 
L 151.751239 240.894148 
L 150.245634 240.919878 
L 149.4581 241.641961 
L 148.508429 241.745146 
L 147.952537 241.642014 
L 145.381494 239.991451 
L 144.987737 239.243479 
L 145.010878 237.928015 
L 145.867879 236.973699 
L 145.798371 236.71579 
L 143.658504 233.228176 
L 143.46942 233.023427 
L 142.692631 233.013007 
L 142.474547 233.060374 
L 141.544697 233.048519 
L 140.857933 233.249706 
L 139.871288 233.219218 
L 139.301182 233.551872 
L 138.260428 234.098152 
L 137.715366 234.014291 
L 137.134408 233.600301 
L 136.771598 233.139291 
L 136.490204 233.035388 
L 134.41701 232.695558 
L 134.097414 232.497295 
L 133.526588 232.299217 
L 130.743828 231.62583 
L 129.495187 231.034735 
L 128.443032 229.472844 
L 127.811942 228.434507 
L 127.022567 226.399805 
L 126.68753 226.31278 
L 125.934347 225.862641 
L 125.603075 225.459045 
L 124.609153 225.12873 
L 123.863691 224.541463 
L 123.509828 224.006054 
L 122.839268 223.691129 
L 121.045352 222.894781 
L 120.865555 222.961604 
L 120.328383 222.948526 
L 120.016317 223.273976 
L 118.958282 223.761886 
L 118.622082 223.666516 
L 117.061396 222.984888 
L 116.382057 223.277857 
L 115.248274 223.194421 
L 114.574054 222.769241 
L 112.005718 221.732579 
L 111.752436 221.799535 
L 110.66263 221.720964 
L 109.838289 221.454495 
L 108.897546 221.532323 
L 108.663301 221.473314 
L 107.026211 221.630404 
L 106.880195 221.595557 
L 105.574102 221.868937 
L 104.769222 221.913353 
L 104.691592 221.975976 
L 103.569464 222.277185 
L 103.307721 222.289944 
L 102.356189 221.980255 
L 101.877145 221.545161 
L 101.624878 221.013128 
L 101.622932 220.662957 
L 101.254009 220.176138 
L 101.120028 219.71215 
L 100.381905 219.297336 
L 100.061506 219.354803 
L 99.076278 219.177034 
L 98.474041 218.684419 
L 97.876943 217.59021 
L 97.890121 217.167449 
L 97.996836 216.813957 
L 98.034361 216.178499 
L 98.119649 215.949934 
L 98.432772 215.550803 
L 98.869257 214.104643 
L 98.289907 213.290964 
L 98.102515 212.804888 
L 98.151124 212.205979 
L 98.476346 211.334248 
L 98.711966 210.404811 
L 97.716987 209.590999 
L 97.419517 208.733569 
L 97.58089 207.609059 
L 97.841343 207.084468 
L 98.25858 205.348821 
L 98.366649 203.488486 
L 97.332495 203.201099 
L 96.392788 203.138954 
L 95.854029 202.911239 
L 95.566353 202.621619 
L 95.197683 202.536216 
L 94.514812 202.029727 
L 94.423622 201.870005 
L 93.539906 201.134792 
L 92.64187 199.639804 
L 92.660315 199.059952 
L 92.788183 198.544027 
L 93.420542 196.854417 
L 93.264816 196.148415 
L 93.21204 195.675975 
L 92.654075 195.576405 
L 92.020299 195.187135 
L 91.483592 195.200691 
L 90.920297 194.951872 
L 90.04629 194.004201 
L 89.682802 193.599249 
L 88.605751 192.388937 
L 87.830527 190.989081 
L 87.537562 190.600661 
L 87.1448 190.516029 
L 86.584973 190.157486 
L 85.750564 189.942903 
L 84.957847 189.503449 
L 84.616591 189.039382 
L 84.445762 188.439834 
L 84.051455 188.029566 
L 83.784974 187.348922 
L 83.777211 186.792514 
L 83.643907 186.613655 
L 83.47238 186.180926 
L 83.47826 185.823872 
L 83.345125 185.772279 
L 82.737155 185.225706 
L 82.153321 184.380237 
L 81.202508 183.714877 
L 80.547537 182.597091 
L 79.924591 181.028316 
L 79.336209 180.617489 
L 78.678614 180.356071 
L 78.090253 179.571737 
L 77.536497 177.816261 
L 75.992945 175.654424 
L 74.829062 174.795691 
L 73.897287 174.47561 
L 73.18256 173.944747 
L 72.900637 173.573232 
L 72.525262 172.922943 
L 71.543799 171.956453 
L 71.396852 171.375299 
L 71.433657 170.956605 
L 71.243199 170.023686 
L 71.163643 169.10031 
L 71.049334 168.380938 
L 70.709284 167.812994 
L 70.458562 166.900463 
L 70.168009 165.653975 
L 70.279102 165.250538 
L 69.855964 164.639827 
L 69.714474 163.816552 
L 69.923886 163.329626 
L 70.238997 162.848839 
L 70.348525 162.611716 
L 70.624547 162.318747 
L 69.03228 155.341525 
L 67.88644 154.939125 
L 66.220604 153.975107 
L 65.12644 153.128627 
L 65.029032 152.951389 
L 64.802254 152.294481 
L 64.507428 152.101614 
L 64.008522 151.49893 
L 63.282795 151.474795 
L 62.693101 151.209629 
L 62.332638 150.637725 
L 62.09429 149.926195 
L 61.904614 149.717326 
L 61.585103 149.292996 
L 61.222017 148.966536 
L 60.747754 147.958421 
L 60.514693 147.062183 
L 60.409459 146.310968 
L 60.457518 145.748952 
L 60.769921 143.65439 
L 59.908395 141.718886 
L 59.862811 141.217898 
L 59.282191 140.973784 
L 59.077899 140.784558 
L 58.532562 139.951927 
L 58.206811 137.553684 
L 58.243257 137.204923 
L 58.644248 135.964788 
L 58.206874 131.973024 
L 57.696862 131.285601 
L 56.356439 130.40066 
L 55.742483 130.512856 
L 55.192788 130.359647 
L 54.167413 129.666643 
L 53.958298 129.198004 
L 53.427218 129.003409 
L 53.095755 128.757779 
L 52.834943 128.412447 
L 52.658826 127.820554 
L 51.837447 127.062375 
L 51.56261 126.975271 
L 51.205426 127.574686 
L 50.935582 127.791661 
L 50.485093 127.939953 
L 49.019573 127.914117 
L 48.436246 127.755937 
L 48.058015 127.472776 
L 47.721371 126.81632 
L 47.77806 125.869925 
L 48.14618 125.404343 
L 49.182237 122.410194 
L 48.85086 121.79018 
L 48.832816 121.55085 
L 48.446125 120.678375 
L 46.650136 118.499394 
L 46.506171 118.098694 
L 46.513109 117.670325 
L 46.6546 117.183053 
L 46.114466 116.408739 
L 45.863511 115.899406 
L 45.346371 115.473348 
L 45.179011 115.106672 
L 44.672574 114.566425 
L 44.495357 114.401627 
L 43.801613 114.211816 
L 43.007245 113.650651 
L 42.495795 113.019632 
L 42.123339 112.971256 
L 41.861046 112.81281 
L 38.695528 108.275855 
L 37.08084 107.021659 
L 36.974082 106.698654 
L 35.690348 105.775251 
L 35.534135 105.528293 
L 35.054774 105.189207 
L 34.845426 104.835581 
L 34.312125 104.367713 
L 34.153628 103.937217 
L 33.88666 103.58306 
L 32.897667 102.618537 
L 32.364958 100.824599 
L 32.445169 100.404018 
L 32.881866 99.79623 
L 33.394713 99.393856 
L 33.378065 98.70157 
L 33.032346 97.940334 
L 32.867419 97.34464 
L 32.415788 96.411934 
L 32.378708 96.044806 
L 31.60012 94.483021 
L 31.513944 93.643187 
L 31.232233 93.022083 
L 30.745574 91.154438 
L 30.565374 90.53453 
L 30.724738 87.751908 
L 31.000104 86.967095 
L 31.039638 86.440165 
L 31.364882 86.127713 
L 31.459878 86.108894 
L 31.840605 85.19599 
L 31.528857 84.422607 
L 31.4434 83.751213 
L 31.388953 82.329108 
L 31.363951 81.860177 
L 30.662021 81.187268 
L 30.548346 80.884331 
L 30.373266 79.670218 
L 30.437739 79.048689 
L 30.235541 78.540764 
L 29.324474 77.812036 
L 28.904023 77.105768 
L 28.703728 76.488677 
L 28.139142 76.037581 
L 28.00036 75.674706 
L 27.334326 74.782694 
L 26.680476 73.950648 
L 26.046213 73.775696 
L 25.524292 73.216976 
L 25.294786 72.730369 
L 25.090514 71.524363 
L 24.769819 71.342606 
L 23.45241 70.731257 
L 22.587371 69.660918 
L 22.254555 69.553719 
L 19.431647 66.911122 
L 19.265324 66.118681 
L 19.291786 65.536863 
L 19.489712 64.740806 
L 19.290813 64.207338 
L 19.258724 63.514041 
L 18.936231 63.208207 
L 18.178225 61.823874 
L 18.207522 61.182143 
L 18.490396 60.720282 
L 18.77014 60.107019 
L 18.873429 59.133512 
L 19.306762 58.272945 
L 19.628029 57.344306 
L 21.089741 54.372352 
L 22.0113 52.786858 
L 22.152409 52.265536 
L 23.422415 50.107421 
L 23.795929 49.120809 
L 24.478525 46.598091 
L 24.007033 46.270487 
L 23.479316 45.181568 
L 23.32543 44.670241 
L 23.275552 44.430459 
L 23.063539 44.000867 
L 23.002492 43.069224 
L 23.11329 42.571054 
L 23.316588 42.221734 
L 23.970988 41.784487 
L 24.206968 41.726728 
L 24.886687 38.840442 
L 24.274741 38.87178 
L 23.688727 38.57929 
L 23.304214 38.088828 
L 23.215161 37.50794 
L 23.454885 36.828652 
L 23.974648 36.407033 
L 24.608361 36.257279 
L 25.382188 36.484037 
L 25.5248 35.141993 
L 25.454361 34.287672 
L 25.454361 34.287672 
" clip-path="url(#pbe73be2b97)" style="fill: none; stroke: #000000; stroke-width: 1.5"/>
    <path d="M 124.205518 231.017511 
L 124.855878 230.895852 
L 125.708584 231.000154 
L 126.567763 230.813666 
L 127.106353 230.966343 
L 127.65152 231.434557 
L 127.810398 231.72338 
L 127.906219 232.160122 
L 127.840096 232.769132 
L 127.370401 233.362965 
L 127.066839 233.553759 
L 126.431519 233.791893 
L 126.058661 233.928808 
L 124.94804 233.867833 
L 124.108576 233.475985 
L 123.693074 233.141922 
L 123.270993 233.700536 
L 122.706112 234.087095 
L 121.370617 234.376502 
L 120.637783 234.336392 
L 119.140999 235.077693 
L 117.408997 235.084524 
L 116.693276 235.370024 
L 116.016158 235.154803 
L 114.968191 234.299259 
L 114.6685 234.972275 
L 114.005068 235.503298 
L 112.933347 235.745924 
L 112.223083 236.298052 
L 111.940251 236.321549 
L 110.473165 236.906637 
L 109.790251 236.737001 
L 109.350932 236.48571 
L 108.733401 236.018267 
L 108.276207 235.774126 
L 107.904089 235.244671 
L 107.64499 235.129578 
L 107.176945 234.567642 
L 107.030209 233.92009 
L 106.629578 233.534196 
L 105.189081 233.731449 
L 104.584898 233.561574 
L 104.243705 233.305923 
L 103.811874 233.368175 
L 103.515504 233.297205 
L 103.080076 233.330617 
L 102.627959 233.113534 
L 102.246132 232.695877 
L 101.887869 232.089232 
L 101.817791 231.59388 
L 101.882624 231.336635 
L 101.720256 231.321909 
L 101.318609 231.173086 
L 100.816085 230.676564 
L 100.652363 230.263983 
L 100.637218 229.837926 
L 100.942176 229.09099 
L 101.087051 228.956865 
L 101.571024 228.699567 
L 102.038053 228.634339 
L 102.432783 228.711581 
L 102.976914 229.131286 
L 103.800472 228.509943 
L 104.095192 228.427783 
L 104.46786 228.47669 
L 105.441052 228.841055 
L 105.704381 229.200395 
L 105.792165 229.461282 
L 107.151795 230.52152 
L 107.209034 230.725073 
L 107.605287 231.153283 
L 108.503493 231.078273 
L 108.847625 231.134943 
L 109.33384 230.746949 
L 110.412542 230.597461 
L 110.776664 230.71569 
L 111.255412 230.399197 
L 111.998526 230.287427 
L 112.737685 230.461874 
L 112.933284 230.653891 
L 113.130427 230.971553 
L 113.538292 229.948686 
L 113.684034 229.703881 
L 114.057083 229.373247 
L 114.786236 229.236385 
L 115.192071 229.352701 
L 115.576902 229.340421 
L 117.340696 229.868281 
L 118.221069 229.703296 
L 118.750055 229.982178 
L 119.099286 230.020108 
L 119.447374 230.174513 
L 120.252783 230.802768 
L 120.459275 230.567877 
L 121.417005 229.931223 
L 122.509349 229.830855 
L 122.717322 229.893851 
L 123.767912 230.590736 
L 124.205518 231.017511 
L 124.205518 231.017511 
" clip-path="url(#pbe73be2b97)" style="fill: none; stroke: #000000; stroke-width: 1.5"/>
    <path d="M 141.261209 247.14708 
L 141.173023 246.854244 
L 141.124711 246.359769 
L 141.21975 245.985304 
L 141.388442 245.698422 
L 141.635442 245.420232 
L 142.019193 245.215722 
L 142.461326 245.129921 
L 142.784856 245.135981 
L 143.008546 245.23082 
L 143.261447 245.202326 
L 143.461086 245.232999 
L 143.696896 245.166203 
L 144.061145 245.157139 
L 144.539724 245.323825 
L 144.823635 245.567966 
L 145.050349 245.559114 
L 145.33921 245.64045 
L 145.595919 245.803229 
L 146.018761 246.266578 
L 146.224788 246.327235 
L 146.357076 246.470211 
L 146.729596 246.53706 
L 147.656865 246.918356 
L 147.836134 247.107183 
L 148.219949 247.36698 
L 148.567318 247.736634 
L 148.681627 247.975857 
L 148.773768 248.453826 
L 148.826417 248.547469 
L 149.026014 248.707988 
L 149.395255 249.155867 
L 149.701165 249.429725 
L 149.941649 249.882735 
L 150.074425 250.282929 
L 150.155143 250.690088 
L 150.160114 250.955732 
L 150.056699 251.53965 
L 149.951718 251.821296 
L 149.565153 252.214288 
L 149.072719 252.522673 
L 148.519281 252.671683 
L 147.987291 252.630271 
L 147.573989 252.496199 
L 147.189518 252.304182 
L 147.10275 252.222846 
L 146.743832 252.154296 
L 146.543051 252.198472 
L 146.001437 252.178723 
L 145.632999 252.125536 
L 144.964237 251.915923 
L 144.462961 251.576916 
L 143.944742 250.898664 
L 143.678409 250.226074 
L 143.599784 249.458645 
L 143.668826 249.2607 
L 143.553608 249.169609 
L 143.134341 249.083143 
L 142.756068 248.886634 
L 142.414494 248.689355 
L 142.174496 248.479449 
L 142.019172 248.264839 
L 141.91728 248.027264 
L 141.402784 247.439651 
L 141.261209 247.14708 
" clip-path="url(#pbe73be2b97)" style="fill: none; stroke: #000000; stroke-width: 1.5"/>
    <path d="M 140.984257 258.953402 
L 140.905823 258.575615 
L 140.913163 258.220235 
L 140.968139 257.964451 
L 141.216873 257.499374 
L 141.417464 257.283914 
L 141.69376 257.099711 
L 142.152349 256.971142 
L 143.025616 256.983794 
L 143.569451 257.186071 
L 143.792062 257.314853 
L 144.180763 257.682088 
L 144.366082 257.950098 
L 144.52056 258.269222 
L 144.776105 258.576146 
L 144.870234 258.799767 
L 144.904819 258.993618 
L 145.764336 260.292868 
L 146.304258 260.698671 
L 146.992799 261.459986 
L 147.590742 261.931097 
L 148.12087 262.472513 
L 148.301916 262.597734 
L 148.545341 262.897348 
L 148.694404 263.01058 
L 148.971356 263.39363 
L 149.126955 263.811235 
L 149.150434 264.038604 
L 149.126722 264.312355 
L 149.00116 264.638603 
L 148.852943 264.888725 
L 148.40935 265.296255 
L 147.99956 265.467752 
L 147.781645 265.50111 
L 147.255303 265.383492 
L 146.955358 265.695307 
L 146.621887 265.870392 
L 146.379117 265.920204 
L 146.025043 265.920204 
L 145.659736 265.785414 
L 145.429088 265.650785 
L 145.23461 265.474078 
L 145.013121 265.160562 
L 144.663404 264.804199 
L 144.520835 264.675257 
L 144.348165 264.60365 
L 143.940405 264.311 
L 143.694273 264.042538 
L 143.557627 263.826811 
L 143.360019 263.278165 
L 142.632325 262.187625 
L 142.455509 261.707211 
L 142.45166 261.450338 
L 142.3812 261.198196 
L 142.099552 260.832875 
L 141.816001 260.190533 
L 141.621185 259.27529 
L 141.08304 259.275264 
L 141.065208 259.120646 
L 140.984257 258.953402 
" clip-path="url(#pbe73be2b97)" style="fill: none; stroke: #000000; stroke-width: 1.5"/>
    <path d="M 120.680321 252.220614 
L 120.651786 251.814704 
L 120.799685 251.319671 
L 120.956701 251.056127 
L 121.218106 250.817514 
L 121.665295 250.585148 
L 122.156523 250.567446 
L 122.608894 250.394089 
L 122.994549 250.375403 
L 123.633212 250.580284 
L 125.010758 251.274644 
L 126.074018 252.162403 
L 126.154229 252.238848 
L 126.446411 252.758096 
L 126.488547 253.03315 
L 126.476511 253.389885 
L 126.312599 253.891085 
L 126.15425 254.167787 
L 125.760831 254.469475 
L 124.932049 254.837587 
L 124.694081 254.883225 
L 124.02737 254.930459 
L 123.711519 254.836922 
L 123.313172 254.826157 
L 121.960628 254.319349 
L 121.302992 253.776178 
L 121.172078 253.62164 
L 120.826084 252.978049 
L 120.753001 252.764661 
L 120.758036 252.485062 
L 120.680321 252.220614 
" clip-path="url(#pbe73be2b97)" style="fill: none; stroke: #000000; stroke-width: 1.5"/>
    <path d="M 45.90002 132.861659 
L 45.837811 132.657788 
L 45.818794 132.335447 
L 45.918593 131.893203 
L 46.091431 131.637047 
L 46.381794 131.372599 
L 46.697751 131.167265 
L 46.993529 131.077371 
L 47.480632 131.108762 
L 47.768626 131.207801 
L 48.00452 131.322654 
L 48.463047 131.695152 
L 48.676498 131.985809 
L 48.779829 132.265062 
L 49.271692 132.356738 
L 49.547734 132.466834 
L 49.888483 132.78229 
L 50.061363 133.055112 
L 50.255058 133.171295 
L 50.553607 133.492758 
L 50.716292 133.788598 
L 50.852283 134.28294 
L 50.855561 134.411616 
L 50.735964 134.970814 
L 50.573004 135.321755 
L 50.278178 135.624585 
L 50.066525 135.768199 
L 49.775993 135.895732 
L 49.472177 135.947644 
L 49.472177 135.895945 
L 49.25018 135.903095 
L 48.921298 135.804349 
L 48.634827 135.668603 
L 48.150812 135.217055 
L 48.044816 135.064882 
L 47.910878 134.612351 
L 47.675321 134.328366 
L 47.531631 133.984469 
L 47.276298 134.012112 
L 47.050937 133.974979 
L 46.690876 133.832827 
L 46.053039 133.191177 
L 45.90002 132.861659 
" clip-path="url(#pbe73be2b97)" style="fill: none; stroke: #000000; stroke-width: 1.5"/>
    <path d="M 131.838437 245.985358 
L 131.590231 245.985384 
L 131.744498 245.574744 
L 132.018551 245.28313 
L 132.33508 245.111288 
L 132.622608 245.018017 
L 132.910031 245.028384 
L 133.45615 244.91967 
L 133.935681 244.987742 
L 134.086605 245.031866 
L 134.316873 245.180875 
L 134.483916 245.341128 
L 134.679853 245.618229 
L 134.825129 245.985358 
L 134.894066 246.379226 
L 134.873083 246.867641 
L 134.561504 247.817199 
L 134.344795 248.020938 
L 134.086626 248.152457 
L 134.086626 248.077793 
L 133.904862 248.198335 
L 133.534267 248.301813 
L 132.983726 248.350986 
L 132.585591 248.277226 
L 132.115261 247.92974 
L 131.974956 247.707262 
L 131.803239 247.284395 
L 131.788643 246.669723 
L 131.838437 245.985358 
" clip-path="url(#pbe73be2b97)" style="fill: none; stroke: #000000; stroke-width: 1.5"/>
   </g>
  </g>
 </g>
 <defs>
  <clipPath id="pbe73be2b97">
   <rect x="7.2" y="7.2" width="240.841528" height="277.2"/>
  </clipPath>
 </defs>
</svg>
