<?xml version="1.0" encoding="utf-8" standalone="no"?>
<!DOCTYPE svg PUBLIC "-//W3C//DTD SVG 1.1//EN"
  "http://www.w3.org/Graphics/SVG/1.1/DTD/svg11.dtd">
<svg xmlns:xlink="http://www.w3.org/1999/xlink" width="293.4pt" height="219.556672pt" viewBox="0 0 293.4 219.556672" xmlns="http://www.w3.org/2000/svg" version="1.1">
 <metadata>
  <rdf:RDF xmlns:dc="http://purl.org/dc/elements/1.1/" xmlns:cc="http://creativecommons.org/ns#" xmlns:rdf="http://www.w3.org/1999/02/22-rdf-syntax-ns#">
   <cc:Work>
    <dc:type rdf:resource="http://purl.org/dc/dcmitype/StillImage"/>
    <dc:date>2025-03-08T18:33:47.468492</dc:date>
    <dc:format>image/svg+xml</dc:format>
    <dc:creator>
     <cc:Agent>
      <dc:title>Matplotlib v3.10.1, https://matplotlib.org/</dc:title>
     </cc:Agent>
    </dc:creator>
   </cc:Work>
  </rdf:RDF>
 </metadata>
 <defs>
  <style type="text/css">*{stroke-linejoin: round; stroke-linecap: butt}</style>
 </defs>
 <g id="figure_1">
  <g id="patch_1">
   <path d="M 0 219.556672 
L 293.4 219.556672 
L 293.4 0 
L 0 0 
z
" style="fill: #ffffff"/>
  </g>
  <g id="axes_1">
   <g id="LineCollection_1">
    <path d="M 20.216273 52.831786 
L 20.205576 42.65068 
L 20.331263 34.825784 
L 20.249628 16.653316 
L 39.1857 16.704418 
L 56.513389 16.589472 
L 94.311052 16.525303 
L 114.002186 16.586961 
L 123.416901 16.798068 
L 140.249358 16.833221 
L 171.838556 16.776213 
L 178.317115 16.640947 
L 184.470903 16.606677 
L 273.152757 16.575755 
L 273.1546 70.267055 
L 273.38281 116.338149 
L 273.406046 154.264805 
L 273.518182 170.633242 
L 273.500691 203.007235 
L 249.792413 202.908053 
L 247.841011 202.759627 
L 245.566754 202.692993 
L 239.354603 202.751118 
L 238.79978 202.67551 
L 216.27953 202.746235 
L 190.501535 202.983102 
L 180.176185 202.944043 
L 165.552286 203.020674 
L 162.243008 202.895079 
L 141.028271 202.872248 
L 99.037364 203.031369 
L 98.730301 202.677742 
L 20.425041 202.730053 
L 20.408128 185.955632 
L 20.555137 176.543484 
L 20.518999 148.882097 
L 20.509495 148.451886 
L 19.881818 143.245364 
L 19.895551 122.948065 
L 20.105222 115.395888 
L 20.208431 103.053032 
L 20.216273 52.831786 
" clip-path="url(#pb3a53a5898)" style="fill: none; stroke: #000000; stroke-width: 1.5"/>
   </g>
  </g>
 </g>
 <defs>
  <clipPath id="pb3a53a5898">
   <rect x="7.2" y="7.2" width="279" height="205.156672"/>
  </clipPath>
 </defs>
</svg>
