<?xml version="1.0" encoding="utf-8" standalone="no"?>
<!DOCTYPE svg PUBLIC "-//W3C//DTD SVG 1.1//EN"
  "http://www.w3.org/Graphics/SVG/1.1/DTD/svg11.dtd">
<svg xmlns:xlink="http://www.w3.org/1999/xlink" width="186.175976pt" height="291.6pt" viewBox="0 0 186.175976 291.6" xmlns="http://www.w3.org/2000/svg" version="1.1">
 <metadata>
  <rdf:RDF xmlns:dc="http://purl.org/dc/elements/1.1/" xmlns:cc="http://creativecommons.org/ns#" xmlns:rdf="http://www.w3.org/1999/02/22-rdf-syntax-ns#">
   <cc:Work>
    <dc:type rdf:resource="http://purl.org/dc/dcmitype/StillImage"/>
    <dc:date>2025-03-08T18:33:48.329765</dc:date>
    <dc:format>image/svg+xml</dc:format>
    <dc:creator>
     <cc:Agent>
      <dc:title>Matplotlib v3.10.1, https://matplotlib.org/</dc:title>
     </cc:Agent>
    </dc:creator>
   </cc:Work>
  </rdf:RDF>
 </metadata>
 <defs>
  <style type="text/css">*{stroke-linejoin: round; stroke-linecap: butt}</style>
 </defs>
 <g id="figure_1">
  <g id="patch_1">
   <path d="M 0 291.6 
L 186.175976 291.6 
L 186.175976 0 
L 0 0 
z
" style="fill: #ffffff"/>
  </g>
  <g id="axes_1">
   <g id="LineCollection_1">
    <path d="M 23.652119 169.298069 
L 23.899708 168.774783 
L 24.058176 168.663169 
L 24.220775 168.383883 
L 24.517962 168.220235 
L 24.891424 167.396569 
L 25.103117 166.627632 
L 25.182515 166.523277 
L 25.194832 166.315752 
L 25.3533 166.036465 
L 25.264482 165.703707 
L 24.868904 165.013468 
L 24.978781 164.815143 
L 25.245665 164.675751 
L 25.486352 164.149699 
L 25.162665 164.178986 
L 24.940241 164.58674 
L 24.815905 164.541031 
L 24.695826 164.360637 
L 24.73419 164.134606 
L 25.039715 163.518788 
L 24.95611 162.758152 
L 25.123118 162.459712 
L 25.636986 162.02091 
L 26.574141 160.804367 
L 26.578498 160.20666 
L 26.797396 159.77792 
L 27.306327 159.474772 
L 27.351769 159.194623 
L 27.502378 159.106403 
L 27.535754 158.789636 
L 27.936975 158.464316 
L 28.073049 157.407468 
L 28.467493 156.119019 
L 28.437165 155.76373 
L 28.614525 155.021062 
L 28.589638 154.9424 
L 28.713873 154.759743 
L 28.899697 154.092897 
L 29.325275 153.639757 
L 29.383967 153.187371 
L 29.342908 152.016861 
L 30.612666 149.413299 
L 31.266035 148.73747 
L 31.499089 147.65403 
L 32.109232 147.032031 
L 32.339541 146.934971 
L 32.322966 145.334426 
L 32.61645 145.092835 
L 33.198255 143.583278 
L 33.545192 143.503287 
L 34.133369 142.621622 
L 34.169995 142.487944 
L 34.636708 141.909283 
L 34.645248 141.478961 
L 34.029664 140.429803 
L 34.002358 140.1839 
L 33.583933 139.784483 
L 32.836104 138.729324 
L 32.758419 137.835118 
L 32.821469 137.185772 
L 32.509319 136.534163 
L 32.223316 136.432647 
L 31.828217 136.049077 
L 31.347574 135.574124 
L 30.394852 135.362144 
L 30.034388 135.547712 
L 29.55765 135.467074 
L 29.165951 135.024031 
L 28.753496 134.098813 
L 28.437165 133.897829 
L 27.781504 133.874974 
L 27.176701 134.241403 
L 27.085691 134.226562 
L 26.439225 133.619584 
L 26.471317 133.23163 
L 26.252998 132.62228 
L 26.040297 132.457303 
L 25.762833 131.983572 
L 24.94407 131.29495 
L 24.657588 130.967834 
L 24.388336 130.064284 
L 24.135886 129.126381 
L 23.86404 129.061015 
L 23.822804 128.555446 
L 23.805902 128.441029 
L 23.35594 128.02889 
L 23.168151 127.681615 
L 23.097746 127.062491 
L 22.890562 126.785576 
L 22.827386 126.169183 
L 22.630202 125.95767 
L 22.5669 125.4392 
L 22.187217 124.92382 
L 21.709723 124.795065 
L 21.5805 124.58639 
L 21.658764 124.191034 
L 21.779775 124.126027 
L 22.24873 123.974993 
L 22.35173 123.650643 
L 22.389112 123.161963 
L 22.770029 122.701708 
L 22.76353 122.11834 
L 23.107041 121.723558 
L 22.952755 121.408049 
L 22.739096 121.338586 
L 22.394679 120.747492 
L 21.997841 120.33618 
L 21.974617 120.117947 
L 22.247319 119.334959 
L 21.936857 118.34707 
L 21.355934 117.542845 
L 21.508659 117.103253 
L 21.356388 116.846497 
L 20.939978 116.666427 
L 20.544677 116.141273 
L 20.513644 115.551292 
L 20.282428 115.373019 
L 19.698961 115.208652 
L 19.544272 114.928575 
L 19.632889 114.339421 
L 19.944636 113.993906 
L 20.253662 112.620111 
L 20.124187 112.331122 
L 20.090408 51.276966 
L 20.239757 42.437893 
L 20.310968 19.85958 
L 45.07904 19.8 
L 45.078486 56.597572 
L 45.345572 56.795107 
L 45.550061 56.749325 
L 46.757727 58.796973 
L 47.150055 58.906179 
L 47.187462 58.992459 
L 47.111767 59.38584 
L 47.472054 59.555812 
L 47.581301 59.754029 
L 47.877028 60.038311 
L 47.940707 60.2877 
L 48.198825 60.550025 
L 48.358754 61.025553 
L 48.670929 61.145504 
L 48.662642 61.285615 
L 48.799169 61.403697 
L 49.300569 61.169581 
L 49.571483 61.696028 
L 50.035703 61.951346 
L 50.161248 62.828735 
L 50.120516 62.945667 
L 50.199838 63.165913 
L 50.160618 63.488034 
L 50.410373 63.856296 
L 50.723858 64.663863 
L 51.416446 64.485589 
L 51.511361 64.679279 
L 51.831974 64.994069 
L 51.749957 65.469166 
L 52.022408 65.91458 
L 52.536679 65.936788 
L 53.082589 66.368295 
L 53.301889 66.721321 
L 53.159971 67.203209 
L 53.202617 67.521018 
L 53.061958 67.688259 
L 53.081354 67.922591 
L 52.952761 68.205687 
L 53.120121 68.63299 
L 53.679129 68.891902 
L 54.012338 69.285534 
L 54.076445 69.520225 
L 53.903972 69.709063 
L 53.947953 70.011636 
L 54.052968 70.074882 
L 54.180755 70.308279 
L 53.751927 70.676864 
L 53.720339 70.943394 
L 53.33849 70.992697 
L 53.274231 71.196017 
L 53.099163 71.232348 
L 52.499197 71.84795 
L 52.471337 72.010412 
L 52.567738 72.224081 
L 52.806183 72.355675 
L 52.954575 72.302923 
L 53.239671 72.506818 
L 53.914854 72.605423 
L 53.988256 72.737017 
L 53.592175 72.891322 
L 53.660716 73.188684 
L 53.906818 73.651203 
L 54.123625 73.705501 
L 54.311212 74.309065 
L 54.363153 74.245892 
L 54.680517 74.134637 
L 54.854149 74.528916 
L 55.176022 74.533264 
L 55.51971 74.393513 
L 55.648554 74.465598 
L 55.379655 75.181531 
L 55.221011 75.284197 
L 54.486557 75.41403 
L 54.313076 75.280783 
L 54.02997 75.363578 
L 53.819158 75.43976 
L 53.466982 75.42614 
L 53.011881 75.735145 
L 52.677414 75.815604 
L 52.378539 76.468902 
L 52.796636 76.479862 
L 52.897445 76.376765 
L 53.036744 76.432068 
L 53.340581 76.402925 
L 53.446453 76.609587 
L 53.563534 76.771474 
L 54.072793 76.775068 
L 54.234963 76.925564 
L 54.495953 76.988845 
L 54.437563 77.262203 
L 54.94317 77.310032 
L 54.990904 77.534626 
L 55.225218 77.765903 
L 55.171841 77.957688 
L 55.297839 78.140669 
L 55.612911 78.074549 
L 55.956901 77.954526 
L 56.343108 78.135315 
L 56.497646 78.34266 
L 56.994914 78.572428 
L 56.937205 78.737298 
L 57.117538 78.919273 
L 57.294344 79.04253 
L 57.478404 78.982015 
L 57.680022 79.232446 
L 57.638912 79.688641 
L 57.932069 79.875647 
L 57.880657 80.036276 
L 58.192177 80.947048 
L 58.542766 81.043246 
L 58.823001 81.253502 
L 59.141095 81.297846 
L 59.357071 81.586691 
L 59.77134 81.369895 
L 60.303672 81.745631 
L 60.510806 81.622985 
L 60.913538 81.729353 
L 60.890514 81.925702 
L 61.137448 82.200281 
L 62.161835 82.171138 
L 62.456528 82.37011 
L 62.591796 82.280093 
L 62.739634 82.343051 
L 62.929539 82.254148 
L 63.485197 82.648642 
L 63.334386 82.906224 
L 63.432323 82.997319 
L 63.549783 83.334569 
L 64.075994 83.784726 
L 64.049343 84.31006 
L 63.933698 84.932598 
L 64.909921 85.180657 
L 65.051638 85.412581 
L 65.070127 85.818108 
L 65.224338 85.962818 
L 65.343258 86.262983 
L 65.915718 86.346244 
L 66.151568 86.597681 
L 66.511755 86.772865 
L 66.820176 87.050319 
L 66.880304 87.327952 
L 67.002146 87.480532 
L 67.471605 88.031452 
L 67.874538 88.038207 
L 67.974491 88.228591 
L 67.911265 88.413548 
L 68.10661 88.98107 
L 68.314047 89.325506 
L 68.419818 89.332729 
L 68.459668 89.479236 
L 69.036334 89.95462 
L 69.30289 90.057574 
L 69.279288 90.222695 
L 69.443197 90.328164 
L 69.599146 90.771315 
L 69.699551 90.753096 
L 69.684715 90.856481 
L 69.864342 91.694449 
L 69.797892 91.872435 
L 69.96505 91.99023 
L 70.276142 92.777134 
L 70.715272 92.716476 
L 70.78472 92.574497 
L 71.473027 92.710115 
L 71.482196 92.86097 
L 71.865682 93.355508 
L 71.85475 93.506614 
L 71.998961 93.591061 
L 72.398267 93.925616 
L 72.543107 94.085527 
L 72.497665 94.215468 
L 73.390738 94.622575 
L 73.474241 94.837395 
L 73.285193 94.938516 
L 73.209574 95.7431 
L 73.232597 96.120453 
L 72.808404 96.730953 
L 72.963849 96.855252 
L 73.301566 96.919324 
L 73.419781 97.156962 
L 73.301995 97.319352 
L 73.501874 97.914148 
L 74.154965 98.265089 
L 74.111765 98.626452 
L 74.145267 98.828802 
L 74.257563 98.78108 
L 74.352906 98.544376 
L 74.886094 98.365276 
L 75.002898 98.469164 
L 75.109602 98.828191 
L 75.619868 99.157283 
L 75.809924 99.51171 
L 76.806274 99.637914 
L 76.857913 99.50632 
L 76.88484 99.682042 
L 77.074846 100.078728 
L 77.190264 100.116137 
L 77.209686 100.249779 
L 77.422412 100.391255 
L 77.341956 100.750533 
L 77.418659 100.849749 
L 77.204496 101.339975 
L 77.056029 101.453529 
L 76.977437 101.533988 
L 76.994415 101.780178 
L 76.834486 102.021985 
L 76.999856 102.235331 
L 77.335306 102.309716 
L 77.37969 102.592201 
L 77.840812 102.532801 
L 77.866379 102.37501 
L 78.060138 102.051775 
L 78.799402 101.844681 
L 79.097421 101.027268 
L 79.348687 101.1709 
L 79.52237 101.083219 
L 79.769127 101.166732 
L 79.93417 101.071001 
L 80.080295 101.232098 
L 80.423251 101.438796 
L 80.456829 101.660407 
L 80.59172 101.697995 
L 80.728927 101.913748 
L 81.05735 102.219915 
L 80.778904 103.057739 
L 80.537033 103.217829 
L 80.508821 103.454281 
L 80.740489 103.570855 
L 80.576102 103.716535 
L 80.679707 103.937104 
L 81.214105 104.095254 
L 81.277331 104.253332 
L 81.287356 104.36915 
L 81.171106 104.502828 
L 81.203752 104.637872 
L 81.737973 104.890603 
L 81.858984 104.81054 
L 82.01254 104.875331 
L 82.322423 104.518424 
L 82.508398 104.607399 
L 82.652457 104.491365 
L 82.915185 104.468798 
L 83.046448 104.277911 
L 83.499231 104.615844 
L 84.160031 104.727997 
L 84.41427 104.882661 
L 84.935367 104.931605 
L 85.245124 104.483927 
L 85.384574 104.294406 
L 85.999326 103.894557 
L 86.313693 104.032368 
L 86.377649 103.837636 
L 86.521759 103.936709 
L 86.888822 103.747116 
L 87.028877 103.829946 
L 87.171677 103.662022 
L 87.687636 103.625763 
L 87.802803 103.790453 
L 88.303446 103.884531 
L 88.615294 104.383165 
L 88.560708 104.531397 
L 88.574613 104.856752 
L 88.520455 105.286175 
L 88.431006 105.364478 
L 88.57028 105.683077 
L 88.375715 106.093167 
L 88.31788 106.191809 
L 88.024547 106.434837 
L 88.141401 106.536821 
L 88.338485 107.085728 
L 88.146716 107.355779 
L 87.897843 108.591835 
L 87.952656 109.11875 
L 87.920262 109.29652 
L 87.66829 109.480579 
L 87.424958 109.484137 
L 87.233668 109.604842 
L 87.022 109.485574 
L 86.538687 109.710599 
L 86.601963 110.465162 
L 86.753529 110.766549 
L 87.043688 110.880391 
L 87.137016 111.094851 
L 87.011848 111.571995 
L 87.41453 111.927644 
L 87.048096 112.105271 
L 86.999002 112.269781 
L 87.000689 112.853185 
L 86.626699 113.089422 
L 86.585212 113.204594 
L 86.403519 113.23636 
L 86.366012 113.390953 
L 86.053459 113.726873 
L 86.31198 114.7756 
L 86.265682 115.576878 
L 86.066482 115.773694 
L 86.051771 115.990562 
L 85.776701 116.655467 
L 85.931491 117.438238 
L 85.583169 117.794031 
L 85.267291 117.898889 
L 84.983555 117.817245 
L 84.83748 118.075186 
L 84.899271 118.699664 
L 85.306763 118.964577 
L 85.469362 119.738725 
L 85.313338 119.91477 
L 85.528079 120.338803 
L 85.444097 121.601738 
L 85.165399 121.519555 
L 84.705663 121.863992 
L 84.211216 121.599798 
L 83.911409 121.71921 
L 83.725661 121.609788 
L 83.738004 122.102384 
L 83.410766 122.410024 
L 83.654173 122.763121 
L 83.571047 123.139468 
L 84.390717 123.575216 
L 84.743422 123.570832 
L 84.930984 123.87901 
L 85.120612 124.259957 
L 85.056857 124.811595 
L 84.796371 124.875344 
L 84.835516 124.958569 
L 84.802165 125.148378 
L 84.898792 125.379008 
L 84.279278 125.831825 
L 84.162625 126.113484 
L 83.932468 126.251187 
L 83.910905 126.504708 
L 84.36913 126.633894 
L 84.59498 126.544775 
L 84.699315 127.230092 
L 84.479486 127.338975 
L 84.40767 127.504347 
L 84.603922 127.890433 
L 84.75234 127.91397 
L 85.162275 127.725994 
L 85.397194 128.080852 
L 85.892195 128.118369 
L 86.58292 128.945412 
L 86.444629 129.279572 
L 86.337548 129.320358 
L 86.241903 129.489971 
L 85.825014 129.867253 
L 85.828037 129.933768 
L 86.211725 130.566476 
L 86.277244 130.810905 
L 86.515739 131.104171 
L 86.741236 131.17737 
L 86.777333 131.481524 
L 86.931166 131.582394 
L 86.874615 131.93506 
L 86.797006 131.994209 
L 86.718213 132.262787 
L 86.469843 132.292541 
L 86.497451 132.433298 
L 86.37571 132.969089 
L 85.450822 132.614806 
L 85.266863 132.817371 
L 84.84743 132.97297 
L 84.732415 133.148333 
L 84.42495 132.965567 
L 83.71886 133.36653 
L 83.685635 133.667485 
L 83.810676 133.764582 
L 83.278495 134.260233 
L 83.31832 134.467758 
L 82.967227 134.897899 
L 82.989293 135.168741 
L 82.664019 135.416405 
L 82.4257 135.781469 
L 82.631802 136.087958 
L 82.809137 136.119258 
L 82.978713 136.289302 
L 82.894605 136.861172 
L 83.202321 137.010985 
L 83.428524 137.422835 
L 83.994585 137.631977 
L 84.186329 138.436418 
L 83.719918 138.958086 
L 84.124362 139.175026 
L 84.042471 139.352365 
L 84.111692 139.537574 
L 83.54757 140.231909 
L 83.372452 140.12529 
L 83.059396 140.263137 
L 83.10053 140.353298 
L 83.050176 140.521689 
L 82.955438 140.464553 
L 82.5718 140.563266 
L 82.48812 140.657452 
L 82.63155 141.025031 
L 82.7246 141.294902 
L 82.974255 141.399329 
L 83.144133 141.772478 
L 82.626386 142.567684 
L 82.765987 142.850133 
L 82.450235 143.353294 
L 82.464215 143.529052 
L 82.569256 143.47206 
L 82.773997 143.553848 
L 82.876141 143.408742 
L 83.68828 143.159461 
L 84.148292 143.60987 
L 84.806598 143.259073 
L 84.963126 143.428542 
L 85.206332 143.366267 
L 85.067487 143.777291 
L 85.008971 143.984744 
L 85.389587 144.205708 
L 85.612767 144.273877 
L 85.683776 144.495668 
L 85.848743 144.542419 
L 85.874965 144.972597 
L 86.029075 145.268701 
L 86.272735 145.279877 
L 87.445085 145.895587 
L 87.619195 146.385201 
L 87.598817 146.522473 
L 87.837463 146.643682 
L 87.987644 147.016651 
L 88.389544 146.96742 
L 88.775021 146.692445 
L 89.042485 146.624744 
L 89.262289 146.344092 
L 89.641746 146.326052 
L 89.896262 146.157984 
L 89.892987 145.931019 
L 90.108283 145.785015 
L 90.309825 145.062003 
L 90.467612 144.714584 
L 90.357282 144.255155 
L 90.436377 143.956571 
L 90.954704 143.945216 
L 91.524267 144.311968 
L 91.817827 144.295833 
L 92.15373 143.761624 
L 92.30721 143.800362 
L 93.340388 143.365405 
L 93.444975 143.098695 
L 93.36656 143.012128 
L 93.402606 142.877803 
L 93.640195 142.563048 
L 94.163081 142.505121 
L 94.622565 142.127983 
L 94.632767 141.629601 
L 94.841765 141.46739 
L 94.869675 141.2456 
L 95.013634 140.997217 
L 95.55783 140.68832 
L 95.605313 140.557193 
L 95.824286 140.298281 
L 96.214398 140.270001 
L 96.34954 139.914639 
L 95.98162 139.305721 
L 96.332864 138.999124 
L 96.211904 138.680668 
L 96.304753 138.56316 
L 96.486194 138.637546 
L 96.852904 138.392433 
L 96.848294 138.294367 
L 96.983764 138.20108 
L 97.198329 138.330697 
L 97.431107 138.310609 
L 97.406622 138.386217 
L 97.58101 138.77453 
L 97.83137 138.752753 
L 98.325515 138.619219 
L 98.387078 138.876801 
L 98.350351 139.062513 
L 98.694341 139.707187 
L 98.713535 139.920928 
L 99.128686 140.172078 
L 99.332646 140.43372 
L 99.153447 140.660111 
L 99.265289 141.222242 
L 99.567287 141.38474 
L 100.248792 141.230758 
L 100.507465 141.286745 
L 100.75329 141.625181 
L 100.869364 141.647281 
L 101.125693 141.549286 
L 101.764099 142.474971 
L 101.81463 142.671536 
L 101.558124 142.793104 
L 101.278443 143.352827 
L 101.294162 143.55338 
L 100.856618 144.860552 
L 102.287842 144.765827 
L 102.588556 144.861845 
L 102.416737 145.124674 
L 102.486588 145.17006 
L 102.465504 145.35207 
L 102.61969 145.631249 
L 102.742414 146.307186 
L 102.331621 146.648389 
L 102.371446 146.932096 
L 102.147259 147.328531 
L 102.376837 147.525023 
L 102.399054 148.057041 
L 102.613468 148.080147 
L 102.746973 148.222162 
L 102.669842 148.367196 
L 102.307994 148.601168 
L 102.393815 148.967849 
L 102.695057 148.959943 
L 103.146002 149.319042 
L 103.408402 149.526566 
L 103.422382 150.161537 
L 103.272277 150.341608 
L 103.407394 150.487791 
L 103.52037 150.774409 
L 103.38427 150.88074 
L 103.378023 151.052438 
L 103.235425 151.157008 
L 103.277769 151.733046 
L 103.680123 152.160062 
L 103.783551 152.185971 
L 103.852923 152.380774 
L 103.998847 152.753384 
L 104.157088 152.819397 
L 104.237267 153.058724 
L 104.748389 153.54859 
L 104.747331 153.708357 
L 104.455459 153.783245 
L 104.628864 154.460656 
L 104.765216 154.595735 
L 105.086081 154.695239 
L 105.53297 155.161604 
L 105.57942 155.461912 
L 106.661516 156.667783 
L 106.778521 156.665052 
L 106.916964 157.474595 
L 107.004674 157.968593 
L 107.213395 158.175902 
L 107.275487 158.239256 
L 107.634742 158.194409 
L 107.600761 158.427339 
L 107.356875 158.854355 
L 107.624187 159.109817 
L 108.355089 159.532664 
L 108.543709 159.38745 
L 109.12637 159.589261 
L 109.137177 159.697138 
L 108.986215 159.99777 
L 108.730667 160.286328 
L 108.933796 160.522709 
L 109.621598 160.909441 
L 109.634596 161.086205 
L 109.654017 161.284027 
L 109.935612 161.351154 
L 110.288947 161.239288 
L 110.497542 161.443938 
L 110.56636 161.910985 
L 110.402854 162.143305 
L 110.642458 162.352446 
L 110.582053 162.85108 
L 110.854278 163.306484 
L 110.6281 163.632307 
L 110.622357 164.107295 
L 110.676917 164.531113 
L 110.554294 164.62555 
L 110.701704 165.030034 
L 110.580265 165.233067 
L 110.270584 165.291821 
L 110.150102 165.453025 
L 109.772283 165.355964 
L 109.620893 165.482887 
L 109.424313 165.420468 
L 109.319323 165.647289 
L 109.844123 166.718907 
L 110.000223 166.810361 
L 109.828733 167.322147 
L 110.266906 167.639849 
L 110.232749 167.815786 
L 110.365977 168.047567 
L 110.421293 168.406342 
L 110.708581 168.538151 
L 110.811631 168.756169 
L 111.075997 168.786031 
L 111.255548 169.406233 
L 111.571401 169.29275 
L 112.39888 169.661946 
L 112.915292 170.045912 
L 113.156357 170.795803 
L 112.949878 170.921324 
L 112.965143 171.052091 
L 113.287746 171.308452 
L 114.289537 170.792174 
L 114.353217 170.648434 
L 115.665193 169.931818 
L 116.043616 170.24244 
L 117.26423 170.990786 
L 117.361865 171.218578 
L 117.76112 171.518492 
L 117.905784 171.441339 
L 118.572957 171.736294 
L 118.488193 172.454814 
L 118.950625 172.911583 
L 118.941304 173.182353 
L 119.051862 173.149293 
L 119.32464 173.292027 
L 119.319703 174.094851 
L 119.517769 174.519494 
L 119.880474 174.788144 
L 119.845435 174.959914 
L 120.177485 175.113176 
L 120.232197 176.174444 
L 120.606691 176.703084 
L 120.628959 176.909459 
L 120.419608 177.297952 
L 120.073527 177.374026 
L 119.660317 177.95646 
L 120.315902 178.438959 
L 120.192422 178.696757 
L 120.945164 179.210376 
L 120.956701 179.368741 
L 120.706316 179.61177 
L 120.741808 179.945103 
L 121.154691 180.206278 
L 121.220839 180.152483 
L 121.745363 180.824719 
L 121.48271 180.963356 
L 121.484398 181.324611 
L 121.208672 181.699125 
L 121.380894 182.123733 
L 121.730274 182.580682 
L 121.662992 182.831617 
L 121.834534 183.339737 
L 122.160437 183.574321 
L 122.60186 184.140728 
L 122.815166 184.29568 
L 123.092252 184.232255 
L 123.061243 184.330716 
L 123.259309 184.605547 
L 123.426442 184.687659 
L 123.613626 184.646908 
L 124.356141 185.172278 
L 124.666376 184.917966 
L 124.818169 185.109032 
L 124.766958 185.265637 
L 125.08533 186.132712 
L 125.312691 186.216513 
L 125.555318 186.583553 
L 125.799707 186.641731 
L 125.986992 186.4935 
L 126.614768 185.95275 
L 126.541995 185.307501 
L 126.668976 185.175907 
L 126.419901 185.124233 
L 126.373326 184.873874 
L 125.917469 184.243251 
L 126.245211 183.979416 
L 126.24312 183.58158 
L 126.464109 183.440535 
L 126.636759 183.161392 
L 126.728172 183.22241 
L 126.971604 182.747385 
L 127.421415 182.176486 
L 127.405672 182.089092 
L 127.623763 182.127003 
L 128.187835 181.892384 
L 128.35653 181.956923 
L 128.571145 181.556212 
L 128.989595 181.384299 
L 129.724502 181.596531 
L 129.820122 181.794892 
L 130.14726 181.848076 
L 130.405151 182.041298 
L 131.207717 181.940141 
L 131.330114 182.147774 
L 131.50959 181.991205 
L 131.910961 181.871865 
L 132.515563 182.253243 
L 132.975147 182.16186 
L 133.42846 182.121038 
L 133.576373 182.314656 
L 134.12926 182.432019 
L 134.194778 182.745912 
L 134.462997 182.875852 
L 134.551413 182.685289 
L 134.981072 182.448981 
L 135.167173 182.281811 
L 135.5992 182.574897 
L 135.606858 182.750511 
L 135.952535 182.738976 
L 135.931351 182.784398 
L 136.153296 182.981214 
L 136.139669 183.178353 
L 136.593535 183.226758 
L 136.815859 183.066344 
L 137.337586 183.431336 
L 137.852941 182.724422 
L 137.964103 182.083486 
L 138.046876 182.067495 
L 138.096499 181.350053 
L 138.047102 181.208828 
L 138.085038 180.448911 
L 138.317563 180.145656 
L 138.4752 180.198085 
L 139.139047 180.032173 
L 139.170962 179.631821 
L 139.400339 179.415205 
L 139.701204 179.322241 
L 139.85544 179.074182 
L 140.328073 179.185509 
L 140.747883 179.104332 
L 140.936402 179.083849 
L 141.299888 179.234812 
L 141.347799 179.470545 
L 141.473495 179.958758 
L 142.538009 180.360008 
L 142.926559 180.045361 
L 143.323597 180.217023 
L 143.402441 180.12873 
L 143.765448 180.181842 
L 143.820437 180.23844 
L 143.873739 180.499687 
L 144.643584 180.711632 
L 144.729002 180.459189 
L 145.449551 180.248178 
L 145.676585 180.219969 
L 146.247785 180.517188 
L 146.250102 179.861769 
L 146.784979 179.976438 
L 147.186929 180.279657 
L 147.274514 180.189245 
L 147.790825 180.185041 
L 147.897604 179.922823 
L 148.020555 179.939533 
L 148.05247 179.770926 
L 148.291142 179.76072 
L 148.389331 179.489088 
L 148.732439 179.452182 
L 149.714406 179.403275 
L 149.859498 179.214688 
L 150.110361 179.367052 
L 150.438129 179.270351 
L 150.477223 179.485386 
L 150.501934 179.688635 
L 150.68476 179.88581 
L 150.871692 180.101528 
L 151.046508 180.597323 
L 151.324753 180.915204 
L 151.569571 181.216554 
L 151.911117 181.172714 
L 151.875423 181.074683 
L 151.9587 180.958541 
L 151.906356 180.828205 
L 152.228758 180.582194 
L 152.620834 180.681051 
L 152.829556 180.428608 
L 153.050872 180.610726 
L 153.146113 180.343586 
L 153.685348 179.990201 
L 153.949939 179.952002 
L 154.236698 179.979385 
L 154.551165 179.376431 
L 154.882887 179.518303 
L 155.059164 179.322206 
L 155.219925 179.464975 
L 156.799767 179.788534 
L 157.510366 179.287313 
L 157.712463 179.421781 
L 158.483567 179.48323 
L 158.682187 179.693917 
L 159.074465 179.817857 
L 159.475308 180.233481 
L 159.684634 180.027537 
L 159.879803 180.078242 
L 160.18102 180.023728 
L 160.474807 180.138145 
L 160.477275 180.092831 
L 160.587329 180.051722 
L 160.501357 179.849695 
L 160.440725 179.465335 
L 160.156057 179.535013 
L 159.867208 179.352858 
L 159.473091 179.299171 
L 159.509893 179.066277 
L 159.603876 179.068505 
L 159.635035 178.932922 
L 159.074037 178.224104 
L 159.052223 178.029588 
L 159.181698 177.880817 
L 159.023104 177.788392 
L 159.258274 177.21487 
L 159.60584 176.991786 
L 159.381754 176.556936 
L 159.257947 176.363319 
L 159.644708 176.160573 
L 159.917814 176.418155 
L 159.878594 176.336439 
L 159.986254 176.011407 
L 160.361932 175.565813 
L 160.389615 175.244447 
L 160.462036 175.09909 
L 160.256614 175.017913 
L 160.056634 174.79738 
L 160.104419 174.617166 
L 159.927839 174.363177 
L 160.033308 174.071277 
L 160.185756 174.106278 
L 160.536295 173.857536 
L 161.442088 173.626833 
L 161.577835 173.846935 
L 161.82822 173.964946 
L 162.262338 173.347043 
L 162.203293 173.119467 
L 162.328058 172.765579 
L 162.24206 172.684079 
L 162.36486 172.471092 
L 162.570029 172.37608 
L 162.81923 172.622127 
L 163.03183 172.980399 
L 163.495924 173.441193 
L 163.771851 173.157666 
L 164.111583 173.306149 
L 164.256449 173.830621 
L 164.836566 174.413702 
L 164.78533 174.658311 
L 164.932412 174.847185 
L 165.306655 175.130245 
L 165.319652 175.273518 
L 165.536661 175.61526 
L 165.415675 175.697839 
L 165.24887 176.102143 
L 165.459153 176.261874 
L 165.900777 176.102682 
L 165.888837 176.153961 
L 165.985439 176.359474 
L 166.151489 176.384772 
L 166.739037 177.135058 
L 166.554523 177.284584 
L 166.195697 177.422395 
L 166.423134 178.047232 
L 166.465402 178.619317 
L 166.529661 178.782103 
L 167.188118 178.810527 
L 167.730501 179.112884 
L 167.763726 179.652089 
L 167.886777 179.765068 
L 168.26112 179.875353 
L 168.470773 180.281167 
L 168.71675 180.249795 
L 168.954137 180.372513 
L 168.771865 180.932201 
L 169.05487 181.623374 
L 169.421278 181.880453 
L 169.562945 182.007555 
L 169.721513 181.976867 
L 170.379743 182.132645 
L 170.858472 182.371613 
L 170.942807 182.31365 
L 171.029963 182.469572 
L 171.091728 202.720339 
L 171.167977 244.512048 
L 171.073793 254.518361 
L 171.086892 271.314159 
L 143.198606 271.475004 
L 142.712447 271.320879 
L 115.59247 271.520174 
L 99.885029 271.8 
L 95.649949 271.595494 
L 81.624267 271.569585 
L 75.951313 271.309128 
L 69.176892 271.514928 
L 20.922723 271.420527 
L 20.465909 271.368313 
L 20.454977 206.400908 
L 20.531982 205.836693 
L 20.30525 205.607787 
L 20.322656 205.464946 
L 20.492207 205.207004 
L 20.834131 205.217389 
L 20.856323 204.904432 
L 20.578734 204.673442 
L 20.621204 204.573758 
L 21.191597 204.361095 
L 21.34213 204.397389 
L 21.555612 204.259183 
L 21.532514 203.788974 
L 21.729774 203.258825 
L 21.64025 202.550726 
L 22.094796 202.43807 
L 22.107693 201.93577 
L 21.940988 201.848592 
L 21.926555 201.593849 
L 22.069481 201.410149 
L 22.121447 201.118717 
L 21.82033 201.01508 
L 22.153463 200.714196 
L 21.729295 200.401634 
L 21.807887 200.31309 
L 21.971871 200.321211 
L 22.112505 200.122599 
L 22.63665 200.064312 
L 22.755621 199.914427 
L 22.512818 199.40548 
L 22.7163 199.127882 
L 22.734638 198.530068 
L 22.5868 198.262029 
L 21.801337 197.729257 
L 21.774435 196.332464 
L 21.952022 196.237559 
L 22.558487 196.125191 
L 22.931847 195.648549 
L 22.925374 195.367106 
L 23.28624 194.930676 
L 23.362262 194.474732 
L 23.607106 194.141867 
L 23.747336 193.960754 
L 23.751719 193.350866 
L 23.575518 193.056199 
L 23.066687 192.772636 
L 23.005225 192.622212 
L 22.752044 192.535321 
L 22.44604 192.632274 
L 21.839374 192.416951 
L 21.788339 192.030255 
L 21.875395 191.569353 
L 21.782193 191.38648 
L 21.832245 191.036293 
L 21.730806 190.777633 
L 21.457449 190.684418 
L 20.323286 190.570647 
L 20.060785 190.781227 
L 19.963427 191.216256 
L 19.83035 191.285287 
L 19.702412 191.208889 
L 19.630823 190.979983 
L 18.314313 189.419614 
L 18.106624 189.505642 
L 17.442702 190.233146 
L 16.835052 190.20217 
L 15.898905 189.345732 
L 15.660385 189.143238 
L 15.515142 188.785002 
L 15.664894 188.428886 
L 16.004248 188.25683 
L 16.345668 187.410165 
L 15.912583 186.74102 
L 15.661972 186.56289 
L 15.20337 186.07094 
L 15.007999 185.291007 
L 15.40131 184.943192 
L 15.719253 183.40539 
L 15.545168 182.610652 
L 15.448868 182.419119 
L 15.456299 182.172245 
L 15.675549 182.035189 
L 15.862859 182.053121 
L 16.081984 181.824359 
L 16.551871 180.712782 
L 17.069517 180.633509 
L 17.366528 180.238763 
L 17.494517 179.897525 
L 17.525525 179.481074 
L 17.39139 179.224678 
L 17.447387 179.072601 
L 17.983372 178.525275 
L 17.970449 178.1665 
L 18.235268 177.05018 
L 18.39958 176.970153 
L 18.651728 176.482192 
L 18.710999 175.618027 
L 19.146628 175.057765 
L 19.091262 174.920026 
L 19.258395 174.481152 
L 19.306658 174.332273 
L 19.569184 174.11174 
L 19.557244 173.375468 
L 20.384799 172.514502 
L 20.622085 172.517484 
L 20.77821 172.308271 
L 21.153511 172.324765 
L 21.460068 172.114401 
L 21.858845 171.695939 
L 22.554129 171.415646 
L 22.77076 171.336589 
L 22.871518 171.120979 
L 22.793456 170.873027 
L 22.861468 170.585547 
L 23.088174 170.330445 
L 23.652119 169.298069 
L 23.652119 169.298069 
" clip-path="url(#pee1336dcc6)" style="fill: none; stroke: #000000; stroke-width: 1.5"/>
   </g>
  </g>
 </g>
 <defs>
  <clipPath id="pee1336dcc6">
   <rect x="7.2" y="7.2" width="171.775976" height="277.2"/>
  </clipPath>
 </defs>
</svg>
