  0
SECTION
  2
HEADER
  9
$ACADVER
  1
AC1018
  9
$ACADMAINTVER
 70
     0
  9
$DWGCODEPAGE
  3
ANSI_1252
  9
$EXTMIN
 10
-116.049108000237
 20
44.3579689997411
 30
0.0
  9
$EXTMAX
 10
-104.039694000287
 20
49.0011000002775
 30
0.0
  9
$LIMMIN
 10
0.0
 20
0.0
  9
$LIMMAX
 10
12.0
 20
9.0
  9
$ORTHOMODE
 70
     0
  9
$REGENMODE
 70
     1
  9
$FILLMODE
 70
     1
  9
$QTEXTMODE
 70
     0
  9
$MIRRTEXT
 70
     1
  9
$LTSCALE
 40
1.0
  9
$ATTMODE
 70
     1
  9
$TEXTSIZE
 40
0.2
  9
$TRACEWID
 40
0.05
  9
$TEXTSTYLE
  7
Standard
  9
$CLAYER
  8
0
  9
$CELTYPE
  6
ByLayer
  9
$CECOLOR
 62
   256
  9
$CELTSCALE
 40
1.0
  9
$DISPSILH
 70
     0
  9
$LUNITS
 70
     2
  9
$LUPREC
 70
     4
  9
$SKETCHINC
 40
0.1
  9
$FILLETRAD
 40
0.5
  9
$AUNITS
 70
     0
  9
$AUPREC
 70
     0
  9
$MENU
  1
.
  9
$ELEVATION
 40
0.0
  9
$PELEVATION
 40
0.0
  9
$THICKNESS
 40
0.0
  9
$LIMCHECK
 70
     0
  9
$CHAMFERA
 40
0.5
  9
$CHAMFERB
 40
0.5
  9
$CHAMFERC
 40
1.0
  9
$CHAMFERD
 40
0.0
  9
$SKPOLY
 70
     0
  9
$ANGBASE
 50
0.0
  9
$ANGDIR
 70
     0
  9
$PDMODE
 70
     0
  9
$PDSIZE
 40
0.0
  9
$PLINEWID
 40
0.0
  9
$SPLFRAME
 70
     0
  9
$SPLINETYPE
 70
     6
  9
$SPLINESEGS
 70
     8
  9
$HANDSEED
  5
00020001
  9
$SURFTAB1
 70
     6
  9
$SURFTAB2
 70
     6
  9
$SURFTYPE
 70
     6
  9
$SURFU
 70
     6
  9
$SURFV
 70
     6
  9
$UCSBASE
  2

  9
$UCSNAME
  2

  9
$UCSORG
 10
0.0
 20
0.0
 30
0.0
  9
$UCSXDIR
 10
1.0
 20
0.0
 30
0.0
  9
$UCSYDIR
 10
0.0
 20
1.0
 30
0.0
  9
$UCSORTHOREF
  2

  9
$UCSORTHOVIEW
 70
     0
  9
$UCSORGTOP
 10
0.0
 20
0.0
 30
0.0
  9
$UCSORGBOTTOM
 10
0.0
 20
0.0
 30
0.0
  9
$UCSORGLEFT
 10
0.0
 20
0.0
 30
0.0
  9
$UCSORGRIGHT
 10
0.0
 20
0.0
 30
0.0
  9
$UCSORGFRONT
 10
0.0
 20
0.0
 30
0.0
  9
$UCSORGBACK
 10
0.0
 20
0.0
 30
0.0
  9
$PUCSBASE
  2

  9
$PUCSNAME
  2

  9
$PUCSORG
 10
0.0
 20
0.0
 30
0.0
  9
$PUCSXDIR
 10
1.0
 20
0.0
 30
0.0
  9
$PUCSYDIR
 10
0.0
 20
1.0
 30
0.0
  9
$PUCSORTHOREF
  2

  9
$PUCSORTHOVIEW
 70
     0
  9
$PUCSORGTOP
 10
0.0
 20
0.0
 30
0.0
  9
$PUCSORGBOTTOM
 10
0.0
 20
0.0
 30
0.0
  9
$PUCSORGLEFT
 10
0.0
 20
0.0
 30
0.0
  9
$PUCSORGRIGHT
 10
0.0
 20
0.0
 30
0.0
  9
$PUCSORGFRONT
 10
0.0
 20
0.0
 30
0.0
  9
$PUCSORGBACK
 10
0.0
 20
0.0
 30
0.0
  9
$WORLDVIEW
 70
     1
  9
$SHADEDGE
 70
     3
  9
$SHADEDIF
 70
    70
  9
$TILEMODE
 70
     1
  9
$MAXACTVP
 70
    64
  9
$PINSBASE
 10
0.0
 20
0.0
 30
0.0
  9
$PLIMCHECK
 70
     0
  9
$PEXTMIN
 10
1.000000000000000E+20
 20
1.000000000000000E+20
 30
1.000000000000000E+20
  9
$PEXTMAX
 10
-1.000000000000000E+20
 20
-1.000000000000000E+20
 30
-1.000000000000000E+20
  9
$PLIMMIN
 10
0.0
 20
0.0
  9
$PLIMMAX
 10
12.0
 20
9.0
  9
$UNITMODE
 70
     0
  9
$VISRETAIN
 70
     1
  9
$PLINEGEN
 70
     0
  9
$PSLTSCALE
 70
     1
  9
$TREEDEPTH
 70
  3020
  9
$CMLSTYLE
  2
Standard
  9
$CMLJUST
 70
     0
  9
$CMLSCALE
 40
1.0
  9
$PROXYGRAPHICS
 70
     1
  9
$MEASUREMENT
 70
     0
  9
$CELWEIGHT
370
    -1
  9
$ENDCAPS
280
     0
  9
$JOINSTYLE
280
     0
  9
$LWDISPLAY
290
     0
  9
$INSUNITS
 70
     1
  9
$HYPERLINKBASE
  1

  9
$STYLESHEET
  1

  9
$XEDIT
290
     1
  9
$CEPSNTYPE
380
     0
  9
$PSTYLEMODE
290
     1
  9
$EXTNAMES
290
     1
  9
$PSVPSCALE
 40
0.0
  9
$OLESTARTUP
290
     0
  9
$SORTENTS
280
   127
  9
$INDEXCTL
280
     0
  9
$HIDETEXT
280
     1
  9
$XCLIPFRAME
290
     0
  9
$HALOGAP
280
     0
  9
$OBSCOLOR
 70
   257
  9
$OBSLTYPE
280
     0
  9
$INTERSECTIONDISPLAY
280
     0
  9
$INTERSECTIONCOLOR
 70
   257
  9
$DIMASSOC
280
     2
  9
$PROJECTNAME
  1

  0
ENDSEC
  0
SECTION
  2
CLASSES
  0
CLASS
  1
ACDBDICTIONARYWDFLT
  2
AcDbDictionaryWithDefault
  3
ObjectDBX Classes
 90
        0
 91
        4
280
     0
281
     0
  0
ENDSEC
  0
SECTION
  2
TABLES
  0
TABLE
  2
VPORT
  5
8
330
0
100
AcDbSymbolTable
 70
     1
  0
VPORT
  5
29
330
8
100
AcDbSymbolTableRecord
100
AcDbViewportTableRecord
  2
*Active
 70
     0
 10
0.0
 20
0.0
 11
1.0
 21
1.0
 12
80.25
 22
106.4409457059851
 13
0.0
 23
0.0
 14
0.5
 24
0.5
 15
0.5
 25
0.5
 16
0.0
 26
0.0
 36
1.0
 17
0.0
 27
0.0
 37
0.0
 40
113.3818914119703
 41
0.8863849310366128
 42
50.0
 43
0.0
 44
0.0
 50
0.0
 51
0.0
 71
     0
 72
  1000
 73
     1
 74
     3
 75
     0
 76
     0
 77
     0
 78
     0
281
     0
 65
     1
110
0.0
120
0.0
130
0.0
111
1.0
121
0.0
131
0.0
112
0.0
122
1.0
132
0.0
 79
     0
146
0.0
  0
ENDTAB
  0
TABLE
  2
LTYPE
  5
5
330
0
100
AcDbSymbolTable
 70
     1
  0
LTYPE
  5
14
330
5
100
AcDbSymbolTableRecord
100
AcDbLinetypeTableRecord
  2
ByBlock
 70
     0
  3

 72
    65
 73
     0
 40
0.0
  0
LTYPE
  5
15
330
5
100
AcDbSymbolTableRecord
100
AcDbLinetypeTableRecord
  2
ByLayer
 70
     0
  3

 72
    65
 73
     0
 40
0.0
  0
LTYPE
  5
16
330
5
100
AcDbSymbolTableRecord
100
AcDbLinetypeTableRecord
  2
Continuous
 70
     0
  3
Solid line
 72
    65
 73
     0
 40
0.0
  0
ENDTAB
  0
TABLE
  2
LAYER
  5
2
330
0
100
AcDbSymbolTable
 70
     1
  0
LAYER
  5
10
330
2
100
AcDbSymbolTableRecord
100
AcDbLayerTableRecord
  2
0
 70
     0
 62
     7
  6
Continuous
370
    -3
390
F
  0
ENDTAB
  0
TABLE
  2
STYLE
  5
3
330
0
100
AcDbSymbolTable
 70
     1
  0
STYLE
  5
11
330
3
100
AcDbSymbolTableRecord
100
AcDbTextStyleTableRecord
  2
Standard
 70
     0
 40
0.0
 41
1.0
 50
0.0
 71
     0
 42
0.2
  3
txt
  4

  0
ENDTAB
  0
TABLE
  2
VIEW
  5
6
330
0
100
AcDbSymbolTable
 70
     0
  0
ENDTAB
  0
TABLE
  2
UCS
  5
7
330
0
100
AcDbSymbolTable
 70
     0
  0
ENDTAB
  0
TABLE
  2
APPID
  5
9
330
0
100
AcDbSymbolTable
 70
     1
  0
APPID
  5
12
330
9
100
AcDbSymbolTableRecord
100
AcDbRegAppTableRecord
  2
ACAD
 70
     0
  0
ENDTAB
  0
TABLE
  2
DIMSTYLE
  5
A
330
0
100
AcDbSymbolTable
 70
     1
100
AcDbDimStyleTable
  0
DIMSTYLE
105
27
330
A
100
AcDbSymbolTableRecord
100
AcDbDimStyleTableRecord
  2
Standard
 70
     0
340
11
  0
ENDTAB
  0
TABLE
  2
BLOCK_RECORD
  5
1
330
0
100
AcDbSymbolTable
 70
     1
  0
BLOCK_RECORD
  5
1F
330
1
100
AcDbSymbolTableRecord
100
AcDbBlockTableRecord
  2
*Model_Space
340
22
  0
BLOCK_RECORD
  5
1B
330
1
100
AcDbSymbolTableRecord
100
AcDbBlockTableRecord
  2
*Paper_Space
340
1E
  0
ENDTAB
  0
ENDSEC
  0
SECTION
  2
BLOCKS
  0
BLOCK
  5
20
330
1F
100
AcDbEntity
  8
0
100
AcDbBlockBegin
  2
*Model_Space
 70
     0
 10
0.0
 20
0.0
 30
0.0
  3
*Model_Space
  1

  0
ENDBLK
  5
21
330
1F
100
AcDbEntity
  8
0
100
AcDbBlockEnd
  0
BLOCK
  5
1C
330
1B
100
AcDbEntity
 67
     1
  8
0
100
AcDbBlockBegin
  2
*Paper_Space
 70
     0
 10
0.0
 20
0.0
 30
0.0
  3
*Paper_Space
  1

  0
ENDBLK
  5
1D
330
1B
100
AcDbEntity
 67
     1
  8
0
100
AcDbBlockEnd
  0
ENDSEC
  0
SECTION
  2
ENTITIES
  0
HATCH
  5
20000
100
AcDbEntity
  8
0
100
AcDbHatch
 10
0
 20
0
 30
0
210
0
220
0
230
1
  2
SOLID
 70
1
 71
0
 91
1
 92
2
 72
0
 73
1
 93
1530
 10
-115.629487999578
 20
47.479609999883
 10
-115.63460299962
 20
47.4816159997033
 10
-115.648247000227
 20
47.4777270002905
 10
-115.661024999748
 20
47.477847999767
 10
-115.662027000379
 20
47.4831369997373
 10
-115.667918000197
 20
47.488819999813
 10
-115.680516999617
 20
47.4857239998819
 10
-115.682578999707
 20
47.4839660002703
 10
-115.686264000393
 20
47.4849399998543
 10
-115.690026000174
 20
47.5007619997815
 10
-115.69863299966
 20
47.5022730001413
 10
-115.708403000333
 20
47.5151439999745
 10
-115.71139799966
 20
47.5167709999142
 10
-115.711124000024
 20
47.523419000018
 10
-115.695399999783
 20
47.5277130000298
 10
-115.698313999818
 20
47.5313750002208
 10
-115.702064999728
 20
47.5342099999942
 10
-115.706436999605
 20
47.5350060000251
 10
-115.711368000421
 20
47.5323710001519
 10
-115.717105000254
 20
47.5342220001514
 10
-115.725118000436
 20
47.5341189998244
 10
-115.736435999566
 20
47.5397930000434
 10
-115.742327000282
 20
47.5383250001595
 10
-115.751793000284
 20
47.5419869997851
 10
-115.755620000362
 20
47.5479329998964
 10
-115.754513999974
 20
47.5524539998671
 10
-115.744682000275
 20
47.5585439997621
 10
-115.740953000106
 20
47.5634470001796
 10
-115.730696000259
 20
47.5695849998308
 10
-115.723745999909
 20
47.5705959997347
 10
-115.721195000098
 20
47.5762540000176
 10
-115.706035999747
 20
47.5776260000774
 10
-115.704782000119
 20
47.5850430000103
 10
-115.68775800022
 20
47.5952999998225
 10
-115.691735000087
 20
47.5972419998765
 10
-115.692831000429
 20
47.6017949999326
 10
-115.696999999916
 20
47.6035549998656
 10
-115.698442999689
 20
47.6065789997029
 10
-115.698745999638
 20
47.6119750002253
 10
-115.691899000118
 20
47.6172300003009
 10
-115.693501999725
 20
47.6181909998942
 10
-115.694444000082
 20
47.6237610000345
 10
-115.707671999864
 20
47.6347150002304
 10
-115.729864000406
 20
47.6419199998673
 10
-115.736508000434
 20
47.6538109998884
 10
-115.731403000439
 20
47.6616889997318
 10
-115.732173000368
 20
47.6682100000115
 10
-115.726326999857
 20
47.6737069998377
 10
-115.728281999817
 20
47.6817080000574
 10
-115.722647999917
 20
47.695118000139
 10
-115.728044000166
 20
47.70169000026
 10
-115.741986999625
 20
47.7114920001218
 10
-115.753025999995
 20
47.7169500002964
 10
-115.75947500003
 20
47.7192089999945
 10
-115.76456800033
 20
47.7174060000205
 10
-115.773441999779
 20
47.7175680002183
 10
-115.776310999608
 20
47.7196780000489
 10
-115.784257999668
 20
47.7299630001739
 10
-115.782530000387
 20
47.7348260001074
 10
-115.783659000341
 20
47.7376820001709
 10
-115.781002000225
 20
47.7431840001938
 10
-115.786072999885
 20
47.748371000234
 10
-115.793730000415
 20
47.7519439999421
 10
-115.797498000044
 20
47.7573339997438
 10
-115.804609000053
 20
47.7581420002932
 10
-115.82499300005
 20
47.7523730002792
 10
-115.830909999807
 20
47.7550360000441
 10
-115.835423999974
 20
47.7614820002014
 10
-115.835069000146
 20
47.7700600002334
 10
-115.837438000383
 20
47.7748460001819
 10
-115.840426000037
 20
47.777901000209
 10
-115.840544000038
 20
47.7803550000375
 10
-115.847352999923
 20
47.7850939997806
 10
-115.845796000346
 20
47.794057999841
 10
-115.848944999659
 20
47.8001870000569
 10
-115.847327999808
 20
47.8034410001803
 10
-115.848770999582
 20
47.8100910001466
 10
-115.845065999702
 20
47.8149990000612
 10
-115.850083999659
 20
47.8201499999602
 10
-115.852312000328
 20
47.8278570001505
 10
-115.870741000366
 20
47.8349619998184
 10
-115.875262000205
 20
47.843271999817
 10
-115.881496000155
 20
47.8496119999719
 10
-115.901400999578
 20
47.8430970000849
 10
-115.906821000116
 20
47.8463829999886
 10
-115.906492000228
 20
47.8502819997154
 10
-115.909316999675
 20
47.8526310001929
 10
-115.918884999784
 20
47.8536200001913
 10
-115.919422000084
 20
47.857447999932
 10
-115.92523400026
 20
47.8668529999591
 10
-115.935481000061
 20
47.8741529997252
 10
-115.938009000306
 20
47.8810930001487
 10
-115.949749000109
 20
47.8890039999914
 10
-115.954085999825
 20
47.8945200000224
 10
-115.960201999774
 20
47.8980330000745
 10
-115.968389000034
 20
47.8992499998039
 10
-115.965383999763
 20
47.9101970001539
 10
-115.966869000267
 20
47.9125980002813
 10
-115.969603000376
 20
47.9143929997429
 10
-115.982443999646
 20
47.9156370001401
 10
-115.984651000399
 20
47.9225589998708
 10
-115.993375000061
 20
47.9259769999306
 10
-115.995120999783
 20
47.933827000042
 10
-115.998302999606
 20
47.9366280002686
 10
-115.998127999704
 20
47.9384770002731
 10
-116.00665899992
 20
47.9433410001697
 10
-116.0074840001
 20
47.950783000086
 10
-116.018771000167
 20
47.9628949999733
 10
-116.024030999973
 20
47.9654520002041
 10
-116.030387000122
 20
47.972618999702
 10
-116.038504999886
 20
47.9713450002131
 10
-116.049108000237
 20
47.9768420000676
 10
-116.049085999597
 20
49.0008459998511
 10
-115.182999999626
 20
48.999560999883
 10
-114.361928000027
 20
49.0011000002775
 10
-113.694770000374
 20
48.9974930002077
 10
-112.000879000188
 20
48.9989210002056
 10
-111.572297000217
 20
48.9966709998002
 10
-109.425313000408
 20
49.0004280002136
 10
-108.750703000265
 20
48.9990550000028
 10
-104.048689000111
 20
48.9995929999751
 10
-104.045530999679
 20
48.1283339997655
 10
-104.04141599972
 20
47.8626850001936
 10
-104.043661999933
 20
47.7325560002486
 10
-104.04529800005
 20
47.4141839997906
 10
-104.044919999758
 20
47.0931259997713
 10
-104.046627999846
 20
46.9085920000797
 10
-104.045481000348
 20
46.1690799997587
 10
-104.046827999862
 20
46.017509000215
 10
-104.042595999728
 20
45.7499419997496
 10
-104.039694000287
 20
44.9980699999405
 10
-105.913149000071
 20
45.000238000007
 10
-105.928173999629
 20
44.9934869999385
 10
-106.126207000345
 20
44.993267999834
 10
-107.084886000218
 20
44.9966000002652
 10
-107.138121000286
 20
45.0001280000325
 10
-107.476010000065
 20
45.0014239997849
 10
-109.080700000235
 20
44.9994400001012
 10
-109.103228000338
 20
45.0058150000639
 10
-109.761105999762
 20
45.0018020001719
 10
-109.825663000057
 20
45.0032240000688
 10
-110.105775999836
 20
45.0035330001032
 10
-110.183221000155
 20
44.996953000271
 10
-110.284773999719
 20
44.997359000155
 10
-110.325197999757
 20
44.9996770000252
 10
-110.407116000235
 20
44.9994960002789
 10
-110.445742999598
 20
44.9936819997972
 10
-110.704476000394
 20
44.9921740000481
 10
-110.790118999944
 20
45.0008829997368
 10
-111.054556000062
 20
45.0009549996844
 10
-111.052433999698
 20
44.4784110002825
 10
-111.055782000101
 20
44.4767980003198
 10
-111.064672000342
 20
44.4786380000183
 10
-111.074786999898
 20
44.4834479997
 10
-111.100917999773
 20
44.4877830000497
 10
-111.107212999822
 20
44.4869289998574
 10
-111.112836999677
 20
44.4904660000329
 10
-111.115061000148
 20
44.4938480002075
 10
-111.127382999559
 20
44.4976199998493
 10
-111.128376999794
 20
44.499728000192
 10
-111.130658999992
 20
44.5001309999187
 10
-111.138617999747
 20
44.5168540002678
 10
-111.131382000065
 20
44.5324290000659
 10
-111.140806000234
 20
44.5358439999157
 10
-111.150570999986
 20
44.5349709997991
 10
-111.158893999789
 20
44.546264000102
 10
-111.173755000214
 20
44.5493329999366
 10
-111.178640000102
 20
44.5524770002054
 10
-111.180747000397
 20
44.5548829999374
 10
-111.179959000027
 20
44.5674819999263
 10
-111.181030000254
 20
44.56923100026
 10
-111.201491000244
 20
44.5758960000957
 10
-111.218864999948
 20
44.5753060000838
 10
-111.220444999988
 20
44.5768730002808
 10
-111.22763100034
 20
44.5766870001221
 10
-111.230182000151
 20
44.581217000164
 10
-111.229483000368
 20
44.5823819997675
 10
-111.232144999609
 20
44.5852310002386
 10
-111.230812000338
 20
44.587705999805
 10
-111.232542999992
 20
44.5894889999197
 10
-111.231860000102
 20
44.5971369998503
 10
-111.235597999593
 20
44.6010359998027
 10
-111.235091000328
 20
44.6054149997778
 10
-111.24088900026
 20
44.6145249997955
 10
-111.226643999778
 20
44.6183600000497
 10
-111.219319000407
 20
44.622520999729
 10
-111.224404000311
 20
44.6251530000192
 10
-111.242644000203
 20
44.6434000000257
 10
-111.249236000353
 20
44.6441040002809
 10
-111.253070999929
 20
44.6498230001662
 10
-111.252597000276
 20
44.651249999714
 10
-111.270129000163
 20
44.6468199996912
 10
-111.278477000081
 20
44.6512649997149
 10
-111.280575000156
 20
44.6552010002047
 10
-111.275613000275
 20
44.656671999958
 10
-111.271854999794
 20
44.6625159997045
 10
-111.267051999922
 20
44.6648139998882
 10
-111.266804000225
 20
44.6675120001502
 10
-111.275666999803
 20
44.6743239999889
 10
-111.276924999629
 20
44.6759730002208
 10
-111.276183000188
 20
44.6783110001658
 10
-111.279250000383
 20
44.6822320000633
 10
-111.291040000415
 20
44.686188000299
 10
-111.296879000354
 20
44.6914439998656
 10
-111.297255000098
 20
44.6939720002365
 10
-111.294844999853
 20
44.6982510000891
 10
-111.296260000038
 20
44.7022709998247
 10
-111.317875000096
 20
44.714477000074
 10
-111.322483999799
 20
44.7187760001853
 10
-111.323626000172
 20
44.7290720000026
 10
-111.337113000421
 20
44.7332039999179
 10
-111.348067000401
 20
44.7253139997557
 10
-111.352977000403
 20
44.7261779998153
 10
-111.366491000416
 20
44.7381370001543
 10
-111.366261000262
 20
44.7422450002013
 10
-111.374931000395
 20
44.7481069998147
 10
-111.374488999631
 20
44.7501890002596
 10
-111.384824000194
 20
44.7549540001584
 10
-111.392968999722
 20
44.7523099998458
 10
-111.397843999564
 20
44.7463829998323
 10
-111.394429999938
 20
44.7441149997101
 10
-111.395257999593
 20
44.7392199997977
 10
-111.399382999597
 20
44.734266999992
 10
-111.397039000373
 20
44.7279339998783
 10
-111.397958000265
 20
44.7236439999596
 10
-111.404361000269
 20
44.7210539998385
 10
-111.414273000334
 20
44.7107390002917
 10
-111.424212999989
 20
44.7140230000928
 10
-111.429601999666
 20
44.7201479997345
 10
-111.438798000229
 20
44.7205449997813
 10
-111.442733000263
 20
44.7202319999266
 10
-111.446874000161
 20
44.7174009998677
 10
-111.465560999941
 20
44.7137280002067
 10
-111.479476999637
 20
44.7068059998781
 10
-111.485529000011
 20
44.7077799999946
 10
-111.488783999629
 20
44.7056430002198
 10
-111.48971599994
 20
44.6996569999203
 10
-111.482706000214
 20
44.6925890002588
 10
-111.484603000447
 20
44.6875740002697
 10
-111.476663999885
 20
44.6814370002605
 10
-111.468509000311
 20
44.6791780001932
 10
-111.471383999987
 20
44.6751330001526
 10
-111.476510999724
 20
44.6737239998055
 10
-111.475641000236
 20
44.6689979998673
 10
-111.472988000317
 20
44.6681110002823
 10
-111.472482999804
 20
44.6661900000824
 10
-111.47835199988
 20
44.6621340001292
 10
-111.47756000021
 20
44.6603079998873
 10
-111.479034999771
 20
44.6586599999547
 10
-111.487396999932
 20
44.6537900001709
 10
-111.488028999769
 20
44.6510910002329
 10
-111.490612000266
 20
44.6496520000202
 10
-111.4916709999
 20
44.6447449999052
 10
-111.490114000323
 20
44.64247099975
 10
-111.495275000395
 20
44.6443229999191
 10
-111.500956000151
 20
44.6496389999137
 10
-111.504883999613
 20
44.6443409998964
 10
-111.507944999961
 20
44.6455910000669
 10
-111.516309999597
 20
44.6439970001454
 10
-111.516461000108
 20
44.6408959998231
 10
-111.511394999572
 20
44.638609000265
 10
-111.509056000372
 20
44.6330989999409
 10
-111.503850999919
 20
44.6299230001321
 10
-111.502499000382
 20
44.6265080000731
 10
-111.516297000077
 20
44.6203000000131
 10
-111.518432999786
 20
44.6164769997791
 10
-111.522613000042
 20
44.614084000116
 10
-111.519647000129
 20
44.611972000213
 10
-111.525633000382
 20
44.6043399999823
 10
-111.519336999609
 20
44.6017679996879
 10
-111.524476999765
 20
44.5976279998173
 10
-111.523610999577
 20
44.5922150000554
 10
-111.519423999648
 20
44.5887120002964
 10
-111.517814000368
 20
44.5821660000755
 10
-111.506463999654
 20
44.5767740001259
 10
-111.50134000029
 20
44.5724899999783
 10
-111.5025770002
 20
44.568716999935
 10
-111.506308000019
 20
44.5687790000184
 10
-111.509586000101
 20
44.5662440002772
 10
-111.507769000234
 20
44.5622979998904
 10
-111.492122999811
 20
44.560804000237
 10
-111.480655999819
 20
44.5557350003048
 10
-111.478653000179
 20
44.5533950000056
 10
-111.475987999667
 20
44.5544220000689
 10
-111.47546499961
 20
44.5563609998825
 10
-111.469355000407
 20
44.5576739998945
 10
-111.467983999706
 20
44.5549500000169
 10
-111.46914600017
 20
44.5527740000497
 10
-111.466947999638
 20
44.5469780001667
 10
-111.46764899997
 20
44.54462299987
 10
-111.463534999836
 20
44.5413559997925
 10
-111.467904000238
 20
44.5402119998295
 10
-111.468002000147
 20
44.5389509999832
 10
-111.479664999958
 20
44.5421349998013
 10
-111.491623000219
 20
44.5406179997736
 10
-111.499371000087
 20
44.5420290000848
 10
-111.50768100037
 20
44.5362980002671
 10
-111.512890999948
 20
44.5360410002335
 10
-111.51637400007
 20
44.5378369998582
 10
-111.51831599961
 20
44.5434520002666
 10
-111.523593999858
 20
44.5478640000101
 10
-111.539166999588
 20
44.5513129999848
 10
-111.547051999723
 20
44.5571759996856
 10
-111.556561000281
 20
44.554686999873
 10
-111.562813999599
 20
44.5552090001629
 10
-111.564405000408
 20
44.5574970001118
 10
-111.577664000153
 20
44.5588860002462
 10
-111.585687000381
 20
44.562627999756
 10
-111.592261999914
 20
44.561119000005
 10
-111.592221999731
 20
44.558674999982
 10
-111.613897000064
 20
44.5486799997122
 10
-111.617637999929
 20
44.5504649999493
 10
-111.633222000427
 20
44.5533489997619
 10
-111.64058899963
 20
44.5527409999996
 10
-111.646826999778
 20
44.554796999703
 10
-111.65134199977
 20
44.5551409998778
 10
-111.659265000438
 20
44.5526629996904
 10
-111.663551000101
 20
44.5557970001421
 10
-111.676614999852
 20
44.5576840000144
 10
-111.68299699994
 20
44.561657000068
 10
-111.689994999971
 20
44.5562000000351
 10
-111.703164000202
 20
44.5601480000943
 10
-111.707252000396
 20
44.5524910002149
 10
-111.71265100012
 20
44.5485540002179
 10
-111.715647999995
 20
44.5433689999847
 10
-111.727032000146
 20
44.5441309996948
 10
-111.732370999595
 20
44.5421170001529
 10
-111.737535999865
 20
44.5430679998827
 10
-111.741367000141
 20
44.5408760002034
 10
-111.749914000251
 20
44.5395799999224
 10
-111.75229900038
 20
44.5365360001711
 10
-111.758943000409
 20
44.5332340002439
 10
-111.762723999558
 20
44.5258000002591
 10
-111.771510000042
 20
44.5308679999475
 10
-111.779796000036
 20
44.5238429999091
 10
-111.785450999852
 20
44.523597999734
 10
-111.795361000268
 20
44.5265939997895
 10
-111.801119000016
 20
44.5259850000811
 10
-111.808159999705
 20
44.5197480000194
 10
-111.806081999722
 20
44.5161209998637
 10
-111.809388000291
 20
44.5128889997162
 10
-111.807970999559
 20
44.5101610002436
 10
-111.810658999638
 20
44.5114779999377
 10
-111.821529999778
 20
44.5089410000113
 10
-111.831249000397
 20
44.5173270001892
 10
-111.82993600032
 20
44.5199860003036
 10
-111.842295000439
 20
44.5261729997587
 10
-111.849234999846
 20
44.5399699997273
 10
-111.856656000374
 20
44.545972999815
 10
-111.856907000444
 20
44.549091999945
 10
-111.863913999797
 20
44.5514600002956
 10
-111.864894999614
 20
44.5571159996966
 10
-111.867549000255
 20
44.5593890001347
 10
-111.866447000065
 20
44.5631000000924
 10
-111.869319000267
 20
44.5666209998541
 10
-111.870704000314
 20
44.5632580002364
 10
-111.879458999938
 20
44.5604089996925
 10
-111.889417999859
 20
44.5646489998443
 10
-111.892302999581
 20
44.5639519998294
 10
-111.895178000155
 20
44.5594010001808
 10
-111.90293400042
 20
44.5566729998691
 10
-111.934161000069
 20
44.5580400000916
 10
-111.941106000397
 20
44.5561519997559
 10
-111.947782000212
 20
44.55701299987
 10
-111.951680000436
 20
44.5494539998589
 10
-111.961154999759
 20
44.5491699999187
 10
-111.962421999806
 20
44.5444780003117
 10
-111.967303000394
 20
44.5449429997144
 10
-111.971542000201
 20
44.5376460001984
 10
-111.977724000272
 20
44.5357440001721
 10
-111.992039000176
 20
44.5375290000873
 10
-111.995515999552
 20
44.5350130002826
 10
-111.999932999634
 20
44.5378929998743
 10
-112.004426999709
 20
44.5377029999211
 10
-112.011473000319
 20
44.5434510002022
 10
-112.016699999615
 20
44.5420179997468
 10
-112.023437000428
 20
44.5450989997931
 10
-112.032706999712
 20
44.5466419998338
 10
-112.035069000276
 20
44.5419800001929
 10
-112.03281999969
 20
44.5351029998445
 10
-112.032798999774
 20
44.5284029997328
 10
-112.036943000045
 20
44.5303230001148
 10
-112.037856999914
 20
44.5326849997819
 10
-112.043915000136
 20
44.5323390002135
 10
-112.055475000014
 20
44.5366740003156
 10
-112.064488000279
 20
44.5358889997122
 10
-112.06906799967
 20
44.5371510000919
 10
-112.075274999855
 20
44.5333939999877
 10
-112.080842999633
 20
44.5338280001214
 10
-112.093092999973
 20
44.5300170002552
 10
-112.096484000033
 20
44.5229920000536
 10
-112.106400000296
 20
44.5205690002401
 10
-112.10952100002
 20
44.5242300001724
 10
-112.127046000234
 20
44.5288899999588
 10
-112.129161999852
 20
44.5361599998718
 10
-112.131345000315
 20
44.5377350000106
 10
-112.135369000037
 20
44.5371820003127
 10
-112.136672000069
 20
44.5398600000468
 10
-112.14575599958
 20
44.5392130000252
 10
-112.148886000423
 20
44.5367559997177
 10
-112.164648000298
 20
44.5415330000069
 10
-112.18007299989
 20
44.5327770002354
 10
-112.183657000294
 20
44.53295300003
 10
-112.195520000121
 20
44.5373639999744
 10
-112.222333000061
 20
44.5439429997219
 10
-112.229629999843
 20
44.5495189998667
 10
-112.227073000184
 20
44.5546779997497
 10
-112.227323000429
 20
44.5575290002028
 10
-112.231065999944
 20
44.5589929997874
 10
-112.229224999787
 20
44.5640889999169
 10
-112.243655000217
 20
44.5682900000845
 10
-112.251138999596
 20
44.5677199996959
 10
-112.256701000424
 20
44.5716779996941
 10
-112.259183999565
 20
44.5682600000686
 10
-112.267805000193
 20
44.5654609996997
 10
-112.286568000141
 20
44.5685589998986
 10
-112.29093400017
 20
44.5658110001914
 10
-112.292690999763
 20
44.5616560003164
 10
-112.296332000068
 20
44.5612060002561
 10
-112.298204000187
 20
44.5589359997871
 10
-112.30463499978
 20
44.559068999701
 10
-112.313740999932
 20
44.5530410001161
 10
-112.315599999632
 20
44.5464249999085
 10
-112.315007999978
 20
44.5419000000064
 10
-112.319493999657
 20
44.5389039997068
 10
-112.341362000334
 20
44.5372830003183
 10
-112.347619999675
 20
44.5387420000844
 10
-112.35250899976
 20
44.538020999709
 10
-112.356851000398
 20
44.5303030000768
 10
-112.358823000076
 20
44.5294110001082
 10
-112.356649999658
 20
44.52488400027
 10
-112.358306999692
 20
44.5199139999111
 10
-112.358356999921
 20
44.5091559999446
 10
-112.356396000113
 20
44.5052259999564
 10
-112.35681200004
 20
44.4979559998167
 10
-112.358402000126
 20
44.496434000028
 10
-112.356657000229
 20
44.4928379997944
 10
-112.358366000141
 20
44.4852610000311
 10
-112.361651999721
 20
44.4848159999686
 10
-112.364489999588
 20
44.480305000268
 10
-112.366064999606
 20
44.4669799998531
 10
-112.369741999896
 20
44.465976999807
 10
-112.386523999946
 20
44.4473079998419
 10
-112.39018399962
 20
44.4503789996831
 10
-112.407236000006
 20
44.4574650001995
 10
-112.416061999775
 20
44.4530009999639
 10
-112.4230149996
 20
44.4546890002375
 10
-112.429522000259
 20
44.4534320001768
 10
-112.434079999909
 20
44.454348000206
 10
-112.433539000308
 20
44.4598339997556
 10
-112.442350000009
 20
44.465311000148
 10
-112.441508999935
 20
44.4665749997204
 10
-112.447773999846
 20
44.4679719997579
 10
-112.455232000185
 20
44.4662540000933
 10
-112.455535999958
 20
44.4711410000116
 10
-112.460349999701
 20
44.4751149999411
 10
-112.464369000298
 20
44.4749399997547
 10
-112.472687000079
 20
44.4792969996887
 10
-112.480075000097
 20
44.4746449996811
 10
-112.48365000028
 20
44.4743500000392
 10
-112.485030000305
 20
44.4708669999244
 10
-112.497131999608
 20
44.4680690001919
 10
-112.497186000034
 20
44.4660579998624
 10
-112.500642000392
 20
44.4627660000418
 10
-112.511290000051
 20
44.4663820002421
 10
-112.510700000047
 20
44.4687739997513
 10
-112.513891000091
 20
44.4751169998523
 10
-112.53584000006
 20
44.4783829998954
 10
-112.541711999612
 20
44.4837709998703
 10
-112.547867999743
 20
44.483144000055
 10
-112.550143000268
 20
44.4847450001401
 10
-112.559708000004
 20
44.4826350000944
 10
-112.569668999575
 20
44.4827109996957
 10
-112.577952999918
 20
44.4800920000764
 10
-112.582139999847
 20
44.4820899996823
 10
-112.585335999914
 20
44.4812029998951
 10
-112.601954999757
 20
44.4907049997523
 10
-112.617889000059
 20
44.4873839998404
 10
-112.625014000312
 20
44.4830270000795
 10
-112.629123000422
 20
44.4828100002759
 10
-112.62987300026
 20
44.488805000066
 10
-112.63333999959
 20
44.491096000297
 10
-112.661734000294
 20
44.4859899997885
 10
-112.671971999874
 20
44.4913669999266
 10
-112.684958999632
 20
44.4928469998646
 10
-112.688754999749
 20
44.4983669999188
 10
-112.692734999988
 20
44.4999920001671
 10
-112.698363999865
 20
44.4999100002688
 10
-112.708525000351
 20
44.5032310000062
 10
-112.717930000253
 20
44.5042729996935
 10
-112.734542000423
 20
44.4994890002879
 10
-112.737462000305
 20
44.493267999742
 10
-112.74306199987
 20
44.4883379996812
 10
-112.749758999602
 20
44.4901339999183
 10
-112.762434999914
 20
44.4876770001141
 10
-112.772151999985
 20
44.4836050002224
 10
-112.780810000423
 20
44.4846599999338
 10
-112.780185000259
 20
44.4822279999717
 10
-112.785604000074
 20
44.4789849998106
 10
-112.78783100002
 20
44.473733000052
 10
-112.798041999836
 20
44.4663409997592
 10
-112.796866000026
 20
44.4643800001084
 10
-112.798039000361
 20
44.4609140001789
 10
-112.805809999795
 20
44.4559939996794
 10
-112.807706000204
 20
44.4531219999118
 10
-112.811334999916
 20
44.454819999722
 10
-112.813894999948
 20
44.453983000183
 10
-112.818189000006
 20
44.4470520002795
 10
-112.826962000072
 20
44.4431270000642
 10
-112.828424000112
 20
44.4363440000891
 10
-112.826879000231
 20
44.4320559998521
 10
-112.839890000278
 20
44.4247140001001
 10
-112.821792999604
 20
44.407164999974
 10
-112.819943999949
 20
44.4001980001543
 10
-112.810056000174
 20
44.3987599998877
 10
-112.815096999697
 20
44.3950979997239
 10
-112.812571
 20
44.3924049998118
 10
-112.811943000361
 20
44.3879049999711
 10
-112.814192000049
 20
44.3834640003008
 10
-112.812207999777
 20
44.3771420002231
 10
-112.823507000437
 20
44.3687260000998
 10
-112.83713000023
 20
44.3620940001054
 10
-112.840601999583
 20
44.3618939999712
 10
-112.844565000104
 20
44.3579689997411
 10
-112.852625999966
 20
44.3592099999458
 10
-112.855550999871
 20
44.360215999755
 10
-112.863898999789
 20
44.3698020001023
 10
-112.872924999575
 20
44.3721340000091
 10
-112.875709999738
 20
44.3772320000875
 10
-112.881581000362
 20
44.379256000281
 10
-112.881736000173
 20
44.3857080001495
 10
-112.885564000076
 20
44.396262999861
 10
-112.883531000299
 20
44.4006210000728
 10
-112.889556999836
 20
44.4059379999195
 10
-112.896421999798
 20
44.4008120000292
 10
-112.901873000298
 20
44.3988610002918
 10
-112.914615999658
 20
44.4026629999989
 10
-112.921146999709
 20
44.4109200001912
 10
-112.926402000391
 20
44.4106010003094
 10
-112.931350000027
 20
44.4134810002527
 10
-112.938780999703
 20
44.4123470001697
 10
-112.945416000409
 20
44.414631999696
 10
-112.950996999707
 20
44.4172600001132
 10
-112.953278999905
 20
44.4222800002607
 10
-112.952047999844
 20
44.4250200003128
 10
-112.963047999855
 20
44.4232549996808
 10
-112.971516000322
 20
44.4275670001391
 10
-112.98119499986
 20
44.4343059997431
 10
-112.989039999813
 20
44.4433290001073
 10
-113.001978000066
 20
44.4498570000282
 10
-113.004506000311
 20
44.4528269998589
 10
-113.008787999775
 20
44.463996999901
 10
-113.006117000314
 20
44.4709799998191
 10
-113.019986999978
 20
44.4836960001766
 10
-113.026824000351
 20
44.4955120001883
 10
-113.015877999868
 20
44.5059339998814
 10
-113.015944999815
 20
44.5159869999238
 10
-113.005518000089
 20
44.5198450001987
 10
-113.006529999867
 20
44.525775999758
 10
-113.015788000354
 20
44.5294240002367
 10
-113.026340999579
 20
44.5385519997
 10
-113.028966999733
 20
44.5370550000885
 10
-113.033292999579
 20
44.5374999997443
 10
-113.04535799997
 20
44.5443229998988
 10
-113.047702000092
 20
44.5476969997537
 10
-113.046767000307
 20
44.5535989997017
 10
-113.044803999951
 20
44.5562320001993
 10
-113.036826999754
 20
44.560362000099
 10
-113.037285000412
 20
44.5647690002245
 10
-113.039549999993
 20
44.5673020002981
 10
-113.044742000027
 20
44.5682159999746
 10
-113.067168000022
 20
44.5790619998123
 10
-113.062266000416
 20
44.5862360000909
 10
-113.072525999738
 20
44.5932969998794
 10
-113.088291999811
 20
44.5996629997566
 10
-113.071888000053
 20
44.6158710001927
 10
-113.063489000082
 20
44.6183280001806
 10
-113.05814899991
 20
44.6179879999227
 10
-113.05365400001
 20
44.6216570001675
 10
-113.049837999802
 20
44.6287989997739
 10
-113.050722000432
 20
44.6345420001312
 10
-113.053874999943
 20
44.6392660001229
 10
-113.065588999806
 20
44.6492529998491
 10
-113.064038000078
 20
44.652735000155
 10
-113.068003000249
 20
44.6576710002559
 10
-113.069733999902
 20
44.6686830001702
 10
-113.067106000098
 20
44.6742160002994
 10
-113.067761000399
 20
44.6787860001926
 10
-113.080943000151
 20
44.6830509999464
 10
-113.082057000036
 20
44.6839690000627
 10
-113.079552000256
 20
44.6878309999344
 10
-113.082112000288
 20
44.6916569997501
 10
-113.093950999825
 20
44.6953070000985
 10
-113.097833000155
 20
44.6988680001224
 10
-113.097023000044
 20
44.7014639997755
 10
-113.10181400022
 20
44.7071239998631
 10
-113.101728000006
 20
44.7155189997793
 10
-113.0994049998
 20
44.7177730002192
 10
-113.10192100035
 20
44.7227380002032
 10
-113.101618000401
 20
44.7294649998598
 10
-113.11244699981
 20
44.7334369996827
 10
-113.116836000303
 20
44.7325170001207
 10
-113.116466000407
 20
44.7400519997979
 10
-113.120260999801
 20
44.7459510001677
 10
-113.124901000364
 20
44.7494369998137
 10
-113.129412000158
 20
44.7495560001889
 10
-113.1348240003
 20
44.7527630001774
 10
-113.137724999915
 20
44.7601160002662
 10
-113.131347999851
 20
44.7649099997145
 10
-113.132499000444
 20
44.7690359997237
 10
-113.131459000179
 20
44.7727580002488
 10
-113.13843100027
 20
44.7761139997552
 10
-113.146143000153
 20
44.7766229998012
 10
-113.150128000416
 20
44.7792619998131
 10
-113.157944999881
 20
44.7809659997255
 10
-113.163687999561
 20
44.7788190003022
 10
-113.179538000198
 20
44.7871650002668
 10
-113.183413999782
 20
44.7935040000453
 10
-113.19311699961
 20
44.8016529998741
 10
-113.20360399961
 20
44.8039820002641
 10
-113.209354999686
 20
44.8091249999973
 10
-113.222590999865
 20
44.8107939999163
 10
-113.231871000093
 20
44.8143289998433
 10
-113.238729000382
 20
44.8141439998066
 10
-113.240163999759
 20
44.817232000006
 10
-113.246894000002
 20
44.8229729999816
 10
-113.258272000305
 20
44.8199969997449
 10
-113.263828000387
 20
44.8162099998483
 10
-113.279314999903
 20
44.8124389999828
 10
-113.285307999828
 20
44.8082549997113
 10
-113.298978000375
 20
44.8030310000963
 10
-113.301505999721
 20
44.7990309999575
 10
-113.318681000131
 20
44.7949139997751
 10
-113.328053000421
 20
44.7890969998479
 10
-113.341276000181
 20
44.7846640002424
 10
-113.354083000014
 20
44.7917979999556
 10
-113.354688999911
 20
44.7954369999091
 10
-113.346491999606
 20
44.7989299998906
 10
-113.346099999969
 20
44.8006110002167
 10
-113.356062000263
 20
44.8197980001424
 10
-113.376563000436
 20
44.8304829999831
 10
-113.377566999818
 20
44.8352389997791
 10
-113.385116000393
 20
44.8375999999526
 10
-113.394310000408
 20
44.8369400002141
 10
-113.409412999784
 20
44.8407570001731
 10
-113.421951999828
 20
44.8375989998584
 10
-113.422376000151
 20
44.8425950000645
 10
-113.429079999555
 20
44.8548580000444
 10
-113.439574999952
 20
44.8556889998189
 10
-113.443665999621
 20
44.8617560000749
 10
-113.455070999688
 20
44.8654239999066
 10
-113.457266999672
 20
44.8754080001574
 10
-113.462555999791
 20
44.8818580002088
 10
-113.461200000056
 20
44.8867540000867
 10
-113.466151999891
 20
44.8904640002621
 10
-113.478594999676
 20
44.8955949999217
 10
-113.475879000008
 20
44.8980159999726
 10
-113.474943000398
 20
44.905237999757
 10
-113.471786999616
 20
44.909837000103
 10
-113.477983999755
 20
44.9123820000193
 10
-113.483698000021
 20
44.9197240002638
 10
-113.487878000277
 20
44.9203809997376
 10
-113.490744999558
 20
44.9228519998331
 10
-113.49198300019
 20
44.9303830001241
 10
-113.495240000356
 20
44.931714999865
 10
-113.495695999567
 20
44.936941999764
 10
-113.498818000014
 20
44.9422030000807
 10
-113.494650000352
 20
44.9485149999589
 10
-113.486846000407
 20
44.9467779997995
 10
-113.480835999865
 20
44.9503099996882
 10
-113.465837000246
 20
44.94760900021
 10
-113.461053999568
 20
44.9520949997405
 10
-113.448759999746
 20
44.953730000308
 10
-113.443939000331
 20
44.9593799998037
 10
-113.449790999791
 20
44.9706359997552
 10
-113.444922999622
 20
44.9732640002762
 10
-113.447089000367
 20
44.9850579997025
 10
-113.445037000323
 20
44.9918450000152
 10
-113.446860999863
 20
44.998276000259
 10
-113.437881999933
 20
45.0073429997232
 10
-113.442094999801
 20
45.014209999723
 10
-113.448688999601
 20
45.0200159997332
 10
-113.44629099995
 20
45.0338920002776
 10
-113.455802999982
 20
45.0397119998331
 10
-113.449312000115
 20
45.0461770001764
 10
-113.451010999981
 20
45.0485079999313
 10
-113.452043999676
 20
45.0591739997068
 10
-113.460324999647
 20
45.0648689998204
 10
-113.47435199967
 20
45.0617559996887
 10
-113.485530999782
 20
45.0636239999259
 10
-113.486302000434
 20
45.0691289997078
 10
-113.488860999743
 20
45.0713190002058
 10
-113.48681799992
 20
45.0740479999255
 10
-113.489406000439
 20
45.0765259999013
 10
-113.495949000186
 20
45.0808180002205
 10
-113.501515000314
 20
45.0809989997832
 10
-113.514122999955
 20
45.0848100000223
 10
-113.522187000191
 20
45.0913880002355
 10
-113.521204999651
 20
45.0939250003062
 10
-113.512041999599
 20
45.0994179997707
 10
-113.506048999673
 20
45.1077840002341
 10
-113.506478000019
 20
45.1107859997201
 10
-113.511249000103
 20
45.1161289997089
 10
-113.520239999729
 20
45.1149990001609
 10
-113.529608999646
 20
45.1164020000831
 10
-113.537097000121
 20
45.1123609999013
 10
-113.54966299993
 20
45.1128790001355
 10
-113.554038000179
 20
45.1185600002086
 10
-113.566112999718
 20
45.1241280002215
 10
-113.56988399972
 20
45.1238509999471
 10
-113.57672500029
 20
45.1312369998618
 10
-113.567043000379
 20
45.1431200002683
 10
-113.565694000317
 20
45.1496020002695
 10
-113.570776999673
 20
45.1479739998864
 10
-113.579955999619
 20
45.1483539997305
 10
-113.582421000115
 20
45.1501170002526
 10
-113.583221000181
 20
45.1535750000347
 10
-113.590707000108
 20
45.1558860002811
 10
-113.590593000306
 20
45.1613600002045
 10
-113.594241000284
 20
45.1660589997745
 10
-113.594189000405
 20
45.1696329998044
 10
-113.589449000283
 20
45.1773009996966
 10
-113.592185999867
 20
45.1811360001157
 10
-113.592133000163
 20
45.1847789997715
 10
-113.597230999588
 20
45.1864750001616
 10
-113.599685000213
 20
45.1921610001336
 10
-113.604329999901
 20
45.1920849999232
 10
-113.609612000347
 20
45.1973030000326
 10
-113.614484999641
 20
45.198070999968
 10
-113.617920000082
 20
45.2024310001734
 10
-113.623883999695
 20
45.2061610002099
 10
-113.636351999594
 20
45.2118470002676
 10
-113.636914999834
 20
45.2167609997965
 10
-113.647288000031
 20
45.2256420000581
 10
-113.649131999663
 20
45.2339989999696
 10
-113.655425000062
 20
45.2400060000828
 10
-113.666872999787
 20
45.2469770001229
 10
-113.679611000023
 20
45.2497459999038
 10
-113.68502399999
 20
45.2535050003087
 10
-113.686634999993
 20
45.2574070003106
 10
-113.691887000302
 20
45.2625030001296
 10
-113.692936999715
 20
45.2641970001134
 10
-113.690754999975
 20
45.2689549999034
 10
-113.691908000218
 20
45.2723559999519
 10
-113.680320999678
 20
45.27443999975
 10
-113.67896199957
 20
45.2758889999835
 10
-113.680278999845
 20
45.2788859998862
 10
-113.687264000355
 20
45.2859620002164
 10
-113.700569999955
 20
45.2925180002118
 10
-113.702904000032
 20
45.2949380003112
 10
-113.703752999603
 20
45.2991779999157
 10
-113.710035000132
 20
45.3010150001999
 10
-113.71332699956
 20
45.3044809998497
 10
-113.715828000041
 20
45.3113840000869
 10
-113.718480999959
 20
45.3133580000032
 10
-113.718582000241
 20
45.3168050001022
 10
-113.722687999979
 20
45.3175260002781
 10
-113.724068000003
 20
45.3196630000694
 10
-113.728574999599
 20
45.3199079999253
 10
-113.738660999742
 20
45.3294089997141
 10
-113.740342000065
 20
45.3454390000671
 10
-113.734681000401
 20
45.3483490001859
 10
-113.734432999805
 20
45.3531270000668
 10
-113.729029999884
 20
45.3560859998787
 10
-113.731321000302
 20
45.3577979997044
 10
-113.733514999738
 20
45.3640620000018
 10
-113.7388790002
 20
45.3681299999498
 10
-113.732919999711
 20
45.3731409998492
 10
-113.734386999774
 20
45.3765690003121
 10
-113.732475000371
 20
45.384847999945
 10
-113.733474999555
 20
45.3908110000167
 10
-113.743892000134
 20
45.396585999985
 10
-113.749192000123
 20
45.4028999998639
 10
-113.752731000321
 20
45.4027680002244
 10
-113.761793999917
 20
45.4065790001378
 10
-113.773753000003
 20
45.4063589997577
 10
-113.776042999698
 20
45.40847700005
 10
-113.777159999957
 20
45.4165630001676
 10
-113.77274200005
 20
45.4197910001072
 10
-113.762794999824
 20
45.4230739998023
 10
-113.759732999652
 20
45.427110000251
 10
-113.765032999641
 20
45.431061999706
 10
-113.77354499959
 20
45.4317050001895
 10
-113.776034000376
 20
45.43374599992
 10
-113.776888999795
 20
45.4363329998959
 10
-113.774426999672
 20
45.4465099997034
 10
-113.783541000219
 20
45.4519779997976
 10
-113.784264000293
 20
45.4548860002542
 10
-113.774640999933
 20
45.4630100003141
 10
-113.776221999798
 20
45.4709049998764
 10
-113.768064999676
 20
45.4739369997606
 10
-113.7599140003
 20
45.4804000000663
 10
-113.760064999913
 20
45.4862260000653
 10
-113.76325900033
 20
45.4907859998311
 10
-113.764785999769
 20
45.4992100002177
 10
-113.770906999741
 20
45.506979000282
 10
-113.770069999864
 20
45.5120440000164
 10
-113.772843000332
 20
45.5133070001306
 10
-113.766021999853
 20
45.5206210000719
 10
-113.777960000023
 20
45.5232929997553
 10
-113.782138999556
 20
45.5218590001725
 10
-113.796856000041
 20
45.5234080000277
 10
-113.803820999561
 20
45.5227539999921
 10
-113.809658999676
 20
45.519795000092
 10
-113.820168000316
 20
45.5230999997166
 10
-113.82387400002
 20
45.5214280002549
 10
-113.834777999772
 20
45.5206570002449
 10
-113.829974000076
 20
45.5309150000595
 10
-113.827429999937
 20
45.533283999945
 10
-113.82906500023
 20
45.5381559998715
 10
-113.826039000042
 20
45.5436939998641
 10
-113.821457999928
 20
45.5473939997703
 10
-113.817408000267
 20
45.5570329999983
 10
-113.818031999708
 20
45.5626139999931
 10
-113.821468999799
 20
45.5659480001473
 10
-113.814983999779
 20
45.5696500000999
 10
-113.806928999764
 20
45.5781899998707
 10
-113.796746000436
 20
45.5815730000744
 10
-113.798752000449
 20
45.5870430002498
 10
-113.803710999956
 20
45.5926310003128
 10
-113.806430999822
 20
45.6016299999543
 10
-113.811028999654
 20
45.6057430002701
 10
-113.81819400009
 20
45.6078720002938
 10
-113.824095999778
 20
45.6128030002618
 10
-113.827871999803
 20
45.612906000229
 10
-113.834272000332
 20
45.6100760001842
 10
-113.83888000021
 20
45.610691000203
 10
-113.843495999586
 20
45.6127429998582
 10
-113.848639000115
 20
45.6201089998879
 10
-113.854608999575
 20
45.6222820001337
 10
-113.858907999657
 20
45.621667000311
 10
-113.861589000063
 20
45.6238200001058
 10
-113.885963000345
 20
45.6173820000703
 10
-113.89795199967
 20
45.6219039997851
 10
-113.904691000133
 20
45.6220069999997
 10
-113.904498999614
 20
45.6246820002465
 10
-113.899428999779
 20
45.6285040002781
 10
-113.901452000409
 20
45.630240999848
 10
-113.902392000217
 20
45.6375469997859
 10
-113.895277999835
 20
45.64384700031
 10
-113.903374999683
 20
45.6511279999492
 10
-113.907338000204
 20
45.6532490001116
 10
-113.911614999646
 20
45.6533069999357
 10
-113.914306999922
 20
45.6564260000681
 10
-113.919856000332
 20
45.6581169999516
 10
-113.920617999865
 20
45.6640649998493
 10
-113.931425000431
 20
45.6730360001388
 10
-113.930849999597
 20
45.6781720000734
 10
-113.934274000168
 20
45.6820049996885
 10
-113.932816000326
 20
45.6871729999723
 10
-113.93566199969
 20
45.6890940000164
 10
-113.933958999625
 20
45.692113999735
 10
-113.935260000007
 20
45.6943409997077
 10
-113.939104999629
 20
45.6957800000121
 10
-113.954877000448
 20
45.6906249998614
 10
-113.964816000277
 20
45.6900190000235
 10
-113.969187000329
 20
45.6927279998175
 10
-113.971738999965
 20
45.7008250001237
 10
-113.97076700037
 20
45.7029289998582
 10
-113.98000800024
 20
45.7023699998253
 10
-113.988526000038
 20
45.7059769998933
 10
-113.993903999844
 20
45.7033810001771
 10
-113.993721000445
 20
45.700652000161
 10
-113.996841000343
 20
45.6968580000944
 10
-114.008279000023
 20
45.6938309998983
 10
-114.015482000093
 20
45.6959010000388
 10
-114.019167999706
 20
45.692631000308
 10
-114.014365999659
 20
45.6837690002091
 10
-114.028309999842
 20
45.6752370000112
 10
-114.0238579996
 20
45.6706330001652
 10
-114.019120000026
 20
45.6696539999142
 10
-114.015658999645
 20
45.6642499997153
 10
-114.015532000322
 20
45.6605789997821
 10
-114.013703999685
 20
45.6582920000042
 10
-114.015270000381
 20
45.6527660001746
 10
-114.019068999972
 20
45.6484030002343
 10
-114.034556000386
 20
45.6476160003082
 10
-114.043249000085
 20
45.6404109998683
 10
-114.045133999725
 20
45.6367619998665
 10
-114.051838000028
 20
45.6327050002223
 10
-114.066737999912
 20
45.6281659999842
 10
-114.072453000003
 20
45.6212539999947
 10
-114.073561000041
 20
45.6150819997461
 10
-114.081857999905
 20
45.610567999859
 10
-114.083077000271
 20
45.6031399999384
 10
-114.082262999961
 20
45.5966990001884
 10
-114.086101999735
 20
45.5914640001975
 10
-114.090000999784
 20
45.5913899997221
 10
-114.100503999678
 20
45.5862039999241
 10
-114.121261999769
 20
45.5845920000071
 10
-114.130694000333
 20
45.5758330000676
 10
-114.132125000411
 20
45.5720950002398
 10
-114.129012000185
 20
45.5696859997026
 10
-114.128987000071
 20
45.5653850001074
 10
-114.133163999953
 20
45.5622639999022
 10
-114.13582100007
 20
45.5570980001305
 10
-114.150243999929
 20
45.5578310002197
 10
-114.154211999574
 20
45.5526179998649
 10
-114.164558000008
 20
45.5524979998665
 10
-114.174179999645
 20
45.5501600001038
 10
-114.180273000027
 20
45.5512380001408
 10
-114.19360799994
 20
45.536372000113
 10
-114.205262000428
 20
45.5359230001007
 10
-114.227873000371
 20
45.5461289998652
 10
-114.248449999813
 20
45.5458130000792
 10
-114.251589999804
 20
45.5375039998085
 10
-114.248734000394
 20
45.5345709999215
 10
-114.249471999637
 20
45.5292910000259
 10
-114.247210000429
 20
45.5247190001121
 10
-114.253473999618
 20
45.5150509998202
 10
-114.258501999621
 20
45.5112330000427
 10
-114.261475000105
 20
45.4949309997522
 10
-114.264548999973
 20
45.4921530000637
 10
-114.270022000214
 20
45.4908680001756
 10
-114.269891999619
 20
45.4845520000452
 10
-114.279996000204
 20
45.4798750001356
 10
-114.29506000012
 20
45.4793729999913
 10
-114.30378600033
 20
45.4715629997244
 10
-114.309219000388
 20
45.4693119999185
 10
-114.314403999851
 20
45.4696790002165
 10
-114.318736000443
 20
45.4661489997533
 10
-114.324357999749
 20
45.4658900002346
 10
-114.329707000142
 20
45.4620269999991
 10
-114.330046999901
 20
45.459722000186
 10
-114.345662000361
 20
45.4606569998346
 10
-114.350651000006
 20
45.4664709999816
 10
-114.351624000324
 20
45.4710359998554
 10
-114.361097999823
 20
45.4744089997258
 10
-114.360289000435
 20
45.478228999834
 10
-114.364560999854
 20
45.4836129999558
 10
-114.365119000071
 20
45.4893139998811
 10
-114.367201000252
 20
45.4918540000538
 10
-114.375339000107
 20
45.4939589998235
 10
-114.388869999839
 20
45.503002999893
 10
-114.392332000044
 20
45.5024589999582
 10
-114.413742000063
 20
45.5089880000861
 10
-114.423414999754
 20
45.5092989999414
 10
-114.425706999997
 20
45.510718999989
 10
-114.429533000251
 20
45.5175389997742
 10
-114.428785999888
 20
45.5209159997785
 10
-114.430903000229
 20
45.5243979999015
 10
-114.430574000341
 20
45.5295100000632
 10
-114.437122999935
 20
45.5308110000708
 10
-114.439942000433
 20
45.5369829998798
 10
-114.448801999639
 20
45.5388800002507
 10
-114.450524999795
 20
45.542345999891
 10
-114.463911999586
 20
45.5450289998123
 10
-114.461589000279
 20
45.5508020002934
 10
-114.462763000439
 20
45.5539500000015
 10
-114.456076999679
 20
45.5622400001432
 10
-114.465731999826
 20
45.5605069997463
 10
-114.471945999685
 20
45.565223
 10
-114.478044999915
 20
45.5619809997063
 10
-114.485249999635
 20
45.5618010000422
 10
-114.491917999953
 20
45.5571030000408
 10
-114.498079999933
 20
45.5554610003021
 10
-114.503078999623
 20
45.5590670000838
 10
-114.506863000044
 20
45.5593049999373
 10
-114.516341999565
 20
45.56799500026
 10
-114.527259999561
 20
45.570855000153
 10
-114.53193600011
 20
45.5662099997421
 10
-114.54858300044
 20
45.5610579997949
 10
-114.552638000124
 20
45.557019999837
 10
-114.560765999934
 20
45.559295999948
 10
-114.564936000144
 20
45.5577099999337
 10
-114.565490999988
 20
45.5626009998652
 10
-114.558522000269
 20
45.5660490000758
 10
-114.556775999649
 20
45.5729260002653
 10
-114.552956000141
 20
45.576603000284
 10
-114.554340000364
 20
45.5814800003035
 10
-114.55849799998
 20
45.584463000041
 10
-114.553875000033
 20
45.5884219998554
 10
-114.554035999692
 20
45.5914940001585
 10
-114.549272000178
 20
45.5953380000313
 10
-114.547643999558
 20
45.5996790001755
 10
-114.542017000229
 20
45.6020230002646
 10
-114.537944000103
 20
45.6065919999206
 10
-114.544687999691
 20
45.6169759998104
 10
-114.554598999931
 20
45.6198819996898
 10
-114.55829299994
 20
45.6273919999341
 10
-114.563229999706
 20
45.6316689999645
 10
-114.563987000115
 20
45.6376210003049
 10
-114.560664999651
 20
45.6402419997659
 10
-114.551713000384
 20
45.6424110002407
 10
-114.545435000054
 20
45.6429889996922
 10
-114.541674000098
 20
45.6413990002666
 10
-114.539674999757
 20
45.6460849998699
 10
-114.5413080004
 20
45.6485940000171
 10
-114.539494999832
 20
45.6505670002354
 10
-114.528879999785
 20
45.6524299998638
 10
-114.521927999785
 20
45.6494630002393
 10
-114.515051999953
 20
45.6531219997024
 10
-114.512726000273
 20
45.6560430002956
 10
-114.507646000391
 20
45.6575350000729
 10
-114.506361999728
 20
45.6618269998531
 10
-114.499532999752
 20
45.6687849997555
 10
-114.502281000105
 20
45.6739390002716
 10
-114.501455000099
 20
45.6773689997905
 10
-114.499029999787
 20
45.6788740000805
 10
-114.501188999961
 20
45.6824359997705
 10
-114.515086000288
 20
45.6849110001241
 10
-114.501385999604
 20
45.6937060003057
 10
-114.500737999874
 20
45.6965580000259
 10
-114.496570000212
 20
45.6994280000639
 10
-114.495148000355
 20
45.7039700001472
 10
-114.504181999638
 20
45.7218139997893
 10
-114.515366999597
 20
45.7274539999296
 10
-114.520521999821
 20
45.7265019998673
 10
-114.526653999664
 20
45.7276339998907
 10
-114.535634000317
 20
45.7390949998353
 10
-114.547850000321
 20
45.7432640002218
 10
-114.545747000223
 20
45.7469070000049
 10
-114.54731499967
 20
45.7518920000868
 10
-114.544511000139
 20
45.7591780001819
 10
-114.551243000031
 20
45.7639099996877
 10
-114.558282999895
 20
45.7647809998231
 10
-114.566465000131
 20
45.7733100000983
 10
-114.562450999557
 20
45.7797879998412
 10
-114.557004000153
 20
45.7834690002316
 10
-114.555619000106
 20
45.7865399997521
 10
-114.544091000014
 20
45.7903610001057
 10
-114.544967000249
 20
45.797897999812
 10
-114.541419999654
 20
45.7992359998774
 10
-114.537605999995
 20
45.8027599997189
 10
-114.537130999618
 20
45.8053050002065
 10
-114.531028999913
 20
45.8098679997089
 10
-114.530183999641
 20
45.8133750002417
 10
-114.532609999779
 20
45.8156430001803
 10
-114.531018000043
 20
45.8188980003077
 10
-114.511482999617
 20
45.8294360002369
 10
-114.516447000046
 20
45.8321380002794
 10
-114.517379000356
 20
45.8349470000755
 10
-114.515128000121
 20
45.8405130000173
 10
-114.509644000009
 20
45.8453570001253
 10
-114.50360000003
 20
45.8460030001398
 10
-114.498994999627
 20
45.8506919998361
 10
-114.492240999993
 20
45.8497540002548
 10
-114.48709699964
 20
45.8516710002942
 10
-114.474890999681
 20
45.8465849997154
 10
-114.471975999822
 20
45.8477669999489
 10
-114.470324999636
 20
45.8514649998699
 10
-114.464980000339
 20
45.852117000002
 10
-114.461550999746
 20
45.8551340001264
 10
-114.453674000006
 20
45.8557949997171
 10
-114.446371000377
 20
45.861431999691
 10
-114.437714999589
 20
45.8626079998493
 10
-114.424060000009
 20
45.8558089998099
 10
-114.409653999869
 20
45.8515729997866
 10
-114.40482099986
 20
45.8664829999021
 10
-114.405917000202
 20
45.8703999999618
 10
-114.403921000234
 20
45.8718759997259
 10
-114.396057000015
 20
45.871227999744
 10
-114.392928999721
 20
45.8787019998636
 10
-114.38984800018
 20
45.8803480002043
 10
-114.387868000106
 20
45.8839260001206
 10
-114.387602999792
 20
45.8901619998367
 10
-114.388913000395
 20
45.892251999766
 10
-114.393710000419
 20
45.8929689999072
 10
-114.395143000146
 20
45.9014330001412
 10
-114.404095000312
 20
45.9034699998038
 10
-114.413562999963
 20
45.9116310002256
 10
-114.416164000003
 20
45.9184330000886
 10
-114.414864000345
 20
45.9221329999008
 10
-114.431396000149
 20
45.9360400000043
 10
-114.431515999799
 20
45.9378910001124
 10
-114.426060000175
 20
45.9408069998896
 10
-114.424901999908
 20
45.9439810000586
 10
-114.414965999553
 20
45.9483899998982
 10
-114.411168999612
 20
45.9531099997835
 10
-114.40691800011
 20
45.9542450000485
 10
-114.402523999593
 20
45.9579439999494
 10
-114.40142800015
 20
45.9635440000166
 10
-114.406129999739
 20
45.9699809996963
 10
-114.410773999602
 20
45.9729999998743
 10
-114.411755000316
 20
45.9778700001633
 10
-114.421344000341
 20
45.9814109998904
 10
-114.428848999637
 20
45.986558999725
 10
-114.448500000414
 20
45.9876029998384
 10
-114.453644999694
 20
45.990994999968
 10
-114.457825999774
 20
45.9974780000063
 10
-114.464265999588
 20
45.997516000311
 10
-114.474099999836
 20
45.9922469999621
 10
-114.479992000377
 20
45.9929019998044
 10
-114.484820000363
 20
45.9963070002091
 10
-114.487782999903
 20
46.0036460002255
 10
-114.484931999618
 20
46.0082480001973
 10
-114.476204999583
 20
46.01127800005
 10
-114.473069999616
 20
46.0141500000165
 10
-114.480347000204
 20
46.0303489998726
 10
-114.485792999783
 20
46.0300219998119
 10
-114.489312999715
 20
46.0278689997668
 10
-114.497233999836
 20
46.0278860001689
 10
-114.507504000101
 20
46.03146399974
 10
-114.505728000242
 20
46.0343429999298
 10
-114.506647999959
 20
46.0385190000482
 10
-114.503303999754
 20
46.0418229998353
 10
-114.497510999845
 20
46.0423509998176
 10
-114.492880000401
 20
46.0501890000502
 10
-114.493349000031
 20
46.0525799997461
 10
-114.479138999709
 20
46.0557219998068
 10
-114.474704000083
 20
46.0583789997815
 10
-114.473900999644
 20
46.0605279998767
 10
-114.468286000011
 20
46.0627899998888
 10
-114.466988000002
 20
46.0657809999699
 10
-114.47212200031
 20
46.0692080001447
 10
-114.470798000362
 20
46.0744899997998
 10
-114.472351999565
 20
46.0768059999717
 10
-114.462011000053
 20
46.0785800002637
 10
-114.459480000333
 20
46.0939310002592
 10
-114.460475000393
 20
46.0977899996977
 10
-114.467008000094
 20
46.1045319998489
 10
-114.470882000028
 20
46.1056140001464
 10
-114.474453999838
 20
46.1131080001513
 10
-114.488455999748
 20
46.112985999841
 10
-114.495355999869
 20
46.1176759998932
 10
-114.504994000298
 20
46.1183900001962
 10
-114.520996000373
 20
46.1251120000407
 10
-114.517695999651
 20
46.1355849999237
 10
-114.521382000162
 20
46.1364500002337
 10
-114.527359000194
 20
46.145410999711
 10
-114.521824999853
 20
46.1507660001113
 10
-114.514368000238
 20
46.1539720001335
 10
-114.514857999784
 20
46.1676800002837
 10
-114.50748400001
 20
46.1646349998535
 10
-114.495581999825
 20
46.1679580001592
 10
-114.489205999585
 20
46.1676589997124
 10
-114.481163000164
 20
46.1621449997943
 10
-114.475952999688
 20
46.1606059999579
 10
-114.457701999926
 20
46.1701910001398
 10
-114.44663800034
 20
46.1679040002799
 10
-114.444090999829
 20
46.1692729998996
 10
-114.445947999879
 20
46.1739009999648
 10
-114.443304000181
 20
46.2030490000753
 10
-114.449189999976
 20
46.2092219998197
 10
-114.451828999651
 20
46.2148489996919
 10
-114.445634999885
 20
46.2197480000464
 10
-114.447984999854
 20
46.2315649999137
 10
-114.452089999767
 20
46.2412910001959
 10
-114.468266999744
 20
46.2486630001862
 10
-114.464832000201
 20
46.2522420000646
 10
-114.467800999589
 20
46.2564510000001
 10
-114.470719999646
 20
46.2660409997603
 10
-114.46492099989
 20
46.2732189998106
 10
-114.453657000288
 20
46.270947000299
 10
-114.441117000418
 20
46.2738649999289
 10
-114.432732999617
 20
46.278598000179
 10
-114.427288999688
 20
46.2837660001775
 10
-114.427406999689
 20
46.2862309999399
 10
-114.425440999858
 20
46.2878560000229
 10
-114.428231999869
 20
46.2910790002566
 10
-114.429927000436
 20
46.2996339999764
 10
-114.432176999948
 20
46.3013559999377
 10
-114.433433999949
 20
46.3055490000782
 10
-114.431638999823
 20
46.3071810001817
 10
-114.430051000285
 20
46.3134369997942
 10
-114.422514000303
 20
46.3240520002193
 10
-114.421930000147
 20
46.3300869999148
 10
-114.414022000446
 20
46.3355640000406
 10
-114.412183999764
 20
46.3578619997454
 10
-114.41024999972
 20
46.3610539997189
 10
-114.410247000246
 20
46.365730999794
 10
-114.414534999558
 20
46.3708139999053
 10
-114.422447000356
 20
46.3870459999551
 10
-114.415616999657
 20
46.393511000203
 10
-114.410038999833
 20
46.3963940000197
 10
-114.408550000029
 20
46.4006959999573
 10
-114.401336999913
 20
46.4015800001335
 10
-114.399689999925
 20
46.4047850000702
 10
-114.393495000333
 20
46.4092160000595
 10
-114.384842999744
 20
46.4113589998606
 10
-114.383661000086
 20
46.4184649997405
 10
-114.384909999691
 20
46.4275939999558
 10
-114.382960999579
 20
46.4321720002812
 10
-114.378830999552
 20
46.4350500002393
 10
-114.368413999872
 20
46.4371149998881
 10
-114.372339999684
 20
46.4428100001992
 10
-114.376196000075
 20
46.4428089998798
 10
-114.384400000053
 20
46.4470119998773
 10
-114.379430999601
 20
46.460289999776
 10
-114.383136000379
 20
46.4662579998578
 10
-114.39465500025
 20
46.4694260002712
 10
-114.395548000202
 20
46.4728970001604
 10
-114.400671999566
 20
46.4778129998169
 10
-114.400884000176
 20
46.4883829999657
 10
-114.403096000054
 20
46.4923469997399
 10
-114.403183999918
 20
46.4988110002333
 10
-114.399919000254
 20
46.5021929999907
 10
-114.383996999647
 20
46.5050730002625
 10
-114.375594000376
 20
46.5017539998951
 10
-114.367999999595
 20
46.5051130000422
 10
-114.358340000323
 20
46.5052119998806
 10
-114.348337000021
 20
46.5103340000646
 10
-114.347050999708
 20
46.5152809997603
 10
-114.342641000197
 20
46.5184310000453
 10
-114.34293599975
 20
46.5223729997823
 10
-114.347747999842
 20
46.5263450003081
 10
-114.349226999601
 20
46.5299440000108
 10
-114.348808000199
 20
46.5336560000147
 10
-114.343895999649
 20
46.5415100000612
 10
-114.345200000404
 20
46.5481349999325
 10
-114.347887999584
 20
46.5514710001304
 10
-114.342640000372
 20
46.5552250002284
 10
-114.339347000221
 20
46.5643410001128
 10
-114.331734000072
 20
46.5718560002182
 10
-114.32963900037
 20
46.5761989998762
 10
-114.334099999935
 20
46.5793580002741
 10
-114.339558000108
 20
46.5871310001284
 10
-114.344196999948
 20
46.5899690001629
 10
-114.332551999681
 20
46.596732000054
 10
-114.330256000138
 20
46.5994769997866
 10
-114.329945999619
 20
46.6042130003017
 10
-114.322531999661
 20
46.6108890002842
 10
-114.328060999979
 20
46.6197549998405
 10
-114.324510000085
 20
46.6219340000049
 10
-114.322149000245
 20
46.6258479997329
 10
-114.322360000132
 20
46.6338839999342
 10
-114.320303000065
 20
46.6382659998665
 10
-114.322816000242
 20
46.6420190000155
 10
-114.320704999748
 20
46.6469500000504
 10
-114.321622999815
 20
46.6489559997888
 10
-114.333124999967
 20
46.6609389997892
 10
-114.353000000151
 20
46.663557000252
 10
-114.357572000044
 20
46.6681399998841
 10
-114.358223999972
 20
46.6711379997373
 10
-114.362276000181
 20
46.6685089998662
 10
-114.378054999775
 20
46.6671310001926
 10
-114.383723999835
 20
46.6624580002833
 10
-114.389284000115
 20
46.6647630000618
 10
-114.394519999632
 20
46.6649169997771
 10
-114.403855999937
 20
46.6594870001859
 10
-114.409576999876
 20
46.6622440002179
 10
-114.412115999991
 20
46.6568250000368
 10
-114.424595999586
 20
46.66065999979
 10
-114.449000999831
 20
46.6495329999258
 10
-114.453477000362
 20
46.649209000115
 10
-114.454536999821
 20
46.6442590002084
 10
-114.452638999763
 20
46.6415610002509
 10
-114.466834000016
 20
46.6318010002066
 10
-114.487520999962
 20
46.6331630000109
 10
-114.497613999777
 20
46.637466999983
 10
-114.501055000066
 20
46.6413540002405
 10
-114.510032000346
 20
46.6392009998533
 10
-114.52384699976
 20
46.6405880000001
 10
-114.541822000236
 20
46.6499920002409
 10
-114.547032999638
 20
46.6446799997081
 10
-114.557462999737
 20
46.6440520000365
 10
-114.563182000026
 20
46.640822999971
 10
-114.570565000021
 20
46.6432989997646
 10
-114.582867000239
 20
46.6333670002014
 10
-114.588963000096
 20
46.6351700001187
 10
-114.593766999793
 20
46.6329420000163
 10
-114.599742000175
 20
46.6362960003074
 10
-114.605731999727
 20
46.6358999997327
 10
-114.614975000146
 20
46.639975000062
 10
-114.616270999606
 20
46.6437329998536
 10
-114.611656000055
 20
46.6474530002511
 10
-114.612054000439
 20
46.6506759999276
 10
-114.615304999859
 20
46.6524269997831
 10
-114.614564000242
 20
46.6550750002573
 10
-114.621023000322
 20
46.6579819996944
 10
-114.635779000267
 20
46.6594759998205
 10
-114.639891999678
 20
46.6656140001439
 10
-114.63336599965
 20
46.6696680000767
 10
-114.633139999694
 20
46.6718180002579
 10
-114.642563000038
 20
46.6729120002496
 10
-114.64024400003
 20
46.6753090001443
 10
-114.641443000305
 20
46.6794920000125
 10
-114.631840999861
 20
46.6839470002309
 10
-114.623543000172
 20
46.6909330001531
 10
-114.622908999787
 20
46.694444999924
 10
-114.624682999996
 20
46.6961129999123
 10
-114.620787000321
 20
46.7072619999694
 10
-114.623730999594
 20
46.7090779999954
 10
-114.624932000417
 20
46.7122579998899
 10
-114.633825000133
 20
46.7157819999439
 10
-114.639272000435
 20
46.7217859998128
 10
-114.644626999777
 20
46.7228320002249
 10
-114.645959999946
 20
46.7289989998608
 10
-114.648412999848
 20
46.7323149999764
 10
-114.659575000241
 20
46.7347510001382
 10
-114.665375999647
 20
46.7392340003042
 10
-114.671927999614
 20
46.7365699999949
 10
-114.681724000227
 20
46.7388939997427
 10
-114.688619000326
 20
46.736454000209
 10
-114.69859400014
 20
46.7404510000024
 10
-114.701020000278
 20
46.7366019997221
 10
-114.700036999913
 20
46.7336680002783
 10
-114.708942000223
 20
46.726871999929
 10
-114.70779999985
 20
46.7238919998537
 10
-114.71042500018
 20
46.7177039999769
 10
-114.713043999763
 20
46.7154259999815
 10
-114.716782999978
 20
46.7140530001606
 10
-114.727444999881
 20
46.714604000041
 10
-114.739773000038
 20
46.7119409998797
 10
-114.747464999829
 20
46.7029460002312
 10
-114.748479999981
 20
46.6985549998489
 10
-114.759356999969
 20
46.6965630000536
 10
-114.767237999906
 20
46.6971720001387
 10
-114.769515000081
 20
46.6999090002748
 10
-114.76854799961
 20
46.704762999885
 10
-114.78186499998
 20
46.7068329998416
 10
-114.788430000365
 20
46.7127699998368
 10
-114.786548000201
 20
46.7162919999048
 10
-114.78208099989
 20
46.7194990001684
 10
-114.782754999559
 20
46.7263499998857
 10
-114.77963499966
 20
46.7285889998412
 10
-114.779151999787
 20
46.7310170000626
 10
-114.773741000368
 20
46.7317489997963
 10
-114.769958999597
 20
46.7350420001557
 10
-114.765238999566
 20
46.7453909998624
 10
-114.76828400002
 20
46.7481519999863
 10
-114.765846000186
 20
46.7512390000377
 10
-114.767334999991
 20
46.7538289999905
 10
-114.765089999603
 20
46.7581500000726
 10
-114.773534999605
 20
46.7620869999425
 10
-114.774306000257
 20
46.7658060002671
 10
-114.778888000196
 20
46.7668470002883
 10
-114.779663999973
 20
46.7687270000585
 10
-114.783634000166
 20
46.7686660001481
 10
-114.786431000025
 20
46.7778859999673
 10
-114.784837999565
 20
46.7800190000362
 10
-114.787499999705
 20
46.7827759998732
 10
-114.789550000099
 20
46.7791139998992
 10
-114.798748000311
 20
46.775832000154
 10
-114.808386999667
 20
46.7823689997806
 10
-114.818876000215
 20
46.7812469999192
 10
-114.82910399975
 20
46.7826259999915
 10
-114.836649000127
 20
46.7924889999266
 10
-114.844787999807
 20
46.7943020002589
 10
-114.850139999675
 20
46.7990579998514
 10
-114.856905999902
 20
46.8016470002201
 10
-114.860604000109
 20
46.8057000000321
 10
-114.861142000235
 20
46.8116379997156
 10
-114.865779000425
 20
46.8145289997529
 10
-114.886945999871
 20
46.8095449997838
 10
-114.890731000117
 20
46.8029579998689
 10
-114.895189000207
 20
46.8016300001307
 10
-114.896519000003
 20
46.8072609997636
 10
-114.898571000047
 20
46.8089539997802
 10
-114.894804000243
 20
46.8173170001241
 10
-114.898448000023
 20
46.8223540001413
 10
-114.906272999884
 20
46.8223600000675
 10
-114.920730999903
 20
46.8270829998976
 10
-114.92471699999
 20
46.8334520000095
 10
-114.927286000243
 20
46.8334049999221
 10
-114.928739000063
 20
46.8352099997894
 10
-114.926762000362
 20
46.8387819997487
 10
-114.928666000268
 20
46.8436349997205
 10
-114.923989999719
 20
46.8481539997689
 10
-114.928682999986
 20
46.8547670000153
 10
-114.942089999869
 20
46.8565500001075
 10
-114.948261000069
 20
46.8600089999093
 10
-114.944571000258
 20
46.8678580000298
 10
-114.939620000248
 20
46.8688840001035
 10
-114.931421000293
 20
46.8769980002265
 10
-114.932335000162
 20
46.8874989997454
 10
-114.935703999583
 20
46.892106999874
 10
-114.935111000104
 20
46.8948849997982
 10
-114.936741000374
 20
46.897279000227
 10
-114.933531000064
 20
46.9035860002244
 10
-114.931042000177
 20
46.90408699993
 10
-114.929333000264
 20
46.9098890002741
 10
-114.92182800007
 20
46.9127029998376
 10
-114.925142999963
 20
46.9186810001945
 10
-114.935656999727
 20
46.9198410000579
 10
-114.94193099986
 20
46.9240749999439
 10
-114.960596999724
 20
46.9300099997573
 10
-114.958793000275
 20
46.9336260002626
 10
-114.964542999628
 20
46.9380759997867
 10
-114.971061999983
 20
46.9389860000497
 10
-114.980394999915
 20
46.9473860002322
 10
-114.986120000052
 20
46.9497360000442
 10
-114.985685999683
 20
46.9539409998388
 10
-114.990031999621
 20
46.9564250002386
 10
-114.993386999696
 20
46.9596050001183
 10
-114.993917000324
 20
46.9622280000887
 10
-115.000910000332
 20
46.9677030000003
 10
-115.00127400038
 20
46.9719010001306
 10
-115.028598999608
 20
46.9756749997741
 10
-115.031356000182
 20
46.9717239999755
 10
-115.048789000334
 20
46.9700360000633
 10
-115.051956000089
 20
46.9749029998243
 10
-115.050667000301
 20
46.975550000232
 10
-115.049944000228
 20
46.981056999854
 10
-115.0567239998
 20
46.9848449998049
 10
-115.061139000233
 20
46.9919340000139
 10
-115.067774999865
 20
46.9952120001215
 10
-115.065137000016
 20
47.0001650001695
 10
-115.072770000256
 20
47.012905999975
 10
-115.069416999831
 20
47.0150070000416
 10
-115.072268000116
 20
47.0234839998934
 10
-115.071678999937
 20
47.0263609997592
 10
-115.075665000024
 20
47.025854000188
 10
-115.079799000249
 20
47.0282400000438
 10
-115.081856000316
 20
47.0381859998608
 10
-115.088363000077
 20
47.0411210002877
 10
-115.087425999744
 20
47.045715999922
 10
-115.098008000179
 20
47.0485809998417
 10
-115.101945999687
 20
47.0474189997831
 10
-115.105791000207
 20
47.0484129998352
 10
-115.107871999665
 20
47.0516939998887
 10
-115.120901000154
 20
47.0618100002744
 10
-115.122482999845
 20
47.0658869997865
 10
-115.126682000367
 20
47.06608799974
 10
-115.131133999711
 20
47.0689559998658
 10
-115.134917000307
 20
47.0756730000473
 10
-115.139618999896
 20
47.0800189998024
 10
-115.142671999848
 20
47.0914660002123
 10
-115.140162000045
 20
47.09661300006
 10
-115.14412999969
 20
47.1019109998959
 10
-115.147253999787
 20
47.1032830002779
 10
-115.150012000186
 20
47.1017099999216
 10
-115.160125999917
 20
47.1020989997052
 10
-115.171652000358
 20
47.106781999871
 10
-115.173509000409
 20
47.10971700025
 10
-115.172901999788
 20
47.1122390002798
 10
-115.178763000367
 20
47.1174299999735
 10
-115.179295999571
 20
47.1203749997263
 10
-115.183599999676
 20
47.1216759997169
 10
-115.18626299964
 20
47.1243680002947
 10
-115.185987000354
 20
47.1294020000779
 10
-115.198230999947
 20
47.1371229998349
 10
-115.199040000234
 20
47.1398870001529
 10
-115.212529999957
 20
47.1419979999681
 10
-115.221893000026
 20
47.1489950000914
 10
-115.244618999597
 20
47.1513119999658
 10
-115.249340000352
 20
47.1596649997446
 10
-115.255462000148
 20
47.163691999725
 10
-115.256196000092
 20
47.1749769998221
 10
-115.261821999596
 20
47.1814309999361
 10
-115.286848999632
 20
47.1834849997795
 10
-115.29096399959
 20
47.1868149997095
 10
-115.300576999904
 20
47.1883340002623
 10
-115.301226000358
 20
47.1934520001088
 10
-115.299099999796
 20
47.1988349997724
 10
-115.295985999745
 20
47.2056580002259
 10
-115.291529000378
 20
47.2108540000921
 10
-115.294095000258
 20
47.2144529999514
 10
-115.294927999936
 20
47.2202769997531
 10
-115.298784000327
 20
47.2255039999978
 10
-115.315818000271
 20
47.2328040001671
 10
-115.320481000401
 20
47.2421890000949
 10
-115.32436899968
 20
47.2447239998584
 10
-115.318381999603
 20
47.2518919999115
 10
-115.319785999917
 20
47.2566840000091
 10
-115.323999999609
 20
47.256455999717
 10
-115.340441000075
 20
47.262869999988
 10
-115.347979999706
 20
47.2603959998469
 10
-115.353848999783
 20
47.262147999981
 10
-115.359219000092
 20
47.2596429999508
 10
-115.365323000346
 20
47.26140299978
 10
-115.370917999888
 20
47.2651799999013
 10
-115.37769599981
 20
47.264832999727
 10
-115.384666000252
 20
47.2678029999385
 10
-115.392113999646
 20
47.2653690000495
 10
-115.411584999599
 20
47.264369000133
 10
-115.415102999881
 20
47.2686489999901
 10
-115.421387999884
 20
47.2720099999218
 10
-115.420474000016
 20
47.2774739997015
 10
-115.425967000349
 20
47.2802779998545
 10
-115.436461999847
 20
47.2804339998888
 10
-115.444685000091
 20
47.2770210002489
 10
-115.449638999575
 20
47.2783979998812
 10
-115.455907999685
 20
47.2776179998332
 10
-115.457255000098
 20
47.2783210000762
 10
-115.457726000276
 20
47.2823999998036
 10
-115.465818000101
 20
47.2874769997945
 10
-115.482263999691
 20
47.2814440002792
 10
-115.490837999565
 20
47.2894820002883
 10
-115.503466000196
 20
47.290716000198
 10
-115.514590999881
 20
47.296566999896
 10
-115.528509000125
 20
47.2992439999629
 10
-115.527903000227
 20
47.3090210001413
 10
-115.537062000082
 20
47.3178379997588
 10
-115.540875999742
 20
47.3245889999497
 10
-115.538834999568
 20
47.3290590001109
 10
-115.550473000163
 20
47.3342629997019
 10
-115.548841000243
 20
47.3469580002441
 10
-115.550762999692
 20
47.3496860001264
 10
-115.556845000204
 20
47.3539269999737
 10
-115.564152000032
 20
47.3522429999958
 10
-115.571170999979
 20
47.3556729998383
 10
-115.575126999929
 20
47.3559030001108
 10
-115.578329999668
 20
47.360737000295
 10
-115.576039000148
 20
47.3653250000848
 10
-115.57763900028
 20
47.367404000108
 10
-115.595780000438
 20
47.3717189998676
 10
-115.601914999755
 20
47.3774889998659
 10
-115.617247000358
 20
47.3825199998735
 10
-115.630902999763
 20
47.3791800002481
 10
-115.636612000006
 20
47.3797290000613
 10
-115.643410999845
 20
47.3773400001394
 10
-115.648412999908
 20
47.382432000053
 10
-115.646293999917
 20
47.3877690000603
 10
-115.649953999591
 20
47.3923289997353
 10
-115.655595999887
 20
47.39420500011
 10
-115.657490999572
 20
47.4004549998421
 10
-115.663361000372
 20
47.4028820001942
 10
-115.667940999763
 20
47.4011229999156
 10
-115.677563000298
 20
47.4017860002226
 10
-115.675245000115
 20
47.4093929999998
 10
-115.685605999719
 20
47.4111540001899
 10
-115.692043999883
 20
47.4153419999889
 10
-115.697384000055
 20
47.4154400002437
 10
-115.699565999796
 20
47.417275000196
 10
-115.703221000345
 20
47.4155610002386
 10
-115.712261000374
 20
47.4154420001354
 10
-115.716909000435
 20
47.4199469997253
 10
-115.720834000423
 20
47.4210760000384
 10
-115.721112000257
 20
47.425697999707
 10
-115.733174000276
 20
47.4248870002825
 10
-115.738704000418
 20
47.4264260000056
 10
-115.742706000399
 20
47.4235569999631
 10
-115.750807000445
 20
47.4221130001559
 10
-115.759304000326
 20
47.4238619999714
 10
-115.757001000211
 20
47.4287699997375
 10
-115.75241400025
 20
47.4321529999545
 10
-115.751444000304
 20
47.4367650001756
 10
-115.747438999951
 20
47.4420419999868
 10
-115.734160999939
 20
47.4442809999765
 10
-115.7160940003
 20
47.4528799999376
 10
-115.702113000307
 20
47.4525010001018
 10
-115.693743999575
 20
47.4546209999337
 10
-115.691208999657
 20
47.4572060002662
 10
-115.682505000087
 20
47.4569250001849
 10
-115.675618000384
 20
47.4532169997076
 10
-115.646461000322
 20
47.4568299999324
 10
-115.6401629999
 20
47.4596870000742
 10
-115.637590000347
 20
47.462822000086
 10
-115.629487999578
 20
47.479609999883
 97
0
 75
0
 76
1
 98
0
  0
ENDSEC
  0
SECTION
  2
OBJECTS
  0
DICTIONARY
  5
C
330
0
100
AcDbDictionary
281
     1
  3
ACAD_GROUP
350
D
  3
ACAD_LAYOUT
350
1A
  3
ACAD_MLEADERSTYLE
350
43
  3
ACAD_PLOTSETTINGS
350
19
  3
ACAD_PLOTSTYLENAME
350
E
  3
ACAD_TABLESTYLE
350
42
  0
DICTIONARY
  5
D
102
{ACAD_REACTORS
330
C
102
}
330
C
100
AcDbDictionary
281
     1
  0
DICTIONARY
  5
1A
102
{ACAD_REACTORS
330
C
102
}
330
C
100
AcDbDictionary
281
     1
  3
Layout1
350
1E
  3
Model
350
22
  0
DICTIONARY
  5
43
102
{ACAD_REACTORS
330
C
102
}
330
C
100
AcDbDictionary
281
     1
  0
DICTIONARY
  5
19
102
{ACAD_REACTORS
330
C
102
}
330
C
100
AcDbDictionary
281
     1
  0
ACDBDICTIONARYWDFLT
  5
E
102
{ACAD_REACTORS
330
C
102
}
330
C
100
AcDbDictionary
281
     1
  3
Normal
350
F
100
AcDbDictionaryWithDefault
340
F
  0
DICTIONARY
  5
42
102
{ACAD_REACTORS
330
C
102
}
330
C
100
AcDbDictionary
281
     1
  0
LAYOUT
  5
1E
102
{ACAD_REACTORS
330
1A
102
}
330
1A
100
AcDbPlotSettings
  1

  2
none_device
  4

  6

 40
0.0
 41
0.0
 42
0.0
 43
0.0
 44
0.0
 45
0.0
 46
0.0
 47
0.0
 48
0.0
 49
0.0
140
0.0
141
0.0
142
1.0
143
1.0
 70
   688
 72
     0
 73
     0
 74
     5
  7

 75
    16
 76
     0
 77
     2
 78
   300
147
1.0
148
0.0
149
0.0
100
AcDbLayout
  1
Layout1
 70
     1
 71
     1
 10
0.0
 20
0.0
 11
12.0
 21
9.0
 12
0.0
 22
0.0
 32
0.0
 14
1.000000000000000E+20
 24
1.000000000000000E+20
 34
1.000000000000000E+20
 15
-1.000000000000000E+20
 25
-1.000000000000000E+20
 35
-1.000000000000000E+20
146
0.0
 13
0.0
 23
0.0
 33
0.0
 16
1.0
 26
0.0
 36
0.0
 17
0.0
 27
1.0
 37
0.0
 76
     0
330
1B
  0
LAYOUT
  5
22
102
{ACAD_REACTORS
330
1A
102
}
330
1A
100
AcDbPlotSettings
  1

  2
none_device
  4

  6

 40
0.0
 41
0.0
 42
0.0
 43
0.0
 44
0.0
 45
0.0
 46
0.0
 47
0.0
 48
0.0
 49
0.0
140
0.0
141
0.0
142
1.0
143
1.0
 70
  1712
 72
     0
 73
     0
 74
     0
  7

 75
     0
 76
     0
 77
     2
 78
   300
147
1.0
148
0.0
149
0.0
100
AcDbLayout
  1
Model
 70
     1
 71
     0
 10
0.0
 20
0.0
 11
12.0
 21
9.0
 12
0.0
 22
0.0
 32
0.0
 14
30.0
 24
49.75
 34
0.0
 15
130.5
 25
163.1318914119703
 35
0.0
146
0.0
 13
0.0
 23
0.0
 33
0.0
 16
1.0
 26
0.0
 36
0.0
 17
0.0
 27
1.0
 37
0.0
 76
     0
330
1F
331
29
  0
ACDBPLACEHOLDER
  5
F
102
{ACAD_REACTORS
330
E
102
}
330
E
  0
ENDSEC
  0
EOF
