<?xml version="1.0" encoding="utf-8" standalone="no"?>
<!DOCTYPE svg PUBLIC "-//W3C//DTD SVG 1.1//EN"
  "http://www.w3.org/Graphics/SVG/1.1/DTD/svg11.dtd">
<svg xmlns:xlink="http://www.w3.org/1999/xlink" width="293.4pt" height="171.624298pt" viewBox="0 0 293.4 171.624298" xmlns="http://www.w3.org/2000/svg" version="1.1">
 <metadata>
  <rdf:RDF xmlns:dc="http://purl.org/dc/elements/1.1/" xmlns:cc="http://creativecommons.org/ns#" xmlns:rdf="http://www.w3.org/1999/02/22-rdf-syntax-ns#">
   <cc:Work>
    <dc:type rdf:resource="http://purl.org/dc/dcmitype/StillImage"/>
    <dc:date>2025-03-08T18:33:47.643210</dc:date>
    <dc:format>image/svg+xml</dc:format>
    <dc:creator>
     <cc:Agent>
      <dc:title>Matplotlib v3.10.1, https://matplotlib.org/</dc:title>
     </cc:Agent>
    </dc:creator>
   </cc:Work>
  </rdf:RDF>
 </metadata>
 <defs>
  <style type="text/css">*{stroke-linejoin: round; stroke-linecap: butt}</style>
 </defs>
 <g id="figure_1">
  <g id="patch_1">
   <path d="M 0 171.624298 
L 293.4 171.624298 
L 293.4 0 
L 0 0 
z
" style="fill: #ffffff"/>
  </g>
  <g id="axes_1">
   <g id="LineCollection_1">
    <path d="M 28.744107 61.183136 
L 28.636079 61.121384 
L 28.078052 61.237376 
L 27.932473 60.899621 
L 27.545009 61.01906 
L 27.465556 60.532006 
L 27.283778 60.485492 
L 27.019971 59.834547 
L 27.352059 59.702364 
L 27.11896 59.477861 
L 27.014818 59.558975 
L 26.485387 59.330501 
L 26.36097 59.375691 
L 26.16105 59.262962 
L 26.103583 58.940752 
L 27.513456 57.621809 
L 27.318267 57.367692 
L 27.281392 57.108496 
L 27.425999 56.946729 
L 27.392144 56.917147 
L 27.372249 56.745683 
L 27.092877 56.408482 
L 26.624186 56.186688 
L 26.483866 55.820643 
L 26.698887 55.208178 
L 26.657598 54.96188 
L 26.776587 54.549075 
L 26.368151 54.045028 
L 25.998808 53.807473 
L 25.703828 53.857989 
L 25.475396 53.476429 
L 25.544162 53.069442 
L 25.19577 52.633857 
L 25.045587 52.608984 
L 24.615081 52.786574 
L 24.490115 52.704598 
L 24.39478 52.506168 
L 24.352245 52.094779 
L 24.142842 51.779311 
L 24.14337 51.214529 
L 24.038109 50.462922 
L 23.648893 50.244207 
L 23.421749 49.79323 
L 23.00136 49.993784 
L 22.62076 49.552012 
L 22.498012 49.262494 
L 21.98026 48.580612 
L 21.759495 48.302669 
L 21.586587 48.265206 
L 21.618689 47.85431 
L 21.560947 47.799053 
L 21.289748 47.760759 
L 21.243137 47.547676 
L 21.058888 47.442459 
L 20.958505 47.057667 
L 20.778332 46.907937 
L 20.760909 46.678847 
L 20.277202 46.006661 
L 20.105751 46.045879 
L 19.881818 45.876663 
L 19.882283 14.354378 
L 69.604954 14.457595 
L 174.022637 14.409511 
L 273.328209 14.39295 
L 273.40781 73.080412 
L 273.371737 78.760989 
L 273.518182 137.573278 
L 233.951196 137.50654 
L 233.633871 137.714359 
L 229.451455 137.7211 
L 200.943892 137.470031 
L 167.053168 137.531105 
L 166.577381 137.334861 
L 151.319702 137.414621 
L 145.403773 137.405109 
L 143.76815 137.607663 
L 139.039534 137.529381 
L 138.223739 137.708356 
L 132.759351 137.754777 
L 130.950589 137.486685 
L 125.365733 137.484469 
L 125.33984 153.619783 
L 124.134851 153.199036 
L 124.08788 153.094927 
L 123.758454 152.901515 
L 123.590361 152.386725 
L 123.743184 151.907274 
L 123.544151 151.802149 
L 123.337916 151.829022 
L 123.162136 151.481386 
L 122.745105 151.290129 
L 122.700605 151.216064 
L 122.694628 150.774384 
L 122.262496 150.569213 
L 121.710425 150.544864 
L 121.606684 150.150775 
L 121.552871 149.660519 
L 121.430419 149.380083 
L 121.885973 149.133939 
L 121.778578 149.052917 
L 121.183148 148.249564 
L 120.812876 148.385934 
L 120.592258 148.127939 
L 120.697055 148.082657 
L 120.883099 147.748965 
L 120.23998 146.934437 
L 120.260994 146.678966 
L 119.707149 146.170887 
L 119.68303 145.853941 
L 119.398187 145.726744 
L 119.063143 145.943028 
L 118.390541 145.057206 
L 118.21852 145.138597 
L 118.187664 145.390867 
L 118.113153 146.021033 
L 117.977923 146.100762 
L 117.768584 146.418293 
L 117.558653 146.3172 
L 117.444839 146.128652 
L 117.080058 146.213214 
L 116.685392 146.326281 
L 116.175243 146.759434 
L 116.323293 146.977011 
L 116.283229 147.131389 
L 116.562411 147.514365 
L 116.45413 147.557739 
L 116.400824 148.021459 
L 116.15632 148.298756 
L 116.166838 148.519811 
L 116.057838 148.4628 
L 115.937857 148.299156 
L 115.854898 148.462246 
L 115.790251 148.423767 
L 115.610394 148.568295 
L 115.717387 148.638696 
L 115.905269 149.011206 
L 115.480465 149.393658 
L 115.543107 149.458673 
L 115.416684 149.693611 
L 115.549654 149.772786 
L 115.441098 149.900229 
L 115.581819 150.376202 
L 115.929747 150.674061 
L 115.824824 150.788299 
L 115.793968 150.987805 
L 116.124408 151.033796 
L 116.465176 151.230255 
L 116.476221 151.170566 
L 116.634219 151.214002 
L 116.656099 151.459407 
L 116.633838 151.706505 
L 116.387518 151.60849 
L 115.612232 151.740797 
L 115.459747 151.432133 
L 115.130848 151.325961 
L 114.964319 151.145478 
L 114.631428 151.206029 
L 114.597827 151.135596 
L 114.009493 151.024099 
L 114.010338 151.099334 
L 113.473557 151.352065 
L 112.761735 151.208122 
L 112.594403 151.284403 
L 112.503884 151.187928 
L 111.667265 151.05399 
L 111.403606 151.570504 
L 110.941336 151.57977 
L 110.40937 152.111337 
L 110.223812 151.955327 
L 109.929381 152.179122 
L 109.598476 152.105642 
L 109.423836 152.508781 
L 109.453763 152.592758 
L 109.396993 152.552216 
L 109.1674 152.630313 
L 108.728847 152.099854 
L 108.420245 151.394331 
L 108.272258 151.321436 
L 108.158106 150.854729 
L 108.128855 150.958253 
L 107.943951 151.045955 
L 107.672688 150.93689 
L 107.611969 151.076985 
L 107.448164 151.160962 
L 106.500983 151.150496 
L 106.418658 151.383187 
L 106.218548 151.391929 
L 106.088704 151.522051 
L 105.868614 151.805227 
L 104.903165 151.517249 
L 104.707385 151.46975 
L 104.6575 151.613262 
L 104.705442 152.031208 
L 104.226529 151.776598 
L 103.432045 151.981523 
L 103.360427 152.197776 
L 103.151004 152.272364 
L 103.085089 152.159666 
L 102.714964 152.016216 
L 102.62417 151.743937 
L 102.253708 151.774074 
L 101.920818 151.627022 
L 101.519351 151.891143 
L 100.548411 151.381186 
L 100.597135 151.134611 
L 100.518083 151.089545 
L 100.556965 150.932672 
L 99.976677 150.699058 
L 99.924237 150.804275 
L 99.742163 150.890438 
L 99.253683 150.879664 
L 99.100142 151.091299 
L 98.964321 151.087205 
L 98.772004 151.272767 
L 98.650502 151.707951 
L 97.953232 151.735133 
L 97.830779 152.292527 
L 97.760134 153.372962 
L 97.700196 153.511826 
L 97.589274 153.95289 
L 97.234842 154.527584 
L 97.157544 154.433049 
L 96.797409 154.214918 
L 96.611006 154.352335 
L 96.241895 154.141992 
L 95.941255 153.891477 
L 95.783743 153.944363 
L 95.675652 153.671591 
L 95.590772 153.676978 
L 95.415097 153.542855 
L 94.824693 154.051735 
L 94.61227 153.866789 
L 94.544877 153.67153 
L 94.081319 153.570991 
L 93.957303 153.405131 
L 93.035973 153.484182 
L 92.684983 153.191679 
L 92.111201 153.434713 
L 92.022139 153.179642 
L 91.422463 153.336822 
L 91.206239 153.1713 
L 90.931956 153.125741 
L 90.767728 152.905794 
L 90.434247 152.806086 
L 90.235615 152.77401 
L 89.884773 152.921278 
L 89.704832 153.264543 
L 89.563393 153.209256 
L 88.920802 153.452629 
L 88.75932 153.714134 
L 88.568503 154.002051 
L 88.54373 154.108746 
L 87.932882 154.656289 
L 87.934635 154.997092 
L 87.659845 155.223103 
L 88.236817 156.217683 
L 88.244483 156.68753 
L 87.718136 157.150758 
L 87.644808 157.156914 
L 87.56111 157.277739 
L 87.329088 157.208569 
L 87.15278 156.913479 
L 86.962153 156.841693 
L 86.610888 155.801092 
L 86.350777 156.018946 
L 86.081647 155.901907 
L 85.832729 155.657549 
L 85.728228 155.568893 
L 85.431157 155.533461 
L 85.265093 155.29803 
L 85.291091 155.213684 
L 85.058773 155.268016 
L 84.675512 154.927829 
L 84.509828 154.650071 
L 84.183189 154.357691 
L 83.856233 153.407439 
L 83.711837 153.043703 
L 83.943014 152.722879 
L 83.941599 152.413414 
L 84.161816 152.294652 
L 84.140442 152.112075 
L 83.944915 151.999778 
L 83.722038 151.718787 
L 83.666577 151.76487 
L 83.575213 151.751171 
L 83.270898 151.437273 
L 83.332103 151.174537 
L 83.500576 151.047402 
L 83.443067 150.833766 
L 83.333413 150.80563 
L 82.85978 150.471753 
L 82.963309 150.250913 
L 82.413646 149.837585 
L 82.93748 149.263014 
L 83.05026 149.27348 
L 83.225786 148.940681 
L 83.140526 148.618472 
L 82.925885 148.203851 
L 82.842145 148.051904 
L 82.847256 147.401913 
L 82.545328 147.242363 
L 82.544166 147.005701 
L 82.212142 146.783722 
L 82.229249 146.703808 
L 82.128064 146.529574 
L 82.132203 145.841843 
L 81.810802 145.747892 
L 81.738467 145.334349 
L 81.369631 144.898302 
L 81.480003 144.623715 
L 81.501967 144.509139 
L 81.107682 144.308924 
L 80.486549 144.065643 
L 80.199763 143.619654 
L 79.97828 143.54796 
L 79.85682 143.389641 
L 79.236447 143.235139 
L 79.064004 142.963353 
L 78.379279 143.287625 
L 77.91061 143.700368 
L 77.349942 144.00617 
L 77.070675 144.142633 
L 76.787396 143.811003 
L 76.968793 143.65173 
L 76.758398 143.06109 
L 75.950608 142.533402 
L 75.631636 142.415901 
L 75.366815 142.513115 
L 75.35786 142.359322 
L 75.216273 141.981825 
L 74.994621 141.956244 
L 74.90822 141.769482 
L 74.667348 141.656568 
L 74.537905 140.999959 
L 74.227888 140.653277 
L 74.18343 140.211043 
L 73.743421 139.293053 
L 73.831448 139.098748 
L 73.996267 139.152219 
L 74.123197 139.043492 
L 74.439973 139.126638 
L 74.540989 138.988544 
L 74.800635 138.938213 
L 74.902454 138.764287 
L 74.778861 138.417789 
L 74.881672 138.336891 
L 74.840742 137.566937 
L 75.030376 137.287824 
L 74.802135 136.897707 
L 74.85278 136.470557 
L 74.651889 136.291398 
L 74.753095 136.020627 
L 74.731278 135.692292 
L 74.556385 135.516981 
L 74.260137 135.612809 
L 74.024039 135.555306 
L 73.9422 135.158139 
L 73.68646 135.020445 
L 73.420182 134.90313 
L 73.270612 134.622539 
L 73.590703 134.195913 
L 73.48088 133.939026 
L 72.669585 134.039072 
L 72.577185 133.864191 
L 72.098041 133.473951 
L 72.331013 132.908614 
L 72.029803 132.947032 
L 71.802744 132.715172 
L 71.772627 131.825748 
L 71.664958 131.773539 
L 71.515029 131.600845 
L 71.102052 131.167538 
L 70.838731 130.992504 
L 70.82684 130.841234 
L 70.607765 130.567847 
L 70.435913 130.125675 
L 70.194133 129.911084 
L 69.810788 129.710131 
L 69.665399 129.129833 
L 69.938816 129.021076 
L 69.76348 128.710995 
L 69.433166 128.434684 
L 69.415235 128.304162 
L 69.213034 128.140918 
L 68.986187 127.673565 
L 68.891 127.666023 
L 68.677986 127.37355 
L 68.642483 126.880093 
L 68.762042 126.790513 
L 68.787513 125.48339 
L 68.189421 124.997998 
L 67.888485 124.939571 
L 67.958202 124.591289 
L 68.232949 124.365985 
L 68.121014 124.244329 
L 67.888675 124.161707 
L 67.870618 124.08207 
L 67.922615 123.768788 
L 67.71486 123.510946 
L 67.918095 123.260862 
L 67.884705 123.017828 
L 68.229127 122.72554 
L 68.126231 122.146505 
L 67.956069 121.712552 
L 68.100127 121.487402 
L 67.759739 121.449292 
L 67.30182 121.421741 
L 67.178522 121.512829 
L 66.878304 121.46256 
L 66.648014 121.486294 
L 67.001686 120.194716 
L 66.929098 120.092085 
L 67.451242 119.611095 
L 67.149588 118.867061 
L 66.081771 118.31059 
L 65.566997 118.508773 
L 65.175521 118.284055 
L 65.239873 118.11293 
L 65.22002 117.888027 
L 65.370267 117.694092 
L 64.968378 117.306868 
L 64.851184 117.254813 
L 64.835091 117.071714 
L 64.618993 116.637453 
L 64.517365 116.301237 
L 64.525855 116.139717 
L 64.444649 116.095419 
L 63.901638 116.272762 
L 63.809324 116.18937 
L 63.775954 115.875349 
L 63.580786 115.892557 
L 63.400888 115.781521 
L 63.291171 115.945443 
L 63.225277 116.062235 
L 62.983709 116.155416 
L 62.831583 116.091695 
L 62.753735 116.192356 
L 62.855152 116.465158 
L 62.560658 116.727802 
L 62.869134 117.249426 
L 62.755826 117.553843 
L 62.428744 117.578069 
L 62.063751 118.03708 
L 61.749067 118.176806 
L 61.40399 118.94719 
L 61.340103 119.306616 
L 61.257757 119.308894 
L 61.035936 119.468537 
L 60.597531 119.51816 
L 60.368106 119.902859 
L 60.43438 120.109416 
L 60.290048 120.364517 
L 59.985437 120.341953 
L 59.901634 120.502427 
L 59.351231 120.544908 
L 59.069598 121.002533 
L 58.823468 121.016355 
L 58.345928 120.70218 
L 57.911346 120.711908 
L 57.889762 121.22051 
L 57.937535 121.361252 
L 57.245101 122.741701 
L 56.926953 122.757154 
L 56.627917 123.066866 
L 56.518411 123.055568 
L 56.188034 123.362078 
L 55.858249 123.333296 
L 55.231477 122.308148 
L 54.872588 122.04649 
L 54.08691 121.582276 
L 54.064925 121.213769 
L 53.926611 121.17372 
L 53.867074 120.983725 
L 53.360833 120.736042 
L 53.526307 120.206229 
L 53.322395 120.259577 
L 53.191157 120.114403 
L 52.639212 120.41491 
L 52.253522 120.029071 
L 52.022936 119.941031 
L 51.92418 120.08402 
L 51.227227 120.345678 
L 51.215505 120.195117 
L 51.362689 120.088976 
L 51.59243 119.053731 
L 51.797292 118.840926 
L 51.65486 118.521271 
L 51.445542 118.431815 
L 51.317429 117.805066 
L 51.760734 117.625199 
L 51.726245 117.547963 
L 51.764536 117.487227 
L 51.988722 117.429878 
L 52.135547 117.521212 
L 52.464298 117.140607 
L 52.608525 116.926416 
L 52.567933 116.662172 
L 52.619148 116.615843 
L 52.57355 116.506193 
L 52.280049 116.430004 
L 52.671103 115.983122 
L 52.701135 115.843304 
L 52.510339 115.294005 
L 52.165241 115.149693 
L 52.035735 115.114846 
L 51.846079 114.762038 
L 51.58808 114.633702 
L 51.599379 114.368103 
L 51.658599 114.143816 
L 51.194935 113.708785 
L 51.424 113.301521 
L 51.667469 113.183898 
L 51.72388 112.910696 
L 51.961182 112.47545 
L 51.943568 112.305433 
L 52.356143 111.981038 
L 52.231621 111.811391 
L 52.394983 111.490936 
L 52.522631 111.47105 
L 52.619887 111.326707 
L 53.190523 111.416749 
L 53.338277 111.282841 
L 53.410697 111.189968 
L 53.577057 111.16962 
L 53.731295 110.996094 
L 53.914108 110.959893 
L 54.506751 111.299587 
L 54.627831 110.674593 
L 54.793917 110.69454 
L 54.944796 110.047351 
L 54.843485 110.025279 
L 54.81322 109.764729 
L 54.624156 109.702023 
L 54.369261 109.241412 
L 54.396717 109.127513 
L 54.04503 108.642429 
L 54.657335 108.02513 
L 54.680482 107.852743 
L 54.462378 107.411741 
L 53.353357 106.806971 
L 53.021227 106.949005 
L 52.91926 106.844188 
L 52.916895 106.476604 
L 53.167418 106.294921 
L 53.013729 105.796261 
L 52.440179 105.761937 
L 52.73913 105.111916 
L 53.149867 104.86725 
L 53.295869 104.705545 
L 53.187439 104.60005 
L 53.182582 104.366158 
L 53.400982 104.311549 
L 53.433422 103.7202 
L 53.138188 103.248661 
L 52.842469 103.252416 
L 52.696742 103.108042 
L 52.49319 103.086063 
L 52.155231 102.879137 
L 52.147078 102.530115 
L 52.020845 102.254266 
L 52.295213 101.990729 
L 52.284864 101.568751 
L 52.440601 101.662486 
L 52.826629 101.569398 
L 53.10653 101.786513 
L 53.491987 101.491454 
L 53.779448 101.519713 
L 53.740229 101.377248 
L 53.79607 100.479974 
L 53.616023 100.116731 
L 53.746839 99.965923 
L 53.610511 99.302757 
L 53.268856 99.075822 
L 53.341403 98.965648 
L 53.217049 98.540869 
L 53.339523 98.319906 
L 53.577416 98.389846 
L 54.019327 98.154322 
L 54.173333 97.86933 
L 54.03107 97.453754 
L 54.042432 97.274441 
L 54.247484 96.569318 
L 54.4145 96.400717 
L 54.403665 95.315604 
L 54.236565 94.815928 
L 54.848026 94.133461 
L 55.030754 94.067492 
L 55.157726 93.338204 
L 55.377731 93.274636 
L 55.213377 93.099356 
L 55.04011 92.969973 
L 55.145054 92.561232 
L 55.066806 92.377517 
L 54.804667 92.173146 
L 54.696449 92.021815 
L 54.712352 91.271316 
L 55.048621 91.18266 
L 55.226091 91.28483 
L 55.922052 90.771456 
L 55.814193 90.527837 
L 55.791806 90.30278 
L 55.868006 89.857067 
L 55.811236 89.754374 
L 55.922073 89.638813 
L 56.152405 89.126855 
L 56.196651 88.993163 
L 55.889189 88.569276 
L 56.18362 88.276588 
L 56.190167 88.130798 
L 56.34675 87.925288 
L 56.304975 87.585286 
L 56.393826 87.082532 
L 56.385336 86.815209 
L 56.365948 86.753458 
L 56.123028 86.384581 
L 55.703272 86.30399 
L 55.592942 86.070621 
L 55.507364 86.151551 
L 55.174115 86.19397 
L 55.054387 86.337821 
L 54.826378 86.262125 
L 54.629203 86.429278 
L 54.508377 86.344409 
L 54.454754 86.511224 
L 54.191179 86.39317 
L 53.558831 86.898047 
L 53.598916 86.981101 
L 53.299121 87.281547 
L 52.862216 87.23962 
L 52.386788 87.05375 
L 52.095018 87.011053 
L 51.71539 86.721566 
L 51.605335 86.885088 
L 51.108343 86.927599 
L 50.848528 87.23334 
L 50.492131 87.143175 
L 50.365624 87.155366 
L 50.143042 86.91424 
L 50.232104 86.700511 
L 49.644171 86.240669 
L 49.786772 86.049689 
L 49.58776 86.016012 
L 49.636737 85.942224 
L 49.611415 85.813457 
L 49.989459 85.461265 
L 49.960124 84.80481 
L 49.544169 84.479306 
L 49.46421 84.187388 
L 48.760688 83.984864 
L 48.615067 84.059975 
L 48.404397 83.936934 
L 48.020249 84.749554 
L 47.534705 84.814568 
L 47.350815 85.226634 
L 46.95465 85.269207 
L 46.926983 85.035531 
L 46.645731 84.971809 
L 46.546827 84.68063 
L 46.641169 84.581907 
L 46.703029 84.227345 
L 46.897183 84.103442 
L 46.984049 83.604843 
L 46.692215 83.066504 
L 46.60837 83.068382 
L 46.526721 82.634029 
L 46.483425 82.746757 
L 46.289165 82.847788 
L 46.085592 82.646557 
L 45.648053 82.638646 
L 45.488704 82.33503 
L 45.203777 82.132814 
L 44.982779 81.928351 
L 44.873484 81.656564 
L 44.426442 81.809989 
L 44.252351 82.053639 
L 44.183522 81.415685 
L 44.018259 81.4155 
L 43.712909 81.27011 
L 43.545324 80.760584 
L 43.64408 80.621474 
L 43.544965 80.417904 
L 43.131481 80.256537 
L 43.313977 79.983335 
L 43.487139 79.733559 
L 43.531237 78.721063 
L 43.689741 78.634439 
L 43.619729 78.450416 
L 43.26517 78.28437 
L 42.870948 78.101671 
L 42.909048 77.990358 
L 42.011858 76.812125 
L 41.434759 76.695949 
L 41.376532 76.817574 
L 41.008351 76.869536 
L 40.968688 76.699797 
L 40.983957 76.530273 
L 40.60737 76.094534 
L 40.663084 75.942064 
L 40.572691 75.485178 
L 40.440735 75.151271 
L 40.353426 75.077822 
L 40.309982 74.77165 
L 40.172556 74.681301 
L 40.192345 74.539852 
L 39.76053 74.355829 
L 39.09004 73.48389 
L 38.92879 72.767746 
L 38.870542 72.816168 
L 38.656936 72.804193 
L 38.37429 72.569686 
L 38.387109 72.49205 
L 37.550174 71.575968 
L 37.35243 71.360577 
L 36.872461 71.289252 
L 36.509137 70.362088 
L 35.893664 70.19635 
L 35.69064 70.14959 
L 35.721834 69.826334 
L 35.827538 69.345559 
L 35.728507 69.005373 
L 35.368753 68.780654 
L 35.188157 68.413716 
L 35.284949 68.045547 
L 35.195951 68.052566 
L 34.84872 67.855121 
L 34.452133 67.954459 
L 33.757397 67.778194 
L 33.346173 67.808977 
L 33.042428 67.319245 
L 32.371685 67.253922 
L 32.200784 67.097635 
L 31.853447 67.283351 
L 31.672366 67.035915 
L 31.405665 66.997928 
L 31.170708 66.817814 
L 30.876762 66.735407 
L 30.889561 66.434439 
L 30.615574 65.955203 
L 30.658679 65.817602 
L 30.412887 65.657405 
L 30.406763 65.182633 
L 30.278312 65.052081 
L 30.12399 65.10392 
L 29.824553 64.842446 
L 29.839147 64.637214 
L 29.456013 64.504383 
L 29.326443 64.326763 
L 29.002634 64.171892 
L 28.450056 64.33135 
L 28.344415 64.174601 
L 28.389167 64.01031 
L 28.028716 63.545081 
L 27.931987 63.599229 
L 27.728772 63.57882 
L 27.777728 63.344651 
L 27.310157 63.158504 
L 27.186881 63.154779 
L 26.995958 63.158442 
L 26.809027 62.842728 
L 26.002419 62.899246 
L 26.253006 62.339605 
L 26.533434 62.270681 
L 26.915006 62.005975 
L 27.387033 61.952381 
L 27.440572 61.872806 
L 28.38564 61.884381 
L 28.572994 61.699927 
L 28.744107 61.183136 
L 28.744107 61.183136 
" clip-path="url(#p1ed253ca32)" style="fill: none; stroke: #000000; stroke-width: 1.5"/>
   </g>
  </g>
 </g>
 <defs>
  <clipPath id="p1ed253ca32">
   <rect x="7.2" y="7.2" width="279" height="157.224298"/>
  </clipPath>
 </defs>
</svg>
