<?xml version="1.0" encoding="utf-8" standalone="no"?>
<!DOCTYPE svg PUBLIC "-//W3C//DTD SVG 1.1//EN"
  "http://www.w3.org/Graphics/SVG/1.1/DTD/svg11.dtd">
<svg xmlns:xlink="http://www.w3.org/1999/xlink" width="259.133802pt" height="291.6pt" viewBox="0 0 259.133802 291.6" xmlns="http://www.w3.org/2000/svg" version="1.1">
 <metadata>
  <rdf:RDF xmlns:dc="http://purl.org/dc/elements/1.1/" xmlns:cc="http://creativecommons.org/ns#" xmlns:rdf="http://www.w3.org/1999/02/22-rdf-syntax-ns#">
   <cc:Work>
    <dc:type rdf:resource="http://purl.org/dc/dcmitype/StillImage"/>
    <dc:date>2025-03-08T18:33:47.808665</dc:date>
    <dc:format>image/svg+xml</dc:format>
    <dc:creator>
     <cc:Agent>
      <dc:title>Matplotlib v3.10.1, https://matplotlib.org/</dc:title>
     </cc:Agent>
    </dc:creator>
   </cc:Work>
  </rdf:RDF>
 </metadata>
 <defs>
  <style type="text/css">*{stroke-linejoin: round; stroke-linecap: butt}</style>
 </defs>
 <g id="figure_1">
  <g id="patch_1">
   <path d="M 0 291.6 
L 259.133802 291.6 
L 259.133802 0 
L 0 0 
z
" style="fill: #ffffff"/>
  </g>
  <g id="axes_1">
   <g id="LineCollection_1">
    <path d="M 130.297108 20.017106 
L 162.873566 20.009948 
L 166.2424 20.130039 
L 181.12948 20.056766 
L 190.535242 20.098116 
L 217.882565 19.867626 
L 240.808104 19.8 
L 240.809538 41.998072 
L 239.359094 42.021503 
L 239.389333 68.887874 
L 239.287945 153.029914 
L 238.516352 197.657881 
L 238.520582 242.096219 
L 176.496091 242.091194 
L 176.346989 242.091639 
L 176.338491 242.214086 
L 175.701358 242.226847 
L 172.918926 242.096619 
L 127.479875 241.997247 
L 107.776533 242.093062 
L 107.741106 242.349161 
L 107.589575 242.515314 
L 107.309324 242.568135 
L 107.113942 242.750383 
L 107.002143 242.989054 
L 107.051549 243.145514 
L 107.349202 243.392988 
L 107.480867 243.418909 
L 107.603629 243.319182 
L 107.736691 243.378805 
L 107.743975 243.681144 
L 107.56272 243.846586 
L 107.53237 244.136743 
L 107.617167 244.209616 
L 107.805191 244.071029 
L 107.927769 244.071784 
L 107.929755 244.266349 
L 107.895469 244.384172 
L 107.586228 244.537787 
L 107.627798 245.011171 
L 107.524424 245.22601 
L 107.362446 245.380025 
L 107.402471 245.511587 
L 107.576185 245.434846 
L 108.020769 245.671871 
L 107.862617 245.791918 
L 107.766784 245.770043 
L 107.501946 246.017605 
L 107.218052 246.125825 
L 106.954208 246.356759 
L 106.783548 246.620417 
L 106.79028 246.78986 
L 107.208671 247.042314 
L 107.382716 247.286008 
L 107.173649 247.696034 
L 107.135169 248.062576 
L 107.420166 248.289908 
L 107.508458 248.510216 
L 107.912575 248.943806 
L 108.228511 248.947675 
L 108.381439 249.033041 
L 108.385081 249.246679 
L 108.261731 249.774929 
L 108.35337 249.895064 
L 108.683764 249.900399 
L 108.859023 249.997771 
L 109.293748 250.544738 
L 109.525513 250.55363 
L 109.690029 250.410153 
L 109.802674 250.441142 
L 109.81956 250.513659 
L 110.401217 250.682881 
L 110.510956 250.853124 
L 110.810853 251.073832 
L 110.928942 251.343359 
L 111.127341 251.451534 
L 111.096439 251.756675 
L 49.283516 251.732221 
L 49.276968 271.754427 
L 18.324264 271.8 
L 18.496322 118.271239 
L 18.437792 91.237604 
L 18.503348 19.852154 
L 98.257757 19.802223 
L 98.530431 20.140265 
L 99.922787 20.142399 
L 130.297108 20.017106 
" clip-path="url(#pe3f3f7f087)" style="fill: none; stroke: #000000; stroke-width: 1.5"/>
   </g>
  </g>
 </g>
 <defs>
  <clipPath id="pe3f3f7f087">
   <rect x="7.2" y="7.2" width="244.733802" height="277.2"/>
  </clipPath>
 </defs>
</svg>
