  0
SECTION
  2
HEADER
  9
$ACADVER
  1
AC1018
  9
$ACADMAINTVER
 70
     0
  9
$DWGCODEPAGE
  3
ANSI_1252
  9
$EXTMIN
 10
-120.006473000389
 20
35.0018569999241
 30
0.0
  9
$EXTMAX
 10
-114.039461000365
 20
42.0018419999316
 30
0.0
  9
$LIMMIN
 10
0.0
 20
0.0
  9
$LIMMAX
 10
12.0
 20
9.0
  9
$ORTHOMODE
 70
     0
  9
$REGENMODE
 70
     1
  9
$FILLMODE
 70
     1
  9
$QTEXTMODE
 70
     0
  9
$MIRRTEXT
 70
     1
  9
$LTSCALE
 40
1.0
  9
$ATTMODE
 70
     1
  9
$TEXTSIZE
 40
0.2
  9
$TRACEWID
 40
0.05
  9
$TEXTSTYLE
  7
Standard
  9
$CLAYER
  8
0
  9
$CELTYPE
  6
ByLayer
  9
$CECOLOR
 62
   256
  9
$CELTSCALE
 40
1.0
  9
$DISPSILH
 70
     0
  9
$LUNITS
 70
     2
  9
$LUPREC
 70
     4
  9
$SKETCHINC
 40
0.1
  9
$FILLETRAD
 40
0.5
  9
$AUNITS
 70
     0
  9
$AUPREC
 70
     0
  9
$MENU
  1
.
  9
$ELEVATION
 40
0.0
  9
$PELEVATION
 40
0.0
  9
$THICKNESS
 40
0.0
  9
$LIMCHECK
 70
     0
  9
$CHAMFERA
 40
0.5
  9
$CHAMFERB
 40
0.5
  9
$CHAMFERC
 40
1.0
  9
$CHAMFERD
 40
0.0
  9
$SKPOLY
 70
     0
  9
$ANGBASE
 50
0.0
  9
$ANGDIR
 70
     0
  9
$PDMODE
 70
     0
  9
$PDSIZE
 40
0.0
  9
$PLINEWID
 40
0.0
  9
$SPLFRAME
 70
     0
  9
$SPLINETYPE
 70
     6
  9
$SPLINESEGS
 70
     8
  9
$HANDSEED
  5
00020001
  9
$SURFTAB1
 70
     6
  9
$SURFTAB2
 70
     6
  9
$SURFTYPE
 70
     6
  9
$SURFU
 70
     6
  9
$SURFV
 70
     6
  9
$UCSBASE
  2

  9
$UCSNAME
  2

  9
$UCSORG
 10
0.0
 20
0.0
 30
0.0
  9
$UCSXDIR
 10
1.0
 20
0.0
 30
0.0
  9
$UCSYDIR
 10
0.0
 20
1.0
 30
0.0
  9
$UCSORTHOREF
  2

  9
$UCSORTHOVIEW
 70
     0
  9
$UCSORGTOP
 10
0.0
 20
0.0
 30
0.0
  9
$UCSORGBOTTOM
 10
0.0
 20
0.0
 30
0.0
  9
$UCSORGLEFT
 10
0.0
 20
0.0
 30
0.0
  9
$UCSORGRIGHT
 10
0.0
 20
0.0
 30
0.0
  9
$UCSORGFRONT
 10
0.0
 20
0.0
 30
0.0
  9
$UCSORGBACK
 10
0.0
 20
0.0
 30
0.0
  9
$PUCSBASE
  2

  9
$PUCSNAME
  2

  9
$PUCSORG
 10
0.0
 20
0.0
 30
0.0
  9
$PUCSXDIR
 10
1.0
 20
0.0
 30
0.0
  9
$PUCSYDIR
 10
0.0
 20
1.0
 30
0.0
  9
$PUCSORTHOREF
  2

  9
$PUCSORTHOVIEW
 70
     0
  9
$PUCSORGTOP
 10
0.0
 20
0.0
 30
0.0
  9
$PUCSORGBOTTOM
 10
0.0
 20
0.0
 30
0.0
  9
$PUCSORGLEFT
 10
0.0
 20
0.0
 30
0.0
  9
$PUCSORGRIGHT
 10
0.0
 20
0.0
 30
0.0
  9
$PUCSORGFRONT
 10
0.0
 20
0.0
 30
0.0
  9
$PUCSORGBACK
 10
0.0
 20
0.0
 30
0.0
  9
$WORLDVIEW
 70
     1
  9
$SHADEDGE
 70
     3
  9
$SHADEDIF
 70
    70
  9
$TILEMODE
 70
     1
  9
$MAXACTVP
 70
    64
  9
$PINSBASE
 10
0.0
 20
0.0
 30
0.0
  9
$PLIMCHECK
 70
     0
  9
$PEXTMIN
 10
1.000000000000000E+20
 20
1.000000000000000E+20
 30
1.000000000000000E+20
  9
$PEXTMAX
 10
-1.000000000000000E+20
 20
-1.000000000000000E+20
 30
-1.000000000000000E+20
  9
$PLIMMIN
 10
0.0
 20
0.0
  9
$PLIMMAX
 10
12.0
 20
9.0
  9
$UNITMODE
 70
     0
  9
$VISRETAIN
 70
     1
  9
$PLINEGEN
 70
     0
  9
$PSLTSCALE
 70
     1
  9
$TREEDEPTH
 70
  3020
  9
$CMLSTYLE
  2
Standard
  9
$CMLJUST
 70
     0
  9
$CMLSCALE
 40
1.0
  9
$PROXYGRAPHICS
 70
     1
  9
$MEASUREMENT
 70
     0
  9
$CELWEIGHT
370
    -1
  9
$ENDCAPS
280
     0
  9
$JOINSTYLE
280
     0
  9
$LWDISPLAY
290
     0
  9
$INSUNITS
 70
     1
  9
$HYPERLINKBASE
  1

  9
$STYLESHEET
  1

  9
$XEDIT
290
     1
  9
$CEPSNTYPE
380
     0
  9
$PSTYLEMODE
290
     1
  9
$EXTNAMES
290
     1
  9
$PSVPSCALE
 40
0.0
  9
$OLESTARTUP
290
     0
  9
$SORTENTS
280
   127
  9
$INDEXCTL
280
     0
  9
$HIDETEXT
280
     1
  9
$XCLIPFRAME
290
     0
  9
$HALOGAP
280
     0
  9
$OBSCOLOR
 70
   257
  9
$OBSLTYPE
280
     0
  9
$INTERSECTIONDISPLAY
280
     0
  9
$INTERSECTIONCOLOR
 70
   257
  9
$DIMASSOC
280
     2
  9
$PROJECTNAME
  1

  0
ENDSEC
  0
SECTION
  2
CLASSES
  0
CLASS
  1
ACDBDICTIONARYWDFLT
  2
AcDbDictionaryWithDefault
  3
ObjectDBX Classes
 90
        0
 91
        4
280
     0
281
     0
  0
ENDSEC
  0
SECTION
  2
TABLES
  0
TABLE
  2
VPORT
  5
8
330
0
100
AcDbSymbolTable
 70
     1
  0
VPORT
  5
29
330
8
100
AcDbSymbolTableRecord
100
AcDbViewportTableRecord
  2
*Active
 70
     0
 10
0.0
 20
0.0
 11
1.0
 21
1.0
 12
80.25
 22
106.4409457059851
 13
0.0
 23
0.0
 14
0.5
 24
0.5
 15
0.5
 25
0.5
 16
0.0
 26
0.0
 36
1.0
 17
0.0
 27
0.0
 37
0.0
 40
113.3818914119703
 41
0.8863849310366128
 42
50.0
 43
0.0
 44
0.0
 50
0.0
 51
0.0
 71
     0
 72
  1000
 73
     1
 74
     3
 75
     0
 76
     0
 77
     0
 78
     0
281
     0
 65
     1
110
0.0
120
0.0
130
0.0
111
1.0
121
0.0
131
0.0
112
0.0
122
1.0
132
0.0
 79
     0
146
0.0
  0
ENDTAB
  0
TABLE
  2
LTYPE
  5
5
330
0
100
AcDbSymbolTable
 70
     1
  0
LTYPE
  5
14
330
5
100
AcDbSymbolTableRecord
100
AcDbLinetypeTableRecord
  2
ByBlock
 70
     0
  3

 72
    65
 73
     0
 40
0.0
  0
LTYPE
  5
15
330
5
100
AcDbSymbolTableRecord
100
AcDbLinetypeTableRecord
  2
ByLayer
 70
     0
  3

 72
    65
 73
     0
 40
0.0
  0
LTYPE
  5
16
330
5
100
AcDbSymbolTableRecord
100
AcDbLinetypeTableRecord
  2
Continuous
 70
     0
  3
Solid line
 72
    65
 73
     0
 40
0.0
  0
ENDTAB
  0
TABLE
  2
LAYER
  5
2
330
0
100
AcDbSymbolTable
 70
     1
  0
LAYER
  5
10
330
2
100
AcDbSymbolTableRecord
100
AcDbLayerTableRecord
  2
0
 70
     0
 62
     7
  6
Continuous
370
    -3
390
F
  0
ENDTAB
  0
TABLE
  2
STYLE
  5
3
330
0
100
AcDbSymbolTable
 70
     1
  0
STYLE
  5
11
330
3
100
AcDbSymbolTableRecord
100
AcDbTextStyleTableRecord
  2
Standard
 70
     0
 40
0.0
 41
1.0
 50
0.0
 71
     0
 42
0.2
  3
txt
  4

  0
ENDTAB
  0
TABLE
  2
VIEW
  5
6
330
0
100
AcDbSymbolTable
 70
     0
  0
ENDTAB
  0
TABLE
  2
UCS
  5
7
330
0
100
AcDbSymbolTable
 70
     0
  0
ENDTAB
  0
TABLE
  2
APPID
  5
9
330
0
100
AcDbSymbolTable
 70
     1
  0
APPID
  5
12
330
9
100
AcDbSymbolTableRecord
100
AcDbRegAppTableRecord
  2
ACAD
 70
     0
  0
ENDTAB
  0
TABLE
  2
DIMSTYLE
  5
A
330
0
100
AcDbSymbolTable
 70
     1
100
AcDbDimStyleTable
  0
DIMSTYLE
105
27
330
A
100
AcDbSymbolTableRecord
100
AcDbDimStyleTableRecord
  2
Standard
 70
     0
340
11
  0
ENDTAB
  0
TABLE
  2
BLOCK_RECORD
  5
1
330
0
100
AcDbSymbolTable
 70
     1
  0
BLOCK_RECORD
  5
1F
330
1
100
AcDbSymbolTableRecord
100
AcDbBlockTableRecord
  2
*Model_Space
340
22
  0
BLOCK_RECORD
  5
1B
330
1
100
AcDbSymbolTableRecord
100
AcDbBlockTableRecord
  2
*Paper_Space
340
1E
  0
ENDTAB
  0
ENDSEC
  0
SECTION
  2
BLOCKS
  0
BLOCK
  5
20
330
1F
100
AcDbEntity
  8
0
100
AcDbBlockBegin
  2
*Model_Space
 70
     0
 10
0.0
 20
0.0
 30
0.0
  3
*Model_Space
  1

  0
ENDBLK
  5
21
330
1F
100
AcDbEntity
  8
0
100
AcDbBlockEnd
  0
BLOCK
  5
1C
330
1B
100
AcDbEntity
 67
     1
  8
0
100
AcDbBlockBegin
  2
*Paper_Space
 70
     0
 10
0.0
 20
0.0
 30
0.0
  3
*Paper_Space
  1

  0
ENDBLK
  5
1D
330
1B
100
AcDbEntity
 67
     1
  8
0
100
AcDbBlockEnd
  0
ENDSEC
  0
SECTION
  2
ENTITIES
  0
HATCH
  5
20000
100
AcDbEntity
  8
0
100
AcDbHatch
 10
0
 20
0
 30
0
210
0
220
0
230
1
  2
SOLID
 70
1
 71
0
 91
1
 92
2
 72
0
 73
1
 93
281
 10
-119.324183999974
 20
41.9939230001045
 10
-118.676498999924
 20
41.9921539996791
 10
-118.569725000014
 20
41.9944570000522
 10
-118.223188999668
 20
41.9972490000088
 10
-117.1336670001
 20
42.0004389996824
 10
-117.026200000253
 20
42.000194999674
 10
-117.008064999944
 20
41.9987419999104
 10
-116.368476999742
 20
41.996280000148
 10
-116.189435000376
 20
41.9976989997287
 10
-116.04537300022
 20
41.9963310000868
 10
-115.069421000029
 20
41.9961369996826
 10
-114.823490999766
 20
42.0018419999316
 10
-114.59828099996
 20
41.9945940002506
 10
-114.041477000424
 20
41.9938729997
 10
-114.039461000365
 20
41.7188740000175
 10
-114.042874000167
 20
40.7950709999927
 10
-114.046098999647
 20
40.401848000238
 10
-114.050520999752
 20
38.4961169998412
 10
-114.049324999851
 20
38.2660599998404
 10
-114.050499999836
 20
37.9533410001809
 10
-114.049612999731
 20
37.8235409997085
 10
-114.048302000202
 20
37.8094240001948
 10
-114.051653999905
 20
37.7514980000692
 10
-114.052884999966
 20
37.5608549997976
 10
-114.051626000315
 20
37.3039050000868
 10
-114.052541000009
 20
37.1128809997017
 10
-114.050072000214
 20
37.0140949998286
 10
-114.050326999584
 20
36.7528990002127
 10
-114.045646999736
 20
36.5210950002336
 10
-114.042843000204
 20
36.4481750003019
 10
-114.044050999801
 20
36.3176279997808
 10
-114.045558999872
 20
36.2888369997179
 10
-114.043943999671
 20
36.1933500000278
 10
-114.058661999981
 20
36.1878349998181
 10
-114.066798000187
 20
36.1790870000775
 10
-114.078831999718
 20
36.1574340002992
 10
-114.081233999566
 20
36.1502079998253
 10
-114.091701000374
 20
36.1373030002775
 10
-114.096993999792
 20
36.1208229997303
 10
-114.108381000316
 20
36.1191540003371
 10
-114.118496999697
 20
36.1138999997355
 10
-114.120865000109
 20
36.1108499996413
 10
-114.121033000338
 20
36.1038849998696
 10
-114.115207999744
 20
36.0998780000282
 10
-114.111900000423
 20
36.0958449999352
 10
-114.112297000083
 20
36.09404999995
 10
-114.119648000291
 20
36.0858220002695
 10
-114.124019000342
 20
36.0755630000782
 10
-114.133389000084
 20
36.0616649997865
 10
-114.136206000034
 20
36.0532319997942
 10
-114.134841000079
 20
36.0438730003374
 10
-114.137112000406
 20
36.0384909997559
 10
-114.144666000105
 20
36.0342720001488
 10
-114.145907000212
 20
36.0272290002491
 10
-114.151389999601
 20
36.0231329999527
 10
-114.164402000372
 20
36.0268519996513
 10
-114.17468299961
 20
36.0266699998192
 10
-114.19122100016
 20
36.0200189998876
 10
-114.211932000395
 20
36.0148340000941
 10
-114.22479799978
 20
36.013699000186
 10
-114.228014999763
 20
36.0147310000853
 10
-114.233442999798
 20
36.0128350000009
 10
-114.2438650004
 20
36.0152660002237
 10
-114.264379999918
 20
36.0279109996818
 10
-114.268586000113
 20
36.0350339998767
 10
-114.270861999565
 20
36.0455229997461
 10
-114.279637000178
 20
36.0461030003218
 10
-114.287991999769
 20
36.0490699998525
 10
-114.298592999572
 20
36.0572629998548
 10
-114.308624000361
 20
36.0569759998637
 10
-114.313591000265
 20
36.0590480003364
 10
-114.314327999683
 20
36.0620159998606
 10
-114.312419999579
 20
36.0661170003578
 10
-114.304383999831
 20
36.0740189999273
 10
-114.30693899984
 20
36.0824870000549
 10
-114.320866000305
 20
36.0964630001052
 10
-114.325813999942
 20
36.1039330002261
 10
-114.334632000213
 20
36.106783999683
 10
-114.345099999947
 20
36.118556000021
 10
-114.36062599982
 20
36.1294119996529
 10
-114.370181000408
 20
36.1426239999329
 10
-114.373744999823
 20
36.1437220001347
 10
-114.381479000346
 20
36.1413490000376
 10
-114.402280999919
 20
36.1465070001453
 10
-114.41249099991
 20
36.1465109999997
 10
-114.423114000353
 20
36.137350000078
 10
-114.445042000406
 20
36.1253460001131
 10
-114.451330999709
 20
36.1298310002209
 10
-114.456486999758
 20
36.1380319996798
 10
-114.462600000232
 20
36.1396439999716
 10
-114.468674000348
 20
36.1388890001878
 10
-114.483826999953
 20
36.1297199998137
 10
-114.501798000231
 20
36.126556000292
 10
-114.507201000152
 20
36.1284839998521
 10
-114.50920999964
 20
36.1332470002267
 10
-114.505149999933
 20
36.1380780000608
 10
-114.500338999666
 20
36.1406999996858
 10
-114.500235999734
 20
36.1432259997228
 10
-114.508104000151
 20
36.1497130000908
 10
-114.514280000374
 20
36.1507949997198
 10
-114.531090999838
 20
36.14764400024
 10
-114.539232999891
 20
36.1517640001756
 10
-114.548742000449
 20
36.1506969998762
 10
-114.556162000254
 20
36.1524700001633
 10
-114.56117299964
 20
36.1509209997533
 10
-114.571089999728
 20
36.1510989997437
 10
-114.58070700024
 20
36.1459869999253
 10
-114.596474000138
 20
36.1415370002577
 10
-114.609287999644
 20
36.1322290000677
 10
-114.615454999646
 20
36.129652999858
 10
-114.620604999848
 20
36.1317589998704
 10
-114.627078999997
 20
36.1407610001453
 10
-114.630474000255
 20
36.1422180000812
 10
-114.635809000405
 20
36.1361700001332
 10
-114.640125000205
 20
36.1351260002464
 10
-114.655512000161
 20
36.126186999918
 10
-114.664342999953
 20
36.1163000000118
 10
-114.671867000413
 20
36.1159639997299
 10
-114.681847000251
 20
36.1091920003044
 10
-114.693654999826
 20
36.1124820001009
 10
-114.70373699977
 20
36.10834800036
 10
-114.734084999711
 20
36.104672000243
 10
-114.748912999626
 20
36.0951829996846
 10
-114.753784000168
 20
36.0878069998014
 10
-114.754031999865
 20
36.0830930001723
 10
-114.75056999966
 20
36.0803299998981
 10
-114.748890999885
 20
36.0749809999515
 10
-114.74354200039
 20
36.0710370002629
 10
-114.740060000093
 20
36.0624370003626
 10
-114.73528499981
 20
36.0566480002522
 10
-114.735700999737
 20
36.0533930001731
 10
-114.74247899966
 20
36.0456969997864
 10
-114.741261999842
 20
36.0380439996478
 10
-114.733416999889
 20
36.0379130002794
 10
-114.722096000386
 20
36.0289519998792
 10
-114.728874000309
 20
36.0213869996549
 10
-114.738555000395
 20
36.0152230000629
 10
-114.743005000089
 20
36.0084499998972
 10
-114.739317999753
 20
35.9918040001474
 10
-114.743637999751
 20
35.9857849999276
 10
-114.740536000294
 20
35.9755450000609
 10
-114.728665999896
 20
35.96175699967
 10
-114.729762000238
 20
35.9598950002555
 10
-114.713311999552
 20
35.9338439997933
 10
-114.713412999834
 20
35.9318999996833
 10
-114.707603000207
 20
35.9279500002815
 10
-114.707398000167
 20
35.9180570002154
 10
-114.709187000446
 20
35.9168270000931
 10
-114.70811200002
 20
35.9099329997865
 10
-114.705714000369
 20
35.9093160003022
 10
-114.700257999846
 20
35.9017569999668
 10
-114.69492799972
 20
35.8975940003635
 10
-114.696064000245
 20
35.8964639999969
 10
-114.678971999676
 20
35.8855099997378
 10
-114.672008999805
 20
35.878018000048
 10
-114.663213999999
 20
35.8736920003004
 10
-114.661635999608
 20
35.8712329997507
 10
-114.669679999752
 20
35.8650360001616
 10
-114.687798000343
 20
35.8607279998869
 10
-114.691456000367
 20
35.8586610001922
 10
-114.694370000401
 20
35.8544630000983
 10
-114.701904000009
 20
35.8532230001221
 10
-114.705855999761
 20
35.850508000345
 10
-114.706287999582
 20
35.8462180001621
 10
-114.695276999699
 20
35.8310909998345
 10
-114.7036649998
 20
35.814613999955
 10
-114.709323999815
 20
35.8100499999052
 10
-114.712026000137
 20
35.8055289997328
 10
-114.699318000038
 20
35.790479999703
 10
-114.70102699995
 20
35.76967999984
 10
-114.694266999571
 20
35.7566329999385
 10
-114.697726000302
 20
35.7509659998452
 10
-114.696399999806
 20
35.7426529997241
 10
-114.697859000371
 20
35.7316570001785
 10
-114.705597000194
 20
35.7082740003047
 10
-114.701416000113
 20
35.7010840003561
 10
-114.682657000362
 20
35.6885709998376
 10
-114.680631000258
 20
35.684045999879
 10
-114.682316999706
 20
35.6778250001871
 10
-114.690214000435
 20
35.6651589996572
 10
-114.689507000255
 20
35.6514289999958
 10
-114.677615000116
 20
35.6417740000257
 10
-114.666682000052
 20
35.6230729997423
 10
-114.659461000438
 20
35.6195519998037
 10
-114.653533999737
 20
35.609671999991
 10
-114.653900000333
 20
35.5984910002893
 10
-114.659237999957
 20
35.587477000015
 10
-114.675666999829
 20
35.5800330001046
 10
-114.668392999614
 20
35.5743310001164
 10
-114.664433000364
 20
35.5684260003237
 10
-114.662804999745
 20
35.5642680002283
 10
-114.661457000406
 20
35.5440620001212
 10
-114.656769999987
 20
35.5349640000214
 10
-114.657753000351
 20
35.5307409996881
 10
-114.664600999696
 20
35.5215190001021
 10
-114.66954000001
 20
35.5207899996567
 10
-114.675685000271
 20
35.5156299998921
 10
-114.677480000397
 20
35.510947999905
 10
-114.678641999963
 20
35.4976280001991
 10
-114.676256999833
 20
35.4931030001417
 10
-114.67681500005
 20
35.4897870001694
 10
-114.671906999698
 20
35.4820870003636
 10
-114.673163999699
 20
35.4748140000432
 10
-114.665651000007
 20
35.4669110003465
 10
-114.667216999804
 20
35.4603699999232
 10
-114.664216999556
 20
35.4558450001446
 10
-114.662895999981
 20
35.4464489997055
 10
-114.654295000343
 20
35.4368539999687
 10
-114.652080000093
 20
35.4301339997231
 10
-114.626765000178
 20
35.4096439998946
 10
-114.62088699988
 20
35.3968669997625
 10
-114.617698000384
 20
35.3801309998016
 10
-114.611205999794
 20
35.3701189996753
 10
-114.604606999971
 20
35.3552389999286
 10
-114.595552999698
 20
35.3265469999637
 10
-114.596681999652
 20
35.2945570001219
 10
-114.586603999906
 20
35.2623859997324
 10
-114.58605300026
 20
35.2488909998814
 10
-114.582842000125
 20
35.2387029996728
 10
-114.583523000365
 20
35.2303480001377
 10
-114.58031200023
 20
35.2200950001645
 10
-114.57953499973
 20
35.2089110001882
 10
-114.574957999814
 20
35.2067140000221
 10
-114.572083999963
 20
35.200794000236
 10
-114.569257999792
 20
35.1834240001893
 10
-114.569528999953
 20
35.1623169998432
 10
-114.573879000089
 20
35.1453509997301
 10
-114.572596999974
 20
35.1395570001448
 10
-114.578262999661
 20
35.1288100000014
 10
-114.584876999552
 20
35.1251940003353
 10
-114.597793999888
 20
35.1217349996459
 10
-114.618696999744
 20
35.1217489997693
 10
-114.624954000158
 20
35.1207420001862
 10
-114.628992999949
 20
35.1194110001849
 10
-114.623760999731
 20
35.1206020000524
 10
-114.632281999902
 20
35.1170879998873
 10
-114.644353999966
 20
35.1059030002737
 10
-114.64676400021
 20
35.1018679997695
 10
-114.642830999826
 20
35.0965029996691
 10
-114.62251700015
 20
35.0887030002202
 10
-114.613132000339
 20
35.0830969999361
 10
-114.604735999842
 20
35.0748300001974
 10
-114.602908000104
 20
35.0685879999082
 10
-114.606694000175
 20
35.0589409997721
 10
-114.627124000203
 20
35.0447209999868
 10
-114.634732000329
 20
35.0337339999371
 10
-114.638190000336
 20
35.0220690000642
 10
-114.637071000428
 20
35.0103710002348
 10
-114.633487000024
 20
35.0018569999241
 10
-114.797340999625
 20
35.1349270001186
 10
-115.100957000373
 20
35.3756810000582
 10
-115.259720000222
 20
35.503540999858
 10
-115.695436999593
 20
35.8462579998167
 10
-116.094166000092
 20
36.156262999646
 10
-116.488233000286
 20
36.4590969997845
 10
-116.874253999787
 20
36.7520809998818
 10
-117.500117000089
 20
37.2203799998619
 10
-117.581417999901
 20
37.2789359998489
 10
-117.680609999624
 20
37.3533989997183
 10
-117.712357999681
 20
37.3749309998151
 10
-117.875926999775
 20
37.497267000023
 10
-117.904625000253
 20
37.5158359997378
 10
-118.052188999899
 20
37.6249300001613
 10
-118.714201000446
 20
38.1021049999393
 10
-119.125982000102
 20
38.3931700002632
 10
-119.453823000271
 20
38.6224329997542
 10
-120.001014000391
 20
38.9995739998671
 10
-120.006473000389
 20
39.2728780003376
 10
-120.006126999884
 20
39.3741060000853
 10
-120.002909000076
 20
39.4644019999406
 10
-120.000820000222
 20
39.606828000071
 10
-120.001133000217
 20
39.7522290002301
 10
-119.997706000171
 20
39.9999050001949
 10
-119.995705000181
 20
40.3758299997791
 10
-119.995976000342
 20
40.57054999967
 10
-119.999875000391
 20
40.9998940001065
 10
-119.998286999954
 20
41.6188180003087
 10
-119.999234000333
 20
41.9949440002954
 10
-119.94789399995
 20
41.9967529999631
 10
-119.826835000273
 20
41.9974770001489
 10
-119.324183999974
 20
41.9939230001045
 97
0
 75
0
 76
1
 98
0
  0
ENDSEC
  0
SECTION
  2
OBJECTS
  0
DICTIONARY
  5
C
330
0
100
AcDbDictionary
281
     1
  3
ACAD_GROUP
350
D
  3
ACAD_LAYOUT
350
1A
  3
ACAD_MLEADERSTYLE
350
43
  3
ACAD_PLOTSETTINGS
350
19
  3
ACAD_PLOTSTYLENAME
350
E
  3
ACAD_TABLESTYLE
350
42
  0
DICTIONARY
  5
D
102
{ACAD_REACTORS
330
C
102
}
330
C
100
AcDbDictionary
281
     1
  0
DICTIONARY
  5
1A
102
{ACAD_REACTORS
330
C
102
}
330
C
100
AcDbDictionary
281
     1
  3
Layout1
350
1E
  3
Model
350
22
  0
DICTIONARY
  5
43
102
{ACAD_REACTORS
330
C
102
}
330
C
100
AcDbDictionary
281
     1
  0
DICTIONARY
  5
19
102
{ACAD_REACTORS
330
C
102
}
330
C
100
AcDbDictionary
281
     1
  0
ACDBDICTIONARYWDFLT
  5
E
102
{ACAD_REACTORS
330
C
102
}
330
C
100
AcDbDictionary
281
     1
  3
Normal
350
F
100
AcDbDictionaryWithDefault
340
F
  0
DICTIONARY
  5
42
102
{ACAD_REACTORS
330
C
102
}
330
C
100
AcDbDictionary
281
     1
  0
LAYOUT
  5
1E
102
{ACAD_REACTORS
330
1A
102
}
330
1A
100
AcDbPlotSettings
  1

  2
none_device
  4

  6

 40
0.0
 41
0.0
 42
0.0
 43
0.0
 44
0.0
 45
0.0
 46
0.0
 47
0.0
 48
0.0
 49
0.0
140
0.0
141
0.0
142
1.0
143
1.0
 70
   688
 72
     0
 73
     0
 74
     5
  7

 75
    16
 76
     0
 77
     2
 78
   300
147
1.0
148
0.0
149
0.0
100
AcDbLayout
  1
Layout1
 70
     1
 71
     1
 10
0.0
 20
0.0
 11
12.0
 21
9.0
 12
0.0
 22
0.0
 32
0.0
 14
1.000000000000000E+20
 24
1.000000000000000E+20
 34
1.000000000000000E+20
 15
-1.000000000000000E+20
 25
-1.000000000000000E+20
 35
-1.000000000000000E+20
146
0.0
 13
0.0
 23
0.0
 33
0.0
 16
1.0
 26
0.0
 36
0.0
 17
0.0
 27
1.0
 37
0.0
 76
     0
330
1B
  0
LAYOUT
  5
22
102
{ACAD_REACTORS
330
1A
102
}
330
1A
100
AcDbPlotSettings
  1

  2
none_device
  4

  6

 40
0.0
 41
0.0
 42
0.0
 43
0.0
 44
0.0
 45
0.0
 46
0.0
 47
0.0
 48
0.0
 49
0.0
140
0.0
141
0.0
142
1.0
143
1.0
 70
  1712
 72
     0
 73
     0
 74
     0
  7

 75
     0
 76
     0
 77
     2
 78
   300
147
1.0
148
0.0
149
0.0
100
AcDbLayout
  1
Model
 70
     1
 71
     0
 10
0.0
 20
0.0
 11
12.0
 21
9.0
 12
0.0
 22
0.0
 32
0.0
 14
30.0
 24
49.75
 34
0.0
 15
130.5
 25
163.1318914119703
 35
0.0
146
0.0
 13
0.0
 23
0.0
 33
0.0
 16
1.0
 26
0.0
 36
0.0
 17
0.0
 27
1.0
 37
0.0
 76
     0
330
1F
331
29
  0
ACDBPLACEHOLDER
  5
F
102
{ACAD_REACTORS
330
E
102
}
330
E
  0
ENDSEC
  0
EOF
