<?xml version="1.0" encoding="utf-8" standalone="no"?>
<!DOCTYPE svg PUBLIC "-//W3C//DTD SVG 1.1//EN"
  "http://www.w3.org/Graphics/SVG/1.1/DTD/svg11.dtd">
<svg xmlns:xlink="http://www.w3.org/1999/xlink" width="199.321006pt" height="291.6pt" viewBox="0 0 199.321006 291.6" xmlns="http://www.w3.org/2000/svg" version="1.1">
 <metadata>
  <rdf:RDF xmlns:dc="http://purl.org/dc/elements/1.1/" xmlns:cc="http://creativecommons.org/ns#" xmlns:rdf="http://www.w3.org/1999/02/22-rdf-syntax-ns#">
   <cc:Work>
    <dc:type rdf:resource="http://purl.org/dc/dcmitype/StillImage"/>
    <dc:date>2025-03-08T18:33:47.308875</dc:date>
    <dc:format>image/svg+xml</dc:format>
    <dc:creator>
     <cc:Agent>
      <dc:title>Matplotlib v3.10.1, https://matplotlib.org/</dc:title>
     </cc:Agent>
    </dc:creator>
   </cc:Work>
  </rdf:RDF>
 </metadata>
 <defs>
  <style type="text/css">*{stroke-linejoin: round; stroke-linecap: butt}</style>
 </defs>
 <g id="figure_1">
  <g id="patch_1">
   <path d="M 0 291.6 
L 199.321006 291.6 
L 199.321006 0 
L 0 0 
z
" style="fill: #ffffff"/>
  </g>
  <g id="axes_1">
   <g id="LineCollection_1">
    <path d="M 34.827786 20.085085 
L 56.083333 20.065861 
L 65.846372 19.965348 
L 100.08034 19.9116 
L 127.202484 19.998396 
L 154.698205 20.00538 
L 161.626847 19.8 
L 167.971741 20.060929 
L 183.658708 20.086885 
L 183.715505 29.98687 
L 183.404501 165.546348 
L 183.371989 172.812712 
L 183.346999 195.802973 
L 183.416559 199.359277 
L 183.409375 208.762353 
L 183.58619 224.432143 
L 183.543705 225.468621 
L 183.589205 228.90616 
L 183.174551 229.104701 
L 182.945334 229.419629 
L 182.094615 231.517138 
L 181.773806 231.577222 
L 181.422092 231.876166 
L 181.417359 232.126907 
L 181.66348 232.480968 
L 181.333233 233.146501 
L 180.989886 233.950419 
L 180.964361 234.481096 
L 180.751541 234.63298 
L 180.716578 234.886529 
L 180.562104 235.033985 
L 179.905865 234.906653 
L 178.85644 235.33275 
L 178.250406 235.404714 
L 177.956784 235.317198 
L 177.37881 234.861977 
L 177.196192 234.227943 
L 176.713584 234.100251 
L 176.41492 233.805303 
L 175.992378 233.741042 
L 176.025368 233.486558 
L 176.251769 233.202085 
L 176.179786 232.897237 
L 175.104667 231.59875 
L 174.66725 231.207933 
L 174.297645 230.692772 
L 174.079753 230.7782 
L 173.206045 230.592368 
L 172.906761 230.922164 
L 172.288978 231.354309 
L 172.111797 231.192849 
L 171.966536 230.897612 
L 171.623188 230.86676 
L 171.19628 231.196845 
L 170.537758 231.241341 
L 170.481158 231.069873 
L 170.733985 230.710628 
L 170.33832 230.438143 
L 169.8647 230.55158 
L 169.635314 230.403259 
L 168.466857 230.611232 
L 168.02265 230.771432 
L 167.487894 231.199257 
L 167.342801 231.123441 
L 167.06476 230.746916 
L 166.79286 231.002229 
L 166.359358 231.324033 
L 166.110561 231.679966 
L 165.898585 231.692062 
L 165.617416 231.935855 
L 165.284747 231.817414 
L 165.000704 231.966239 
L 164.145703 232.098575 
L 163.727951 232.44018 
L 163.583732 232.875421 
L 163.879269 233.309438 
L 164.100175 233.944623 
L 163.909217 234.221679 
L 163.943504 234.497188 
L 164.164523 234.501904 
L 164.483472 234.824501 
L 163.894398 235.562574 
L 163.998273 236.161832 
L 163.876564 236.378516 
L 163.963958 236.747157 
L 164.267496 237.310558 
L 164.897562 238.816729 
L 164.84716 238.861009 
L 164.945006 239.131406 
L 165.216878 239.594079 
L 166.186826 240.502397 
L 165.9602 240.725489 
L 165.3467 240.95499 
L 165.264603 241.106118 
L 164.941005 241.248499 
L 164.928834 241.402939 
L 165.23905 241.947512 
L 164.767176 242.867746 
L 165.125202 243.409511 
L 165.077054 244.158313 
L 165.267505 244.628006 
L 165.170054 244.832018 
L 165.166307 245.527144 
L 164.948302 246.368933 
L 165.066094 246.627774 
L 165.651675 247.241143 
L 165.604175 247.4651 
L 165.381691 247.921077 
L 165.401609 248.415358 
L 165.736645 248.762939 
L 166.044663 249.436176 
L 166.248102 249.562932 
L 166.415085 249.918613 
L 166.404774 250.32113 
L 166.254385 250.717635 
L 165.791527 250.985619 
L 166.108025 251.403472 
L 166.153891 251.553161 
L 166.191869 252.280578 
L 166.296222 252.760135 
L 165.964144 253.118372 
L 165.740449 253.472685 
L 165.759184 254.234482 
L 165.897458 254.511683 
L 165.862045 254.773512 
L 166.07371 255.05802 
L 166.029591 255.293497 
L 166.11411 255.456397 
L 166.151327 255.794654 
L 167.334857 257.57961 
L 167.424701 258.182107 
L 167.793517 259.078221 
L 168.048597 260.111135 
L 168.01679 261.262777 
L 168.406707 263.273526 
L 168.387521 263.574306 
L 168.789412 265.263574 
L 168.781777 266.023428 
L 168.535712 267.229682 
L 167.985461 267.484383 
L 167.106484 267.568047 
L 167.253887 267.525171 
L 167.013823 267.651675 
L 166.605818 268.199596 
L 166.716623 268.392737 
L 167.55334 268.875354 
L 167.841383 269.397679 
L 167.734719 269.744972 
L 167.15914 270.256893 
L 166.944798 270.652426 
L 166.847375 271.072366 
L 166.979874 271.8 
L 162.363577 267.00947 
L 137.061312 241.401499 
L 114.725687 219.339248 
L 103.850228 208.791801 
L 80.238131 186.369153 
L 70.663994 177.36917 
L 52.012977 160.190833 
L 31.175436 141.458985 
L 15.759298 127.88188 
L 15.615248 114.398699 
L 15.764764 106.020689 
L 15.755945 100.786242 
L 15.90887 78.336557 
L 15.809446 20.048329 
L 17.25586 19.983204 
L 20.666483 19.95714 
L 34.827786 20.085085 
L 34.827786 20.085085 
" clip-path="url(#p7f2ac6e78f)" style="fill: none; stroke: #000000; stroke-width: 1.5"/>
   </g>
  </g>
 </g>
 <defs>
  <clipPath id="p7f2ac6e78f">
   <rect x="7.2" y="7.2" width="184.921006" height="277.2"/>
  </clipPath>
 </defs>
</svg>
