  0
SECTION
  2
HEADER
  9
$ACADVER
  1
AC1018
  9
$ACADMAINTVER
 70
     0
  9
$DWGCODEPAGE
  3
ANSI_1252
  9
$EXTMIN
 10
-124.703540999658
 20
41.9920819997804
 30
0.0
  9
$EXTMAX
 10
-116.463407000092
 20
46.299098999978
 30
0.0
  9
$LIMMIN
 10
0.0
 20
0.0
  9
$LIMMAX
 10
12.0
 20
9.0
  9
$ORTHOMODE
 70
     0
  9
$REGENMODE
 70
     1
  9
$FILLMODE
 70
     1
  9
$QTEXTMODE
 70
     0
  9
$MIRRTEXT
 70
     1
  9
$LTSCALE
 40
1.0
  9
$ATTMODE
 70
     1
  9
$TEXTSIZE
 40
0.2
  9
$TRACEWID
 40
0.05
  9
$TEXTSTYLE
  7
Standard
  9
$CLAYER
  8
0
  9
$CELTYPE
  6
ByLayer
  9
$CECOLOR
 62
   256
  9
$CELTSCALE
 40
1.0
  9
$DISPSILH
 70
     0
  9
$LUNITS
 70
     2
  9
$LUPREC
 70
     4
  9
$SKETCHINC
 40
0.1
  9
$FILLETRAD
 40
0.5
  9
$AUNITS
 70
     0
  9
$AUPREC
 70
     0
  9
$MENU
  1
.
  9
$ELEVATION
 40
0.0
  9
$PELEVATION
 40
0.0
  9
$THICKNESS
 40
0.0
  9
$LIMCHECK
 70
     0
  9
$CHAMFERA
 40
0.5
  9
$CHAMFERB
 40
0.5
  9
$CHAMFERC
 40
1.0
  9
$CHAMFERD
 40
0.0
  9
$SKPOLY
 70
     0
  9
$ANGBASE
 50
0.0
  9
$ANGDIR
 70
     0
  9
$PDMODE
 70
     0
  9
$PDSIZE
 40
0.0
  9
$PLINEWID
 40
0.0
  9
$SPLFRAME
 70
     0
  9
$SPLINETYPE
 70
     6
  9
$SPLINESEGS
 70
     8
  9
$HANDSEED
  5
00020001
  9
$SURFTAB1
 70
     6
  9
$SURFTAB2
 70
     6
  9
$SURFTYPE
 70
     6
  9
$SURFU
 70
     6
  9
$SURFV
 70
     6
  9
$UCSBASE
  2

  9
$UCSNAME
  2

  9
$UCSORG
 10
0.0
 20
0.0
 30
0.0
  9
$UCSXDIR
 10
1.0
 20
0.0
 30
0.0
  9
$UCSYDIR
 10
0.0
 20
1.0
 30
0.0
  9
$UCSORTHOREF
  2

  9
$UCSORTHOVIEW
 70
     0
  9
$UCSORGTOP
 10
0.0
 20
0.0
 30
0.0
  9
$UCSORGBOTTOM
 10
0.0
 20
0.0
 30
0.0
  9
$UCSORGLEFT
 10
0.0
 20
0.0
 30
0.0
  9
$UCSORGRIGHT
 10
0.0
 20
0.0
 30
0.0
  9
$UCSORGFRONT
 10
0.0
 20
0.0
 30
0.0
  9
$UCSORGBACK
 10
0.0
 20
0.0
 30
0.0
  9
$PUCSBASE
  2

  9
$PUCSNAME
  2

  9
$PUCSORG
 10
0.0
 20
0.0
 30
0.0
  9
$PUCSXDIR
 10
1.0
 20
0.0
 30
0.0
  9
$PUCSYDIR
 10
0.0
 20
1.0
 30
0.0
  9
$PUCSORTHOREF
  2

  9
$PUCSORTHOVIEW
 70
     0
  9
$PUCSORGTOP
 10
0.0
 20
0.0
 30
0.0
  9
$PUCSORGBOTTOM
 10
0.0
 20
0.0
 30
0.0
  9
$PUCSORGLEFT
 10
0.0
 20
0.0
 30
0.0
  9
$PUCSORGRIGHT
 10
0.0
 20
0.0
 30
0.0
  9
$PUCSORGFRONT
 10
0.0
 20
0.0
 30
0.0
  9
$PUCSORGBACK
 10
0.0
 20
0.0
 30
0.0
  9
$WORLDVIEW
 70
     1
  9
$SHADEDGE
 70
     3
  9
$SHADEDIF
 70
    70
  9
$TILEMODE
 70
     1
  9
$MAXACTVP
 70
    64
  9
$PINSBASE
 10
0.0
 20
0.0
 30
0.0
  9
$PLIMCHECK
 70
     0
  9
$PEXTMIN
 10
1.000000000000000E+20
 20
1.000000000000000E+20
 30
1.000000000000000E+20
  9
$PEXTMAX
 10
-1.000000000000000E+20
 20
-1.000000000000000E+20
 30
-1.000000000000000E+20
  9
$PLIMMIN
 10
0.0
 20
0.0
  9
$PLIMMAX
 10
12.0
 20
9.0
  9
$UNITMODE
 70
     0
  9
$VISRETAIN
 70
     1
  9
$PLINEGEN
 70
     0
  9
$PSLTSCALE
 70
     1
  9
$TREEDEPTH
 70
  3020
  9
$CMLSTYLE
  2
Standard
  9
$CMLJUST
 70
     0
  9
$CMLSCALE
 40
1.0
  9
$PROXYGRAPHICS
 70
     1
  9
$MEASUREMENT
 70
     0
  9
$CELWEIGHT
370
    -1
  9
$ENDCAPS
280
     0
  9
$JOINSTYLE
280
     0
  9
$LWDISPLAY
290
     0
  9
$INSUNITS
 70
     1
  9
$HYPERLINKBASE
  1

  9
$STYLESHEET
  1

  9
$XEDIT
290
     1
  9
$CEPSNTYPE
380
     0
  9
$PSTYLEMODE
290
     1
  9
$EXTNAMES
290
     1
  9
$PSVPSCALE
 40
0.0
  9
$OLESTARTUP
290
     0
  9
$SORTENTS
280
   127
  9
$INDEXCTL
280
     0
  9
$HIDETEXT
280
     1
  9
$XCLIPFRAME
290
     0
  9
$HALOGAP
280
     0
  9
$OBSCOLOR
 70
   257
  9
$OBSLTYPE
280
     0
  9
$INTERSECTIONDISPLAY
280
     0
  9
$INTERSECTIONCOLOR
 70
   257
  9
$DIMASSOC
280
     2
  9
$PROJECTNAME
  1

  0
ENDSEC
  0
SECTION
  2
CLASSES
  0
CLASS
  1
ACDBDICTIONARYWDFLT
  2
AcDbDictionaryWithDefault
  3
ObjectDBX Classes
 90
        0
 91
        4
280
     0
281
     0
  0
ENDSEC
  0
SECTION
  2
TABLES
  0
TABLE
  2
VPORT
  5
8
330
0
100
AcDbSymbolTable
 70
     1
  0
VPORT
  5
29
330
8
100
AcDbSymbolTableRecord
100
AcDbViewportTableRecord
  2
*Active
 70
     0
 10
0.0
 20
0.0
 11
1.0
 21
1.0
 12
80.25
 22
106.4409457059851
 13
0.0
 23
0.0
 14
0.5
 24
0.5
 15
0.5
 25
0.5
 16
0.0
 26
0.0
 36
1.0
 17
0.0
 27
0.0
 37
0.0
 40
113.3818914119703
 41
0.8863849310366128
 42
50.0
 43
0.0
 44
0.0
 50
0.0
 51
0.0
 71
     0
 72
  1000
 73
     1
 74
     3
 75
     0
 76
     0
 77
     0
 78
     0
281
     0
 65
     1
110
0.0
120
0.0
130
0.0
111
1.0
121
0.0
131
0.0
112
0.0
122
1.0
132
0.0
 79
     0
146
0.0
  0
ENDTAB
  0
TABLE
  2
LTYPE
  5
5
330
0
100
AcDbSymbolTable
 70
     1
  0
LTYPE
  5
14
330
5
100
AcDbSymbolTableRecord
100
AcDbLinetypeTableRecord
  2
ByBlock
 70
     0
  3

 72
    65
 73
     0
 40
0.0
  0
LTYPE
  5
15
330
5
100
AcDbSymbolTableRecord
100
AcDbLinetypeTableRecord
  2
ByLayer
 70
     0
  3

 72
    65
 73
     0
 40
0.0
  0
LTYPE
  5
16
330
5
100
AcDbSymbolTableRecord
100
AcDbLinetypeTableRecord
  2
Continuous
 70
     0
  3
Solid line
 72
    65
 73
     0
 40
0.0
  0
ENDTAB
  0
TABLE
  2
LAYER
  5
2
330
0
100
AcDbSymbolTable
 70
     1
  0
LAYER
  5
10
330
2
100
AcDbSymbolTableRecord
100
AcDbLayerTableRecord
  2
0
 70
     0
 62
     7
  6
Continuous
370
    -3
390
F
  0
ENDTAB
  0
TABLE
  2
STYLE
  5
3
330
0
100
AcDbSymbolTable
 70
     1
  0
STYLE
  5
11
330
3
100
AcDbSymbolTableRecord
100
AcDbTextStyleTableRecord
  2
Standard
 70
     0
 40
0.0
 41
1.0
 50
0.0
 71
     0
 42
0.2
  3
txt
  4

  0
ENDTAB
  0
TABLE
  2
VIEW
  5
6
330
0
100
AcDbSymbolTable
 70
     0
  0
ENDTAB
  0
TABLE
  2
UCS
  5
7
330
0
100
AcDbSymbolTable
 70
     0
  0
ENDTAB
  0
TABLE
  2
APPID
  5
9
330
0
100
AcDbSymbolTable
 70
     1
  0
APPID
  5
12
330
9
100
AcDbSymbolTableRecord
100
AcDbRegAppTableRecord
  2
ACAD
 70
     0
  0
ENDTAB
  0
TABLE
  2
DIMSTYLE
  5
A
330
0
100
AcDbSymbolTable
 70
     1
100
AcDbDimStyleTable
  0
DIMSTYLE
105
27
330
A
100
AcDbSymbolTableRecord
100
AcDbDimStyleTableRecord
  2
Standard
 70
     0
340
11
  0
ENDTAB
  0
TABLE
  2
BLOCK_RECORD
  5
1
330
0
100
AcDbSymbolTable
 70
     1
  0
BLOCK_RECORD
  5
1F
330
1
100
AcDbSymbolTableRecord
100
AcDbBlockTableRecord
  2
*Model_Space
340
22
  0
BLOCK_RECORD
  5
1B
330
1
100
AcDbSymbolTableRecord
100
AcDbBlockTableRecord
  2
*Paper_Space
340
1E
  0
ENDTAB
  0
ENDSEC
  0
SECTION
  2
BLOCKS
  0
BLOCK
  5
20
330
1F
100
AcDbEntity
  8
0
100
AcDbBlockBegin
  2
*Model_Space
 70
     0
 10
0.0
 20
0.0
 30
0.0
  3
*Model_Space
  1

  0
ENDBLK
  5
21
330
1F
100
AcDbEntity
  8
0
100
AcDbBlockEnd
  0
BLOCK
  5
1C
330
1B
100
AcDbEntity
 67
     1
  8
0
100
AcDbBlockBegin
  2
*Paper_Space
 70
     0
 10
0.0
 20
0.0
 30
0.0
  3
*Paper_Space
  1

  0
ENDBLK
  5
1D
330
1B
100
AcDbEntity
 67
     1
  8
0
100
AcDbBlockEnd
  0
ENDSEC
  0
SECTION
  2
ENTITIES
  0
HATCH
  5
20000
100
AcDbEntity
  8
0
100
AcDbHatch
 10
0
 20
0
 30
0
210
0
220
0
230
1
  2
SOLID
 70
1
 71
0
 91
1
 92
2
 72
0
 73
1
 93
852
 10
-124.065448000006
 20
45.7830539997317
 10
-124.06205600012
 20
45.7897410002239
 10
-124.054118000281
 20
45.7975299998505
 10
-124.05602700021
 20
45.8065719998302
 10
-124.055646000444
 20
45.8164859999843
 10
-124.05139199967
 20
45.826844999865
 10
-124.03770399958
 20
45.8416139998162
 10
-124.041995000164
 20
45.84855300009
 10
-124.043353000447
 20
45.8870860000542
 10
-124.045818999869
 20
45.8905959997637
 10
-124.066417000126
 20
45.8981249998773
 10
-124.08015799992
 20
45.908263999795
 10
-124.08650800022
 20
45.9163259997195
 10
-124.0905710003
 20
45.9257519999953
 10
-124.092434000198
 20
45.9342610002223
 10
-124.091920000363
 20
45.9434549997717
 10
-124.084898000042
 20
45.9601369998641
 10
-124.07081900014
 20
45.9739389998341
 10
-124.05117599976
 20
45.983005999779
 10
-124.039543999912
 20
45.9859380001059
 10
-124.01916800031
 20
46.0037949998501
 10
-124.008124999743
 20
46.0099399998108
 10
-124.006794000122
 20
46.0178519998227
 10
-124.002782999921
 20
46.027544000246
 10
-124.005125000393
 20
46.0573829999277
 10
-124.008265000383
 20
46.0742929999071
 10
-124.00979600002
 20
46.0819730003106
 10
-124.023063999986
 20
46.1162720000326
 10
-124.048349999589
 20
46.1603590000771
 10
-124.0584509998
 20
46.1738339999156
 10
-124.067312999554
 20
46.1838490000756
 10
-124.088524000279
 20
46.1878779996969
 10
-124.103742000181
 20
46.1931139998825
 10
-124.111280999812
 20
46.1958979997704
 10
-124.126264000436
 20
46.2051019999159
 10
-124.137877999843
 20
46.2162420000727
 10
-124.1470290002
 20
46.2288570001726
 10
-124.159545999605
 20
46.2611320000612
 10
-124.035951000185
 20
46.2641829999265
 10
-124.03492000014
 20
46.264835000111
 10
-124.035680000023
 20
46.271473999856
 10
-124.033550999986
 20
46.2759109999348
 10
-124.038866999869
 20
46.2845600002884
 10
-124.035598999832
 20
46.2968429999735
 10
-124.024876999655
 20
46.299098999978
 10
-124.014875000077
 20
46.2931650002111
 10
-124.003615999599
 20
46.2747090000673
 10
-123.985991999651
 20
46.2727550001518
 10
-123.973346000374
 20
46.2685010000389
 10
-123.957618999761
 20
46.2601550000092
 10
-123.946544000305
 20
46.2498239999959
 10
-123.930476999933
 20
46.238805000048
 10
-123.872629999788
 20
46.2349870000523
 10
-123.815135999821
 20
46.2498269997645
 10
-123.779364999867
 20
46.2538839997202
 10
-123.741448999984
 20
46.269154999963
 10
-123.688115000181
 20
46.2501049997688
 10
-123.648774999892
 20
46.2588030002184
 10
-123.586954000254
 20
46.2558900000846
 10
-123.543929000177
 20
46.2595650002495
 10
-123.501246000406
 20
46.2710139999217
 10
-123.479643999868
 20
46.2691309997106
 10
-123.468742999591
 20
46.264531000125
 10
-123.447592000038
 20
46.2498319997927
 10
-123.42762899999
 20
46.2293480002815
 10
-123.430987000439
 20
46.1815710002401
 10
-123.390404000393
 20
46.1544280000901
 10
-123.379524000032
 20
46.1509930000893
 10
-123.371433000032
 20
46.1463719999496
 10
-123.280165999728
 20
46.1448430001193
 10
-123.213054000322
 20
46.1725409999894
 10
-123.166416000427
 20
46.1889789997242
 10
-123.115903999699
 20
46.1852680002546
 10
-123.106594000231
 20
46.178308999846
 10
-123.051064000445
 20
46.1535990003018
 10
-123.041297000144
 20
46.1463509999579
 10
-123.004233000205
 20
46.1338230000682
 10
-122.962681000038
 20
46.1048169998962
 10
-122.904119000217
 20
46.0837339997166
 10
-122.884478000384
 20
46.0602800000648
 10
-122.878091000274
 20
46.0312800001235
 10
-122.856158000198
 20
46.0144690000206
 10
-122.837637999924
 20
45.9808210002691
 10
-122.813999000309
 20
45.9609830001385
 10
-122.806186999968
 20
45.9324159999548
 10
-122.811500000376
 20
45.9127239999235
 10
-122.798090999945
 20
45.8843329997
 10
-122.78502600037
 20
45.8676989998541
 10
-122.785695999841
 20
45.8442160002868
 10
-122.795962999734
 20
45.8250239998821
 10
-122.795605000432
 20
45.8099999997518
 10
-122.769532000283
 20
45.7805829997803
 10
-122.761451000329
 20
45.7591629999581
 10
-122.760108000114
 20
45.7344130000214
 10
-122.772510999716
 20
45.6996369997144
 10
-122.774510999882
 20
45.6804370000223
 10
-122.763809999621
 20
45.6571379999313
 10
-122.738108999916
 20
45.6441380002232
 10
-122.713308999662
 20
45.6374380002609
 10
-122.691009999888
 20
45.6247389999614
 10
-122.675001000141
 20
45.6180250000668
 10
-122.643906999662
 20
45.6097389998131
 10
-122.602605999566
 20
45.6076389999293
 10
-122.550325000448
 20
45.5972690001067
 10
-122.523668000143
 20
45.5896320002253
 10
-122.47931499992
 20
45.5797610002042
 10
-122.453891000224
 20
45.5673120001749
 10
-122.438674000147
 20
45.5635849997856
 10
-122.410706000313
 20
45.5676330000615
 10
-122.3918019999
 20
45.5745410000088
 10
-122.380302000296
 20
45.5759410001222
 10
-122.352802000267
 20
45.5694409999586
 10
-122.331501999853
 20
45.5482410001735
 10
-122.294900999696
 20
45.5435410001285
 10
-122.266701000059
 20
45.5438410002664
 10
-122.248993000445
 20
45.547745000282
 10
-122.200791000402
 20
45.5651110002272
 10
-122.182863999607
 20
45.5767810001626
 10
-122.141612999739
 20
45.5840029997227
 10
-122.112316999759
 20
45.5813370002335
 10
-122.101750000291
 20
45.583168999962
 10
-122.044298999982
 20
45.6095350002307
 10
-122.021053999654
 20
45.6147799998055
 10
-122.001987999757
 20
45.6164750001766
 10
-121.983007000249
 20
45.622888000271
 10
-121.963080000186
 20
45.6328910000622
 10
-121.955775000009
 20
45.643585999879
 10
-121.951691000012
 20
45.6448360002074
 10
-121.934986999781
 20
45.6442309997731
 10
-121.908133999657
 20
45.6545580002291
 10
-121.900766999555
 20
45.6620160000705
 10
-121.901744999897
 20
45.6706690002725
 10
-121.867020999882
 20
45.6933909999427
 10
-121.811183999948
 20
45.7067149998986
 10
-121.735072999623
 20
45.6940019999024
 10
-121.70729499976
 20
45.694835999947
 10
-121.668405999557
 20
45.7051139997424
 10
-121.63132300025
 20
45.7046969998168
 10
-121.532934000067
 20
45.7265039996882
 10
-121.499097999982
 20
45.7207469997063
 10
-121.46279499975
 20
45.7012820001269
 10
-121.423961999625
 20
45.694074000144
 10
-121.401739999844
 20
45.6928930001233
 10
-121.372572999736
 20
45.7030329998166
 10
-121.337712000351
 20
45.7048390003001
 10
-121.312296000154
 20
45.6998389999491
 10
-121.287295999883
 20
45.6868670000826
 10
-121.215768000219
 20
45.6712280001876
 10
-121.200351000126
 20
45.649838999933
 10
-121.195184000206
 20
45.6295610002865
 10
-121.19645899975
 20
45.6166100000218
 10
-121.183683999704
 20
45.6064500002092
 10
-121.167852000407
 20
45.6060980002066
 10
-121.145582999872
 20
45.6079449999419
 10
-121.139385999732
 20
45.6120449997672
 10
-121.131832999858
 20
45.6097530001392
 10
-121.11717700037
 20
45.6182009999902
 10
-121.120109999773
 20
45.6231650002289
 10
-121.084933000021
 20
45.6478929998915
 10
-121.064460000336
 20
45.6524910001578
 10
-121.033822999792
 20
45.6509630001734
 10
-121.007369999701
 20
45.6531970000234
 10
-120.98349400026
 20
45.6483580000953
 10
-120.953115000357
 20
45.6567419997031
 10
-120.944018000427
 20
45.6563920000368
 10
-120.913607999663
 20
45.6399920001475
 10
-120.895822000231
 20
45.6429229999217
 10
-120.855414999912
 20
45.6717290000274
 10
-120.78857399977
 20
45.6864240002501
 10
-120.728626000076
 20
45.7053190001917
 10
-120.689535000207
 20
45.7157270002157
 10
-120.669280000081
 20
45.7298830001529
 10
-120.635050999635
 20
45.7457110002643
 10
-120.591144000374
 20
45.7465089997147
 10
-120.55928699964
 20
45.7383149999633
 10
-120.522734999886
 20
45.7102870002192
 10
-120.505742999775
 20
45.6999489998135
 10
-120.482614999622
 20
45.6944069997418
 10
-120.40365100026
 20
45.6994440001068
 10
-120.326332000338
 20
45.7114199999691
 10
-120.283431000109
 20
45.7211650000006
 10
-120.210773999593
 20
45.725915000129
 10
-120.170603000174
 20
45.7619799999427
 10
-120.141480000447
 20
45.7732080000238
 10
-120.070235999567
 20
45.7851559997646
 10
-120.0148370002
 20
45.8071199999526
 10
-119.965772000342
 20
45.8243759997313
 10
-119.907244999782
 20
45.8281760000308
 10
-119.849343000284
 20
45.8401799997242
 10
-119.802705000388
 20
45.8476300003082
 10
-119.772853999667
 20
45.8457270000383
 10
-119.669973999782
 20
45.8569080001653
 10
-119.623627999964
 20
45.905601999769
 10
-119.600543000368
 20
45.9195490000733
 10
-119.571602000216
 20
45.9254779998565
 10
-119.524519000081
 20
45.9085669998883
 10
-119.488082999781
 20
45.9063610002849
 10
-119.450397999875
 20
45.9173809997935
 10
-119.364498000407
 20
45.9215470000912
 10
-119.322573999796
 20
45.9330719999318
 10
-119.25707199967
 20
45.9398669997824
 10
-119.195519999646
 20
45.9279000002656
 10
-119.169191000302
 20
45.9277030000952
 10
-119.12632199986
 20
45.9327840002727
 10
-119.093294000237
 20
45.942723000017
 10
-119.061496999777
 20
45.9585420000924
 10
-119.027214999627
 20
45.9691120001559
 10
-119.008650999871
 20
45.9792230003059
 10
-118.98725799957
 20
45.9998549997806
 10
-118.725241999567
 20
46.0011570002748
 10
-117.919176000158
 20
46.0004210002613
 10
-117.405800000207
 20
45.9984830001529
 10
-117.355951000176
 20
45.9965679999581
 10
-117.337908999753
 20
45.9985749997002
 10
-117.126147999662
 20
45.9978989998391
 10
-116.916071000268
 20
45.9953570002034
 10
-116.911469000237
 20
45.9890490002265
 10
-116.893605999914
 20
45.977580000195
 10
-116.892934999719
 20
45.9743959998224
 10
-116.894905999573
 20
45.96892200014
 10
-116.891297999777
 20
45.9603270000378
 10
-116.880506000178
 20
45.9585079997436
 10
-116.875980000316
 20
45.9547749998784
 10
-116.875705999781
 20
45.9450079999796
 10
-116.87048399961
 20
45.9324080002196
 10
-116.86965500013
 20
45.9237989997691
 10
-116.86502899981
 20
45.9144979999768
 10
-116.857254000178
 20
45.904158999931
 10
-116.848421999663
 20
45.8981610002923
 10
-116.843550000194
 20
45.8922730001999
 10
-116.815917999921
 20
45.8789979999987
 10
-116.804902999841
 20
45.8658150000324
 10
-116.796458999664
 20
45.8612239997679
 10
-116.787791999903
 20
45.8442669998282
 10
-116.789065999623
 20
45.8334710000535
 10
-116.782138999737
 20
45.8251160000804
 10
-116.774224000362
 20
45.8233690001032
 10
-116.763401999728
 20
45.8165800002418
 10
-116.75978899991
 20
45.8161669999722
 10
-116.749342999917
 20
45.8192550001575
 10
-116.735778999676
 20
45.8263640000783
 10
-116.709749999908
 20
45.825728000006
 10
-116.703417000224
 20
45.8217039997508
 10
-116.697191999597
 20
45.8201349998048
 10
-116.693424999793
 20
45.8116400000591
 10
-116.68700699972
 20
45.806318999975
 10
-116.680817999976
 20
45.7943879998751
 10
-116.665267999813
 20
45.782058999816
 10
-116.65962899989
 20
45.7800160000823
 10
-116.646341999658
 20
45.7798150001575
 10
-116.632031999777
 20
45.7849789998617
 10
-116.626971000163
 20
45.7841259998887
 10
-116.623741999586
 20
45.7818129998088
 10
-116.616935000249
 20
45.7824639998469
 10
-116.594209999605
 20
45.7790800001074
 10
-116.575128999639
 20
45.7658629999393
 10
-116.567338999938
 20
45.7630039997543
 10
-116.559443999757
 20
45.7551890000756
 10
-116.547240000346
 20
45.7516769997623
 10
-116.535698000012
 20
45.7342309997897
 10
-116.538201000142
 20
45.7161610000811
 10
-116.535395999888
 20
45.6917340000618
 10
-116.523960999683
 20
45.6776390001719
 10
-116.517674999855
 20
45.6750390002308
 10
-116.505428999714
 20
45.6619140000524
 10
-116.488818000267
 20
45.6507990002343
 10
-116.48726300034
 20
45.6478100001351
 10
-116.48773399962
 20
45.643955999928
 10
-116.48249499973
 20
45.6399159998414
 10
-116.482806000075
 20
45.6335950001006
 10
-116.472099999791
 20
45.6292010002089
 10
-116.471241000174
 20
45.6276690002531
 10
-116.472877000291
 20
45.6248769998576
 10
-116.463504000176
 20
45.6157850000808
 10
-116.463407000092
 20
45.6038570002985
 10
-116.471325999664
 20
45.5939339998708
 10
-116.482163000367
 20
45.5866819998191
 10
-116.483611999989
 20
45.5835109996935
 10
-116.481207999592
 20
45.5805970003001
 10
-116.482416000087
 20
45.5774490002137
 10
-116.490278999583
 20
45.5744989996988
 10
-116.502755999704
 20
45.5666079999956
 10
-116.50344899964
 20
45.5616949998934
 10
-116.506966999922
 20
45.5584270001287
 10
-116.511749999702
 20
45.5564450000984
 10
-116.5207400004
 20
45.5562009999682
 10
-116.528319000214
 20
45.551512999947
 10
-116.528571000109
 20
45.5501490000739
 10
-116.52417199957
 20
45.548564999713
 10
-116.52343900035
 20
45.5465559999593
 10
-116.52657900034
 20
45.5444860000178
 10
-116.527208999628
 20
45.5407019998167
 10
-116.531726999993
 20
45.5366849999558
 10
-116.535482000102
 20
45.5250789997574
 10
-116.540402999974
 20
45.5209250002487
 10
-116.543836999692
 20
45.5141929997312
 10
-116.555487999807
 20
45.5074699997444
 10
-116.557462999858
 20
45.5041730002217
 10
-116.55713200032
 20
45.5020170000364
 10
-116.553471999748
 20
45.4991079999369
 10
-116.553089000332
 20
45.4962099999116
 10
-116.558806999897
 20
45.4811890002206
 10
-116.554980999644
 20
45.4727979999563
 10
-116.554830000031
 20
45.4629300001588
 10
-116.563972999992
 20
45.460228999919
 10
-116.568251000157
 20
45.4558200000495
 10
-116.576811999612
 20
45.4520190001831
 10
-116.588194999938
 20
45.4429199997488
 10
-116.597446999679
 20
45.4127699999373
 10
-116.623385000109
 20
45.3939629999168
 10
-116.623047
 20
45.3919419999282
 10
-116.632343999947
 20
45.377415000114
 10
-116.641250999906
 20
45.3677929998214
 10
-116.673793000181
 20
45.3215110002356
 10
-116.674647999601
 20
45.31434199977
 10
-116.672162999912
 20
45.2889379996975
 10
-116.67449299979
 20
45.2763489998759
 10
-116.691387999817
 20
45.2637390002415
 10
-116.698764999965
 20
45.2451819998135
 10
-116.703696999708
 20
45.2400990002385
 10
-116.702709000219
 20
45.2379099997015
 10
-116.704110999985
 20
45.2281539999543
 10
-116.709749999908
 20
45.2172430000035
 10
-116.708545999611
 20
45.2073559997883
 10
-116.709535999648
 20
45.2030150003118
 10
-116.724204999554
 20
45.1715010001164
 10
-116.724187999835
 20
45.1629239999579
 10
-116.728018000287
 20
45.1542369998395
 10
-116.72960699965
 20
45.1420910002371
 10
-116.733295999636
 20
45.1384860001838
 10
-116.745535000105
 20
45.1330380002005
 10
-116.746859999878
 20
45.1242230000653
 10
-116.752838999559
 20
45.1217679997589
 10
-116.754642999906
 20
45.1139719999244
 10
-116.774846999978
 20
45.105535999901
 10
-116.783537000203
 20
45.093605000285
 10
-116.783709999557
 20
45.0769719998127
 10
-116.790878000365
 20
45.0699470001119
 10
-116.79732900005
 20
45.0602670002561
 10
-116.808575999934
 20
45.0506520000898
 10
-116.814320000337
 20
45.0483309999662
 10
-116.820914000137
 20
45.0431179998557
 10
-116.825132999852
 20
45.0378400000801
 10
-116.841314000027
 20
45.0309069997511
 10
-116.847943999812
 20
45.0226019999313
 10
-116.844796000324
 20
45.0153119999862
 10
-116.847190999601
 20
45.011495999936
 10
-116.845112999618
 20
45.0079530001252
 10
-116.844624999721
 20
45.0014349999877
 10
-116.856753999687
 20
44.9842980001004
 10
-116.857982000274
 20
44.9773200002257
 10
-116.852020000311
 20
44.9720300000687
 10
-116.848573999999
 20
44.9717160002237
 10
-116.843550000194
 20
44.9754080000518
 10
-116.839744000032
 20
44.9830630002255
 10
-116.832075999631
 20
44.9844540000179
 10
-116.826893999643
 20
44.9838779997765
 10
-116.826271000027
 20
44.9824930000589
 10
-116.836449000231
 20
44.9692390001034
 10
-116.847044000187
 20
44.9653600003031
 10
-116.850984000243
 20
44.9615560001143
 10
-116.850737000371
 20
44.958113000177
 10
-116.846460999855
 20
44.9515210000053
 10
-116.835701999868
 20
44.940632999712
 10
-116.831990000316
 20
44.9330070000885
 10
-116.83846699994
 20
44.9236010002283
 10
-116.838955999661
 20
44.9178260000118
 10
-116.842108000245
 20
44.9149219997206
 10
-116.842921999657
 20
44.908907000297
 10
-116.848892999841
 20
44.9007189999514
 10
-116.85051200024
 20
44.8935240000294
 10
-116.85237299959
 20
44.8919190002138
 10
-116.852427000016
 20
44.8875779999344
 10
-116.865337999606
 20
44.8706030002921
 10
-116.877136000034
 20
44.8660489999237
 10
-116.879374999676
 20
44.8617930001325
 10
-116.887747999708
 20
44.8557989997393
 10
-116.8963960001
 20
44.8556820000831
 10
-116.898619999673
 20
44.853744000214
 10
-116.896248999787
 20
44.8483299999536
 10
-116.900179999622
 20
44.8398589997818
 10
-116.900146000186
 20
44.8366719999266
 10
-116.90577199969
 20
44.8347930001693
 10
-116.922099000353
 20
44.8118800000463
 10
-116.931099000199
 20
44.8047810000728
 10
-116.933798999973
 20
44.7967810002023
 10
-116.930699999991
 20
44.789881000063
 10
-116.934700000322
 20
44.7838809996907
 10
-116.943300000134
 20
44.7816809999982
 10
-116.949000999982
 20
44.7779809999967
 10
-116.97090200027
 20
44.7738809999563
 10
-116.986732999743
 20
44.7622360002385
 10
-116.998902999716
 20
44.7563820001717
 10
-117.013801999776
 20
44.7568409998808
 10
-117.019999999741
 20
44.7510189999784
 10
-117.029419999711
 20
44.7511020003155
 10
-117.038269999769
 20
44.7481790002749
 10
-117.04782100016
 20
44.7415270002916
 10
-117.048177999637
 20
44.7359159999587
 10
-117.050204999566
 20
44.7325650001933
 10
-117.058302000312
 20
44.7304819999599
 10
-117.062273000331
 20
44.7271429998291
 10
-117.060453999915
 20
44.721668000092
 10
-117.062686999709
 20
44.711678999807
 10
-117.06179899978
 20
44.7066540001396
 10
-117.063824000059
 20
44.7036230001281
 10
-117.072221000381
 20
44.7005169996882
 10
-117.074136999982
 20
44.6963739998078
 10
-117.079119999779
 20
44.6921750002658
 10
-117.08077199979
 20
44.6841610002681
 10
-117.078574000156
 20
44.6803279997498
 10
-117.08079600008
 20
44.6737679998639
 10
-117.091222999806
 20
44.6688069997097
 10
-117.095868000392
 20
44.6647369996878
 10
-117.096790999583
 20
44.6573849997235
 10
-117.094967999868
 20
44.6520110001057
 10
-117.098205999768
 20
44.6476509999754
 10
-117.098220999836
 20
44.640688999919
 10
-117.108230999811
 20
44.6271100002659
 10
-117.114754000364
 20
44.6248829999924
 10
-117.120522000158
 20
44.6146579998333
 10
-117.125267000304
 20
44.5938179999486
 10
-117.124754000293
 20
44.5838340001495
 10
-117.133963000376
 20
44.5752399999271
 10
-117.146032000067
 20
44.5686029997331
 10
-117.148254999815
 20
44.5643709999644
 10
-117.147934000323
 20
44.5621430002093
 10
-117.142929999712
 20
44.5572360002528
 10
-117.144160999773
 20
44.5456469997107
 10
-117.149242000377
 20
44.5361510000852
 10
-117.152405999759
 20
44.5318020002532
 10
-117.161033000234
 20
44.5251660000855
 10
-117.167186999818
 20
44.523430999683
 10
-117.181582999913
 20
44.522960000189
 10
-117.189759000301
 20
44.513384999703
 10
-117.192494000236
 20
44.503272000197
 10
-117.200237000081
 20
44.4920270003042
 10
-117.208935999628
 20
44.485660999797
 10
-117.216372000225
 20
44.4861600000465
 10
-117.225075999795
 20
44.4823460000995
 10
-117.225371000246
 20
44.4754760001072
 10
-117.221548000366
 20
44.4701459999946
 10
-117.220383000427
 20
44.4630369998438
 10
-117.217014999933
 20
44.4590419997855
 10
-117.215254000142
 20
44.4521520003055
 10
-117.214637000374
 20
44.4480300000887
 10
-117.216562000196
 20
44.4422760001447
 10
-117.215071999669
 20
44.4271619999341
 10
-117.219291000282
 20
44.4192359999842
 10
-117.222974000421
 20
44.4164570000399
 10
-117.227259000259
 20
44.4052359999969
 10
-117.242872999996
 20
44.395556999884
 10
-117.242754999995
 20
44.3901940002362
 10
-117.237829999925
 20
44.3823859997663
 10
-117.235116999732
 20
44.3738529997404
 10
-117.216911000175
 20
44.3601629999592
 10
-117.2069620003
 20
44.3552059998205
 10
-117.202665999694
 20
44.3498129997627
 10
-117.19733899994
 20
44.3474059997294
 10
-117.189769000347
 20
44.3365850000667
 10
-117.191546000031
 20
44.3296209997729
 10
-117.196336000383
 20
44.3266040000616
 10
-117.203322999645
 20
44.3130240000862
 10
-117.216794999825
 20
44.3082360000387
 10
-117.222740000069
 20
44.2983259997373
 10
-117.216973999925
 20
44.2883569997667
 10
-117.207505000449
 20
44.282722000266
 10
-117.198147000402
 20
44.2738280000463
 10
-117.170341000052
 20
44.2588889998601
 10
-117.14621799984
 20
44.2580269998099
 10
-117.136766999907
 20
44.2603909998386
 10
-117.130866000043
 20
44.2694920003043
 10
-117.119861000009
 20
44.2782720002544
 10
-117.111616000023
 20
44.2806659998003
 10
-117.104207000089
 20
44.2799420001407
 10
-117.09456899966
 20
44.2709759999004
 10
-117.089503000023
 20
44.2582340002561
 10
-117.07834999985
 20
44.2498850000564
 10
-117.067283999717
 20
44.2440100001525
 10
-117.059351999725
 20
44.2372439997851
 10
-117.056509999661
 20
44.2308740001789
 10
-117.051430999605
 20
44.2287479998985
 10
-117.046148000232
 20
44.2306689998901
 10
-117.042282999621
 20
44.2427750000089
 10
-117.031861999743
 20
44.2486350001911
 10
-117.025277000164
 20
44.2485049997302
 10
-117.016916999652
 20
44.2453899997569
 10
-117.005961000021
 20
44.246497999958
 10
-116.986837000398
 20
44.2454690002305
 10
-116.975984999626
 20
44.2428750002296
 10
-116.97195800043
 20
44.2356770001373
 10
-116.973945000176
 20
44.2259320001836
 10
-116.970245000319
 20
44.2208429997042
 10
-116.973700999779
 20
44.208016999779
 10
-116.971674999674
 20
44.1972559998663
 10
-116.965497999626
 20
44.1941260000721
 10
-116.94759099982
 20
44.1912640003097
 10
-116.935442999588
 20
44.1939620000706
 10
-116.925391999606
 20
44.191544000146
 10
-116.922952000122
 20
44.1873580000842
 10
-116.915738000182
 20
44.1831520000009
 10
-116.902752000248
 20
44.1794669999802
 10
-116.895756999692
 20
44.1712669999143
 10
-116.894201999766
 20
44.1623169997636
 10
-116.89593099977
 20
44.1542949998591
 10
-116.901497999723
 20
44.1492550002137
 10
-116.902406999569
 20
44.1451679997882
 10
-116.911218000167
 20
44.1399919999969
 10
-116.914235999959
 20
44.1273039998811
 10
-116.928561999733
 20
44.115158999953
 10
-116.929525000006
 20
44.1130589999727
 10
-116.927868999797
 20
44.1103099999307
 10
-116.928304999815
 20
44.1073269997264
 10
-116.933701000064
 20
44.100043000031
 10
-116.943126999882
 20
44.0940629997847
 10
-116.967203000238
 20
44.0909359997339
 10
-116.974253000148
 20
44.088295000233
 10
-116.977351000305
 20
44.0853640001793
 10
-116.975956000212
 20
44.0828999998647
 10
-116.973185000293
 20
44.0494250000227
 10
-116.95667500023
 20
44.0441489998808
 10
-116.952925999969
 20
44.0400219996906
 10
-116.942002999951
 20
44.0345990002943
 10
-116.936133999874
 20
44.0271400001576
 10
-116.934498999582
 20
44.02121799981
 10
-116.93686199997
 20
44.0105039998031
 10
-116.944939999551
 20
44.0027789997087
 10
-116.935301000196
 20
43.9886160001227
 10
-116.940023999702
 20
43.9844449999414
 10
-116.960832000021
 20
43.9828230001149
 10
-116.966414999868
 20
43.9772959999115
 10
-116.972925000002
 20
43.9775219998364
 10
-116.976044999901
 20
43.9750579997702
 10
-116.970879999631
 20
43.968301999692
 10
-116.964413999877
 20
43.9688119998042
 10
-116.95920599995
 20
43.9663599999235
 10
-116.959807999649
 20
43.9638149997321
 10
-116.972431000258
 20
43.9579870002622
 10
-116.960477000194
 20
43.9551029998153
 10
-116.962540000109
 20
43.9469929998733
 10
-116.968214000192
 20
43.9418809998225
 10
-116.969138999931
 20
43.9388649999007
 10
-116.967640999906
 20
43.9347920000749
 10
-116.961022999817
 20
43.932366000206
 10
-116.959333999996
 20
43.9293249996849
 10
-116.961535000003
 20
43.9183879997297
 10
-116.979579999901
 20
43.9152530002556
 10
-116.981144999873
 20
43.9136930000087
 10
-116.97735399978
 20
43.9058159999905
 10
-116.976025999634
 20
43.8955479998518
 10
-116.983857000241
 20
43.8807950001429
 10
-116.982939999999
 20
43.867710000012
 10
-116.991415000139
 20
43.8638639998885
 10
-116.997391000346
 20
43.8648740000302
 10
-117.00718899971
 20
43.8636409998557
 10
-117.020034999901
 20
43.8589559999596
 10
-117.021721000247
 20
43.8561820002392
 10
-117.020116000092
 20
43.8539579999809
 10
-117.010701000144
 20
43.8497539998101
 10
-117.011582000401
 20
43.8410449999034
 10
-117.014611999888
 20
43.8396420001759
 10
-117.02515599979
 20
43.841333999925
 10
-117.031886999857
 20
43.8341559998854
 10
-117.032578000143
 20
43.8301809998057
 10
-117.023576999574
 20
43.8238109998111
 10
-117.021549999644
 20
43.8194020001263
 10
-117.026633999723
 20
43.8081100001716
 10
-117.026832999915
 20
43.7336699997392
 10
-117.02619699988
 20
41.9998900000167
 10
-118.223188999668
 20
41.9972490000088
 10
-118.707887999956
 20
41.9920819997804
 10
-119.33677800027
 20
41.9939560003099
 10
-119.826835000273
 20
41.9974770001489
 10
-120.326386999691
 20
41.992586000032
 10
-121.022056000224
 20
41.9933019997855
 10
-121.168476999672
 20
41.9971779999419
 10
-121.344911000224
 20
41.9962140001272
 10
-122.378049000411
 20
42.0095030001829
 10
-122.7027870004
 20
42.0042240002237
 10
-123.043996999918
 20
42.0030840000773
 10
-123.145735000329
 20
42.0087609998891
 10
-123.183923000199
 20
42.0057889998447
 10
-123.346954999993
 20
41.9992760001472
 10
-123.564204000394
 20
42.0007059999163
 10
-123.624022000391
 20
41.9997699998165
 10
-123.657212000396
 20
41.9950940002023
 10
-123.728169000323
 20
41.9970559998112
 10
-123.810907999885
 20
41.9951639998154
 10
-124.328834999812
 20
41.9983340000251
 10
-124.338659000014
 20
42.0032559997471
 10
-124.3466029997
 20
42.0107800001754
 10
-124.349172999778
 20
42.016386000002
 10
-124.36091500013
 20
42.0203480002109
 10
-124.375046999735
 20
42.0292299998372
 10
-124.386185999664
 20
42.0423609998098
 10
-124.390350000026
 20
42.0501730001181
 10
-124.402428999763
 20
42.0574010002309
 10
-124.41250300021
 20
42.068489000073
 10
-124.418240999867
 20
42.0795659998376
 10
-124.420646000088
 20
42.0981640000172
 10
-124.42440600022
 20
42.1069480001826
 10
-124.42598799991
 20
42.117912000071
 10
-124.432455000387
 20
42.1318479997587
 10
-124.435325999865
 20
42.1498649998715
 10
-124.433514000021
 20
42.1648319999198
 10
-124.441232999577
 20
42.1766970000222
 10
-124.447366000142
 20
42.1815039999242
 10
-124.451960999602
 20
42.1878439998369
 10
-124.463306000293
 20
42.1949869998571
 10
-124.471356000285
 20
42.2037229999558
 10
-124.482030999708
 20
42.2241000002408
 10
-124.485882000076
 20
42.2474710002791
 10
-124.482173999823
 20
42.2682070002407
 10
-124.478258000056
 20
42.2780020001811
 10
-124.484788000282
 20
42.2832420000825
 10
-124.490334000318
 20
42.2906460001849
 10
-124.494117999841
 20
42.3017679999575
 10
-124.495344999704
 20
42.3156490002233
 10
-124.494070999985
 20
42.3258750000104
 10
-124.48654400005
 20
42.3382780002638
 10
-124.496624000345
 20
42.35219299984
 10
-124.499353000431
 20
42.3609469998483
 10
-124.500843999885
 20
42.3748349998957
 10
-124.49869999978
 20
42.3864500002028
 10
-124.494153999826
 20
42.3960860001999
 10
-124.527093999586
 20
42.4055519999509
 10
-124.542699999825
 20
42.4152519996718
 10
-124.549664000419
 20
42.4220600001044
 10
-124.55581499963
 20
42.4324870001119
 10
-124.561755999677
 20
42.438282999749
 10
-124.569508999568
 20
42.4545859998064
 10
-124.570438000404
 20
42.4633790001717
 10
-124.567221000421
 20
42.4777910000993
 10
-124.554651000414
 20
42.4941419997778
 10
-124.547516000116
 20
42.4998330001267
 10
-124.544309000179
 20
42.4998330001267
 10
-124.535229999792
 20
42.5049149999208
 10
-124.518687000117
 20
42.5110759996963
 10
-124.512165000287
 20
42.5243359998478
 10
-124.501219999629
 20
42.5353880001944
 10
-124.489838000026
 20
42.542901000109
 10
-124.46789200043
 20
42.5508199999033
 10
-124.465350999766
 20
42.5530330000506
 10
-124.474072999778
 20
42.5628049999589
 10
-124.479422000171
 20
42.5739510000727
 10
-124.48083800018
 20
42.5815770003255
 10
-124.479941000029
 20
42.5914809998349
 10
-124.472912999861
 20
42.6107520002236
 10
-124.473553999919
 20
42.6147340001832
 10
-124.492547999846
 20
42.6154139998369
 10
-124.508492000194
 20
42.6195639999888
 10
-124.519550999757
 20
42.6248320003281
 10
-124.530312000292
 20
42.632279999972
 10
-124.540590000055
 20
42.6444919998995
 10
-124.545721999815
 20
42.6571659999371
 10
-124.547427000427
 20
42.6724000002095
 10
-124.544129000254
 20
42.683817000029
 10
-124.56123299962
 20
42.6927550002492
 10
-124.584688999835
 20
42.7193019996971
 10
-124.60161599965
 20
42.716626999909
 10
-124.620624999645
 20
42.7176649999804
 10
-124.642130000099
 20
42.716112999896
 10
-124.664637000285
 20
42.7204819999237
 10
-124.682414000394
 20
42.7301850001194
 10
-124.690712000083
 20
42.7382539999439
 10
-124.700342000116
 20
42.7525259997485
 10
-124.703540999658
 20
42.7703689999412
 10
-124.700282999667
 20
42.7840280002739
 10
-124.695813999706
 20
42.7911250000837
 10
-124.680631999789
 20
42.8042510002916
 10
-124.677920000319
 20
42.8143199996923
 10
-124.671761999639
 20
42.8255820002803
 10
-124.655124000428
 20
42.8400199999312
 10
-124.652458000091
 20
42.8506920002039
 10
-124.645153999738
 20
42.8618920003133
 10
-124.626225000108
 20
42.8757909999865
 10
-124.622126000043
 20
42.8771979998422
 10
-124.615955999668
 20
42.8928820002277
 10
-124.606859999562
 20
42.9035249997512
 10
-124.591834000179
 20
42.9147149997983
 10
-124.57235300018
 20
42.9225139997851
 10
-124.564750000077
 20
42.9330180000915
 10
-124.558973000062
 20
42.9455620002304
 10
-124.553514000064
 20
42.9517100000583
 10
-124.53060600002
 20
42.9998299996858
 10
-124.532991999975
 20
42.9998299996858
 10
-124.524993999861
 20
43.0164199998134
 10
-124.505331000288
 20
43.0679530001754
 10
-124.507933000152
 20
43.0732950002935
 10
-124.509199000374
 20
43.0854149998786
 10
-124.514420999647
 20
43.0942619998112
 10
-124.516361000436
 20
43.1025420001269
 10
-124.51502400007
 20
43.1144970002216
 10
-124.515840000029
 20
43.1248300001232
 10
-124.505968999972
 20
43.143379000218
 10
-124.49392600022
 20
43.153541999901
 10
-124.481613000132
 20
43.1594400002801
 10
-124.475816000025
 20
43.178858999988
 10
-124.465235000313
 20
43.2003079999717
 10
-124.469449999831
 20
43.2083089996995
 10
-124.471261999675
 20
43.2195140001796
 10
-124.470326000065
 20
43.2454960000768
 10
-124.465005999984
 20
43.2574660001371
 10
-124.45549800015
 20
43.2682329996925
 10
-124.463670000341
 20
43.2747500002093
 10
-124.474848999554
 20
43.2885660002827
 10
-124.478001999963
 20
43.3034590001714
 10
-124.476948000352
 20
43.32937100026
 10
-124.471636999594
 20
43.3391510000305
 10
-124.461424000128
 20
43.3501169998256
 10
-124.446699000146
 20
43.3581570000101
 10
-124.441075000291
 20
43.37288400021
 10
-124.425643000129
 20
43.3858859999598
 10
-124.40780499992
 20
43.3936969998076
 10
-124.39218600016
 20
43.3965439997609
 10
-124.38027399993
 20
43.4028459997065
 10
-124.360319000278
 20
43.4343170002977
 10
-124.351466999672
 20
43.4542490002264
 10
-124.343835999979
 20
43.4650119997961
 10
-124.328714000336
 20
43.4998349996825
 10
-124.296768999738
 20
43.5859579997264
 10
-124.280333000193
 20
43.6483940000994
 10
-124.284926000003
 20
43.6598740000928
 10
-124.285295999899
 20
43.6727260001266
 10
-124.279635000234
 20
43.6871459998611
 10
-124.265705000295
 20
43.7015580001621
 10
-124.243659000241
 20
43.7916639997835
 10
-124.230231000442
 20
43.8633599998958
 10
-124.207893000311
 20
44.0021329998784
 10
-124.212541000372
 20
44.0141220000361
 10
-124.212721000297
 20
44.0245670001358
 10
-124.205171999722
 20
44.0406359999008
 10
-124.195376999833
 20
44.0974619999835
 10
-124.199320000262
 20
44.1112539997634
 10
-124.199173999774
 20
44.1271999996997
 10
-124.200983999968
 20
44.139523999965
 10
-124.195546999712
 20
44.1548290000516
 10
-124.189008000164
 20
44.1642229997297
 10
-124.186756000103
 20
44.1764809999741
 10
-124.188234999862
 20
44.191527999952
 10
-124.185965000258
 20
44.1990020001605
 10
-124.185591999989
 20
44.2215989999272
 10
-124.18283199994
 20
44.2309519999222
 10
-124.186792999913
 20
44.2446580002771
 10
-124.184317000445
 20
44.2579839996817
 10
-124.188112999663
 20
44.2709729998502
 10
-124.186517999554
 20
44.2843560002456
 10
-124.187649000056
 20
44.2885589998512
 10
-124.180580999705
 20
44.3077720001514
 10
-124.181651999933
 20
44.3168040000817
 10
-124.163519999996
 20
44.3748409998814
 10
-124.158588000253
 20
44.4060799999435
 10
-124.153428000006
 20
44.4650360001314
 10
-124.163914000181
 20
44.4884050000704
 10
-124.164556999889
 20
44.4998399997644
 10
-124.159672000001
 20
44.5234100000722
 10
-124.155530000278
 20
44.5310239999572
 10
-124.146087999668
 20
44.540220000149
 10
-124.142662000346
 20
44.5632689997606
 10
-124.138011999737
 20
44.5776419998096
 10
-124.134312999705
 20
44.5831820000488
 10
-124.14839300033
 20
44.598345000178
 10
-124.151221000151
 20
44.6029109999119
 10
-124.152328000364
 20
44.609342999687
 10
-124.149077999871
 20
44.6248379999723
 10
-124.137440000175
 20
44.6410020002601
 10
-124.147849000357
 20
44.6548889998575
 10
-124.152005000324
 20
44.6632029999279
 10
-124.153961999933
 20
44.6753320001614
 10
-124.151041000226
 20
44.6903230001377
 10
-124.144408000068
 20
44.6993179998265
 10
-124.139118000125
 20
44.7105359997244
 10
-124.140369000278
 20
44.7176250003178
 10
-124.146792000373
 20
44.73082000003
 10
-124.148302999919
 20
44.7403950000538
 10
-124.145306999869
 20
44.7575139999193
 10
-124.147757000296
 20
44.7735730001786
 10
-124.143715000132
 20
44.8032219997695
 10
-124.139553000318
 20
44.8115779997906
 10
-124.141562999631
 20
44.8334390002645
 10
-124.139020000216
 20
44.8441729999284
 10
-124.136209000113
 20
44.8492410000142
 10
-124.13042600025
 20
44.8557200000029
 10
-124.116574000129
 20
44.8663350001571
 10
-124.097931999656
 20
44.9296570001268
 10
-124.099505000024
 20
44.9369009998692
 10
-124.098482000375
 20
44.9454240001095
 10
-124.090627000377
 20
44.9659069999888
 10
-124.089439999798
 20
44.989327999696
 10
-124.086205000272
 20
45.002863999709
 10
-124.092214999915
 20
45.011407999738
 10
-124.097474999722
 20
45.0273579998546
 10
-124.096724000059
 20
45.0404659997726
 10
-124.093560999604
 20
45.0541660000857
 10
-124.081424999966
 20
45.0854570000775
 10
-124.073333999966
 20
45.0995920001781
 10
-124.065244999616
 20
45.1076679999701
 10
-124.055807999927
 20
45.1248260000621
 10
-124.050131000369
 20
45.1406880003129
 10
-124.044792000022
 20
45.165999000173
 10
-124.045079999902
 20
45.1797950001449
 10
-124.051129999729
 20
45.18711300015
 10
-124.057042000362
 20
45.1988399998003
 10
-124.059486999868
 20
45.2066549997205
 10
-124.059826999626
 20
45.2155990001689
 10
-124.054837000157
 20
45.2302039997878
 10
-124.043321999586
 20
45.2451740001953
 10
-124.040256999939
 20
45.2688280001923
 10
-124.042355999839
 20
45.2821760001977
 10
-124.046551999988
 20
45.2931679999339
 10
-124.061240000161
 20
45.3041600001241
 10
-124.073829000434
 20
45.3175090000098
 10
-124.076976999922
 20
45.3300710000469
 10
-124.076976999922
 20
45.3418460002087
 10
-124.072781999597
 20
45.3559809997722
 10
-124.066488000271
 20
45.3669729997371
 10
-124.058163999745
 20
45.3764139997701
 10
-124.043308000241
 20
45.3840610001247
 10
-124.036497999633
 20
45.4133359999687
 10
-124.03581899994
 20
45.4220510000315
 10
-124.043459999678
 20
45.4266920001314
 10
-124.053160000031
 20
45.4357439998953
 10
-124.058948999742
 20
45.4420080001116
 10
-124.063953000354
 20
45.4515119997311
 10
-124.064549000205
 20
45.4675669997496
 10
-124.059367000217
 20
45.4812149997031
 10
-124.054780000255
 20
45.4886999998403
 10
-124.056433999916
 20
45.5021459998067
 10
-124.053114999826
 20
45.5142249999048
 10
-124.039103999695
 20
45.5302429999822
 10
-124.026660000086
 20
45.5378770002439
 10
-124.026926000224
 20
45.5460129998156
 10
-124.036229999844
 20
45.5630319999868
 10
-124.037111999926
 20
45.5717240001691
 10
-124.035537999733
 20
45.5807219997118
 10
-124.030366999615
 20
45.5924920001571
 10
-124.03107299997
 20
45.6019230002388
 10
-124.029323999875
 20
45.6124609999292
 10
-124.02133900018
 20
45.6248249998182
 10
-124.019071000226
 20
45.6260339997227
 10
-124.016647999563
 20
45.6321189999867
 10
-124.015867999588
 20
45.6609640002035
 10
-124.011657000269
 20
45.6767170002722
 10
-124.010805000324
 20
45.7082849998874
 10
-124.019116000432
 20
45.7127319997903
 10
-124.024804999685
 20
45.7202329998376
 10
-124.030450000354
 20
45.7209889999277
 10
-124.043798999612
 20
45.7273070000431
 10
-124.060015999772
 20
45.739540999883
 10
-124.067967999855
 20
45.7503150000619
 10
-124.070394999818
 20
45.7627399997944
 10
-124.065448000006
 20
45.7830539997317
 97
0
 75
0
 76
1
 98
0
  0
ENDSEC
  0
SECTION
  2
OBJECTS
  0
DICTIONARY
  5
C
330
0
100
AcDbDictionary
281
     1
  3
ACAD_GROUP
350
D
  3
ACAD_LAYOUT
350
1A
  3
ACAD_MLEADERSTYLE
350
43
  3
ACAD_PLOTSETTINGS
350
19
  3
ACAD_PLOTSTYLENAME
350
E
  3
ACAD_TABLESTYLE
350
42
  0
DICTIONARY
  5
D
102
{ACAD_REACTORS
330
C
102
}
330
C
100
AcDbDictionary
281
     1
  0
DICTIONARY
  5
1A
102
{ACAD_REACTORS
330
C
102
}
330
C
100
AcDbDictionary
281
     1
  3
Layout1
350
1E
  3
Model
350
22
  0
DICTIONARY
  5
43
102
{ACAD_REACTORS
330
C
102
}
330
C
100
AcDbDictionary
281
     1
  0
DICTIONARY
  5
19
102
{ACAD_REACTORS
330
C
102
}
330
C
100
AcDbDictionary
281
     1
  0
ACDBDICTIONARYWDFLT
  5
E
102
{ACAD_REACTORS
330
C
102
}
330
C
100
AcDbDictionary
281
     1
  3
Normal
350
F
100
AcDbDictionaryWithDefault
340
F
  0
DICTIONARY
  5
42
102
{ACAD_REACTORS
330
C
102
}
330
C
100
AcDbDictionary
281
     1
  0
LAYOUT
  5
1E
102
{ACAD_REACTORS
330
1A
102
}
330
1A
100
AcDbPlotSettings
  1

  2
none_device
  4

  6

 40
0.0
 41
0.0
 42
0.0
 43
0.0
 44
0.0
 45
0.0
 46
0.0
 47
0.0
 48
0.0
 49
0.0
140
0.0
141
0.0
142
1.0
143
1.0
 70
   688
 72
     0
 73
     0
 74
     5
  7

 75
    16
 76
     0
 77
     2
 78
   300
147
1.0
148
0.0
149
0.0
100
AcDbLayout
  1
Layout1
 70
     1
 71
     1
 10
0.0
 20
0.0
 11
12.0
 21
9.0
 12
0.0
 22
0.0
 32
0.0
 14
1.000000000000000E+20
 24
1.000000000000000E+20
 34
1.000000000000000E+20
 15
-1.000000000000000E+20
 25
-1.000000000000000E+20
 35
-1.000000000000000E+20
146
0.0
 13
0.0
 23
0.0
 33
0.0
 16
1.0
 26
0.0
 36
0.0
 17
0.0
 27
1.0
 37
0.0
 76
     0
330
1B
  0
LAYOUT
  5
22
102
{ACAD_REACTORS
330
1A
102
}
330
1A
100
AcDbPlotSettings
  1

  2
none_device
  4

  6

 40
0.0
 41
0.0
 42
0.0
 43
0.0
 44
0.0
 45
0.0
 46
0.0
 47
0.0
 48
0.0
 49
0.0
140
0.0
141
0.0
142
1.0
143
1.0
 70
  1712
 72
     0
 73
     0
 74
     0
  7

 75
     0
 76
     0
 77
     2
 78
   300
147
1.0
148
0.0
149
0.0
100
AcDbLayout
  1
Model
 70
     1
 71
     0
 10
0.0
 20
0.0
 11
12.0
 21
9.0
 12
0.0
 22
0.0
 32
0.0
 14
30.0
 24
49.75
 34
0.0
 15
130.5
 25
163.1318914119703
 35
0.0
146
0.0
 13
0.0
 23
0.0
 33
0.0
 16
1.0
 26
0.0
 36
0.0
 17
0.0
 27
1.0
 37
0.0
 76
     0
330
1F
331
29
  0
ACDBPLACEHOLDER
  5
F
102
{ACAD_REACTORS
330
E
102
}
330
E
  0
ENDSEC
  0
EOF
