<?xml version="1.0" encoding="utf-8" standalone="no"?>
<!DOCTYPE svg PUBLIC "-//W3C//DTD SVG 1.1//EN"
  "http://www.w3.org/Graphics/SVG/1.1/DTD/svg11.dtd">
<svg xmlns:xlink="http://www.w3.org/1999/xlink" width="293.4pt" height="217.626731pt" viewBox="0 0 293.4 217.626731" xmlns="http://www.w3.org/2000/svg" version="1.1">
 <metadata>
  <rdf:RDF xmlns:dc="http://purl.org/dc/elements/1.1/" xmlns:cc="http://creativecommons.org/ns#" xmlns:rdf="http://www.w3.org/1999/02/22-rdf-syntax-ns#">
   <cc:Work>
    <dc:type rdf:resource="http://purl.org/dc/dcmitype/StillImage"/>
    <dc:date>2025-03-08T18:33:48.734292</dc:date>
    <dc:format>image/svg+xml</dc:format>
    <dc:creator>
     <cc:Agent>
      <dc:title>Matplotlib v3.10.1, https://matplotlib.org/</dc:title>
     </cc:Agent>
    </dc:creator>
   </cc:Work>
  </rdf:RDF>
 </metadata>
 <defs>
  <style type="text/css">*{stroke-linejoin: round; stroke-linecap: butt}</style>
 </defs>
 <g id="figure_1">
  <g id="patch_1">
   <path d="M 0 217.626731 
L 293.4 217.626731 
L 293.4 0 
L 0 0 
z
" style="fill: #ffffff"/>
  </g>
  <g id="axes_1">
   <g id="LineCollection_1">
    <path d="M 39.522711 38.573578 
L 39.627119 38.286736 
L 39.871455 37.952623 
L 39.824422 37.139496 
L 39.955363 36.695142 
L 40.376688 36.061619 
L 40.244609 35.763967 
L 40.126904 33.960512 
L 39.492885 33.637552 
L 38.874471 32.856811 
L 38.692065 32.087481 
L 38.707887 31.6931 
L 38.924028 30.977517 
L 39.357388 30.385474 
L 40.320052 29.870771 
L 41.328117 28.501805 
L 41.451578 28.086062 
L 41.235714 25.751303 
L 40.827316 24.280031 
L 39.738083 21.810881 
L 39.465305 21.381283 
L 38.343998 20.983856 
L 38.111943 20.864435 
L 37.650757 20.469625 
L 37.011598 19.450643 
L 36.626317 18.066191 
L 40.462381 17.90735 
L 40.441481 16.534351 
L 40.771511 16.437579 
L 41.079379 16.69212 
L 41.425938 17.4838 
L 41.968415 17.567617 
L 42.357667 17.750095 
L 42.841753 18.1081 
L 43.677201 19.023919 
L 45.457767 19.187694 
L 47.227467 18.551125 
L 48.328521 18.377098 
L 49.495598 17.722041 
L 51.137251 18.5392 
L 52.348161 18.166095 
L 54.251049 18.29105 
L 55.575385 18.133409 
L 56.889194 17.642298 
L 57.554116 17.723071 
L 57.889656 17.92039 
L 58.540696 18.55091 
L 59.15517 19.429581 
L 59.051808 21.478999 
L 60.300978 22.643311 
L 60.884917 22.988877 
L 63.694171 23.054464 
L 67.195466 21.161229 
L 68.750256 21.320414 
L 69.036823 21.618924 
L 72.187558 23.527172 
L 73.466554 24.771399 
L 75.269128 25.675764 
L 75.87369 26.681835 
L 76.070285 27.925804 
L 76.745397 28.64692 
L 77.315454 30.090267 
L 78.043076 30.941228 
L 78.283535 32.166623 
L 78.119997 33.011321 
L 78.532734 34.229167 
L 78.934883 34.94269 
L 78.91426 35.950005 
L 78.598236 36.773255 
L 78.609255 37.417716 
L 79.411798 38.679573 
L 79.660536 39.598394 
L 79.701874 40.660057 
L 79.320102 42.151791 
L 79.258541 42.975384 
L 79.587925 43.974806 
L 80.379017 44.532447 
L 81.142376 44.819847 
L 82.32152 45.652577 
L 83.278612 46.008009 
L 84.549882 46.098089 
L 86.979642 46.870508 
L 88.344855 47.293929 
L 89.127421 47.827935 
L 89.595809 47.987807 
L 90.456682 47.814166 
L 91.392535 47.45779 
L 92.239002 47.736611 
L 92.894629 48.645995 
L 94.02123 48.847604 
L 94.889244 48.834735 
L 95.434307 48.667271 
L 96.917994 47.922348 
L 97.469798 47.421758 
L 98.739529 47.111967 
L 99.641278 47.226326 
L 99.966536 47.147742 
L 101.734913 46.016759 
L 103.621518 45.443976 
L 104.234884 45.014892 
L 104.585444 44.502506 
L 105.099603 44.528458 
L 105.926155 44.085476 
L 106.152916 43.765562 
L 106.122812 43.394387 
L 107.191638 42.419716 
L 108.910335 41.848176 
L 111.253079 42.393507 
L 112.108102 42.357732 
L 113.30513 41.916852 
L 114.446567 41.934739 
L 117.475041 40.999318 
L 118.516533 41.246267 
L 119.633962 42.081228 
L 120.829265 42.390418 
L 121.513272 42.441078 
L 122.41105 42.006118 
L 123.484093 41.928648 
L 124.266413 42.143126 
L 125.035928 42.699566 
L 127.237604 43.370408 
L 127.712149 44.2879 
L 127.871192 45.157734 
L 127.831947 45.713274 
L 128.225169 46.149092 
L 129.397941 46.084963 
L 129.588689 45.909092 
L 129.821175 46.007408 
L 130.272295 45.645027 
L 130.182016 45.432094 
L 131.264785 44.371374 
L 131.894957 44.174141 
L 132.837982 44.239685 
L 133.652222 44.143857 
L 134.38714 44.351428 
L 135.322224 43.991792 
L 135.602235 44.006806 
L 136.538274 44.710292 
L 137.085738 44.584565 
L 138.32949 43.348918 
L 140.386897 42.718569 
L 143.435378 41.461602 
L 144.058839 40.854374 
L 145.112428 40.175424 
L 146.463913 40.141194 
L 147.444491 40.492679 
L 149.092608 42.138407 
L 149.804502 42.376134 
L 152.235062 42.160069 
L 154.614988 41.646353 
L 155.935507 41.228337 
L 158.171934 41.024583 
L 159.408422 39.477558 
L 160.304846 38.995927 
L 162.49778 38.483412 
L 165.713245 36.801051 
L 167.514742 36.638048 
L 170.732547 35.803559 
L 171.651379 35.88519 
L 174.818089 35.405575 
L 176.244647 33.316822 
L 176.955217 32.718559 
L 177.846039 32.464232 
L 179.295282 33.189637 
L 180.416805 33.284265 
L 181.576772 32.811557 
L 184.220827 32.632854 
L 185.511273 32.138484 
L 187.527465 31.847009 
L 189.422073 32.360339 
L 190.232496 32.368789 
L 191.55203 32.150837 
L 192.568652 31.724499 
L 193.547383 31.045936 
L 194.602604 30.59253 
L 195.174015 30.158814 
L 195.832505 29.273795 
L 203.897517 29.217945 
L 244.510749 29.332647 
L 246.045132 29.414792 
L 246.600475 29.328701 
L 259.584907 29.466738 
L 259.726559 29.737323 
L 260.297047 30.365871 
L 260.236379 30.600681 
L 260.347435 30.969367 
L 260.67962 31.047394 
L 260.818933 31.207523 
L 260.827366 31.626483 
L 261.39533 33.378721 
L 263.266638 35.220438 
L 263.533413 35.947817 
L 263.494199 36.410917 
L 263.707416 36.769308 
L 263.951044 36.844247 
L 264.395363 37.15318 
L 264.716897 37.020719 
L 265.134405 36.715775 
L 265.935594 36.743056 
L 266.322137 36.982971 
L 266.438087 37.347368 
L 266.635637 37.575615 
L 266.826138 38.087401 
L 267.478349 38.703895 
L 267.887331 38.712517 
L 268.483582 38.527594 
L 268.582972 38.626811 
L 268.792496 38.598886 
L 269.491986 38.744045 
L 270.562104 39.768861 
L 270.937751 39.91951 
L 271.293021 40.667864 
L 271.215977 41.442986 
L 271.302316 42.490794 
L 271.84778 43.206934 
L 272.224719 43.769937 
L 272.78388 44.374935 
L 272.769382 44.540254 
L 272.930642 44.713552 
L 272.921069 44.984694 
L 273.277047 45.238893 
L 273.226689 45.358657 
L 273.515196 45.748663 
L 273.518182 46.26032 
L 273.27443 46.685972 
L 272.89626 47.133071 
L 272.933073 47.393104 
L 272.691045 47.519646 
L 272.306996 47.858134 
L 272.177378 48.209062 
L 272.030155 48.294081 
L 271.753437 48.304547 
L 271.512394 48.564151 
L 271.67036 48.718274 
L 271.554317 48.969384 
L 271.41525 49.141695 
L 271.148198 49.817728 
L 271.042497 50.106501 
L 270.623081 50.536313 
L 270.757715 50.87789 
L 270.581711 51.522223 
L 270.699478 51.882159 
L 270.704126 52.305452 
L 270.422699 52.421312 
L 270.291019 52.610439 
L 270.027507 52.773484 
L 269.677131 53.16379 
L 269.392349 54.457089 
L 268.604365 55.350516 
L 268.044035 56.386399 
L 267.042372 58.371688 
L 267.016055 58.679206 
L 267.020826 60.308934 
L 266.500787 60.849846 
L 265.935594 62.844314 
L 265.942181 63.454631 
L 265.49066 64.806439 
L 265.491183 65.174354 
L 265.210833 66.222634 
L 264.834109 66.456328 
L 264.793325 66.834452 
L 264.609288 66.93976 
L 264.55376 67.274174 
L 263.931868 67.63604 
L 263.664385 68.147826 
L 263.65906 68.861306 
L 262.384034 70.539892 
L 261.885973 70.837287 
L 261.681898 71.193534 
L 261.778795 71.506242 
L 261.705076 71.669931 
L 261.784059 72.101502 
L 261.372922 73.135927 
L 261.662506 73.376313 
L 261.817148 73.217943 
L 261.934299 72.889578 
L 262.32983 72.854618 
L 262.349006 72.914029 
L 262.035721 73.482565 
L 261.588325 73.812131 
L 261.595928 73.959821 
L 262.172972 75.036755 
L 261.861533 75.812519 
L 261.836478 76.070536 
L 261.54557 76.799244 
L 261.543908 76.985453 
L 261.1465 77.713604 
L 260.78335 77.90895 
L 260.714432 78.091514 
L 260.456706 78.348629 
L 260.12206 78.436779 
L 260.19504 78.669015 
L 259.901917 79.249692 
L 259.039228 80.880235 
L 259.134618 81.176213 
L 259.011495 81.433586 
L 257.897175 81.862541 
L 257.035287 82.613169 
L 256.576687 82.59348 
L 256.385909 82.843218 
L 256.095956 82.839657 
L 255.823547 82.965041 
L 255.529562 83.250382 
L 255.456181 83.634811 
L 255.08472 83.86739 
L 255.14071 84.102243 
L 255.036979 84.876292 
L 254.778515 85.009525 
L 254.514571 86.156937 
L 254.050645 86.544326 
L 253.978219 87.575876 
L 253.670105 88.158354 
L 253.469323 88.253882 
L 253.29178 88.692489 
L 253.161517 90.014699 
L 252.878058 90.383343 
L 252.438142 90.849574 
L 252.448022 90.945145 
L 252.602048 91.155633 
L 252.564157 91.652749 
L 252.310371 92.246637 
L 251.855403 92.605715 
L 251.412285 92.625919 
L 251.160623 93.036643 
L 251.076438 93.470445 
L 250.838104 93.952805 
L 250.570343 94.225877 
L 250.341459 94.204472 
L 250.073544 94.368076 
L 250.064464 94.662768 
L 250.321667 95.367712 
L 250.394863 95.840077 
L 250.33561 96.086898 
L 250.381473 96.73522 
L 250.00635 97.675746 
L 249.525742 98.090932 
L 249.529374 98.32098 
L 249.764476 99.021935 
L 251.160315 100.620564 
L 251.105618 100.919288 
L 250.958179 101.048704 
L 250.743115 101.631225 
L 250.328438 101.836608 
L 250.145448 102.261703 
L 250.322929 102.689328 
L 251.758321 103.953372 
L 252.500842 103.990348 
L 252.791749 103.888943 
L 252.973386 103.498551 
L 253.312126 103.121929 
L 253.565912 103.019237 
L 253.793966 103.050293 
L 254.090629 103.434894 
L 254.246564 103.981468 
L 255.418444 105.246284 
L 255.581057 105.163882 
L 255.700025 104.644589 
L 256.020789 104.393222 
L 256.22348 104.398798 
L 256.480806 104.532418 
L 256.818038 104.48489 
L 257.740718 104.6403 
L 257.864671 104.949062 
L 257.80351 105.367078 
L 257.917398 105.585373 
L 257.81102 106.135551 
L 257.873382 106.597149 
L 258.063514 106.731412 
L 258.614702 106.854179 
L 258.988625 106.738447 
L 259.298001 106.842168 
L 259.373106 107.021728 
L 259.595157 107.202147 
L 259.994874 107.360217 
L 260.210184 107.71196 
L 260.204829 108.439982 
L 259.734285 109.053516 
L 259.64139 109.597774 
L 259.170785 110.20882 
L 259.208337 110.454697 
L 259.042245 110.767148 
L 258.752107 111.023663 
L 257.79403 111.271084 
L 257.74161 111.502505 
L 257.826903 112.938431 
L 258.335091 113.164748 
L 258.450488 113.341777 
L 258.786704 113.5744 
L 259.017682 114.148384 
L 258.944947 114.607966 
L 258.696302 114.939334 
L 258.992996 115.546862 
L 258.847619 115.72578 
L 258.207136 115.795356 
L 258.035288 116.032439 
L 257.738871 116.128439 
L 257.897853 116.418241 
L 258.09688 116.396365 
L 258.238655 116.610713 
L 257.850112 116.860708 
L 258.218063 116.984419 
L 258.154563 117.332301 
L 257.951442 117.680956 
L 257.997551 117.855669 
L 258.253245 118.090179 
L 258.185497 118.559326 
L 257.58189 118.760721 
L 257.739456 119.539059 
L 257.498413 120.171896 
L 257.526638 120.733184 
L 257.265773 120.89816 
L 257.081828 120.854835 
L 256.780239 120.907725 
L 256.332935 121.227683 
L 256.382338 121.323082 
L 256.672138 121.503415 
L 256.551755 121.937174 
L 256.227204 121.864595 
L 255.99875 122.343008 
L 256.338199 122.805379 
L 256.18171 123.289755 
L 256.175585 126.482894 
L 256.195161 200.854224 
L 219.351016 200.967511 
L 204.431684 201.189152 
L 169.989811 200.957731 
L 154.613295 201.167533 
L 133.200178 201.13682 
L 128.69325 200.970557 
L 123.262503 201.011908 
L 91.461884 200.44187 
L 81.46625 200.668315 
L 70.963597 200.717216 
L 67.832039 200.473699 
L 66.65659 200.601184 
L 61.638365 200.880562 
L 53.110073 200.859372 
L 52.088465 201.059951 
L 49.904365 200.97579 
L 47.357608 201.056949 
L 31.415498 200.92097 
L 31.113109 200.709838 
L 30.428056 199.976669 
L 29.993064 199.595671 
L 28.663527 197.436484 
L 28.425069 195.791614 
L 28.226011 195.193822 
L 28.13764 194.420974 
L 28.193414 193.778958 
L 27.625604 192.791847 
L 27.276398 192.485444 
L 27.028614 192.11071 
L 26.700031 191.236628 
L 26.581495 190.234118 
L 26.816167 188.924476 
L 26.44446 188.382105 
L 26.290218 187.30959 
L 26.329433 186.87094 
L 26.561119 186.338908 
L 26.16685 185.36651 
L 26.186949 184.272547 
L 26.326878 183.859206 
L 25.312965 183.453157 
L 24.618246 182.745038 
L 23.97881 180.97264 
L 24.077831 180.35443 
L 24.684363 179.408928 
L 24.783077 179.408928 
L 25.571737 178.926654 
L 25.772488 178.35786 
L 26.459727 177.561505 
L 27.213452 177.126888 
L 26.944984 176.707714 
L 26.736753 175.90248 
L 26.764363 175.477643 
L 26.960959 174.480194 
L 26.376312 174.451025 
L 25.545143 174.047036 
L 25.213913 173.72755 
L 24.89755 173.20371 
L 24.739584 172.660053 
L 24.687103 172.006583 
L 24.788617 171.516846 
L 24.262145 171.133446 
L 23.540155 169.994699 
L 23.019132 170.109445 
L 22.434023 170.064919 
L 21.772086 170.131493 
L 21.079307 169.944083 
L 20.53212 169.527868 
L 20.276703 169.181744 
L 19.980285 168.56954 
L 19.881818 167.804156 
L 20.11966 166.913817 
L 20.586971 166.350771 
L 20.859995 165.435767 
L 21.372123 164.816442 
L 21.454184 164.358662 
L 21.679006 163.878232 
L 22.387822 163.221674 
L 22.577738 162.548901 
L 22.857718 162.092365 
L 23.320228 161.612364 
L 23.919865 161.277823 
L 24.499741 160.025446 
L 25.377604 157.249679 
L 25.982843 155.039146 
L 25.902752 154.809999 
L 25.863784 154.290105 
L 25.643333 153.555435 
L 25.65937 152.59938 
L 25.963205 151.803712 
L 26.333896 151.367765 
L 26.712898 151.114767 
L 26.891333 150.28178 
L 27.217023 149.361715 
L 27.087282 149.018508 
L 27.031508 148.537864 
L 27.060318 147.423354 
L 27.224071 146.909895 
L 27.516733 146.448039 
L 27.265194 146.168489 
L 26.921098 145.575845 
L 26.824047 144.937003 
L 26.856489 143.825495 
L 27.019965 143.405977 
L 27.334327 142.935585 
L 27.787572 142.590706 
L 27.960682 141.958984 
L 28.435689 141.401257 
L 28.984753 141.0662 
L 29.465515 140.944077 
L 29.832174 140.673749 
L 30.953758 138.007109 
L 31.419222 136.51336 
L 32.402509 132.819072 
L 32.908419 130.140849 
L 32.767044 129.648409 
L 32.755655 129.097117 
L 32.929904 128.478564 
L 33.358678 127.860354 
L 34.037267 123.995214 
L 34.450589 120.919779 
L 35.138167 114.967044 
L 34.995098 114.45277 
L 34.989558 114.004727 
L 35.221921 113.315439 
L 35.523417 110.877861 
L 35.402049 110.286246 
L 35.518184 108.417076 
L 35.719459 108.014115 
L 35.788777 107.488303 
L 35.813124 106.522253 
L 35.945881 101.46908 
L 36.503995 98.979555 
L 36.655805 97.639543 
L 36.814633 95.110597 
L 36.491867 94.108172 
L 36.472075 93.617662 
L 36.749932 92.280009 
L 37.040562 91.885543 
L 37.289147 90.280308 
L 37.403004 90.042667 
L 36.882566 89.196382 
L 36.848491 88.920478 
L 36.948528 88.255813 
L 37.306753 87.56245 
L 36.858434 86.610127 
L 36.798196 86.089848 
L 36.888106 85.446802 
L 37.255103 84.579756 
L 37.216597 84.275669 
L 36.972383 83.298939 
L 37.064602 82.564612 
L 36.98919 81.875753 
L 37.344644 78.629938 
L 37.522648 78.352018 
L 37.949021 77.896682 
L 38.522834 75.180454 
L 38.505904 74.504121 
L 38.747686 73.625493 
L 38.883798 72.040205 
L 38.698806 71.673706 
L 38.5369 70.989523 
L 38.657376 69.839581 
L 39.279975 67.891011 
L 39.528959 67.544587 
L 39.994178 66.128178 
L 40.14965 64.450664 
L 39.781453 63.63372 
L 39.695729 62.914834 
L 39.849324 62.288346 
L 40.203763 61.6462 
L 40.298105 60.631551 
L 40.104341 59.587475 
L 39.652236 59.115967 
L 39.264739 58.543356 
L 39.167841 57.499408 
L 39.490699 56.421574 
L 39.746917 56.016597 
L 40.204194 55.688575 
L 40.43471 54.058976 
L 39.900943 53.471608 
L 39.568728 52.795232 
L 39.550383 52.106545 
L 39.851078 51.200035 
L 39.800167 50.623262 
L 39.902328 50.105128 
L 40.333595 49.418028 
L 40.716629 49.090564 
L 40.708442 48.741566 
L 40.39491 47.63868 
L 40.63463 45.891247 
L 41.024805 45.048008 
L 41.048814 43.810688 
L 41.178431 43.134955 
L 41.204656 41.78083 
L 40.948838 41.590074 
L 40.773727 41.268315 
L 40.599971 41.235886 
L 40.18908 40.964873 
L 39.689911 40.440089 
L 39.445144 39.977933 
L 39.370439 39.444957 
L 39.522711 38.573578 
L 39.522711 38.573578 
" clip-path="url(#p363f7d3d86)" style="fill: none; stroke: #000000; stroke-width: 1.5"/>
   </g>
  </g>
 </g>
 <defs>
  <clipPath id="p363f7d3d86">
   <rect x="7.2" y="7.2" width="279" height="203.226731"/>
  </clipPath>
 </defs>
</svg>
