<?xml version="1.0" encoding="utf-8" standalone="no"?>
<!DOCTYPE svg PUBLIC "-//W3C//DTD SVG 1.1//EN"
  "http://www.w3.org/Graphics/SVG/1.1/DTD/svg11.dtd">
<svg xmlns:xlink="http://www.w3.org/1999/xlink" width="228.605218pt" height="291.6pt" viewBox="0 0 228.605218 291.6" xmlns="http://www.w3.org/2000/svg" version="1.1">
 <metadata>
  <rdf:RDF xmlns:dc="http://purl.org/dc/elements/1.1/" xmlns:cc="http://creativecommons.org/ns#" xmlns:rdf="http://www.w3.org/1999/02/22-rdf-syntax-ns#">
   <cc:Work>
    <dc:type rdf:resource="http://purl.org/dc/dcmitype/StillImage"/>
    <dc:date>2025-03-08T18:33:48.146357</dc:date>
    <dc:format>image/svg+xml</dc:format>
    <dc:creator>
     <cc:Agent>
      <dc:title>Matplotlib v3.10.1, https://matplotlib.org/</dc:title>
     </cc:Agent>
    </dc:creator>
   </cc:Work>
  </rdf:RDF>
 </metadata>
 <defs>
  <style type="text/css">*{stroke-linejoin: round; stroke-linecap: butt}</style>
 </defs>
 <g id="figure_1">
  <g id="patch_1">
   <path d="M 0 291.6 
L 228.605218 291.6 
L 228.605218 0 
L 0 0 
z
" style="fill: #ffffff"/>
  </g>
  <g id="axes_1">
   <g id="LineCollection_1">
    <path d="M 17.163574 125.333116 
L 17.199596 100.367463 
L 17.324915 80.565043 
L 17.45754 34.043009 
L 17.379201 20.194263 
L 23.912423 20.480857 
L 48.143416 20.08871 
L 69.286275 19.878107 
L 89.97989 19.809417 
L 90.729862 20.025408 
L 133.751563 19.8 
L 133.747638 70.351984 
L 163.773812 70.505983 
L 171.046125 70.389603 
L 192.156732 70.325747 
L 204.249224 70.138864 
L 211.340107 70.210173 
L 211.427888 89.891175 
L 211.292738 98.365632 
L 211.295808 163.782108 
L 211.184828 177.149571 
L 210.95937 185.32867 
L 210.944604 207.310889 
L 211.619539 212.949616 
L 211.629759 213.415539 
L 211.668618 243.373155 
L 211.510541 253.566624 
L 211.528726 271.733526 
L 156.172249 271.8 
L 155.373083 271.499305 
L 150.111937 271.49442 
L 129.715629 271.634167 
L 17.045988 271.67239 
L 16.949269 265.997405 
L 16.984824 256.377578 
L 16.936601 242.057167 
L 16.983853 233.829471 
L 17.11399 230.920015 
L 17.063047 230.209093 
L 17.028579 223.672462 
L 17.074238 207.924164 
L 17.027763 196.338664 
L 17.163574 125.333116 
" clip-path="url(#pe0e4c5133d)" style="fill: none; stroke: #000000; stroke-width: 1.5"/>
   </g>
  </g>
 </g>
 <defs>
  <clipPath id="pe0e4c5133d">
   <rect x="7.2" y="7.2" width="214.205218" height="277.2"/>
  </clipPath>
 </defs>
</svg>
