<?xml version="1.0" encoding="utf-8" standalone="no"?>
<!DOCTYPE svg PUBLIC "-//W3C//DTD SVG 1.1//EN"
  "http://www.w3.org/Graphics/SVG/1.1/DTD/svg11.dtd">
<svg xmlns:xlink="http://www.w3.org/1999/xlink" width="293.4pt" height="232.930023pt" viewBox="0 0 293.4 232.930023" xmlns="http://www.w3.org/2000/svg" version="1.1">
 <metadata>
  <rdf:RDF xmlns:dc="http://purl.org/dc/elements/1.1/" xmlns:cc="http://creativecommons.org/ns#" xmlns:rdf="http://www.w3.org/1999/02/22-rdf-syntax-ns#">
   <cc:Work>
    <dc:type rdf:resource="http://purl.org/dc/dcmitype/StillImage"/>
    <dc:date>2025-03-08T18:33:47.982605</dc:date>
    <dc:format>image/svg+xml</dc:format>
    <dc:creator>
     <cc:Agent>
      <dc:title>Matplotlib v3.10.1, https://matplotlib.org/</dc:title>
     </cc:Agent>
    </dc:creator>
   </cc:Work>
  </rdf:RDF>
 </metadata>
 <defs>
  <style type="text/css">*{stroke-linejoin: round; stroke-linecap: butt}</style>
 </defs>
 <g id="figure_1">
  <g id="patch_1">
   <path d="M 0 232.930023 
L 293.4 232.930023 
L 293.4 0 
L 0 0 
z
" style="fill: #ffffff"/>
  </g>
  <g id="axes_1">
   <g id="LineCollection_1">
    <path d="M 20.231846 100.843185 
L 20.172186 71.205188 
L 20.142881 66.954843 
L 20.080287 65.953897 
L 20.084018 43.470271 
L 19.958685 43.255362 
L 19.881818 17.373897 
L 29.460669 17.377464 
L 32.562964 17.808818 
L 41.935197 17.734127 
L 43.334404 17.446161 
L 46.301766 17.437196 
L 47.766068 17.552006 
L 51.44468 17.572115 
L 54.250014 17.24621 
L 64.396706 17.261514 
L 66.735191 17.331946 
L 90.565878 17.133183 
L 91.381923 17.448935 
L 149.509518 17.350668 
L 161.749063 17.414858 
L 163.677424 17.589599 
L 198.404197 17.754632 
L 205.577659 17.743785 
L 206.121918 17.40941 
L 208.156414 17.40307 
L 243.214415 17.41991 
L 273.326414 17.539822 
L 273.39763 23.613108 
L 273.42708 88.495621 
L 273.518182 133.80646 
L 273.494129 215.470488 
L 252.764469 215.469399 
L 244.44196 215.636809 
L 212.777744 215.697533 
L 195.905314 215.660088 
L 186.468242 215.435223 
L 166.730346 215.369547 
L 128.842923 215.437898 
L 111.474085 215.560335 
L 88.005705 215.496789 
L 85.883004 215.435768 
L 74.61052 215.619573 
L 54.931452 215.682377 
L 48.152283 215.79684 
L 20.162225 215.645378 
L 20.19939 187.545526 
L 20.147047 142.776196 
L 20.282487 128.984345 
L 20.231846 100.843185 
" clip-path="url(#p64d8ad04ad)" style="fill: none; stroke: #000000; stroke-width: 1.5"/>
   </g>
  </g>
 </g>
 <defs>
  <clipPath id="p64d8ad04ad">
   <rect x="7.2" y="7.2" width="279" height="218.530023"/>
  </clipPath>
 </defs>
</svg>
