<?xml version="1.0" encoding="utf-8" standalone="no"?>
<!DOCTYPE svg PUBLIC "-//W3C//DTD SVG 1.1//EN"
  "http://www.w3.org/Graphics/SVG/1.1/DTD/svg11.dtd">
<svg xmlns:xlink="http://www.w3.org/1999/xlink" width="286.271048pt" height="356.718125pt" viewBox="0 0 286.271048 356.718125" xmlns="http://www.w3.org/2000/svg" version="1.1">
 <metadata>
  <rdf:RDF xmlns:dc="http://purl.org/dc/elements/1.1/" xmlns:cc="http://creativecommons.org/ns#" xmlns:rdf="http://www.w3.org/1999/02/22-rdf-syntax-ns#">
   <cc:Work>
    <dc:type rdf:resource="http://purl.org/dc/dcmitype/StillImage"/>
    <dc:date>2025-03-08T18:34:35.157797</dc:date>
    <dc:format>image/svg+xml</dc:format>
    <dc:creator>
     <cc:Agent>
      <dc:title>Matplotlib v3.10.1, https://matplotlib.org/</dc:title>
     </cc:Agent>
    </dc:creator>
   </cc:Work>
  </rdf:RDF>
 </metadata>
 <defs>
  <style type="text/css">*{stroke-linejoin: round; stroke-linecap: butt}</style>
 </defs>
 <g id="figure_1">
  <g id="patch_1">
   <path d="M 0 356.718125 
L 286.271048 356.718125 
L 286.271048 0 
L 0 0 
z
" style="fill: #ffffff"/>
  </g>
  <g id="axes_1">
   <g id="PathCollection_1">
    <defs>
     <path id="C0_0_a976eccc78" d="M 0 1.414214 
C 0.375054 1.414214 0.734797 1.265203 1 1 
C 1.265203 0.734797 1.414214 0.375054 1.414214 -0 
C 1.414214 -0.375054 1.265203 -0.734797 1 -1 
C 0.734797 -1.265203 0.375054 -1.414214 0 -1.414214 
C -0.375054 -1.414214 -0.734797 -1.265203 -1 -1 
C -1.265203 -0.734797 -1.414214 -0.375054 -1.414214 0 
C -1.414214 0.375054 -1.265203 0.734797 -1 1 
C -0.734797 1.265203 -0.375054 1.414214 0 1.414214 
z
"/>
    </defs>
    <g clip-path="url(#p3df6d74c22)">
     <use xlink:href="#C0_0_a976eccc78" x="178.169842" y="283.209488" style="fill: #17becf; fill-opacity: 0.75; stroke: #17becf; stroke-opacity: 0.75"/>
    </g>
    <g clip-path="url(#p3df6d74c22)">
     <use xlink:href="#C0_0_a976eccc78" x="105.455781" y="257.379785" style="fill: #7f7f7f; fill-opacity: 0.75; stroke: #7f7f7f; stroke-opacity: 0.75"/>
    </g>
    <g clip-path="url(#p3df6d74c22)">
     <use xlink:href="#C0_0_a976eccc78" x="35.774219" y="162.784556" style="fill: #8c564b; fill-opacity: 0.75; stroke: #8c564b; stroke-opacity: 0.75"/>
    </g>
    <g clip-path="url(#p3df6d74c22)">
     <use xlink:href="#C0_0_a976eccc78" x="32.793687" y="267.829618" style="fill: #1f77b4; fill-opacity: 0.75; stroke: #1f77b4; stroke-opacity: 0.75"/>
    </g>
    <g clip-path="url(#p3df6d74c22)">
     <use xlink:href="#C0_0_a976eccc78" x="124.392372" y="248.343519" style="fill: #7f7f7f; fill-opacity: 0.75; stroke: #7f7f7f; stroke-opacity: 0.75"/>
    </g>
    <g clip-path="url(#p3df6d74c22)">
     <use xlink:href="#C0_0_a976eccc78" x="47.406044" y="52.363964" style="fill: #1f77b4; fill-opacity: 0.75; stroke: #1f77b4; stroke-opacity: 0.75"/>
    </g>
    <g clip-path="url(#p3df6d74c22)">
     <use xlink:href="#C0_0_a976eccc78" x="186.690702" y="327.381011" style="fill: #17becf; fill-opacity: 0.75; stroke: #17becf; stroke-opacity: 0.75"/>
    </g>
    <g clip-path="url(#p3df6d74c22)">
     <use xlink:href="#C0_0_a976eccc78" x="122.053003" y="185.957936" style="fill: #1f77b4; fill-opacity: 0.75; stroke: #1f77b4; stroke-opacity: 0.75"/>
    </g>
    <g clip-path="url(#p3df6d74c22)">
     <use xlink:href="#C0_0_a976eccc78" x="152.996322" y="290.624091" style="fill: #7f7f7f; fill-opacity: 0.75; stroke: #7f7f7f; stroke-opacity: 0.75"/>
    </g>
    <g clip-path="url(#p3df6d74c22)">
     <use xlink:href="#C0_0_a976eccc78" x="142.427962" y="317.414071" style="fill: #7f7f7f; fill-opacity: 0.75; stroke: #7f7f7f; stroke-opacity: 0.75"/>
    </g>
    <g clip-path="url(#p3df6d74c22)">
     <use xlink:href="#C0_0_a976eccc78" x="172.131844" y="289.384375" style="fill: #17becf; fill-opacity: 0.75; stroke: #17becf; stroke-opacity: 0.75"/>
    </g>
    <g clip-path="url(#p3df6d74c22)">
     <use xlink:href="#C0_0_a976eccc78" x="134.036065" y="211.851366" style="fill: #7f7f7f; fill-opacity: 0.75; stroke: #7f7f7f; stroke-opacity: 0.75"/>
    </g>
    <g clip-path="url(#p3df6d74c22)">
     <use xlink:href="#C0_0_a976eccc78" x="62.16458" y="262.149127" style="fill: #1f77b4; fill-opacity: 0.75; stroke: #1f77b4; stroke-opacity: 0.75"/>
    </g>
    <g clip-path="url(#p3df6d74c22)">
     <use xlink:href="#C0_0_a976eccc78" x="56.769493" y="309.083884" style="fill: #1f77b4; fill-opacity: 0.75; stroke: #1f77b4; stroke-opacity: 0.75"/>
    </g>
    <g clip-path="url(#p3df6d74c22)">
     <use xlink:href="#C0_0_a976eccc78" x="38.721649" y="177.705049" style="fill: #8c564b; fill-opacity: 0.75; stroke: #8c564b; stroke-opacity: 0.75"/>
    </g>
    <g clip-path="url(#p3df6d74c22)">
     <use xlink:href="#C0_0_a976eccc78" x="68.200194" y="143.34671" style="fill: #8c564b; fill-opacity: 0.75; stroke: #8c564b; stroke-opacity: 0.75"/>
    </g>
    <g clip-path="url(#p3df6d74c22)">
     <use xlink:href="#C0_0_a976eccc78" x="24.886941" y="55.955025" style="fill: #1f77b4; fill-opacity: 0.75; stroke: #1f77b4; stroke-opacity: 0.75"/>
    </g>
    <g clip-path="url(#p3df6d74c22)">
     <use xlink:href="#C0_0_a976eccc78" x="77.738976" y="146.537618" style="fill: #8c564b; fill-opacity: 0.75; stroke: #8c564b; stroke-opacity: 0.75"/>
    </g>
    <g clip-path="url(#p3df6d74c22)">
     <use xlink:href="#C0_0_a976eccc78" x="187.72197" y="228.364908" style="fill: #1f77b4; fill-opacity: 0.75; stroke: #1f77b4; stroke-opacity: 0.75"/>
    </g>
    <g clip-path="url(#p3df6d74c22)">
     <use xlink:href="#C0_0_a976eccc78" x="90.75032" y="211.350481" style="fill: #7f7f7f; fill-opacity: 0.75; stroke: #7f7f7f; stroke-opacity: 0.75"/>
    </g>
    <g clip-path="url(#p3df6d74c22)">
     <use xlink:href="#C0_0_a976eccc78" x="92.788156" y="327.90614" style="fill: #2ca02c; fill-opacity: 0.75; stroke: #2ca02c; stroke-opacity: 0.75"/>
    </g>
    <g clip-path="url(#p3df6d74c22)">
     <use xlink:href="#C0_0_a976eccc78" x="100.599812" y="229.376086" style="fill: #7f7f7f; fill-opacity: 0.75; stroke: #7f7f7f; stroke-opacity: 0.75"/>
    </g>
    <g clip-path="url(#p3df6d74c22)">
     <use xlink:href="#C0_0_a976eccc78" x="105.32751" y="247.688895" style="fill: #7f7f7f; fill-opacity: 0.75; stroke: #7f7f7f; stroke-opacity: 0.75"/>
    </g>
    <g clip-path="url(#p3df6d74c22)">
     <use xlink:href="#C0_0_a976eccc78" x="148.685547" y="321.391906" style="fill: #7f7f7f; fill-opacity: 0.75; stroke: #7f7f7f; stroke-opacity: 0.75"/>
    </g>
    <g clip-path="url(#p3df6d74c22)">
     <use xlink:href="#C0_0_a976eccc78" x="61.371377" y="138.069252" style="fill: #8c564b; fill-opacity: 0.75; stroke: #8c564b; stroke-opacity: 0.75"/>
    </g>
    <g clip-path="url(#p3df6d74c22)">
     <use xlink:href="#C0_0_a976eccc78" x="182.782389" y="307.506788" style="fill: #17becf; fill-opacity: 0.75; stroke: #17becf; stroke-opacity: 0.75"/>
    </g>
    <g clip-path="url(#p3df6d74c22)">
     <use xlink:href="#C0_0_a976eccc78" x="76.43987" y="190.592906" style="fill: #8c564b; fill-opacity: 0.75; stroke: #8c564b; stroke-opacity: 0.75"/>
    </g>
    <g clip-path="url(#p3df6d74c22)">
     <use xlink:href="#C0_0_a976eccc78" x="197.324417" y="278.84879" style="fill: #17becf; fill-opacity: 0.75; stroke: #17becf; stroke-opacity: 0.75"/>
    </g>
    <g clip-path="url(#p3df6d74c22)">
     <use xlink:href="#C0_0_a976eccc78" x="33.483277" y="203.847383" style="fill: #8c564b; fill-opacity: 0.75; stroke: #8c564b; stroke-opacity: 0.75"/>
    </g>
    <g clip-path="url(#p3df6d74c22)">
     <use xlink:href="#C0_0_a976eccc78" x="179.383596" y="320.819329" style="fill: #17becf; fill-opacity: 0.75; stroke: #17becf; stroke-opacity: 0.75"/>
    </g>
    <g clip-path="url(#p3df6d74c22)">
     <use xlink:href="#C0_0_a976eccc78" x="133.404507" y="269.845588" style="fill: #7f7f7f; fill-opacity: 0.75; stroke: #7f7f7f; stroke-opacity: 0.75"/>
    </g>
    <g clip-path="url(#p3df6d74c22)">
     <use xlink:href="#C0_0_a976eccc78" x="106.025277" y="220.695597" style="fill: #7f7f7f; fill-opacity: 0.75; stroke: #7f7f7f; stroke-opacity: 0.75"/>
    </g>
    <g clip-path="url(#p3df6d74c22)">
     <use xlink:href="#C0_0_a976eccc78" x="181.018558" y="241.987693" style="fill: #1f77b4; fill-opacity: 0.75; stroke: #1f77b4; stroke-opacity: 0.75"/>
    </g>
    <g clip-path="url(#p3df6d74c22)">
     <use xlink:href="#C0_0_a976eccc78" x="49.965643" y="210.196023" style="fill: #8c564b; fill-opacity: 0.75; stroke: #8c564b; stroke-opacity: 0.75"/>
    </g>
    <g clip-path="url(#p3df6d74c22)">
     <use xlink:href="#C0_0_a976eccc78" x="158.140721" y="306.630129" style="fill: #7f7f7f; fill-opacity: 0.75; stroke: #7f7f7f; stroke-opacity: 0.75"/>
    </g>
    <g clip-path="url(#p3df6d74c22)">
     <use xlink:href="#C0_0_a976eccc78" x="72.140657" y="172.3817" style="fill: #8c564b; fill-opacity: 0.75; stroke: #8c564b; stroke-opacity: 0.75"/>
    </g>
    <g clip-path="url(#p3df6d74c22)">
     <use xlink:href="#C0_0_a976eccc78" x="132.275095" y="224.8046" style="fill: #7f7f7f; fill-opacity: 0.75; stroke: #7f7f7f; stroke-opacity: 0.75"/>
    </g>
    <g clip-path="url(#p3df6d74c22)">
     <use xlink:href="#C0_0_a976eccc78" x="54.599596" y="140.278626" style="fill: #8c564b; fill-opacity: 0.75; stroke: #8c564b; stroke-opacity: 0.75"/>
    </g>
    <g clip-path="url(#p3df6d74c22)">
     <use xlink:href="#C0_0_a976eccc78" x="144.604771" y="220.38428" style="fill: #7f7f7f; fill-opacity: 0.75; stroke: #7f7f7f; stroke-opacity: 0.75"/>
    </g>
    <g clip-path="url(#p3df6d74c22)">
     <use xlink:href="#C0_0_a976eccc78" x="61.117718" y="265.813391" style="fill: #1f77b4; fill-opacity: 0.75; stroke: #1f77b4; stroke-opacity: 0.75"/>
    </g>
    <g clip-path="url(#p3df6d74c22)">
     <use xlink:href="#C0_0_a976eccc78" x="109.600297" y="271.666331" style="fill: #7f7f7f; fill-opacity: 0.75; stroke: #7f7f7f; stroke-opacity: 0.75"/>
    </g>
    <g clip-path="url(#p3df6d74c22)">
     <use xlink:href="#C0_0_a976eccc78" x="31.140814" y="76.328365" style="fill: #1f77b4; fill-opacity: 0.75; stroke: #1f77b4; stroke-opacity: 0.75"/>
    </g>
    <g clip-path="url(#p3df6d74c22)">
     <use xlink:href="#C0_0_a976eccc78" x="71.671732" y="133.827925" style="fill: #8c564b; fill-opacity: 0.75; stroke: #8c564b; stroke-opacity: 0.75"/>
    </g>
    <g clip-path="url(#p3df6d74c22)">
     <use xlink:href="#C0_0_a976eccc78" x="173.191665" y="229.331799" style="fill: #1f77b4; fill-opacity: 0.75; stroke: #1f77b4; stroke-opacity: 0.75"/>
    </g>
    <g clip-path="url(#p3df6d74c22)">
     <use xlink:href="#C0_0_a976eccc78" x="170.635253" y="265.788783" style="fill: #17becf; fill-opacity: 0.75; stroke: #17becf; stroke-opacity: 0.75"/>
    </g>
    <g clip-path="url(#p3df6d74c22)">
     <use xlink:href="#C0_0_a976eccc78" x="32.061079" y="221.031573" style="fill: #1f77b4; fill-opacity: 0.75; stroke: #1f77b4; stroke-opacity: 0.75"/>
    </g>
    <g clip-path="url(#p3df6d74c22)">
     <use xlink:href="#C0_0_a976eccc78" x="120.312522" y="292.518607" style="fill: #7f7f7f; fill-opacity: 0.75; stroke: #7f7f7f; stroke-opacity: 0.75"/>
    </g>
    <g clip-path="url(#p3df6d74c22)">
     <use xlink:href="#C0_0_a976eccc78" x="182.02011" y="297.208495" style="fill: #17becf; fill-opacity: 0.75; stroke: #17becf; stroke-opacity: 0.75"/>
    </g>
    <g clip-path="url(#p3df6d74c22)">
     <use xlink:href="#C0_0_a976eccc78" x="37.210162" y="315.60709" style="fill: #1f77b4; fill-opacity: 0.75; stroke: #1f77b4; stroke-opacity: 0.75"/>
    </g>
    <g clip-path="url(#p3df6d74c22)">
     <use xlink:href="#C0_0_a976eccc78" x="112.662524" y="322.863036" style="fill: #2ca02c; fill-opacity: 0.75; stroke: #2ca02c; stroke-opacity: 0.75"/>
    </g>
    <g clip-path="url(#p3df6d74c22)">
     <use xlink:href="#C0_0_a976eccc78" x="111.657698" y="217.296314" style="fill: #7f7f7f; fill-opacity: 0.75; stroke: #7f7f7f; stroke-opacity: 0.75"/>
    </g>
    <g clip-path="url(#p3df6d74c22)">
     <use xlink:href="#C0_0_a976eccc78" x="36.832518" y="227.148535" style="fill: #8c564b; fill-opacity: 0.75; stroke: #8c564b; stroke-opacity: 0.75"/>
    </g>
    <g clip-path="url(#p3df6d74c22)">
     <use xlink:href="#C0_0_a976eccc78" x="134.086508" y="322.486234" style="fill: #7f7f7f; fill-opacity: 0.75; stroke: #7f7f7f; stroke-opacity: 0.75"/>
    </g>
    <g clip-path="url(#p3df6d74c22)">
     <use xlink:href="#C0_0_a976eccc78" x="76.706685" y="210.99972" style="fill: #1f77b4; fill-opacity: 0.75; stroke: #1f77b4; stroke-opacity: 0.75"/>
    </g>
    <g clip-path="url(#p3df6d74c22)">
     <use xlink:href="#C0_0_a976eccc78" x="172.58996" y="278.133989" style="fill: #17becf; fill-opacity: 0.75; stroke: #17becf; stroke-opacity: 0.75"/>
    </g>
    <g clip-path="url(#p3df6d74c22)">
     <use xlink:href="#C0_0_a976eccc78" x="135.036515" y="257.409019" style="fill: #7f7f7f; fill-opacity: 0.75; stroke: #7f7f7f; stroke-opacity: 0.75"/>
    </g>
    <g clip-path="url(#p3df6d74c22)">
     <use xlink:href="#C0_0_a976eccc78" x="83.237823" y="318.078171" style="fill: #2ca02c; fill-opacity: 0.75; stroke: #2ca02c; stroke-opacity: 0.75"/>
    </g>
    <g clip-path="url(#p3df6d74c22)">
     <use xlink:href="#C0_0_a976eccc78" x="93.61388" y="301.670791" style="fill: #2ca02c; fill-opacity: 0.75; stroke: #2ca02c; stroke-opacity: 0.75"/>
    </g>
    <g clip-path="url(#p3df6d74c22)">
     <use xlink:href="#C0_0_a976eccc78" x="94.829655" y="235.637876" style="fill: #7f7f7f; fill-opacity: 0.75; stroke: #7f7f7f; stroke-opacity: 0.75"/>
    </g>
    <g clip-path="url(#p3df6d74c22)">
     <use xlink:href="#C0_0_a976eccc78" x="164.486818" y="267.95605" style="fill: #17becf; fill-opacity: 0.75; stroke: #17becf; stroke-opacity: 0.75"/>
    </g>
    <g clip-path="url(#p3df6d74c22)">
     <use xlink:href="#C0_0_a976eccc78" x="147.530034" y="298.767414" style="fill: #7f7f7f; fill-opacity: 0.75; stroke: #7f7f7f; stroke-opacity: 0.75"/>
    </g>
    <g clip-path="url(#p3df6d74c22)">
     <use xlink:href="#C0_0_a976eccc78" x="119.587655" y="272.199509" style="fill: #7f7f7f; fill-opacity: 0.75; stroke: #7f7f7f; stroke-opacity: 0.75"/>
    </g>
    <g clip-path="url(#p3df6d74c22)">
     <use xlink:href="#C0_0_a976eccc78" x="142.311384" y="234.055585" style="fill: #7f7f7f; fill-opacity: 0.75; stroke: #7f7f7f; stroke-opacity: 0.75"/>
    </g>
    <g clip-path="url(#p3df6d74c22)">
     <use xlink:href="#C0_0_a976eccc78" x="132.136392" y="298.067508" style="fill: #7f7f7f; fill-opacity: 0.75; stroke: #7f7f7f; stroke-opacity: 0.75"/>
    </g>
    <g clip-path="url(#p3df6d74c22)">
     <use xlink:href="#C0_0_a976eccc78" x="64.720987" y="128.689941" style="fill: #8c564b; fill-opacity: 0.75; stroke: #8c564b; stroke-opacity: 0.75"/>
    </g>
    <g clip-path="url(#p3df6d74c22)">
     <use xlink:href="#C0_0_a976eccc78" x="72.381837" y="141.690791" style="fill: #8c564b; fill-opacity: 0.75; stroke: #8c564b; stroke-opacity: 0.75"/>
    </g>
    <g clip-path="url(#p3df6d74c22)">
     <use xlink:href="#C0_0_a976eccc78" x="56.136868" y="96.824773" style="fill: #1f77b4; fill-opacity: 0.75; stroke: #1f77b4; stroke-opacity: 0.75"/>
    </g>
    <g clip-path="url(#p3df6d74c22)">
     <use xlink:href="#C0_0_a976eccc78" x="98.030911" y="202.847804" style="fill: #7f7f7f; fill-opacity: 0.75; stroke: #7f7f7f; stroke-opacity: 0.75"/>
    </g>
    <g clip-path="url(#p3df6d74c22)">
     <use xlink:href="#C0_0_a976eccc78" x="121.046306" y="266.498109" style="fill: #7f7f7f; fill-opacity: 0.75; stroke: #7f7f7f; stroke-opacity: 0.75"/>
    </g>
    <g clip-path="url(#p3df6d74c22)">
     <use xlink:href="#C0_0_a976eccc78" x="43.94248" y="246.251529" style="fill: #1f77b4; fill-opacity: 0.75; stroke: #1f77b4; stroke-opacity: 0.75"/>
    </g>
    <g clip-path="url(#p3df6d74c22)">
     <use xlink:href="#C0_0_a976eccc78" x="55.864938" y="217.131531" style="fill: #1f77b4; fill-opacity: 0.75; stroke: #1f77b4; stroke-opacity: 0.75"/>
    </g>
    <g clip-path="url(#p3df6d74c22)">
     <use xlink:href="#C0_0_a976eccc78" x="198.272579" y="316.475811" style="fill: #17becf; fill-opacity: 0.75; stroke: #17becf; stroke-opacity: 0.75"/>
    </g>
    <g clip-path="url(#p3df6d74c22)">
     <use xlink:href="#C0_0_a976eccc78" x="94.524618" y="227.139007" style="fill: #7f7f7f; fill-opacity: 0.75; stroke: #7f7f7f; stroke-opacity: 0.75"/>
    </g>
    <g clip-path="url(#p3df6d74c22)">
     <use xlink:href="#C0_0_a976eccc78" x="117.389895" y="197.867937" style="fill: #1f77b4; fill-opacity: 0.75; stroke: #1f77b4; stroke-opacity: 0.75"/>
    </g>
    <g clip-path="url(#p3df6d74c22)">
     <use xlink:href="#C0_0_a976eccc78" x="99.420303" y="227.333695" style="fill: #7f7f7f; fill-opacity: 0.75; stroke: #7f7f7f; stroke-opacity: 0.75"/>
    </g>
    <g clip-path="url(#p3df6d74c22)">
     <use xlink:href="#C0_0_a976eccc78" x="136.199926" y="302.945438" style="fill: #7f7f7f; fill-opacity: 0.75; stroke: #7f7f7f; stroke-opacity: 0.75"/>
    </g>
    <g clip-path="url(#p3df6d74c22)">
     <use xlink:href="#C0_0_a976eccc78" x="45.833136" y="107.580929" style="fill: #1f77b4; fill-opacity: 0.75; stroke: #1f77b4; stroke-opacity: 0.75"/>
    </g>
    <g clip-path="url(#p3df6d74c22)">
     <use xlink:href="#C0_0_a976eccc78" x="30.639191" y="140.879459" style="fill: #1f77b4; fill-opacity: 0.75; stroke: #1f77b4; stroke-opacity: 0.75"/>
    </g>
    <g clip-path="url(#p3df6d74c22)">
     <use xlink:href="#C0_0_a976eccc78" x="60.216022" y="277.604955" style="fill: #1f77b4; fill-opacity: 0.75; stroke: #1f77b4; stroke-opacity: 0.75"/>
    </g>
    <g clip-path="url(#p3df6d74c22)">
     <use xlink:href="#C0_0_a976eccc78" x="161.752417" y="224.652244" style="fill: #1f77b4; fill-opacity: 0.75; stroke: #1f77b4; stroke-opacity: 0.75"/>
    </g>
    <g clip-path="url(#p3df6d74c22)">
     <use xlink:href="#C0_0_a976eccc78" x="193.187618" y="289.881878" style="fill: #17becf; fill-opacity: 0.75; stroke: #17becf; stroke-opacity: 0.75"/>
    </g>
    <g clip-path="url(#p3df6d74c22)">
     <use xlink:href="#C0_0_a976eccc78" x="106.356702" y="241.777979" style="fill: #7f7f7f; fill-opacity: 0.75; stroke: #7f7f7f; stroke-opacity: 0.75"/>
    </g>
    <g clip-path="url(#p3df6d74c22)">
     <use xlink:href="#C0_0_a976eccc78" x="49.566572" y="150.109304" style="fill: #8c564b; fill-opacity: 0.75; stroke: #8c564b; stroke-opacity: 0.75"/>
    </g>
    <g clip-path="url(#p3df6d74c22)">
     <use xlink:href="#C0_0_a976eccc78" x="187.369286" y="282.538211" style="fill: #17becf; fill-opacity: 0.75; stroke: #17becf; stroke-opacity: 0.75"/>
    </g>
    <g clip-path="url(#p3df6d74c22)">
     <use xlink:href="#C0_0_a976eccc78" x="140.205365" y="283.085368" style="fill: #7f7f7f; fill-opacity: 0.75; stroke: #7f7f7f; stroke-opacity: 0.75"/>
    </g>
    <g clip-path="url(#p3df6d74c22)">
     <use xlink:href="#C0_0_a976eccc78" x="183.528493" y="272.487728" style="fill: #17becf; fill-opacity: 0.75; stroke: #17becf; stroke-opacity: 0.75"/>
    </g>
    <g clip-path="url(#p3df6d74c22)">
     <use xlink:href="#C0_0_a976eccc78" x="38.990206" y="190.420202" style="fill: #8c564b; fill-opacity: 0.75; stroke: #8c564b; stroke-opacity: 0.75"/>
    </g>
    <g clip-path="url(#p3df6d74c22)">
     <use xlink:href="#C0_0_a976eccc78" x="36.565134" y="300.482341" style="fill: #1f77b4; fill-opacity: 0.75; stroke: #1f77b4; stroke-opacity: 0.75"/>
    </g>
    <g clip-path="url(#p3df6d74c22)">
     <use xlink:href="#C0_0_a976eccc78" x="83.000121" y="151.944443" style="fill: #8c564b; fill-opacity: 0.75; stroke: #8c564b; stroke-opacity: 0.75"/>
    </g>
    <g clip-path="url(#p3df6d74c22)">
     <use xlink:href="#C0_0_a976eccc78" x="86.06749" y="183.074812" style="fill: #1f77b4; fill-opacity: 0.75; stroke: #1f77b4; stroke-opacity: 0.75"/>
    </g>
    <g clip-path="url(#p3df6d74c22)">
     <use xlink:href="#C0_0_a976eccc78" x="195.28328" y="218.458075" style="fill: #1f77b4; fill-opacity: 0.75; stroke: #1f77b4; stroke-opacity: 0.75"/>
    </g>
    <g clip-path="url(#p3df6d74c22)">
     <use xlink:href="#C0_0_a976eccc78" x="79.642218" y="154.309111" style="fill: #8c564b; fill-opacity: 0.75; stroke: #8c564b; stroke-opacity: 0.75"/>
    </g>
    <g clip-path="url(#p3df6d74c22)">
     <use xlink:href="#C0_0_a976eccc78" x="196.487011" y="308.23314" style="fill: #17becf; fill-opacity: 0.75; stroke: #17becf; stroke-opacity: 0.75"/>
    </g>
    <g clip-path="url(#p3df6d74c22)">
     <use xlink:href="#C0_0_a976eccc78" x="33.820316" y="154.88418" style="fill: #8c564b; fill-opacity: 0.75; stroke: #8c564b; stroke-opacity: 0.75"/>
    </g>
    <g clip-path="url(#p3df6d74c22)">
     <use xlink:href="#C0_0_a976eccc78" x="95.399901" y="314.679944" style="fill: #2ca02c; fill-opacity: 0.75; stroke: #2ca02c; stroke-opacity: 0.75"/>
    </g>
    <g clip-path="url(#p3df6d74c22)">
     <use xlink:href="#C0_0_a976eccc78" x="75.424629" y="125.961674" style="fill: #8c564b; fill-opacity: 0.75; stroke: #8c564b; stroke-opacity: 0.75"/>
    </g>
    <g clip-path="url(#p3df6d74c22)">
     <use xlink:href="#C0_0_a976eccc78" x="124.086719" y="269.174912" style="fill: #7f7f7f; fill-opacity: 0.75; stroke: #7f7f7f; stroke-opacity: 0.75"/>
    </g>
   </g>
   <g id="LineCollection_1">
    <path d="M 27.046467 205.516901 
L 27.151666 205.183956 
L 27.106906 204.90293 
L 27.345138 204.888959 
L 27.5363 204.755022 
L 27.732446 204.419878 
L 28.090948 204.2235 
L 28.48327 203.491505 
L 28.590656 202.924839 
L 28.892609 202.187151 
L 28.907468 201.938121 
L 29.09863 201.602977 
L 28.991487 201.203668 
L 28.514295 200.37538 
L 28.646841 200.13739 
L 28.968788 199.97012 
L 29.259133 199.338857 
L 28.868664 199.374002 
L 28.60035 199.863307 
L 28.450361 199.808456 
L 28.305508 199.591983 
L 28.351787 199.320746 
L 28.720347 198.581765 
L 28.619493 197.669001 
L 28.820957 197.310873 
L 29.312643 197.011909 
L 29.641214 196.559516 
L 29.815755 196.45943 
L 30.157514 196.044812 
L 30.57135 195.324459 
L 30.576607 194.607211 
L 30.840667 194.092723 
L 31.454599 193.728946 
L 31.509417 193.392767 
L 31.691099 193.286902 
L 31.731361 192.906782 
L 32.21536 192.516398 
L 32.379508 191.248181 
L 32.855333 189.702042 
L 32.818748 189.275695 
L 33.0327 188.384493 
L 33.002678 188.290099 
L 33.152545 188.07091 
L 33.376707 187.270695 
L 33.89009 186.726927 
L 33.960891 186.184064 
L 33.911361 184.779452 
L 35.443092 181.655178 
L 36.231261 180.844182 
L 36.512398 179.544055 
L 37.248424 178.797656 
L 37.526249 178.681184 
L 37.521661 178.255656 
L 37.405401 177.893819 
L 37.567514 177.121116 
L 37.446241 176.902703 
L 37.506255 176.76053 
L 37.86029 176.470621 
L 38.384703 175.164327 
L 38.457843 174.988432 
L 38.33183 174.861309 
L 38.56213 174.659153 
L 38.980646 174.563163 
L 39.087546 174.422241 
L 39.108604 174.210382 
L 39.763376 173.607149 
L 39.690174 173.505165 
L 39.734357 173.344752 
L 40.052778 173.045916 
L 40.297361 172.650358 
L 40.307662 172.133972 
L 40.06624 171.577311 
L 40.040138 171.511248 
L 39.714818 171.32177 
L 39.724268 171.049196 
L 39.565072 170.874983 
L 39.532133 170.579899 
L 39.027381 170.100598 
L 38.125261 168.834407 
L 38.031549 167.76136 
L 38.107607 166.982146 
L 37.731055 166.200215 
L 37.386045 166.078395 
L 37.146142 165.741397 
L 36.90943 165.618111 
L 36.329622 165.048168 
L 35.180338 164.793791 
L 34.745505 165.016473 
L 34.170407 164.919707 
L 33.697894 164.388056 
L 33.200343 163.277794 
L 32.818748 163.036613 
L 32.027813 163.009188 
L 31.298229 163.448903 
L 31.188442 163.431093 
L 30.408599 162.70272 
L 30.447312 162.237175 
L 30.183951 161.505955 
L 29.927366 161.307982 
L 29.592657 160.739505 
L 28.753012 160.167061 
L 27.959769 158.807597 
L 27.934578 158.43636 
L 27.630043 157.310876 
L 27.30211 157.232437 
L 27.192475 156.861804 
L 27.231978 156.488453 
L 26.689181 155.993887 
L 26.462648 155.577156 
L 26.377717 154.834208 
L 26.127787 154.50191 
L 26.051577 153.762238 
L 25.813711 153.508422 
L 25.737349 152.886258 
L 25.279331 152.267803 
L 24.703321 152.113297 
L 24.547438 151.862887 
L 24.531849 151.557239 
L 24.787827 151.310452 
L 25.353535 151.12921 
L 25.477786 150.739991 
L 25.52288 150.153575 
L 25.982387 149.601268 
L 25.974547 148.901226 
L 26.38893 148.427488 
L 26.358817 148.243788 
L 26.202812 148.048877 
L 25.945072 147.965522 
L 25.529595 147.256209 
L 25.050884 146.762634 
L 25.022867 146.500755 
L 25.351833 145.56117 
L 25.237701 145.035901 
L 24.76449 144.072814 
L 24.266574 143.578593 
L 24.276541 143.410633 
L 24.460775 142.883122 
L 24.277088 142.575015 
L 23.774766 142.358931 
L 23.297908 141.728746 
L 23.260472 141.020769 
L 22.981552 140.806841 
L 22.277706 140.609601 
L 22.091102 140.273509 
L 22.198002 139.566524 
L 22.574067 139.151906 
L 22.946851 137.503352 
L 22.790663 137.156565 
L 22.749915 63.891578 
L 22.930077 53.28469 
L 23.01598 26.190715 
L 52.89412 26.119219 
L 52.893452 70.276305 
L 53.215642 70.513347 
L 53.462321 70.458409 
L 54.533937 72.131197 
L 54.586992 72.469705 
L 54.852085 72.617096 
L 54.919148 72.915586 
L 55.392421 73.046634 
L 55.437545 73.15017 
L 55.346233 73.622226 
L 55.780853 73.826193 
L 55.91264 74.064054 
L 56.26938 74.405192 
L 56.346197 74.704459 
L 56.657569 75.019249 
L 56.850494 75.589882 
L 57.227076 75.733824 
L 57.217079 75.901956 
L 57.381774 76.043655 
L 57.986621 75.762715 
L 58.313429 76.394452 
L 58.873425 76.700834 
L 59.024872 77.753701 
L 58.975737 77.89402 
L 59.071425 78.158314 
L 59.024113 78.54486 
L 59.325396 78.986774 
L 59.397382 79.193156 
L 59.386595 79.563056 
L 59.703558 79.955854 
L 60.32296 79.707083 
L 60.53904 79.741926 
L 60.653537 79.974354 
L 61.040298 80.352102 
L 60.941359 80.922218 
L 61.270021 81.456715 
L 61.890395 81.483364 
L 62.548935 82.001173 
L 62.813481 82.424803 
L 62.642283 83.003069 
L 62.693727 83.38444 
L 62.524048 83.58513 
L 62.547446 83.866328 
L 62.392322 84.206043 
L 62.594211 84.718807 
L 63.268552 85.029501 
L 63.670507 85.501859 
L 63.747841 85.783489 
L 63.539783 86.010095 
L 63.592838 86.373182 
L 63.71952 86.449077 
L 63.873672 86.729154 
L 63.356369 87.171456 
L 63.318264 87.491292 
L 62.857633 87.550455 
L 62.780117 87.794439 
L 62.568929 87.838036 
L 61.84518 88.576759 
L 61.811572 88.771713 
L 61.927862 89.028116 
L 62.215502 89.186029 
L 62.39451 89.122726 
L 62.738426 89.3674 
L 63.43893 89.363476 
L 63.641457 89.64364 
L 63.163657 89.828805 
L 63.246339 90.18564 
L 63.543217 90.740663 
L 63.804755 90.80582 
L 64.031044 91.530097 
L 64.093702 91.454289 
L 64.476543 91.320783 
L 64.685998 91.793917 
L 65.074279 91.799135 
L 65.488875 91.631434 
L 65.644303 91.717936 
L 65.319925 92.577056 
L 65.12855 92.700255 
L 64.242566 92.856055 
L 64.033293 92.696159 
L 63.768807 92.684041 
L 63.691777 92.795512 
L 63.437471 92.88693 
L 63.012635 92.870587 
L 62.46364 93.241393 
L 62.060166 93.337943 
L 61.699628 94.121901 
L 61.957823 94.197321 
L 62.860155 94.042729 
L 62.868603 94.242039 
L 62.98787 94.290724 
L 63.129107 94.484988 
L 63.743435 94.4893 
L 63.939064 94.669895 
L 64.2539 94.745833 
L 64.183464 95.073862 
L 64.793385 95.131257 
L 64.850968 95.40077 
L 65.022409 95.481667 
L 65.133624 95.678303 
L 65.069235 95.908445 
L 65.221229 96.128022 
L 65.601305 96.048678 
L 66.016266 95.90465 
L 66.482154 96.121597 
L 66.668576 96.370411 
L 67.268439 96.646133 
L 67.198823 96.843976 
L 67.416361 97.062346 
L 67.629645 97.210255 
L 67.851681 97.137637 
L 68.094896 97.438154 
L 68.045305 97.985588 
L 68.398944 98.209995 
L 68.336925 98.40275 
L 68.45282 98.693866 
L 68.731131 99.074073 
L 68.712717 99.495677 
L 69.135639 99.611114 
L 69.47369 99.863421 
L 69.857413 99.916633 
L 70.117948 100.263248 
L 70.617687 100.003093 
L 70.863576 100.222023 
L 70.918819 100.428233 
L 71.828626 100.313528 
L 71.99554 100.434442 
L 71.967767 100.670061 
L 72.265647 100.999556 
L 73.501381 100.964584 
L 73.856875 101.20335 
L 74.020051 101.09533 
L 74.198391 101.17088 
L 74.427476 101.064196 
L 75.097775 101.537589 
L 74.91585 101.846687 
L 75.033993 101.956002 
L 75.175686 102.360701 
L 75.693293 102.675492 
L 75.913748 103.307229 
L 75.683691 103.825512 
L 75.63881 104.278336 
L 75.930916 104.343838 
L 76.055958 104.487435 
L 76.816445 104.576007 
L 76.9874 104.854317 
L 77.009704 105.340948 
L 77.195731 105.5146 
L 77.339186 105.874798 
L 78.029754 105.974712 
L 78.314264 106.276436 
L 78.748763 106.486656 
L 79.120817 106.819601 
L 79.19335 107.152762 
L 79.34033 107.335857 
L 79.499982 107.668457 
L 79.55641 107.79502 
L 79.906646 107.996961 
L 80.392711 108.005068 
L 80.513286 108.233528 
L 80.437015 108.455477 
L 80.672664 109.136502 
L 80.922898 109.549826 
L 81.050491 109.558494 
L 81.098563 109.734302 
L 81.674542 110.354871 
L 81.794205 110.304763 
L 82.115757 110.428308 
L 82.087284 110.626453 
L 82.28501 110.753016 
L 82.473134 111.284796 
L 82.594255 111.262934 
L 82.576358 111.386996 
L 82.66299 111.752541 
L 82.561104 111.84314 
L 82.793045 112.392557 
L 82.712885 112.60614 
L 82.914531 112.747494 
L 83.048688 113.053186 
L 83.254709 113.216532 
L 83.289806 113.691779 
L 83.819537 113.61899 
L 83.903313 113.448615 
L 84.733628 113.611357 
L 84.744689 113.792383 
L 85.207296 114.385828 
L 85.194108 114.567156 
L 85.368071 114.668492 
L 85.65167 115.030717 
L 85.849761 115.069958 
L 86.024484 115.261851 
L 85.969666 115.41778 
L 87.046995 115.906309 
L 87.147727 116.164092 
L 86.919675 116.285438 
L 86.828454 117.250939 
L 86.856228 117.703763 
L 86.344516 118.436362 
L 86.532032 118.585521 
L 86.939426 118.662408 
L 87.082031 118.947573 
L 86.939943 119.142442 
L 87.181061 119.856197 
L 87.968896 120.277326 
L 87.916783 120.710961 
L 87.957197 120.953781 
L 88.092661 120.896515 
L 88.207674 120.61247 
L 88.850869 120.39755 
L 88.991772 120.522216 
L 89.12049 120.953048 
L 89.736032 121.347959 
L 89.9653 121.773271 
L 90.59482 121.784353 
L 90.887717 122.066242 
L 91.167214 121.924715 
L 91.229506 121.766803 
L 91.26199 121.977669 
L 91.346981 122.375254 
L 91.491196 122.453693 
L 91.630428 122.498583 
L 91.653856 122.658953 
L 91.910471 122.828725 
L 91.813416 123.259858 
L 91.905944 123.378918 
L 91.647596 123.967188 
L 91.468497 124.103454 
L 91.373691 124.200004 
L 91.394172 124.495433 
L 91.201247 124.7856 
L 91.400735 125.041616 
L 91.805394 125.130878 
L 91.858936 125.46986 
L 92.415194 125.398579 
L 92.446036 125.209231 
L 92.67977 124.821348 
L 93.054377 124.706515 
L 93.491975 124.671068 
L 93.651323 124.305998 
L 93.616622 124.177494 
L 93.857345 123.757917 
L 93.931063 123.591941 
L 94.23417 123.764299 
L 94.443686 123.659082 
L 94.741353 123.759297 
L 94.940447 123.64442 
L 95.11672 123.837736 
L 95.455896 123.942781 
L 95.899176 124.655717 
L 96.205899 124.944807 
L 96.295358 125.023116 
L 95.959464 126.028505 
L 95.667691 126.220614 
L 95.633658 126.504356 
L 95.913124 126.644244 
L 95.714821 126.819061 
L 95.839801 127.083744 
L 96.484454 127.273523 
L 96.461937 127.38771 
L 96.572818 127.602199 
L 96.432584 127.762613 
L 96.471965 127.924665 
L 97.116405 128.227942 
L 97.262383 128.131866 
L 97.44762 128.209615 
L 97.821437 127.781328 
L 98.045781 127.888098 
L 98.219563 127.748857 
L 98.536495 127.721776 
L 98.69484 127.492712 
L 99.241041 127.898232 
L 99.660832 127.958042 
L 99.933613 127.8652 
L 100.038174 128.032815 
L 100.344866 128.218412 
L 100.973475 128.277144 
L 101.404814 127.856274 
L 101.34714 127.739931 
L 101.37935 127.526477 
L 101.515361 127.512505 
L 102.256947 127.032687 
L 102.636173 127.19806 
L 102.713324 126.964382 
L 102.887166 127.083269 
L 103.329961 126.855758 
L 103.498911 126.955154 
L 103.671173 126.753645 
L 104.293583 126.710135 
L 104.43251 126.907763 
L 105.036445 127.020656 
L 105.412632 127.619017 
L 105.346784 127.796895 
L 105.426063 127.998361 
L 105.363558 128.187321 
L 105.298226 128.702629 
L 105.190323 128.796592 
L 105.358331 129.178911 
L 105.133044 129.466794 
L 105.053857 129.789389 
L 104.700004 130.081023 
L 104.840968 130.203404 
L 105.078713 130.862092 
L 104.847379 131.186154 
L 104.747316 131.579254 
L 104.587847 131.741134 
L 104.709151 132.170672 
L 104.547159 132.669421 
L 104.747286 133.165884 
L 104.613281 133.301718 
L 104.574203 133.515043 
L 104.270246 133.735914 
L 103.97671 133.740183 
L 103.745954 133.885029 
L 103.490615 133.741908 
L 103.006799 133.866099 
L 102.907586 134.011937 
L 102.983917 134.917413 
L 103.166754 135.279077 
L 103.516778 135.415687 
L 103.629361 135.673039 
L 103.478369 136.245613 
L 103.96413 136.672391 
L 103.522096 136.885543 
L 103.462872 137.082956 
L 103.464908 137.783041 
L 103.202003 137.875452 
L 102.322248 138.831466 
L 102.692874 139.952293 
L 102.634106 140.089938 
L 102.578256 141.051472 
L 102.337958 141.287651 
L 102.320212 141.547893 
L 101.98839 142.345779 
L 102.175116 143.285105 
L 101.754929 143.712056 
L 101.37388 143.837886 
L 101.031605 143.739913 
L 100.855393 144.049442 
L 100.929931 144.798816 
L 101.421496 145.116711 
L 101.617642 146.045688 
L 101.429427 146.256943 
L 101.688473 146.765782 
L 101.587164 148.281304 
L 101.250966 148.182684 
L 100.696379 148.596009 
L 100.538065 148.529644 
L 100.293665 148.291869 
L 100.09992 148.278976 
L 99.738257 148.42227 
L 99.514186 148.290964 
L 99.529076 148.88208 
L 99.134323 149.251247 
L 99.427949 149.674964 
L 99.327673 150.126581 
L 99.81392 150.416446 
L 100.106787 150.447236 
L 100.316455 150.649478 
L 100.741929 150.644217 
L 100.968188 151.014031 
L 101.196939 151.471167 
L 101.12003 152.133133 
L 100.805802 152.209631 
L 100.853022 152.309502 
L 100.812791 152.537272 
L 100.968796 152.685051 
L 100.929354 152.814029 
L 100.182024 153.357409 
L 100.041304 153.695399 
L 99.865274 153.718168 
L 99.763661 153.860643 
L 99.73765 154.164868 
L 100.290413 154.319892 
L 100.56286 154.212949 
L 100.783984 154.911482 
L 100.688722 155.035329 
L 100.423537 155.165988 
L 100.336905 155.364436 
L 100.573648 155.827738 
L 100.752686 155.855983 
L 101.051508 155.628773 
L 101.247198 155.630412 
L 101.530584 156.056242 
L 102.127713 156.101261 
L 102.818067 156.816137 
L 102.960945 157.093714 
L 102.794122 157.494705 
L 102.664949 157.543648 
L 102.549571 157.747184 
L 102.212461 158.074178 
L 102.050318 158.279741 
L 102.55267 158.879438 
L 102.513167 159.038989 
L 102.592203 159.332305 
L 102.879904 159.684224 
L 103.151925 159.772063 
L 103.195469 160.137048 
L 103.381041 160.258091 
L 103.312823 160.68129 
L 103.219201 160.752269 
L 103.124152 161.074563 
L 102.824539 161.110268 
L 102.857843 161.279177 
L 102.710985 161.922125 
L 101.595277 161.496986 
L 101.373364 161.740064 
L 101.134008 161.768568 
L 100.72865 162.137218 
L 100.35775 161.9179 
L 100.201441 162.000564 
L 99.99621 161.960116 
L 99.856279 162.162315 
L 99.672622 162.190172 
L 99.437581 162.639072 
L 99.465902 162.760201 
L 99.616741 162.876717 
L 98.974762 163.471498 
L 99.04848 163.569299 
L 99.022804 163.720528 
L 98.599274 164.236698 
L 98.625893 164.561708 
L 98.23351 164.858905 
L 98.067994 165.017637 
L 97.946022 165.296981 
L 98.194645 165.664769 
L 98.408568 165.702328 
L 98.613131 165.906381 
L 98.51167 166.592625 
L 98.882873 166.7724 
L 99.155745 167.266621 
L 99.838594 167.517591 
L 100.069897 168.48292 
L 99.507258 169.108922 
L 99.929542 169.215649 
L 99.921459 169.434148 
L 99.896359 169.582056 
L 99.979862 169.804307 
L 99.299353 170.63751 
L 99.088104 170.509567 
L 98.710459 170.674983 
L 98.76008 170.783176 
L 98.699338 170.985246 
L 98.585053 170.916682 
L 98.122264 171.035138 
L 98.02132 171.148161 
L 98.044323 171.404823 
L 98.194342 171.589255 
L 98.30659 171.913102 
L 98.607752 172.038414 
L 98.81268 172.486193 
L 98.188112 173.440439 
L 98.31446 173.569072 
L 98.356515 173.779378 
L 98.240438 173.937938 
L 98.187383 174.234487 
L 97.975618 174.383172 
L 97.992483 174.594082 
L 98.119195 174.52569 
L 98.366178 174.623836 
L 98.489396 174.449709 
L 98.995243 174.227545 
L 99.137331 174.027243 
L 99.469092 174.150572 
L 100.024014 174.691063 
L 100.211256 174.620257 
L 100.413874 174.41767 
L 100.63281 174.409908 
L 100.818139 174.270106 
L 101.006961 174.47347 
L 101.300345 174.398739 
L 101.132853 174.891968 
L 101.062265 175.140912 
L 101.469051 175.256608 
L 101.521408 175.406069 
L 101.790633 175.487871 
L 101.876293 175.75402 
L 102.075296 175.810122 
L 102.106928 176.326335 
L 102.292834 176.68166 
L 102.586764 176.695071 
L 103.342541 176.953156 
L 104.08121 177.789292 
L 104.655488 178.7792 
L 105.140307 178.720123 
L 105.302845 178.553542 
L 105.473679 178.542374 
L 105.605314 178.390153 
L 105.762869 178.405979 
L 105.927959 178.308911 
L 106.193113 177.972129 
L 106.650858 177.950481 
L 106.957885 177.7488 
L 106.953935 177.476441 
L 107.21365 177.301237 
L 107.303989 176.598262 
L 107.456773 176.433623 
L 107.647115 176.016719 
L 107.514022 175.465405 
L 107.609436 175.107104 
L 108.234702 175.093477 
L 108.921775 175.53358 
L 109.275901 175.514219 
L 109.681107 174.873167 
L 109.866253 174.919653 
L 111.112592 174.397704 
L 111.239517 174.26312 
L 111.187647 173.812582 
L 111.474254 173.434876 
L 112.105021 173.365364 
L 112.659304 172.912799 
L 112.67161 172.31474 
L 112.923728 172.120087 
L 112.957397 171.853938 
L 113.131057 171.555879 
L 113.78753 171.185202 
L 113.844809 171.02785 
L 114.10896 170.717156 
L 114.579558 170.683219 
L 114.742583 170.256786 
L 114.298755 169.526084 
L 114.722467 169.158167 
L 114.57655 168.77602 
L 114.688555 168.635011 
L 114.90743 168.724274 
L 115.254993 168.593744 
L 115.507658 168.200514 
L 115.766492 168.356055 
L 116.047295 168.33195 
L 116.017759 168.422679 
L 116.228126 168.888655 
L 116.530139 168.862523 
L 117.126234 168.702282 
L 117.200499 169.01138 
L 117.156195 169.234234 
L 117.260239 169.399521 
L 117.242767 169.620996 
L 117.571156 170.007843 
L 117.59431 170.264332 
L 118.095113 170.565712 
L 118.341154 170.879683 
L 118.124983 171.151352 
L 118.215019 171.541304 
L 118.055124 171.821467 
L 118.2599 171.825909 
L 118.624205 172.020907 
L 119.36485 171.743287 
L 119.446316 171.836129 
L 119.576949 171.809609 
L 119.758357 171.903313 
L 120.0549 172.309436 
L 120.194922 172.335956 
L 120.504137 172.218362 
L 121.123569 173.088219 
L 121.335212 173.565062 
L 121.025785 173.710943 
L 120.688402 174.382611 
L 120.707363 174.623275 
L 120.179547 176.191881 
L 120.623496 176.086534 
L 120.942829 176.229052 
L 121.331869 176.073252 
L 122.268812 176.193433 
L 122.061544 176.508827 
L 122.145807 176.56329 
L 122.120373 176.781703 
L 122.30637 177.116718 
L 122.454413 177.927842 
L 121.958868 178.337286 
L 122.006909 178.677734 
L 121.736468 179.153456 
L 122.013412 179.389247 
L 121.96458 179.939656 
L 122.040213 180.027668 
L 122.298864 180.055395 
L 122.459913 180.225813 
L 122.36687 180.399853 
L 121.930365 180.680621 
L 122.033892 181.120637 
L 122.397287 181.111151 
L 122.941269 181.542069 
L 123.257806 181.791098 
L 123.274671 182.553064 
L 123.093597 182.769148 
L 123.256591 182.944568 
L 123.392875 183.288509 
L 123.228696 183.416107 
L 123.22116 183.622144 
L 123.049141 183.747629 
L 123.100221 184.438874 
L 123.585587 184.951293 
L 123.710355 184.982384 
L 123.79404 185.216148 
L 123.97007 185.66328 
L 124.160959 185.742495 
L 124.257679 186.029687 
L 124.662004 186.312395 
L 124.872979 186.809247 
L 124.520889 186.899113 
L 124.555925 187.045771 
L 124.521527 187.323994 
L 124.894553 187.874101 
L 125.281619 187.993506 
L 125.820709 188.553143 
L 125.876742 188.913513 
L 126.191942 189.29648 
L 126.20905 189.508381 
L 126.769137 189.914418 
L 126.873515 190.10243 
L 127.021589 190.135547 
L 127.182092 190.360558 
L 127.323238 190.357281 
L 127.397807 190.602472 
L 127.552718 190.675607 
L 127.596049 191.921531 
L 127.823524 192.021186 
L 127.922736 192.246325 
L 128.356111 192.192509 
L 128.315119 192.472026 
L 128.020915 192.984445 
L 128.343379 193.290999 
L 128.710298 193.531102 
L 128.843239 193.776078 
L 129.225078 193.798415 
L 129.452613 193.624159 
L 130.155487 193.866332 
L 130.168523 193.995784 
L 129.986416 194.356543 
L 129.678143 194.702813 
L 129.923181 194.986469 
L 130.752889 195.450548 
L 130.690809 195.568228 
L 130.768568 195.662665 
L 130.791997 195.900051 
L 131.131689 195.980603 
L 131.557923 195.846364 
L 131.809555 196.091944 
L 131.892571 196.652401 
L 131.695331 196.931184 
L 131.984369 197.182154 
L 131.911502 197.780515 
L 132.239891 198.327 
L 131.967049 198.717987 
L 132.022474 198.995304 
L 131.960121 199.287973 
L 132.025938 199.796554 
L 131.878016 199.909879 
L 132.055839 200.39526 
L 131.909345 200.638899 
L 131.535771 200.709403 
L 131.390432 200.902849 
L 130.934662 200.786376 
L 130.752038 200.938683 
L 130.514901 200.86378 
L 130.388249 201.135966 
L 131.021325 202.421907 
L 131.209631 202.531652 
L 131.002759 203.145796 
L 131.531334 203.527037 
L 131.49013 203.738162 
L 131.650845 204.016299 
L 131.717574 204.446829 
L 132.064134 204.605 
L 132.188446 204.866622 
L 132.507354 204.902456 
L 132.72395 205.646698 
L 133.104968 205.510519 
L 133.563898 205.675116 
L 133.843273 205.646655 
L 134.072662 205.748466 
L 134.10317 205.953554 
L 134.726127 206.414313 
L 135.016928 207.314182 
L 134.767848 207.464807 
L 134.786262 207.621728 
L 135.175424 207.929361 
L 136.383902 207.309827 
L 136.460719 207.137339 
L 138.043378 206.2774 
L 138.291485 206.658124 
L 138.499877 206.650147 
L 138.781865 206.802583 
L 139.184063 206.874554 
L 139.358817 207.09633 
L 139.677482 207.196761 
L 140.571731 208.181409 
L 140.746241 208.088826 
L 141.551062 208.442771 
L 141.448811 209.304995 
L 142.00665 209.853119 
L 141.995407 210.178043 
L 142.128774 210.138371 
L 142.457831 210.309651 
L 142.451875 211.273039 
L 142.690805 211.782612 
L 143.050553 211.940007 
L 143.128343 212.104992 
L 143.086075 212.311115 
L 143.486632 212.49503 
L 143.552632 213.768552 
L 144.00439 214.402919 
L 144.031252 214.650569 
L 143.778708 215.116761 
L 143.616444 215.102099 
L 143.361226 215.20805 
L 142.862763 215.906971 
L 143.653607 216.48597 
L 143.504651 216.795327 
L 144.412696 217.41167 
L 144.426613 217.601708 
L 144.124569 217.893342 
L 144.167384 218.293342 
L 144.665452 218.606752 
L 144.745247 218.542199 
L 145.065918 218.935816 
L 145.347238 219.093125 
L 145.377989 219.348882 
L 145.061147 219.515247 
L 145.063183 219.948752 
L 144.730571 220.398169 
L 144.938324 220.907699 
L 145.359787 221.456038 
L 145.278624 221.757159 
L 145.485558 222.366903 
L 145.8787 222.648404 
L 146.411196 223.328093 
L 146.66851 223.514035 
L 147.002764 223.437924 
L 146.965358 223.556078 
L 147.0347 223.772551 
L 147.405903 223.984409 
L 147.631707 223.935509 
L 147.78206 224.0597 
L 147.941742 224.045944 
L 148.140197 224.402002 
L 148.527414 224.565952 
L 148.901656 224.260778 
L 149.084766 224.490058 
L 149.02299 224.677983 
L 149.32242 225.498638 
L 149.407047 225.718474 
L 149.681317 225.819034 
L 149.974002 226.259482 
L 150.268813 226.329297 
L 150.494738 226.151418 
L 151.252034 225.502519 
L 151.260087 225.038397 
L 151.317426 224.570308 
L 151.016963 224.508298 
L 150.960778 224.207867 
L 150.410871 223.45112 
L 150.806232 223.134518 
L 150.759284 222.949611 
L 150.803709 222.657114 
L 151.070292 222.487861 
L 151.278562 222.152889 
L 151.388835 222.22611 
L 151.446448 222.102264 
L 151.718226 221.740643 
L 151.682492 221.656081 
L 152.225106 220.971002 
L 152.206115 220.866129 
L 152.469202 220.911623 
L 153.149651 220.630079 
L 153.35315 220.707526 
L 153.612045 220.226673 
L 154.116828 220.020377 
L 154.88242 220.204983 
L 155.003359 220.275056 
L 155.118706 220.513089 
L 155.513338 220.57691 
L 155.824437 220.808777 
L 156.687235 220.588596 
L 156.792586 220.687388 
L 156.815376 220.945905 
L 156.940235 220.936547 
L 157.15674 220.748665 
L 157.640921 220.605457 
L 158.370261 221.06311 
L 158.621985 220.950174 
L 159.471504 220.904464 
L 159.649935 221.136806 
L 160.316892 221.277642 
L 160.395927 221.654313 
L 160.719485 221.810242 
L 160.826142 221.581566 
L 161.193881 221.460911 
L 161.344447 221.297996 
L 161.568944 221.097392 
L 162.090105 221.449095 
L 162.099343 221.659832 
L 162.325967 221.585749 
L 162.516339 221.64599 
L 162.490784 221.700496 
L 162.758521 221.936675 
L 162.742081 222.173243 
L 163.289588 222.231328 
L 163.557781 222.038831 
L 164.18715 222.476821 
L 164.80883 221.628526 
L 164.942927 220.859402 
L 165.042777 220.840213 
L 165.102639 219.979282 
L 165.043051 219.809813 
L 165.088813 218.897912 
L 165.220752 218.565097 
L 165.559472 218.596921 
L 166.223967 218.52702 
L 166.360282 218.397826 
L 166.398782 217.917404 
L 166.675483 217.657465 
L 166.927783 217.565313 
L 167.038421 217.545909 
L 167.224479 217.248237 
L 167.794624 217.381829 
L 168.132037 217.11374 
L 168.301048 217.284417 
L 168.528461 217.259837 
L 168.966941 217.440993 
L 168.910999 217.660742 
L 169.032333 217.846814 
L 168.954634 218.06928 
L 169.176366 218.309728 
L 170.460506 218.791228 
L 170.92922 218.413652 
L 171.408175 218.619646 
L 171.503285 218.513695 
L 171.779317 218.485795 
L 171.818911 218.601276 
L 172.007521 218.645347 
L 172.071819 218.958844 
L 172.604346 219.159792 
L 172.699182 219.317662 
L 173.000497 219.213177 
L 173.103538 218.910245 
L 173.833577 218.602613 
L 173.972748 218.657033 
L 174.246623 218.623182 
L 174.935671 218.979844 
L 174.938467 218.193342 
L 175.583697 218.330944 
L 175.934359 218.570616 
L 176.068577 218.694808 
L 176.174231 218.586313 
L 176.609216 218.663285 
L 176.797067 218.581267 
L 176.925876 218.266606 
L 177.074193 218.286658 
L 177.112693 218.08433 
L 177.400607 218.072083 
L 177.519054 217.746124 
L 177.721915 217.783252 
L 177.932951 217.701838 
L 178.881835 217.760785 
L 179.117514 217.643149 
L 179.292541 217.416844 
L 179.595162 217.599682 
L 179.861197 217.476827 
L 179.903282 217.331808 
L 180.037713 217.741682 
L 180.067522 217.98558 
L 180.280442 218.087693 
L 180.288069 218.222191 
L 180.513568 218.481052 
L 180.724452 219.076006 
L 181.1 219.342802 
L 181.060103 219.457463 
L 181.355431 219.819084 
L 181.767443 219.766475 
L 181.724385 219.648838 
L 181.824844 219.509468 
L 181.7617 219.353065 
L 181.975653 219.084113 
L 182.150619 219.057852 
L 182.623587 219.17648 
L 182.875371 218.873548 
L 183.142349 219.09209 
L 183.25724 218.771522 
L 183.907728 218.34746 
L 184.064675 218.388469 
L 184.226909 218.301621 
L 184.572831 218.33448 
L 184.952178 217.610936 
L 185.35234 217.781182 
L 185.564986 217.545865 
L 185.758914 217.717189 
L 187.664704 218.105459 
L 188.521912 217.503994 
L 188.765704 217.665356 
L 189.6959 217.739095 
L 189.935499 217.991919 
L 190.408711 218.140647 
L 190.892254 218.639396 
L 191.144767 218.392264 
L 191.380203 218.453109 
L 191.743566 218.387693 
L 192.097966 218.524993 
L 192.100944 218.470616 
L 192.233703 218.421285 
L 192.129994 218.178853 
L 192.056853 217.71762 
L 191.713453 217.801234 
L 191.365009 217.582648 
L 190.88958 217.518224 
L 190.834367 217.348065 
L 191.084935 217.078725 
L 190.929234 216.89399 
L 190.584346 216.661477 
L 190.346752 215.70529 
L 190.528647 215.376183 
L 190.43852 215.285109 
L 191.049717 214.749361 
L 191.008635 214.6021 
L 190.850472 214.465144 
L 190.779398 214.227542 
L 190.625459 214.128922 
L 190.630047 213.995201 
L 190.977245 213.980367 
L 191.096604 213.751907 
L 191.426056 214.061005 
L 191.378744 213.962946 
L 191.508617 213.572907 
L 191.783464 213.213098 
L 191.946458 212.955357 
L 191.865842 212.917108 
L 191.839406 212.713314 
L 191.995198 212.652555 
L 192.08256 212.478126 
L 191.834757 212.380714 
L 191.593517 212.116074 
L 191.65116 211.899817 
L 191.43815 211.595031 
L 191.565379 211.244751 
L 191.749279 211.286752 
L 192.17214 210.988262 
L 193.264814 210.711419 
L 193.428567 210.975541 
L 193.730611 211.117153 
L 194.254295 210.375671 
L 194.183068 210.102579 
L 194.333573 209.677914 
L 194.229833 209.580113 
L 194.377968 209.324529 
L 194.625468 209.210515 
L 194.926083 209.505771 
L 195.189535 209.758552 
L 195.182546 209.935697 
L 195.74239 210.488651 
L 196.075246 210.148418 
L 196.48507 210.326598 
L 196.519772 210.770582 
L 196.659824 210.955963 
L 197.359629 211.655661 
L 197.297823 211.949192 
L 197.47525 212.175841 
L 197.833509 212.346432 
L 198.204165 213.097531 
L 198.058218 213.196625 
L 197.944025 213.44863 
L 197.793247 213.512062 
L 197.856998 213.68179 
L 198.110666 213.873468 
L 198.643405 213.682437 
L 198.629001 213.743972 
L 198.745534 213.990587 
L 198.945843 214.020945 
L 199.654612 214.921289 
L 199.43203 215.100719 
L 198.999172 215.266092 
L 199.273533 216.015897 
L 199.264873 216.529308 
L 199.668407 216.957293 
L 200.196345 216.931851 
L 200.850631 217.29468 
L 200.890711 217.941725 
L 201.03915 218.077301 
L 201.490726 218.209642 
L 201.743634 218.696619 
L 202.04036 218.658973 
L 202.326724 218.806235 
L 202.106846 219.47786 
L 202.44824 220.307268 
L 202.890244 220.615763 
L 203.061139 220.768285 
L 203.252423 220.731459 
L 204.046457 220.918393 
L 204.623955 221.205154 
L 204.72569 221.135598 
L 204.830828 221.322705 
L 204.905336 245.623626 
L 204.997316 295.773676 
L 204.8837 307.781252 
L 204.899502 327.936209 
L 171.257396 328.129223 
L 170.670934 327.944273 
L 154.488943 328.003092 
L 137.955652 328.183428 
L 119.007503 328.519219 
L 113.898654 328.273812 
L 96.97924 328.242721 
L 90.13586 327.930172 
L 81.963763 328.177132 
L 23.753951 328.063851 
L 23.202889 328.001194 
L 23.189701 250.040309 
L 23.344187 249.553375 
L 23.282593 249.36325 
L 23.009083 249.088563 
L 23.03008 248.917153 
L 23.234612 248.607624 
L 23.647081 248.620086 
L 23.673852 248.244537 
L 23.338991 247.967349 
L 23.390223 247.847728 
L 24.078298 247.592532 
L 24.259889 247.636085 
L 24.517416 247.470238 
L 24.489551 246.905987 
L 24.727509 246.269808 
L 24.619515 245.42009 
L 25.167842 245.284902 
L 25.1834 244.682143 
L 24.982301 244.577529 
L 24.96489 244.271837 
L 25.137304 244.051398 
L 25.199991 243.701679 
L 24.836749 243.577315 
L 25.238613 243.216254 
L 25.080359 243.110519 
L 24.883879 243.132512 
L 24.726932 242.841179 
L 24.821738 242.734927 
L 25.019555 242.744672 
L 25.189204 242.506337 
L 25.82149 242.436393 
L 25.965006 242.256531 
L 25.672109 241.645795 
L 25.917572 241.312677 
L 25.939694 240.5953 
L 25.761354 240.273653 
L 24.813838 239.634327 
L 24.781385 237.958175 
L 24.995611 237.84429 
L 25.7272 237.709447 
L 26.013625 237.451578 
L 26.19084 237.008844 
L 26.169782 236.799746 
L 26.605101 236.276029 
L 26.696808 235.728898 
L 26.964545 235.505698 
L 26.992166 235.329459 
L 27.161329 235.112124 
L 27.166616 234.380258 
L 26.954061 234.026657 
L 26.340251 233.686382 
L 26.266107 233.505873 
L 25.960691 233.401604 
L 25.591554 233.517947 
L 24.859721 233.25956 
L 24.798158 232.795525 
L 24.903174 232.242442 
L 24.790744 232.022994 
L 24.851122 231.60277 
L 24.728755 231.292378 
L 24.398999 231.18052 
L 23.03084 231.043996 
L 22.71418 231.296691 
L 22.596736 231.818725 
L 22.436203 231.901563 
L 22.281869 231.809885 
L 22.19551 231.535198 
L 21.618224 230.990093 
L 21.279322 230.630068 
L 21.125383 230.080607 
L 20.832517 229.693976 
L 20.607382 229.662755 
L 20.356844 229.765989 
L 20.022439 230.1446 
L 19.843127 230.537054 
L 19.555943 230.638994 
L 18.822925 230.601823 
L 17.977994 229.957624 
L 17.230694 228.901221 
L 17.411343 228.473882 
L 17.820712 228.267414 
L 18.232573 227.251417 
L 17.840676 226.680999 
L 17.710135 226.448443 
L 17.407818 226.234687 
L 16.854599 225.644347 
L 16.61892 224.708427 
L 17.093377 224.29105 
L 17.335498 223.687342 
L 17.463699 223.345557 
L 17.266915 221.492001 
L 17.150747 221.262161 
L 17.159711 220.965913 
L 17.424197 220.801446 
L 17.650152 220.822964 
L 17.914485 220.548449 
L 18.149769 220.063543 
L 18.232877 219.62745 
L 18.481318 219.214557 
L 19.105764 219.11943 
L 19.464053 218.645735 
L 19.618448 218.236248 
L 19.655854 217.736508 
L 19.494045 217.428832 
L 19.561594 217.24634 
L 19.928331 216.960139 
L 20.208162 216.589549 
L 20.192573 216.159019 
L 20.512028 214.819435 
L 20.710241 214.723402 
L 21.014411 214.137849 
L 21.085911 213.100851 
L 21.227057 212.925345 
L 21.543899 212.711416 
L 21.544628 212.26325 
L 21.594827 211.91767 
L 22.121154 211.293307 
L 22.094171 211.076619 
L 22.227416 210.265796 
L 22.473457 210.175973 
L 22.836122 209.502666 
L 23.105044 209.376621 
L 23.391286 209.3802 
L 23.579623 209.129144 
L 24.032353 209.148937 
L 24.402159 208.896501 
L 24.88321 208.394345 
L 25.721943 208.057994 
L 25.983268 207.963125 
L 26.104815 207.704393 
L 26.010647 207.406852 
L 26.092691 207.061876 
L 26.366171 206.755753 
L 26.862294 205.767699 
L 27.033249 205.686672 
L 27.046467 205.516901 
L 27.046467 205.516901 
" clip-path="url(#p3df6d74c22)" style="fill: none; stroke: #000000; stroke-width: 1.5"/>
   </g>
  </g>
  <g id="axes_2">
   <g id="patch_2">
    <path d="M 231.156236 343.639219 
L 247.788236 343.639219 
L 247.788236 10.999219 
L 231.156236 10.999219 
z
" style="fill: #ffffff"/>
   </g>
   <g id="QuadMesh_1">
    <path d="M 231.156236 343.639219 
L 247.788236 343.639219 
L 247.788236 310.375219 
L 231.156236 310.375219 
L 231.156236 343.639219 
" clip-path="url(#pd2d4fe3917)" style="fill: #1f77b4"/>
    <path d="M 231.156236 310.375219 
L 247.788236 310.375219 
L 247.788236 277.111219 
L 231.156236 277.111219 
L 231.156236 310.375219 
" clip-path="url(#pd2d4fe3917)" style="fill: #ff7f0e"/>
    <path d="M 231.156236 277.111219 
L 247.788236 277.111219 
L 247.788236 243.847219 
L 231.156236 243.847219 
L 231.156236 277.111219 
" clip-path="url(#pd2d4fe3917)" style="fill: #2ca02c"/>
    <path d="M 231.156236 243.847219 
L 247.788236 243.847219 
L 247.788236 210.583219 
L 231.156236 210.583219 
L 231.156236 243.847219 
" clip-path="url(#pd2d4fe3917)" style="fill: #d62728"/>
    <path d="M 231.156236 210.583219 
L 247.788236 210.583219 
L 247.788236 177.319219 
L 231.156236 177.319219 
L 231.156236 210.583219 
" clip-path="url(#pd2d4fe3917)" style="fill: #9467bd"/>
    <path d="M 231.156236 177.319219 
L 247.788236 177.319219 
L 247.788236 144.055219 
L 231.156236 144.055219 
L 231.156236 177.319219 
" clip-path="url(#pd2d4fe3917)" style="fill: #8c564b"/>
    <path d="M 231.156236 144.055219 
L 247.788236 144.055219 
L 247.788236 110.791219 
L 231.156236 110.791219 
L 231.156236 144.055219 
" clip-path="url(#pd2d4fe3917)" style="fill: #e377c2"/>
    <path d="M 231.156236 110.791219 
L 247.788236 110.791219 
L 247.788236 77.527219 
L 231.156236 77.527219 
L 231.156236 110.791219 
" clip-path="url(#pd2d4fe3917)" style="fill: #7f7f7f"/>
    <path d="M 231.156236 77.527219 
L 247.788236 77.527219 
L 247.788236 44.263219 
L 231.156236 44.263219 
L 231.156236 77.527219 
" clip-path="url(#pd2d4fe3917)" style="fill: #bcbd22"/>
    <path d="M 231.156236 44.263219 
L 247.788236 44.263219 
L 247.788236 10.999219 
L 231.156236 10.999219 
L 231.156236 44.263219 
" clip-path="url(#pd2d4fe3917)" style="fill: #17becf"/>
   </g>
   <g id="matplotlib.axis_1"/>
   <g id="matplotlib.axis_2">
    <g id="ytick_1">
     <g id="line2d_1">
      <defs>
       <path id="mea242b1472" d="M 0 0 
L 3.5 0 
" style="stroke: #000000; stroke-width: 0.8"/>
      </defs>
      <g>
       <use xlink:href="#mea242b1472" x="247.788236" y="343.639219" style="stroke: #000000; stroke-width: 0.8"/>
      </g>
     </g>
     <g id="text_1">
      <!-- 1.0 -->
      <g transform="translate(254.788236 347.438437) scale(0.1 -0.1)">
       <defs>
        <path id="DejaVuSans-2212" d="M 678 2272 
L 4684 2272 
L 4684 1741 
L 678 1741 
L 678 2272 
z
" transform="scale(0.015625)"/>
        <path id="DejaVuSans-31" d="M 794 531 
L 1825 531 
L 1825 4091 
L 703 3866 
L 703 4441 
L 1819 4666 
L 2450 4666 
L 2450 531 
L 3481 531 
L 3481 0 
L 794 0 
L 794 531 
z
" transform="scale(0.015625)"/>
        <path id="DejaVuSans-2e" d="M 684 794 
L 1344 794 
L 1344 0 
L 684 0 
L 684 794 
z
" transform="scale(0.015625)"/>
        <path id="DejaVuSans-30" d="M 2034 4250 
Q 1547 4250 1301 3770 
Q 1056 3291 1056 2328 
Q 1056 1369 1301 889 
Q 1547 409 2034 409 
Q 2525 409 2770 889 
Q 3016 1369 3016 2328 
Q 3016 3291 2770 3770 
Q 2525 4250 2034 4250 
z
M 2034 4750 
Q 2819 4750 3233 4129 
Q 3647 3509 3647 2328 
Q 3647 1150 3233 529 
Q 2819 -91 2034 -91 
Q 1250 -91 836 529 
Q 422 1150 422 2328 
Q 422 3509 836 4129 
Q 1250 4750 2034 4750 
z
" transform="scale(0.015625)"/>
       </defs>
       <use xlink:href="#DejaVuSans-2212"/>
       <use xlink:href="#DejaVuSans-31" transform="translate(83.789062 0)"/>
       <use xlink:href="#DejaVuSans-2e" transform="translate(147.412109 0)"/>
       <use xlink:href="#DejaVuSans-30" transform="translate(179.199219 0)"/>
      </g>
     </g>
    </g>
    <g id="ytick_2">
     <g id="line2d_2">
      <g>
       <use xlink:href="#mea242b1472" x="247.788236" y="302.059219" style="stroke: #000000; stroke-width: 0.8"/>
      </g>
     </g>
     <g id="text_2">
      <!-- 0.5 -->
      <g transform="translate(254.788236 305.858437) scale(0.1 -0.1)">
       <defs>
        <path id="DejaVuSans-35" d="M 691 4666 
L 3169 4666 
L 3169 4134 
L 1269 4134 
L 1269 2991 
Q 1406 3038 1543 3061 
Q 1681 3084 1819 3084 
Q 2600 3084 3056 2656 
Q 3513 2228 3513 1497 
Q 3513 744 3044 326 
Q 2575 -91 1722 -91 
Q 1428 -91 1123 -41 
Q 819 9 494 109 
L 494 744 
Q 775 591 1075 516 
Q 1375 441 1709 441 
Q 2250 441 2565 725 
Q 2881 1009 2881 1497 
Q 2881 1984 2565 2268 
Q 2250 2553 1709 2553 
Q 1456 2553 1204 2497 
Q 953 2441 691 2322 
L 691 4666 
z
" transform="scale(0.015625)"/>
       </defs>
       <use xlink:href="#DejaVuSans-2212"/>
       <use xlink:href="#DejaVuSans-30" transform="translate(83.789062 0)"/>
       <use xlink:href="#DejaVuSans-2e" transform="translate(147.412109 0)"/>
       <use xlink:href="#DejaVuSans-35" transform="translate(179.199219 0)"/>
      </g>
     </g>
    </g>
    <g id="ytick_3">
     <g id="line2d_3">
      <g>
       <use xlink:href="#mea242b1472" x="247.788236" y="260.479219" style="stroke: #000000; stroke-width: 0.8"/>
      </g>
     </g>
     <g id="text_3">
      <!-- 0.0 -->
      <g transform="translate(254.788236 264.278437) scale(0.1 -0.1)">
       <use xlink:href="#DejaVuSans-30"/>
       <use xlink:href="#DejaVuSans-2e" transform="translate(63.623047 0)"/>
       <use xlink:href="#DejaVuSans-30" transform="translate(95.410156 0)"/>
      </g>
     </g>
    </g>
    <g id="ytick_4">
     <g id="line2d_4">
      <g>
       <use xlink:href="#mea242b1472" x="247.788236" y="218.899219" style="stroke: #000000; stroke-width: 0.8"/>
      </g>
     </g>
     <g id="text_4">
      <!-- 0.5 -->
      <g transform="translate(254.788236 222.698437) scale(0.1 -0.1)">
       <use xlink:href="#DejaVuSans-30"/>
       <use xlink:href="#DejaVuSans-2e" transform="translate(63.623047 0)"/>
       <use xlink:href="#DejaVuSans-35" transform="translate(95.410156 0)"/>
      </g>
     </g>
    </g>
    <g id="ytick_5">
     <g id="line2d_5">
      <g>
       <use xlink:href="#mea242b1472" x="247.788236" y="177.319219" style="stroke: #000000; stroke-width: 0.8"/>
      </g>
     </g>
     <g id="text_5">
      <!-- 1.0 -->
      <g transform="translate(254.788236 181.118437) scale(0.1 -0.1)">
       <use xlink:href="#DejaVuSans-31"/>
       <use xlink:href="#DejaVuSans-2e" transform="translate(63.623047 0)"/>
       <use xlink:href="#DejaVuSans-30" transform="translate(95.410156 0)"/>
      </g>
     </g>
    </g>
    <g id="ytick_6">
     <g id="line2d_6">
      <g>
       <use xlink:href="#mea242b1472" x="247.788236" y="135.739219" style="stroke: #000000; stroke-width: 0.8"/>
      </g>
     </g>
     <g id="text_6">
      <!-- 1.5 -->
      <g transform="translate(254.788236 139.538437) scale(0.1 -0.1)">
       <use xlink:href="#DejaVuSans-31"/>
       <use xlink:href="#DejaVuSans-2e" transform="translate(63.623047 0)"/>
       <use xlink:href="#DejaVuSans-35" transform="translate(95.410156 0)"/>
      </g>
     </g>
    </g>
    <g id="ytick_7">
     <g id="line2d_7">
      <g>
       <use xlink:href="#mea242b1472" x="247.788236" y="94.159219" style="stroke: #000000; stroke-width: 0.8"/>
      </g>
     </g>
     <g id="text_7">
      <!-- 2.0 -->
      <g transform="translate(254.788236 97.958437) scale(0.1 -0.1)">
       <defs>
        <path id="DejaVuSans-32" d="M 1228 531 
L 3431 531 
L 3431 0 
L 469 0 
L 469 531 
Q 828 903 1448 1529 
Q 2069 2156 2228 2338 
Q 2531 2678 2651 2914 
Q 2772 3150 2772 3378 
Q 2772 3750 2511 3984 
Q 2250 4219 1831 4219 
Q 1534 4219 1204 4116 
Q 875 4013 500 3803 
L 500 4441 
Q 881 4594 1212 4672 
Q 1544 4750 1819 4750 
Q 2544 4750 2975 4387 
Q 3406 4025 3406 3419 
Q 3406 3131 3298 2873 
Q 3191 2616 2906 2266 
Q 2828 2175 2409 1742 
Q 1991 1309 1228 531 
z
" transform="scale(0.015625)"/>
       </defs>
       <use xlink:href="#DejaVuSans-32"/>
       <use xlink:href="#DejaVuSans-2e" transform="translate(63.623047 0)"/>
       <use xlink:href="#DejaVuSans-30" transform="translate(95.410156 0)"/>
      </g>
     </g>
    </g>
    <g id="ytick_8">
     <g id="line2d_8">
      <g>
       <use xlink:href="#mea242b1472" x="247.788236" y="52.579219" style="stroke: #000000; stroke-width: 0.8"/>
      </g>
     </g>
     <g id="text_8">
      <!-- 2.5 -->
      <g transform="translate(254.788236 56.378437) scale(0.1 -0.1)">
       <use xlink:href="#DejaVuSans-32"/>
       <use xlink:href="#DejaVuSans-2e" transform="translate(63.623047 0)"/>
       <use xlink:href="#DejaVuSans-35" transform="translate(95.410156 0)"/>
      </g>
     </g>
    </g>
    <g id="ytick_9">
     <g id="line2d_9">
      <g>
       <use xlink:href="#mea242b1472" x="247.788236" y="10.999219" style="stroke: #000000; stroke-width: 0.8"/>
      </g>
     </g>
     <g id="text_9">
      <!-- 3.0 -->
      <g transform="translate(254.788236 14.798437) scale(0.1 -0.1)">
       <defs>
        <path id="DejaVuSans-33" d="M 2597 2516 
Q 3050 2419 3304 2112 
Q 3559 1806 3559 1356 
Q 3559 666 3084 287 
Q 2609 -91 1734 -91 
Q 1441 -91 1130 -33 
Q 819 25 488 141 
L 488 750 
Q 750 597 1062 519 
Q 1375 441 1716 441 
Q 2309 441 2620 675 
Q 2931 909 2931 1356 
Q 2931 1769 2642 2001 
Q 2353 2234 1838 2234 
L 1294 2234 
L 1294 2753 
L 1863 2753 
Q 2328 2753 2575 2939 
Q 2822 3125 2822 3475 
Q 2822 3834 2567 4026 
Q 2313 4219 1838 4219 
Q 1578 4219 1281 4162 
Q 984 4106 628 3988 
L 628 4550 
Q 988 4650 1302 4700 
Q 1616 4750 1894 4750 
Q 2613 4750 3031 4423 
Q 3450 4097 3450 3541 
Q 3450 3153 3228 2886 
Q 3006 2619 2597 2516 
z
" transform="scale(0.015625)"/>
       </defs>
       <use xlink:href="#DejaVuSans-33"/>
       <use xlink:href="#DejaVuSans-2e" transform="translate(63.623047 0)"/>
       <use xlink:href="#DejaVuSans-30" transform="translate(95.410156 0)"/>
      </g>
     </g>
    </g>
   </g>
   <g id="LineCollection_2"/>
   <g id="patch_3">
    <path d="M 231.156236 343.639219 
L 239.472236 343.639219 
L 247.788236 343.639219 
L 247.788236 10.999219 
L 239.472236 10.999219 
L 231.156236 10.999219 
L 231.156236 343.639219 
z
" style="fill: none; stroke: #000000; stroke-width: 0.8; stroke-linejoin: miter; stroke-linecap: square"/>
   </g>
  </g>
 </g>
 <defs>
  <clipPath id="p3df6d74c22">
   <rect x="7.2" y="10.999219" width="207.216236" height="332.64"/>
  </clipPath>
  <clipPath id="pd2d4fe3917">
   <rect x="231.156236" y="10.999219" width="16.632" height="332.64"/>
  </clipPath>
 </defs>
</svg>
