<?xml version="1.0" encoding="utf-8" standalone="no"?>
<!DOCTYPE svg PUBLIC "-//W3C//DTD SVG 1.1//EN"
  "http://www.w3.org/Graphics/SVG/1.1/DTD/svg11.dtd">
<svg xmlns:xlink="http://www.w3.org/1999/xlink" width="346.894812pt" height="356.718125pt" viewBox="0 0 346.894812 356.718125" xmlns="http://www.w3.org/2000/svg" version="1.1">
 <metadata>
  <rdf:RDF xmlns:dc="http://purl.org/dc/elements/1.1/" xmlns:cc="http://creativecommons.org/ns#" xmlns:rdf="http://www.w3.org/1999/02/22-rdf-syntax-ns#">
   <cc:Work>
    <dc:type rdf:resource="http://purl.org/dc/dcmitype/StillImage"/>
    <dc:date>2025-03-08T18:34:35.459093</dc:date>
    <dc:format>image/svg+xml</dc:format>
    <dc:creator>
     <cc:Agent>
      <dc:title>Matplotlib v3.10.1, https://matplotlib.org/</dc:title>
     </cc:Agent>
    </dc:creator>
   </cc:Work>
  </rdf:RDF>
 </metadata>
 <defs>
  <style type="text/css">*{stroke-linejoin: round; stroke-linecap: butt}</style>
 </defs>
 <g id="figure_1">
  <g id="patch_1">
   <path d="M 0 356.718125 
L 346.894812 356.718125 
L 346.894812 0 
L 0 0 
z
" style="fill: #ffffff"/>
  </g>
  <g id="axes_1">
   <g id="PathCollection_1">
    <defs>
     <path id="C0_0_c93d102236" d="M 0 1.414214 
C 0.375054 1.414214 0.734797 1.265203 1 1 
C 1.265203 0.734797 1.414214 0.375054 1.414214 -0 
C 1.414214 -0.375054 1.265203 -0.734797 1 -1 
C 0.734797 -1.265203 0.375054 -1.414214 0 -1.414214 
C -0.375054 -1.414214 -0.734797 -1.265203 -1 -1 
C -1.265203 -0.734797 -1.414214 -0.375054 -1.414214 0 
C -1.414214 0.375054 -1.265203 0.734797 -1 1 
C -0.734797 1.265203 -0.375054 1.414214 0 1.414214 
z
"/>
    </defs>
    <g clip-path="url(#p27809f8a85)">
     <use xlink:href="#C0_0_c93d102236" x="100.397558" y="231.923394" style="fill: #1f77b4; fill-opacity: 0.75; stroke: #1f77b4; stroke-opacity: 0.75"/>
    </g>
    <g clip-path="url(#p27809f8a85)">
     <use xlink:href="#C0_0_c93d102236" x="98.342428" y="150.346777" style="fill: #d62728; fill-opacity: 0.75; stroke: #d62728; stroke-opacity: 0.75"/>
    </g>
    <g clip-path="url(#p27809f8a85)">
     <use xlink:href="#C0_0_c93d102236" x="209.420953" y="114.76876" style="fill: #e377c2; fill-opacity: 0.75; stroke: #e377c2; stroke-opacity: 0.75"/>
    </g>
    <g clip-path="url(#p27809f8a85)">
     <use xlink:href="#C0_0_c93d102236" x="183.59879" y="208.381024" style="fill: #17becf; fill-opacity: 0.75; stroke: #17becf; stroke-opacity: 0.75"/>
    </g>
    <g clip-path="url(#p27809f8a85)">
     <use xlink:href="#C0_0_c93d102236" x="116.914227" y="223.111146" style="fill: #1f77b4; fill-opacity: 0.75; stroke: #1f77b4; stroke-opacity: 0.75"/>
    </g>
    <g clip-path="url(#p27809f8a85)">
     <use xlink:href="#C0_0_c93d102236" x="253.882064" y="158.085166" style="fill: #17becf; fill-opacity: 0.75; stroke: #17becf; stroke-opacity: 0.75"/>
    </g>
    <g clip-path="url(#p27809f8a85)">
     <use xlink:href="#C0_0_c93d102236" x="180.744018" y="116.288477" style="fill: #e377c2; fill-opacity: 0.75; stroke: #e377c2; stroke-opacity: 0.75"/>
    </g>
    <g clip-path="url(#p27809f8a85)">
     <use xlink:href="#C0_0_c93d102236" x="239.373358" y="131.417078" style="fill: #1f77b4; fill-opacity: 0.75; stroke: #1f77b4; stroke-opacity: 0.75"/>
    </g>
    <g clip-path="url(#p27809f8a85)">
     <use xlink:href="#C0_0_c93d102236" x="83.957506" y="141.476876" style="fill: #d62728; fill-opacity: 0.75; stroke: #d62728; stroke-opacity: 0.75"/>
    </g>
    <g clip-path="url(#p27809f8a85)">
     <use xlink:href="#C0_0_c93d102236" x="72.483842" y="164.014253" style="fill: #d62728; fill-opacity: 0.75; stroke: #d62728; stroke-opacity: 0.75"/>
    </g>
    <g clip-path="url(#p27809f8a85)">
     <use xlink:href="#C0_0_c93d102236" x="135.979065" y="126.240805" style="fill: #e377c2; fill-opacity: 0.75; stroke: #e377c2; stroke-opacity: 0.75"/>
    </g>
    <g clip-path="url(#p27809f8a85)">
     <use xlink:href="#C0_0_c93d102236" x="25.941835" y="121.571934" style="fill: #1f77b4; fill-opacity: 0.75; stroke: #1f77b4; stroke-opacity: 0.75"/>
    </g>
    <g clip-path="url(#p27809f8a85)">
     <use xlink:href="#C0_0_c93d102236" x="166.796158" y="186.694981" style="fill: #17becf; fill-opacity: 0.75; stroke: #17becf; stroke-opacity: 0.75"/>
    </g>
    <g clip-path="url(#p27809f8a85)">
     <use xlink:href="#C0_0_c93d102236" x="246.945077" y="135.604537" style="fill: #1f77b4; fill-opacity: 0.75; stroke: #1f77b4; stroke-opacity: 0.75"/>
    </g>
    <g clip-path="url(#p27809f8a85)">
     <use xlink:href="#C0_0_c93d102236" x="237.291204" y="217.379916" style="fill: #17becf; fill-opacity: 0.75; stroke: #17becf; stroke-opacity: 0.75"/>
    </g>
    <g clip-path="url(#p27809f8a85)">
     <use xlink:href="#C0_0_c93d102236" x="210.046455" y="133.185413" style="fill: #e377c2; fill-opacity: 0.75; stroke: #e377c2; stroke-opacity: 0.75"/>
    </g>
    <g clip-path="url(#p27809f8a85)">
     <use xlink:href="#C0_0_c93d102236" x="54.668311" y="148.358057" style="fill: #d62728; fill-opacity: 0.75; stroke: #d62728; stroke-opacity: 0.75"/>
    </g>
    <g clip-path="url(#p27809f8a85)">
     <use xlink:href="#C0_0_c93d102236" x="219.591206" y="185.81175" style="fill: #17becf; fill-opacity: 0.75; stroke: #17becf; stroke-opacity: 0.75"/>
    </g>
    <g clip-path="url(#p27809f8a85)">
     <use xlink:href="#C0_0_c93d102236" x="123.466969" y="119.45474" style="fill: #1f77b4; fill-opacity: 0.75; stroke: #1f77b4; stroke-opacity: 0.75"/>
    </g>
    <g clip-path="url(#p27809f8a85)">
     <use xlink:href="#C0_0_c93d102236" x="98.46037" y="125.518911" style="fill: #d62728; fill-opacity: 0.75; stroke: #d62728; stroke-opacity: 0.75"/>
    </g>
    <g clip-path="url(#p27809f8a85)">
     <use xlink:href="#C0_0_c93d102236" x="204.755886" y="212.126583" style="fill: #17becf; fill-opacity: 0.75; stroke: #17becf; stroke-opacity: 0.75"/>
    </g>
    <g clip-path="url(#p27809f8a85)">
     <use xlink:href="#C0_0_c93d102236" x="160.85623" y="128.002775" style="fill: #e377c2; fill-opacity: 0.75; stroke: #e377c2; stroke-opacity: 0.75"/>
    </g>
    <g clip-path="url(#p27809f8a85)">
     <use xlink:href="#C0_0_c93d102236" x="182.687639" y="202.277993" style="fill: #17becf; fill-opacity: 0.75; stroke: #17becf; stroke-opacity: 0.75"/>
    </g>
    <g clip-path="url(#p27809f8a85)">
     <use xlink:href="#C0_0_c93d102236" x="152.805039" y="110.228125" style="fill: #1f77b4; fill-opacity: 0.75; stroke: #1f77b4; stroke-opacity: 0.75"/>
    </g>
    <g clip-path="url(#p27809f8a85)">
     <use xlink:href="#C0_0_c93d102236" x="118.788235" y="193.988244" style="fill: #1f77b4; fill-opacity: 0.75; stroke: #1f77b4; stroke-opacity: 0.75"/>
    </g>
    <g clip-path="url(#p27809f8a85)">
     <use xlink:href="#C0_0_c93d102236" x="166.744547" y="144.305841" style="fill: #e377c2; fill-opacity: 0.75; stroke: #e377c2; stroke-opacity: 0.75"/>
    </g>
    <g clip-path="url(#p27809f8a85)">
     <use xlink:href="#C0_0_c93d102236" x="214.546339" y="215.836338" style="fill: #17becf; fill-opacity: 0.75; stroke: #17becf; stroke-opacity: 0.75"/>
    </g>
    <g clip-path="url(#p27809f8a85)">
     <use xlink:href="#C0_0_c93d102236" x="65.963246" y="176.508911" style="fill: #d62728; fill-opacity: 0.75; stroke: #d62728; stroke-opacity: 0.75"/>
    </g>
    <g clip-path="url(#p27809f8a85)">
     <use xlink:href="#C0_0_c93d102236" x="48.460854" y="166.50166" style="fill: #d62728; fill-opacity: 0.75; stroke: #d62728; stroke-opacity: 0.75"/>
    </g>
    <g clip-path="url(#p27809f8a85)">
     <use xlink:href="#C0_0_c93d102236" x="84.027292" y="169.998286" style="fill: #d62728; fill-opacity: 0.75; stroke: #d62728; stroke-opacity: 0.75"/>
    </g>
    <g clip-path="url(#p27809f8a85)">
     <use xlink:href="#C0_0_c93d102236" x="160.531203" y="196.192079" style="fill: #17becf; fill-opacity: 0.75; stroke: #17becf; stroke-opacity: 0.75"/>
    </g>
    <g clip-path="url(#p27809f8a85)">
     <use xlink:href="#C0_0_c93d102236" x="87.054699" y="139.685208" style="fill: #d62728; fill-opacity: 0.75; stroke: #d62728; stroke-opacity: 0.75"/>
    </g>
    <g clip-path="url(#p27809f8a85)">
     <use xlink:href="#C0_0_c93d102236" x="149.202733" y="157.502554" style="fill: #e377c2; fill-opacity: 0.75; stroke: #e377c2; stroke-opacity: 0.75"/>
    </g>
    <g clip-path="url(#p27809f8a85)">
     <use xlink:href="#C0_0_c93d102236" x="89.892081" y="178.724048" style="fill: #d62728; fill-opacity: 0.75; stroke: #d62728; stroke-opacity: 0.75"/>
    </g>
    <g clip-path="url(#p27809f8a85)">
     <use xlink:href="#C0_0_c93d102236" x="237.429614" y="173.586975" style="fill: #17becf; fill-opacity: 0.75; stroke: #17becf; stroke-opacity: 0.75"/>
    </g>
    <g clip-path="url(#p27809f8a85)">
     <use xlink:href="#C0_0_c93d102236" x="205.436839" y="115.467258" style="fill: #e377c2; fill-opacity: 0.75; stroke: #e377c2; stroke-opacity: 0.75"/>
    </g>
    <g clip-path="url(#p27809f8a85)">
     <use xlink:href="#C0_0_c93d102236" x="259.566381" y="171.447043" style="fill: #17becf; fill-opacity: 0.75; stroke: #17becf; stroke-opacity: 0.75"/>
    </g>
    <g clip-path="url(#p27809f8a85)">
     <use xlink:href="#C0_0_c93d102236" x="84.650735" y="204.041867" style="fill: #d62728; fill-opacity: 0.75; stroke: #d62728; stroke-opacity: 0.75"/>
    </g>
    <g clip-path="url(#p27809f8a85)">
     <use xlink:href="#C0_0_c93d102236" x="60.466064" y="121.356864" style="fill: #d62728; fill-opacity: 0.75; stroke: #d62728; stroke-opacity: 0.75"/>
    </g>
    <g clip-path="url(#p27809f8a85)">
     <use xlink:href="#C0_0_c93d102236" x="162.588632" y="214.855263" style="fill: #17becf; fill-opacity: 0.75; stroke: #17becf; stroke-opacity: 0.75"/>
    </g>
    <g clip-path="url(#p27809f8a85)">
     <use xlink:href="#C0_0_c93d102236" x="199.626682" y="112.198043" style="fill: #e377c2; fill-opacity: 0.75; stroke: #e377c2; stroke-opacity: 0.75"/>
    </g>
    <g clip-path="url(#p27809f8a85)">
     <use xlink:href="#C0_0_c93d102236" x="82.814576" y="112.771799" style="fill: #d62728; fill-opacity: 0.75; stroke: #d62728; stroke-opacity: 0.75"/>
    </g>
    <g clip-path="url(#p27809f8a85)">
     <use xlink:href="#C0_0_c93d102236" x="233.49252" y="198.122484" style="fill: #17becf; fill-opacity: 0.75; stroke: #17becf; stroke-opacity: 0.75"/>
    </g>
    <g clip-path="url(#p27809f8a85)">
     <use xlink:href="#C0_0_c93d102236" x="39.900849" y="138.285412" style="fill: #d62728; fill-opacity: 0.75; stroke: #d62728; stroke-opacity: 0.75"/>
    </g>
    <g clip-path="url(#p27809f8a85)">
     <use xlink:href="#C0_0_c93d102236" x="74.560049" y="188.797254" style="fill: #d62728; fill-opacity: 0.75; stroke: #d62728; stroke-opacity: 0.75"/>
    </g>
    <g clip-path="url(#p27809f8a85)">
     <use xlink:href="#C0_0_c93d102236" x="187.244101" y="178.103574" style="fill: #17becf; fill-opacity: 0.75; stroke: #17becf; stroke-opacity: 0.75"/>
    </g>
    <g clip-path="url(#p27809f8a85)">
     <use xlink:href="#C0_0_c93d102236" x="257.740564" y="209.974753" style="fill: #17becf; fill-opacity: 0.75; stroke: #17becf; stroke-opacity: 0.75"/>
    </g>
    <g clip-path="url(#p27809f8a85)">
     <use xlink:href="#C0_0_c93d102236" x="45.446956" y="119.063299" style="fill: #d62728; fill-opacity: 0.75; stroke: #d62728; stroke-opacity: 0.75"/>
    </g>
    <g clip-path="url(#p27809f8a85)">
     <use xlink:href="#C0_0_c93d102236" x="148.99805" y="227.531703" style="fill: #1f77b4; fill-opacity: 0.75; stroke: #1f77b4; stroke-opacity: 0.75"/>
    </g>
    <g clip-path="url(#p27809f8a85)">
     <use xlink:href="#C0_0_c93d102236" x="185.740473" y="214.168196" style="fill: #17becf; fill-opacity: 0.75; stroke: #17becf; stroke-opacity: 0.75"/>
    </g>
   </g>
   <g id="LineCollection_1">
    <path d="M 27.882342 153.582756 
L 27.778636 153.523242 
L 27.24293 153.63503 
L 27.103174 153.309515 
L 26.731209 153.424626 
L 26.654934 152.955223 
L 26.480427 152.910395 
L 26.227172 152.28304 
L 26.545976 152.155646 
L 26.322201 151.939279 
L 26.222225 152.017454 
L 25.325016 151.555764 
L 25.34744 151.421636 
L 26.700918 150.15049 
L 26.513536 149.905583 
L 26.478136 149.65578 
L 26.616959 149.499876 
L 26.584458 149.471365 
L 26.565359 149.306115 
L 26.297162 148.981135 
L 25.847219 148.767378 
L 25.712511 148.414599 
L 25.918931 147.824329 
L 25.879294 147.586957 
L 25.993523 147.189112 
L 25.601425 146.703332 
L 25.246856 146.474385 
L 24.963675 146.52307 
L 24.74438 146.155338 
L 24.810396 145.7631 
L 24.475939 145.343301 
L 24.331764 145.31933 
L 23.918478 145.490483 
L 23.706989 145.220239 
L 23.666155 144.823759 
L 23.465129 144.519724 
L 23.465636 143.975409 
L 23.364585 143.25104 
L 22.990937 143.040251 
L 22.772879 142.605618 
L 22.369305 142.798903 
L 22.00393 142.373141 
L 21.627078 141.671647 
L 21.011123 141.132969 
L 20.98651 140.683709 
L 20.726158 140.646803 
L 20.681411 140.441442 
L 20.504532 140.340038 
L 20.408165 139.969191 
L 20.235199 139.824887 
L 20.218472 139.604099 
L 19.754114 138.956273 
L 19.589521 138.99407 
L 19.374545 138.830986 
L 19.374992 108.451062 
L 67.108756 108.550538 
L 167.349731 108.504197 
L 262.683081 108.488236 
L 262.759497 165.048877 
L 262.724868 170.523591 
L 262.865455 227.204536 
L 224.881148 227.140216 
L 224.576516 227.340504 
L 220.561396 227.347001 
L 193.194136 227.10503 
L 160.659041 227.163891 
L 160.202286 226.974759 
L 145.554914 227.051628 
L 139.875622 227.042461 
L 138.305424 227.237675 
L 133.765952 227.16223 
L 132.98279 227.334718 
L 127.736977 227.379457 
L 126.000565 227.121081 
L 120.639104 227.118945 
L 120.614247 242.669519 
L 119.457457 242.26402 
L 119.412365 242.163683 
L 119.096115 241.977281 
L 118.934747 241.481146 
L 119.081457 241.019071 
L 118.890385 240.917755 
L 118.6924 240.943655 
L 118.523651 240.608617 
L 118.1233 240.424291 
L 118.080581 240.35291 
L 118.074843 239.927237 
L 117.659996 239.729501 
L 117.130008 239.706034 
L 117.030417 239.326227 
L 116.978756 238.853738 
L 116.861202 238.583465 
L 117.298534 238.346241 
L 117.195435 238.268155 
L 116.623822 237.493915 
L 116.268361 237.625344 
L 116.056568 237.376698 
L 116.157173 237.333057 
L 116.335775 237.011458 
L 115.718381 236.226449 
L 115.738555 235.980236 
L 115.206863 235.490569 
L 115.183709 235.185109 
L 114.91026 235.062522 
L 114.588617 235.270968 
L 113.942919 234.417248 
L 113.777779 234.49569 
L 113.748158 234.738817 
L 113.676627 235.346146 
L 113.546806 235.422986 
L 113.345841 235.729009 
L 113.144307 235.63158 
L 113.035045 235.449865 
L 112.684855 235.531362 
L 112.305976 235.640332 
L 111.816234 236.057787 
L 111.958361 236.267479 
L 111.9199 236.416263 
L 112.187915 236.78536 
L 112.083965 236.827162 
L 112.032791 237.274077 
L 111.798067 237.541325 
L 111.808164 237.754369 
L 111.703525 237.699424 
L 111.588342 237.54171 
L 111.508702 237.69889 
L 111.446641 237.661805 
L 111.273979 237.801096 
L 111.424115 238.032415 
L 111.557058 238.227956 
L 111.149247 238.596548 
L 111.209382 238.659206 
L 111.088016 238.885631 
L 111.215668 238.961936 
L 111.111454 239.084761 
L 111.246546 239.543484 
L 111.580557 239.83055 
L 111.479831 239.940647 
L 111.450209 240.132924 
L 111.767432 240.177247 
L 112.094569 240.366587 
L 112.105173 240.309061 
L 112.25685 240.350923 
L 112.277855 240.587434 
L 112.256485 240.825577 
L 112.020018 240.731115 
L 111.275742 240.858627 
L 111.129357 240.561148 
L 110.813614 240.458824 
L 110.653746 240.284882 
L 110.334171 240.343239 
L 110.301914 240.275359 
L 109.737113 240.167902 
L 109.737924 240.24041 
L 109.222615 240.483983 
L 108.539266 240.345256 
L 108.378627 240.418773 
L 108.291728 240.325794 
L 107.488575 240.196709 
L 107.235461 240.694505 
L 106.791682 240.703435 
L 106.280995 241.215738 
L 106.102859 241.065382 
L 105.820205 241.281067 
L 105.502537 241.21025 
L 105.334883 241.598779 
L 105.363612 241.679713 
L 105.309113 241.64064 
L 105.088704 241.715907 
L 104.667693 241.204672 
L 104.371435 240.524716 
L 104.229368 240.454463 
L 104.119781 240.00467 
L 104.091701 240.104443 
L 103.914193 240.188966 
L 103.653781 240.083853 
L 103.59549 240.218871 
L 103.438237 240.299805 
L 102.528944 240.289718 
L 102.449912 240.513977 
L 102.257806 240.522402 
L 102.133156 240.647808 
L 101.92187 240.920722 
L 100.995038 240.64318 
L 100.807089 240.597402 
L 100.804798 240.939739 
L 100.805224 241.138513 
L 100.702673 241.011476 
L 100.579847 241.021741 
L 100.162729 240.91642 
L 100.06987 240.878979 
L 99.831132 240.977565 
L 99.582763 241.090629 
L 99.51401 241.299045 
L 99.312963 241.37093 
L 99.249685 241.262317 
L 98.894366 241.124065 
L 98.807203 240.861653 
L 98.45156 240.890698 
L 98.131985 240.748975 
L 97.746577 241.003525 
L 96.814475 240.512048 
L 96.861249 240.274409 
L 96.78536 240.230976 
L 96.822686 240.079789 
L 96.26561 239.85464 
L 96.215267 239.956044 
L 96.040476 240.039085 
L 95.571536 240.028701 
L 95.424137 240.232667 
L 95.293748 240.228721 
L 95.109124 240.407558 
L 94.992482 240.826972 
L 94.323103 240.853168 
L 94.205548 241.390363 
L 94.137728 242.431643 
L 94.080188 242.565474 
L 93.973703 242.990554 
L 93.633448 243.544422 
L 93.559242 243.453312 
L 93.213512 243.243086 
L 93.034565 243.375523 
L 92.680219 243.172803 
L 92.391604 242.931367 
L 92.240393 242.982336 
L 92.136626 242.71945 
L 92.055141 242.724642 
L 91.886493 242.595379 
L 91.319705 243.085817 
L 91.11578 242.907573 
L 91.051082 242.71939 
L 90.606066 242.622495 
L 90.487011 242.462645 
L 89.602534 242.538832 
L 89.265584 242.256929 
L 88.714753 242.491156 
L 88.629253 242.245329 
L 88.053565 242.396813 
L 87.845989 242.237289 
L 87.582678 242.193381 
L 87.425019 241.981404 
L 87.104877 241.88531 
L 86.914191 241.854397 
L 86.577382 241.996327 
L 86.404639 242.327153 
L 86.268857 242.273869 
L 85.65197 242.508423 
L 85.496948 242.760451 
L 85.132423 243.286727 
L 85.093982 243.371933 
L 85.020404 243.321557 
L 84.9685 243.346389 
L 84.881439 243.552017 
L 84.703566 243.668463 
L 84.705249 243.996915 
L 84.441451 244.214735 
L 84.995344 245.173272 
L 85.002704 245.626091 
L 84.49741 246.072532 
L 84.123924 246.128248 
L 83.954669 245.843852 
L 83.771666 245.774667 
L 83.434453 244.771778 
L 83.184746 244.981736 
L 82.926381 244.86894 
L 82.68742 244.633437 
L 82.587099 244.547994 
L 82.301911 244.513846 
L 82.142489 244.286947 
L 82.167447 244.205657 
L 81.944422 244.258021 
L 81.576492 243.930162 
L 81.417434 243.66247 
L 81.103861 243.380685 
L 80.789984 242.46487 
L 80.651364 242.114316 
L 80.873294 241.805118 
L 80.871935 241.506868 
L 81.083343 241.39241 
L 81.062825 241.21645 
L 80.875119 241.108222 
L 80.661157 240.837415 
L 80.607914 240.881827 
L 80.520205 240.868625 
L 80.228062 240.566103 
L 80.286819 240.312888 
L 80.439267 240.059615 
L 80.288076 239.95735 
L 79.833389 239.635573 
L 79.932777 239.422736 
L 79.4051 239.024387 
L 79.907981 238.470638 
L 80.016249 238.480725 
L 80.184755 238.159987 
L 80.102905 237.849454 
L 79.89685 237.449859 
L 79.816459 237.303419 
L 79.821366 236.676983 
L 79.531514 236.523215 
L 79.530399 236.295129 
L 79.211656 236.081195 
L 79.228079 236.004178 
L 79.130941 235.836258 
L 79.134915 235.17345 
L 78.82637 235.082904 
L 78.756928 234.684347 
L 78.402846 234.264103 
L 78.508803 233.999466 
L 78.529889 233.889043 
L 77.992885 233.64553 
L 77.876446 233.709226 
L 77.476501 233.273555 
L 77.279773 233.031792 
L 76.682187 232.760599 
L 76.189444 232.399275 
L 75.532108 232.711796 
L 75.082185 233.109581 
L 74.543945 233.404301 
L 74.275848 233.535818 
L 74.0039 233.216207 
L 74.178042 233.062706 
L 73.976062 232.493471 
L 73.200584 231.984905 
L 72.89437 231.871664 
L 72.640142 231.965354 
L 72.631546 231.817134 
L 72.495622 231.453318 
L 72.282836 231.428664 
L 72.199891 231.24867 
L 71.968654 231.139848 
L 71.844389 230.507035 
L 71.546772 230.172916 
L 71.504093 229.746709 
L 71.081684 228.861986 
L 71.16619 228.674723 
L 71.324416 228.726256 
L 71.446269 228.621469 
L 71.750374 228.701602 
L 71.847349 228.568512 
L 72.09661 228.520006 
L 72.194356 228.352383 
L 72.075706 228.018442 
L 72.174405 227.940475 
L 72.135112 227.198425 
L 72.317161 226.929427 
L 72.098049 226.553447 
L 72.146669 226.141777 
L 71.953813 225.969111 
L 72.050971 225.708153 
L 72.030027 225.391716 
L 71.862129 225.222758 
L 71.577732 225.315114 
L 71.351078 225.259695 
L 71.272512 224.876921 
L 71.027002 224.744217 
L 70.771375 224.631153 
L 70.627787 224.360731 
L 70.935075 223.949565 
L 70.829645 223.701988 
L 70.050801 223.798408 
L 69.962098 223.629865 
L 69.502119 223.253767 
L 69.725773 222.708918 
L 69.436611 222.745944 
L 69.220945 222.360085 
L 69.148036 222.114643 
L 69.188647 221.773375 
L 69.08636 221.614978 
L 68.942428 221.448542 
L 68.54597 221.030938 
L 68.293181 220.862247 
L 68.281767 220.71646 
L 68.071454 220.45298 
L 67.906476 220.026832 
L 67.14592 219.309139 
L 67.166783 219.06708 
L 67.429264 218.962263 
L 67.26094 218.66342 
L 66.943839 218.397122 
L 66.926626 218.271331 
L 66.732513 218.114002 
L 66.514739 217.663586 
L 66.42336 217.656318 
L 66.218866 217.374444 
L 66.184784 216.898869 
L 66.304589 216.670784 
L 66.414135 216.582997 
L 66.367685 216.532205 
L 66.305521 215.975311 
L 66.324012 215.552783 
L 65.749844 215.084981 
L 65.460946 215.028672 
L 65.527874 214.693011 
L 65.791631 214.475872 
L 65.684174 214.358625 
L 65.461128 214.278997 
L 65.443793 214.202246 
L 65.49371 213.900317 
L 65.294265 213.65182 
L 65.489372 213.410799 
L 65.457317 213.176572 
L 65.787961 212.894876 
L 65.689182 212.336825 
L 65.525826 211.918599 
L 65.664122 211.701609 
L 65.33735 211.66488 
L 64.897747 211.638327 
L 64.779381 211.726114 
L 64.491172 211.677667 
L 64.270094 211.70054 
L 64.609619 210.455769 
L 64.539934 210.356857 
L 65.041193 209.893298 
L 64.751605 209.176228 
L 63.726501 208.639923 
L 63.232318 208.830925 
L 62.8565 208.61435 
L 62.918278 208.449427 
L 62.89922 208.232674 
L 63.043456 208.045767 
L 62.657643 207.672576 
L 62.545137 207.622408 
L 62.529687 207.445944 
L 62.322234 207.02742 
L 62.22467 206.703389 
L 62.232821 206.547722 
L 62.154863 206.50503 
L 61.633573 206.675946 
L 61.544951 206.595576 
L 61.512916 206.292935 
L 61.325555 206.309519 
L 61.152852 206.202508 
L 61.047524 206.360489 
L 60.984266 206.473048 
L 60.531586 206.598454 
L 60.628946 206.86137 
L 60.346232 207.114495 
L 60.642368 207.617216 
L 60.533593 207.9106 
L 60.219594 207.933949 
L 59.869201 208.376325 
L 59.567104 208.510987 
L 59.235831 209.253453 
L 59.174499 209.599854 
L 59.095446 209.602049 
L 58.882498 209.755907 
L 58.46163 209.803731 
L 58.241382 210.174489 
L 58.305005 210.37356 
L 58.166446 210.619417 
L 57.874019 210.59767 
L 57.793568 210.752329 
L 57.265181 210.79327 
L 56.994814 211.234311 
L 56.758529 211.247632 
L 56.300091 210.944843 
L 55.882892 210.954218 
L 55.862171 211.444389 
L 55.908033 211.58003 
L 55.243297 212.910452 
L 54.937875 212.925345 
L 54.650801 213.223833 
L 54.545675 213.212945 
L 54.228513 213.508347 
L 53.911919 213.480607 
L 53.310218 212.492611 
L 52.965684 212.240435 
L 52.211434 211.793045 
L 52.190328 211.437892 
L 52.057547 211.399294 
L 52.000391 211.216184 
L 51.5144 210.977477 
L 51.673254 210.466865 
L 51.477499 210.51828 
L 51.35151 210.378366 
L 50.821643 210.667983 
L 50.451381 210.296127 
L 50.230019 210.211277 
L 50.135213 210.349084 
L 49.466138 210.60126 
L 49.454885 210.456155 
L 49.596182 210.353861 
L 49.816733 209.356133 
L 50.013401 209.15104 
L 49.876666 208.84297 
L 49.67572 208.756755 
L 49.552732 208.152719 
L 49.978305 207.97937 
L 49.945196 207.904934 
L 49.981954 207.846399 
L 50.197173 207.791128 
L 50.338125 207.879153 
L 50.653726 207.51234 
L 50.792184 207.305912 
L 50.753215 207.051244 
L 50.758608 206.900917 
L 50.476847 206.827489 
L 50.852259 206.396802 
L 50.88109 206.262051 
L 50.697925 205.732659 
L 50.366632 205.593577 
L 50.242305 205.559993 
L 50.060236 205.21997 
L 49.812556 205.096285 
L 49.880255 204.624152 
L 49.435137 204.204887 
L 49.65504 203.812382 
L 49.88877 203.699022 
L 49.942925 203.43572 
L 50.170735 203.016248 
L 50.153825 202.852392 
L 50.549897 202.539753 
L 50.430356 202.376254 
L 50.587183 202.067413 
L 50.709725 202.048247 
L 50.803092 201.909135 
L 51.350902 201.995913 
L 51.492746 201.866858 
L 51.562269 201.777351 
L 51.721975 201.75774 
L 52.045544 201.555614 
L 52.614481 201.882998 
L 52.730717 201.280653 
L 52.89016 201.299878 
L 53.035005 200.676142 
L 52.937745 200.65487 
L 52.908691 200.403762 
L 52.72719 200.343329 
L 52.482491 199.89941 
L 52.508848 199.789639 
L 52.171229 199.322134 
L 52.759042 198.727206 
L 52.781263 198.561067 
L 52.571883 198.136046 
L 51.507222 197.553193 
L 51.188378 197.69008 
L 51.030415 197.37133 
L 51.088219 197.234798 
L 51.328721 197.059699 
L 51.070762 196.588812 
L 50.838796 196.652183 
L 50.66658 196.460618 
L 50.715727 196.238703 
L 50.83318 196.223038 
L 50.917564 195.919566 
L 51.311873 195.683767 
L 51.452034 195.527922 
L 51.347942 195.426251 
L 51.343279 195.200835 
L 51.552942 195.148204 
L 51.584085 194.578286 
L 51.300661 194.123835 
L 51.01677 194.127455 
L 50.876872 193.988313 
L 50.681462 193.96713 
L 50.357021 193.767703 
L 50.349195 193.43133 
L 50.228012 193.165477 
L 50.491404 192.911491 
L 50.481469 192.504805 
L 50.630977 192.595143 
L 51.001564 192.505428 
L 51.270268 192.714675 
L 51.640307 192.430309 
L 51.916271 192.457544 
L 51.87862 192.320242 
L 51.932227 191.455485 
L 51.759383 191.105406 
L 51.884966 190.960063 
L 51.754091 190.32093 
L 51.426102 190.102219 
L 51.495747 189.996038 
L 51.376367 189.586653 
L 51.493942 189.373697 
L 51.72232 189.441102 
L 52.146554 189.214114 
L 52.294399 188.93945 
L 52.157827 188.538935 
L 52.168735 188.36612 
L 52.365585 187.68655 
L 52.52592 187.52406 
L 52.515519 186.47827 
L 52.355103 185.996703 
L 52.942105 185.338968 
L 53.117524 185.27539 
L 53.239417 184.572531 
L 53.450622 184.511267 
L 53.292842 184.342339 
L 53.126506 184.217645 
L 53.227252 183.823716 
L 53.152133 183.646659 
L 52.90048 183.449694 
L 52.796591 183.303848 
L 52.811858 182.580547 
L 53.134677 182.495104 
L 53.305047 182.593571 
L 53.97317 182.098802 
L 53.869625 181.864011 
L 53.848134 181.64711 
L 53.921286 181.21755 
L 53.866787 181.118578 
L 53.97319 181.007206 
L 54.146338 180.291233 
L 53.941622 179.976428 
L 54.224276 179.694347 
L 54.230561 179.55384 
L 54.38088 179.355778 
L 54.340776 179.028098 
L 54.426073 178.543563 
L 54.166107 177.870906 
L 53.763141 177.793236 
L 53.657224 177.568324 
L 53.57507 177.646321 
L 53.255151 177.687203 
L 53.140212 177.825841 
L 52.921323 177.752888 
L 52.732035 177.913984 
L 52.616042 177.832189 
L 52.564564 177.992959 
L 52.311532 177.879183 
L 51.704478 178.365764 
L 51.74296 178.445808 
L 51.455156 178.735366 
L 50.831092 178.567268 
L 50.761325 178.451949 
L 50.579317 178.515824 
L 50.299217 178.474675 
L 49.934774 178.195679 
L 49.829121 178.353274 
L 49.35201 178.394246 
L 49.102587 178.688906 
L 48.760446 178.602009 
L 48.638999 178.613757 
L 48.42532 178.38137 
L 48.51082 178.175386 
L 47.946405 177.732209 
L 48.083301 177.54815 
L 47.89225 177.515694 
L 47.939268 177.44458 
L 47.914958 177.32048 
L 48.277881 176.981051 
L 48.249719 176.348385 
L 47.850402 176.034678 
L 47.773641 175.753339 
L 47.098261 175.558154 
L 46.958464 175.630544 
L 46.756221 175.511961 
L 46.387439 176.295132 
L 45.921317 176.35779 
L 45.744783 176.754923 
L 45.364464 176.795953 
L 45.337904 176.570745 
L 45.067902 176.509333 
L 44.972954 176.228705 
L 45.063522 176.133561 
L 45.122908 175.791847 
L 45.309296 175.672434 
L 45.392687 175.191905 
L 45.112527 174.673075 
L 45.032035 174.674885 
L 44.953652 174.256273 
L 44.912088 174.364916 
L 44.725599 174.462286 
L 44.530168 174.268348 
L 44.110131 174.260723 
L 43.957156 173.96811 
L 43.683626 173.773222 
L 43.471468 173.576169 
L 43.366545 173.314232 
L 42.937384 173.462096 
L 42.770257 173.696916 
L 42.704181 173.082081 
L 42.545529 173.081903 
L 42.252393 172.941782 
L 42.091511 172.450721 
L 42.186317 172.316653 
L 42.091166 172.12046 
L 41.694222 171.964941 
L 41.869418 171.70164 
L 42.035653 171.460915 
L 42.077987 170.485112 
L 42.230151 170.401627 
L 42.16294 170.224273 
L 41.822563 170.064245 
L 41.44411 169.888167 
L 41.480686 169.780888 
L 40.619383 168.645354 
L 40.065369 168.533388 
L 40.009471 168.650605 
L 39.656017 168.700684 
L 39.61794 168.537096 
L 39.632599 168.373716 
L 39.271075 167.953768 
L 39.324561 167.806824 
L 39.237784 167.366495 
L 39.111106 167.044688 
L 39.027289 166.973901 
L 38.985583 166.678825 
L 38.853654 166.59175 
L 38.872651 166.455427 
L 38.458109 166.278073 
L 37.814438 165.437733 
L 37.659638 164.747542 
L 37.60372 164.794209 
L 37.398658 164.782668 
L 37.127318 164.556659 
L 37.139625 164.481837 
L 36.336167 163.598954 
L 36.146332 163.391368 
L 35.685563 163.322628 
L 35.336772 162.429064 
L 34.551014 162.224268 
L 34.58096 161.912726 
L 34.665547 161.27659 
L 34.587367 161.121516 
L 34.242003 160.904941 
L 34.068631 160.551301 
L 34.161551 160.196475 
L 34.076113 160.203239 
L 33.742771 160.01295 
L 33.362047 160.108688 
L 32.695101 159.93881 
L 32.300326 159.968478 
L 32.008731 159.496493 
L 31.364817 159.433538 
L 31.200752 159.282915 
L 30.867309 159.461901 
L 30.693472 159.223431 
L 30.437439 159.186821 
L 29.929692 158.933814 
L 29.941979 158.643752 
L 29.678951 158.181884 
L 29.720332 158.049269 
L 29.484372 157.894878 
L 29.478492 157.437312 
L 29.355179 157.311491 
L 29.20703 157.361452 
L 28.919571 157.109453 
L 28.933581 156.911658 
L 28.565772 156.783642 
L 28.441385 156.612459 
L 28.130529 156.4632 
L 27.600053 156.616879 
L 27.498638 156.465811 
L 27.467394 156.172189 
L 27.353003 156.116532 
L 27.195567 155.859105 
L 27.102708 155.91129 
L 26.907622 155.891621 
L 26.954619 155.665938 
L 26.109881 155.352824 
L 26.030302 155.319329 
L 26.024665 155.182205 
L 25.250323 155.236675 
L 25.490885 154.697315 
L 25.760097 154.630888 
L 26.126405 154.375775 
L 26.579552 154.324124 
L 26.630949 154.247432 
L 27.538215 154.258588 
L 27.718074 154.080818 
L 27.882342 153.582756 
L 27.882342 153.582756 
" clip-path="url(#p27809f8a85)" style="fill: none; stroke: #000000; stroke-width: 1.5"/>
   </g>
  </g>
  <g id="axes_2">
   <g id="patch_2">
    <path d="M 291.78 343.639219 
L 308.412 343.639219 
L 308.412 10.999219 
L 291.78 10.999219 
z
" style="fill: #ffffff"/>
   </g>
   <g id="QuadMesh_1">
    <path d="M 291.78 343.639219 
L 308.412 343.639219 
L 308.412 310.375219 
L 291.78 310.375219 
L 291.78 343.639219 
" clip-path="url(#p2d20de0490)" style="fill: #1f77b4"/>
    <path d="M 291.78 310.375219 
L 308.412 310.375219 
L 308.412 277.111219 
L 291.78 277.111219 
L 291.78 310.375219 
" clip-path="url(#p2d20de0490)" style="fill: #ff7f0e"/>
    <path d="M 291.78 277.111219 
L 308.412 277.111219 
L 308.412 243.847219 
L 291.78 243.847219 
L 291.78 277.111219 
" clip-path="url(#p2d20de0490)" style="fill: #2ca02c"/>
    <path d="M 291.78 243.847219 
L 308.412 243.847219 
L 308.412 210.583219 
L 291.78 210.583219 
L 291.78 243.847219 
" clip-path="url(#p2d20de0490)" style="fill: #d62728"/>
    <path d="M 291.78 210.583219 
L 308.412 210.583219 
L 308.412 177.319219 
L 291.78 177.319219 
L 291.78 210.583219 
" clip-path="url(#p2d20de0490)" style="fill: #9467bd"/>
    <path d="M 291.78 177.319219 
L 308.412 177.319219 
L 308.412 144.055219 
L 291.78 144.055219 
L 291.78 177.319219 
" clip-path="url(#p2d20de0490)" style="fill: #8c564b"/>
    <path d="M 291.78 144.055219 
L 308.412 144.055219 
L 308.412 110.791219 
L 291.78 110.791219 
L 291.78 144.055219 
" clip-path="url(#p2d20de0490)" style="fill: #e377c2"/>
    <path d="M 291.78 110.791219 
L 308.412 110.791219 
L 308.412 77.527219 
L 291.78 77.527219 
L 291.78 110.791219 
" clip-path="url(#p2d20de0490)" style="fill: #7f7f7f"/>
    <path d="M 291.78 77.527219 
L 308.412 77.527219 
L 308.412 44.263219 
L 291.78 44.263219 
L 291.78 77.527219 
" clip-path="url(#p2d20de0490)" style="fill: #bcbd22"/>
    <path d="M 291.78 44.263219 
L 308.412 44.263219 
L 308.412 10.999219 
L 291.78 10.999219 
L 291.78 44.263219 
" clip-path="url(#p2d20de0490)" style="fill: #17becf"/>
   </g>
   <g id="matplotlib.axis_1"/>
   <g id="matplotlib.axis_2">
    <g id="ytick_1">
     <g id="line2d_1">
      <defs>
       <path id="maa220dc231" d="M 0 0 
L 3.5 0 
" style="stroke: #000000; stroke-width: 0.8"/>
      </defs>
      <g>
       <use xlink:href="#maa220dc231" x="308.412" y="343.639219" style="stroke: #000000; stroke-width: 0.8"/>
      </g>
     </g>
     <g id="text_1">
      <!-- −1.0 -->
      <g transform="translate(315.412 347.438437) scale(0.1 -0.1)">
       <defs>
        <path id="DejaVuSans-2212" d="M 678 2272 
L 4684 2272 
L 4684 1741 
L 678 1741 
L 678 2272 
z
" transform="scale(0.015625)"/>
        <path id="DejaVuSans-31" d="M 794 531 
L 1825 531 
L 1825 4091 
L 703 3866 
L 703 4441 
L 1819 4666 
L 2450 4666 
L 2450 531 
L 3481 531 
L 3481 0 
L 794 0 
L 794 531 
z
" transform="scale(0.015625)"/>
        <path id="DejaVuSans-2e" d="M 684 794 
L 1344 794 
L 1344 0 
L 684 0 
L 684 794 
z
" transform="scale(0.015625)"/>
        <path id="DejaVuSans-30" d="M 2034 4250 
Q 1547 4250 1301 3770 
Q 1056 3291 1056 2328 
Q 1056 1369 1301 889 
Q 1547 409 2034 409 
Q 2525 409 2770 889 
Q 3016 1369 3016 2328 
Q 3016 3291 2770 3770 
Q 2525 4250 2034 4250 
z
M 2034 4750 
Q 2819 4750 3233 4129 
Q 3647 3509 3647 2328 
Q 3647 1150 3233 529 
Q 2819 -91 2034 -91 
Q 1250 -91 836 529 
Q 422 1150 422 2328 
Q 422 3509 836 4129 
Q 1250 4750 2034 4750 
z
" transform="scale(0.015625)"/>
       </defs>
       <use xlink:href="#DejaVuSans-2212"/>
       <use xlink:href="#DejaVuSans-31" transform="translate(83.789062 0)"/>
       <use xlink:href="#DejaVuSans-2e" transform="translate(147.412109 0)"/>
       <use xlink:href="#DejaVuSans-30" transform="translate(179.199219 0)"/>
      </g>
     </g>
    </g>
    <g id="ytick_2">
     <g id="line2d_2">
      <g>
       <use xlink:href="#maa220dc231" x="308.412" y="288.199219" style="stroke: #000000; stroke-width: 0.8"/>
      </g>
     </g>
     <g id="text_2">
      <!-- −0.5 -->
      <g transform="translate(315.412 291.998437) scale(0.1 -0.1)">
       <defs>
        <path id="DejaVuSans-35" d="M 691 4666 
L 3169 4666 
L 3169 4134 
L 1269 4134 
L 1269 2991 
Q 1406 3038 1543 3061 
Q 1681 3084 1819 3084 
Q 2600 3084 3056 2656 
Q 3513 2228 3513 1497 
Q 3513 744 3044 326 
Q 2575 -91 1722 -91 
Q 1428 -91 1123 -41 
Q 819 9 494 109 
L 494 744 
Q 775 591 1075 516 
Q 1375 441 1709 441 
Q 2250 441 2565 725 
Q 2881 1009 2881 1497 
Q 2881 1984 2565 2268 
Q 2250 2553 1709 2553 
Q 1456 2553 1204 2497 
Q 953 2441 691 2322 
L 691 4666 
z
" transform="scale(0.015625)"/>
       </defs>
       <use xlink:href="#DejaVuSans-2212"/>
       <use xlink:href="#DejaVuSans-30" transform="translate(83.789062 0)"/>
       <use xlink:href="#DejaVuSans-2e" transform="translate(147.412109 0)"/>
       <use xlink:href="#DejaVuSans-35" transform="translate(179.199219 0)"/>
      </g>
     </g>
    </g>
    <g id="ytick_3">
     <g id="line2d_3">
      <g>
       <use xlink:href="#maa220dc231" x="308.412" y="232.759219" style="stroke: #000000; stroke-width: 0.8"/>
      </g>
     </g>
     <g id="text_3">
      <!-- 0.0 -->
      <g transform="translate(315.412 236.558437) scale(0.1 -0.1)">
       <use xlink:href="#DejaVuSans-30"/>
       <use xlink:href="#DejaVuSans-2e" transform="translate(63.623047 0)"/>
       <use xlink:href="#DejaVuSans-30" transform="translate(95.410156 0)"/>
      </g>
     </g>
    </g>
    <g id="ytick_4">
     <g id="line2d_4">
      <g>
       <use xlink:href="#maa220dc231" x="308.412" y="177.319219" style="stroke: #000000; stroke-width: 0.8"/>
      </g>
     </g>
     <g id="text_4">
      <!-- 0.5 -->
      <g transform="translate(315.412 181.118437) scale(0.1 -0.1)">
       <use xlink:href="#DejaVuSans-30"/>
       <use xlink:href="#DejaVuSans-2e" transform="translate(63.623047 0)"/>
       <use xlink:href="#DejaVuSans-35" transform="translate(95.410156 0)"/>
      </g>
     </g>
    </g>
    <g id="ytick_5">
     <g id="line2d_5">
      <g>
       <use xlink:href="#maa220dc231" x="308.412" y="121.879219" style="stroke: #000000; stroke-width: 0.8"/>
      </g>
     </g>
     <g id="text_5">
      <!-- 1.0 -->
      <g transform="translate(315.412 125.678437) scale(0.1 -0.1)">
       <use xlink:href="#DejaVuSans-31"/>
       <use xlink:href="#DejaVuSans-2e" transform="translate(63.623047 0)"/>
       <use xlink:href="#DejaVuSans-30" transform="translate(95.410156 0)"/>
      </g>
     </g>
    </g>
    <g id="ytick_6">
     <g id="line2d_6">
      <g>
       <use xlink:href="#maa220dc231" x="308.412" y="66.439219" style="stroke: #000000; stroke-width: 0.8"/>
      </g>
     </g>
     <g id="text_6">
      <!-- 1.5 -->
      <g transform="translate(315.412 70.238437) scale(0.1 -0.1)">
       <use xlink:href="#DejaVuSans-31"/>
       <use xlink:href="#DejaVuSans-2e" transform="translate(63.623047 0)"/>
       <use xlink:href="#DejaVuSans-35" transform="translate(95.410156 0)"/>
      </g>
     </g>
    </g>
    <g id="ytick_7">
     <g id="line2d_7">
      <g>
       <use xlink:href="#maa220dc231" x="308.412" y="10.999219" style="stroke: #000000; stroke-width: 0.8"/>
      </g>
     </g>
     <g id="text_7">
      <!-- 2.0 -->
      <g transform="translate(315.412 14.798437) scale(0.1 -0.1)">
       <defs>
        <path id="DejaVuSans-32" d="M 1228 531 
L 3431 531 
L 3431 0 
L 469 0 
L 469 531 
Q 828 903 1448 1529 
Q 2069 2156 2228 2338 
Q 2531 2678 2651 2914 
Q 2772 3150 2772 3378 
Q 2772 3750 2511 3984 
Q 2250 4219 1831 4219 
Q 1534 4219 1204 4116 
Q 875 4013 500 3803 
L 500 4441 
Q 881 4594 1212 4672 
Q 1544 4750 1819 4750 
Q 2544 4750 2975 4387 
Q 3406 4025 3406 3419 
Q 3406 3131 3298 2873 
Q 3191 2616 2906 2266 
Q 2828 2175 2409 1742 
Q 1991 1309 1228 531 
z
" transform="scale(0.015625)"/>
       </defs>
       <use xlink:href="#DejaVuSans-32"/>
       <use xlink:href="#DejaVuSans-2e" transform="translate(63.623047 0)"/>
       <use xlink:href="#DejaVuSans-30" transform="translate(95.410156 0)"/>
      </g>
     </g>
    </g>
   </g>
   <g id="LineCollection_2"/>
   <g id="patch_3">
    <path d="M 291.78 343.639219 
L 300.096 343.639219 
L 308.412 343.639219 
L 308.412 10.999219 
L 300.096 10.999219 
L 291.78 10.999219 
L 291.78 343.639219 
z
" style="fill: none; stroke: #000000; stroke-width: 0.8; stroke-linejoin: miter; stroke-linecap: square"/>
   </g>
  </g>
 </g>
 <defs>
  <clipPath id="p27809f8a85">
   <rect x="7.2" y="101.555957" width="267.84" height="151.526524"/>
  </clipPath>
  <clipPath id="p2d20de0490">
   <rect x="291.78" y="10.999219" width="16.632" height="332.64"/>
  </clipPath>
 </defs>
</svg>
